<?xml version="1.0" encoding="utf-8"?>
<!-- Generator: Adobe Illustrator 23.0.0, SVG Export Plug-In . SVG Version: 6.00 Build 0)  -->
<svg version="1.1" id="레이어_1" xmlns="http://www.w3.org/2000/svg" xmlns:xlink="http://www.w3.org/1999/xlink" x="0px"
	 y="0px" viewBox="0 0 300 150" style="enable-background:new 0 0 300 150;" xml:space="preserve">
<style type="text/css">
	.logo.st0{fill:#1bf9ef;}
	.logo.st1{fill:#000;}
 
	#logoSimbolo.active .logo.st0 { fill:#fff }
	#logo.active .logo.st0 { fill:#fff }
	#logo.active .logo.st1 { fill:#E00909 }
</style>
<g id="logoSimbolo">
	<path class="logo st0" d="M143.71,77.88h18.02v2.06h-15.49v4.32h30.26c0,2.59,0,2.19,0,2.19h-30.26v6.65c0,3.12,1.66,3.39,1.66,3.39
		h39.29v-3.59h-0.47h-29.32v-2.26h29.79V79.95h-14.36v-2.13h17.55v-3.66h-46.67V77.88z"/>
	<path class="logo st0" d="M166.92,72.15c12.19,0,22.07-4.25,22.07-9.49c0-5.24-9.88-9.49-22.07-9.49c-12.19,0-22.07,4.25-22.07,9.49
		C144.85,67.9,154.73,72.15,166.92,72.15z M166.92,56.93c6.62,0,11.98,2.56,11.98,5.73c0,3.16-5.36,5.73-11.98,5.73
		c-6.62,0-11.98-2.56-11.98-5.73C154.93,59.5,160.3,56.93,166.92,56.93z"/>
	<polygon class="logo st0" points="129.35,69.91 121.31,69.91 121.31,74.16 129.28,74.16 129.28,96.5 139.79,96.5 139.79,79.61 
		139.79,53.95 129.35,53.95 	"/>
	<path class="logo st0" d="M117.18,78.97c-3.13-6.47-3.43-24-3.43-24h-10.39c0.07,18.26-3.19,23.91-3.19,23.91
		c-2.39,8.11-10.17,13.3-10.17,13.3l3.39,3.06c11.17-7.51,15.36-15.56,15.36-15.56c5.25,9.71,16.07,15.56,16.07,15.56l2.97-2.84
		C121.37,88.72,117.18,78.97,117.18,78.97z"/>
	<path class="logo st0" d="M262.7,79.9c12.01,0,21.75-5.81,21.75-12.99c0-7.17-9.74-12.99-21.75-12.99c-12.01,0-21.75,5.82-21.75,12.99
		C240.95,74.33,250.28,79.9,262.7,79.9z M262.97,58.16c6.5,0,11.77,3.92,11.77,8.76c0,4.84-5.27,8.76-11.77,8.76
		c-6.5,0-11.77-3.92-11.77-8.76C251.2,62.08,256.47,58.16,262.97,58.16z"/>
	<path class="logo st0" d="M214.83,79.9c12.01,0,21.75-5.81,21.75-12.99c0-7.17-9.74-12.99-21.75-12.99c-12.01,0-21.75,5.82-21.75,12.99
		C193.08,74.33,202.41,79.9,214.83,79.9z M215.1,58.16c6.5,0,11.77,3.92,11.77,8.76c0,4.84-5.27,8.76-11.77,8.76
		c-6.5,0-11.77-3.92-11.77-8.76C203.33,62.08,208.6,58.16,215.1,58.16z"/>
	<polygon class="logo st0" points="192.05,86.86 209.58,86.86 209.58,96.5 220.75,96.5 220.75,86.86 237.24,86.86 237.24,82.61 
		192.05,82.61 	"/>
	<polygon class="logo st0" points="240.39,86.86 245.86,86.86 245.86,96.5 256.85,96.5 256.85,86.86 269.06,86.86 269.06,96.5 
		279.97,96.5 279.9,86.86 285.57,86.86 285.57,82.61 240.39,82.61 	"/>
</g>
<g id="logo">
	<path class="logo st0" d="M59.16,45.88c1.26,2.13,2,4.6,2.01,7.25c0.05,8-6.39,14.54-14.4,14.59c-8,0.05-14.54-6.39-14.59-14.4
		c-0.02-2.66,0.69-5.15,1.93-7.3c-11.6,4.96-19.69,16.51-19.6,29.91c0.12,17.83,14.67,32.19,32.5,32.07
		c17.83-0.12,32.19-14.67,32.06-32.5C78.99,62.12,70.78,50.7,59.16,45.88z"/>
	<path class="logo st0" d="M46.64,52.68c0,3.33-2.82,6.02-6.14,6.02c-3.32,0-6.02-2.7-6.02-6.02l0-0.01c0-6.72,5.45-12.17,12.16-12.17
		c6.72,0,12.16,5.45,12.16,12.17h0c0-3.33-2.7-6.02-6.02-6.02c-3.33,0-6.14,2.7-6.14,6.02V52.68z"/>
	<g class="logo st1">
		<g>
			<polygon points="29.53,77.41 27.14,77.41 27.14,78.75 29.53,78.75 29.53,85.69 32.77,85.69 32.77,72.66 29.53,72.66 
							"/>
			<path d="M25.03,76.94l0-3.83l-3.25,0.01l0,3.74c-0.05,0.76-0.47,4.85-3.64,7.32l1,1c0,0,3.44-2.36,4.36-4.75v0.06
				c0.82,2.7,4.61,4.5,4.61,4.5l0.94-1.05C25.65,82.03,25.11,77.97,25.03,76.94z"/>
		</g>
		<g>
			<path d="M33.81,79.92h5.06v0.67H34.7v1.31h8.45v0.51H34.7c0,0,0.01,2.43,0.01,2.44c0,0.45,0.36,0.76,0.8,0.76
				c0.06,0,11.04,0,11.04,0v-1.24h-8.52l0-0.8h8.49l0-1.17v-1.82h-4.32v-0.67h5.03v-1.27H33.81V79.92z"/>
			<path  d="M40.51,78.09c3.53-0.02,6.39-1.34,6.38-2.93c-0.01-1.6-2.88-2.87-6.42-2.85c-3.53,0.02-6.39,1.34-6.38,2.93
				C34.11,76.84,36.98,78.11,40.51,78.09z M40.48,73.48c1.83-0.01,3.31,0.75,3.32,1.7c0.01,0.95-1.47,1.74-3.3,1.75
				c-1.83,0.01-3.31-0.75-3.32-1.7C37.18,74.27,38.65,73.49,40.48,73.48z"/>
		</g>
		<g>
			<polygon points="47.86,82.56 52.75,82.56 52.75,85.62 56.1,85.62 56.1,82.56 60.91,82.56 60.91,81.33 47.86,81.33 
							"/>
			<path  d="M54.37,80.25c3.49-0.02,6.31-1.74,6.3-3.83c-0.01-2.09-2.86-3.77-6.35-3.75c-3.49,0.02-6.31,1.74-6.3,3.83
				C48.04,78.6,50.88,80.28,54.37,80.25z M54.32,73.77c1.83-0.01,3.32,1.17,3.33,2.64c0.01,1.47-1.46,2.67-3.29,2.69
				c-1.83,0.01-3.32-1.17-3.33-2.64C51.02,74.98,52.49,73.78,54.32,73.77z"/>
		</g>
		<g>
			<polygon  points="74.88,81.33 61.79,81.33 61.79,82.6 63.4,82.6 63.4,85.62 66.75,85.62 66.75,82.6 70.07,82.6 
				70.07,85.62 73.42,85.62 73.42,82.6 74.88,82.6 			"/>
			<path  d="M68.34,80.31c3.49-0.03,6.31-1.74,6.3-3.83c-0.01-2.09-2.86-3.77-6.35-3.75c-3.49,0.02-6.31,1.74-6.3,3.83
				C62,78.66,64.84,80.33,68.34,80.31z M68.28,73.82c1.83-0.01,3.32,1.17,3.33,2.64c0.01,1.47-1.46,2.67-3.29,2.69
				c-1.83,0.01-3.32-1.17-3.33-2.64C64.98,75.04,66.46,73.84,68.28,73.82z"/>
		</g>
	</g>
</g>
</svg>
