<svg xmlns="http://www.w3.org/2000/svg" viewBox="0 0 12200 250" width="12200" height="250"><g fill="#00000000" stroke="#ffffff" stroke-width="4" stroke-miterlimit="1"><path d="M160.158 47.466s-2.268-11.067-4.536-22.866-12.702-8.61-12.702-8.61-88.449 3.174-99.789 5.442c-11.34 2.268-8.163 10.434-8.163 10.434l2.268 22.401m122.922-6.981L37.236 54.732m0-.465L15.915 83.574l44.454 20.412v138.798l126.096-10.434V94.461M15.915 83.574v123.375l44.454 35.835" stroke-dasharray="0,178.69114307604386" stroke-dashoffset="178.691143" stroke-width="1.2"/><path d="M60.369 138.459s1.041 32.4 34.5 47.007c0 0 31.047 10.275 32.022 24l.777 27.636" stroke-dasharray="0,130.6307201872824" stroke-dashoffset="130.63072" stroke-width="1.2"/><path d="M186.279 138.459s-1.044 32.4-34.5 47.007c0 0-24.171 10.854-25.293 21.696" stroke-dasharray="0,95.65999379537688" stroke-dashoffset="95.659994" stroke-width="1.2"/><path d="M160.158 47.286l26.121 46.878-125.913 9.51-23.13-48.678" stroke-dasharray="0,233.82972023851917" stroke-dashoffset="233.82972" stroke-width="1.2"/></g><g fill="#00000000" stroke="#ffffff" stroke-width="4" stroke-miterlimit="1"><path d="M360.158 47.466s-2.268-11.067-4.536-22.866-12.702-8.61-12.702-8.61-88.449 3.174-99.789 5.442c-11.34 2.268-8.163 10.434-8.163 10.434l2.268 22.401m122.922-6.981l-122.922 7.446m0-.465l-21.321 29.307 44.454 20.412v138.798l126.096-10.434V94.461m-170.55-10.887v123.375l44.454 35.835" stroke-dasharray="0.1068753518109616,178.5842677242329" stroke-dashoffset="178.691143" stroke-width="1.2"/><path d="M260.369 138.459s1.041 32.4 34.5 47.007c0 0 31.047 10.275 32.022 24l.777 27.636" stroke-dasharray="0.07813036470080532,130.5525898225816" stroke-dashoffset="130.63072" stroke-width="1.2"/><path d="M386.279 138.459s-1.044 32.4-34.5 47.007c0 0-24.171 10.854-25.293 21.696" stroke-dasharray="0.057214338187788684,95.60277945718909" stroke-dashoffset="95.659994" stroke-width="1.2"/><path d="M360.158 47.286l26.121 46.878-125.913 9.51-23.13-48.678" stroke-dasharray="0.1398537900880484,233.68986644843113" stroke-dashoffset="233.82972" stroke-width="1.2"/></g><g fill="#00000000" stroke="#fffefe" stroke-width="4" stroke-miterlimit="1"><path d="M560.158 47.466s-2.268-11.067-4.536-22.866-12.702-8.61-12.702-8.61-88.449 3.174-99.789 5.442c-11.34 2.268-8.163 10.434-8.163 10.434l2.268 22.401m122.922-6.981l-122.922 7.446m0-.465l-21.321 29.307 44.454 20.412v138.798l126.096-10.434V94.461m-170.55-10.887v123.375l44.454 35.835" stroke-dasharray="0.4423442734395901,178.24879880260426" stroke-dashoffset="178.691143" stroke-width="1.2"/><path d="M460.369 138.459s1.041 32.4 34.5 47.007c0 0 31.047 10.275 32.022 24l.777 27.636" stroke-dasharray="0.32337221652638576,130.307347970756" stroke-dashoffset="130.63072" stroke-width="1.2"/><path d="M586.279 138.459s-1.044 32.4-34.5 47.007c0 0-24.171 10.854-25.293 21.696" stroke-dasharray="0.23680328931940542,95.42319050605747" stroke-dashoffset="95.659994" stroke-width="1.2"/><path d="M560.158 47.286l26.121 46.878-125.913 9.51-23.13-48.678" stroke-dasharray="0.5788380774052875,233.25088216111388" stroke-dashoffset="233.82972" stroke-width="1.2"/></g><g fill="#00000000" stroke="#fffefe" stroke-width="4" stroke-miterlimit="1"><path d="M760.158 47.466s-2.268-11.067-4.536-22.866-12.702-8.61-12.702-8.61-88.449 3.174-99.789 5.442c-11.34 2.268-8.163 10.434-8.163 10.434l2.268 22.401m122.922-6.981l-122.922 7.446m0-.465l-21.321 29.307 44.454 20.412v138.798l126.096-10.434V94.461m-170.55-10.887v123.375l44.454 35.835" stroke-dasharray="1.0310858200858197,177.66005725595804" stroke-dashoffset="178.691143" stroke-width="1.2"/><path d="M660.369 138.459s1.041 32.4 34.5 47.007c0 0 31.047 10.275 32.022 24l.777 27.636" stroke-dasharray="0.7537669799078177,129.87695320737458" stroke-dashoffset="130.63072" stroke-width="1.2"/><path d="M786.279 138.459s-1.044 32.4-34.5 47.007c0 0-24.171 10.854-25.293 21.696" stroke-dasharray="0.5519784666100437,95.10801532876684" stroke-dashoffset="95.659994" stroke-width="1.2"/><path d="M760.158 47.286l26.121 46.878-125.913 9.51-23.13-48.678" stroke-dasharray="1.3492471126561063,232.48047312586309" stroke-dashoffset="233.82972" stroke-width="1.2"/></g><g fill="#00000000" stroke="#fffcfc" stroke-width="4" stroke-miterlimit="1"><path d="M960.158 47.466s-2.268-11.067-4.536-22.866-12.702-8.61-12.702-8.61-88.449 3.174-99.789 5.442c-11.34 2.268-8.163 10.434-8.163 10.434l2.268 22.401m122.922-6.981l-122.922 7.446m0-.465l-21.321 29.307 44.454 20.412v138.798l126.096-10.434V94.461m-170.55-10.887v123.375l44.454 35.835" stroke-dasharray="1.901408648606867,176.789734427437" stroke-dashoffset="178.691143" stroke-width="1.2"/><path d="M860.369 138.459s1.041 32.4 34.5 47.007c0 0 31.047 10.275 32.022 24l.777 27.636" stroke-dasharray="1.3900094703190786,129.24071071696332" stroke-dashoffset="130.63072" stroke-width="1.2"/><path d="M986.279 138.459s-1.044 32.4-34.5 47.007c0 0-24.171 10.854-25.293 21.696" stroke-dasharray="1.017894543608153,94.64209925176873" stroke-dashoffset="95.659994" stroke-width="1.2"/><path d="M960.158 47.286l26.121 46.878-125.913 9.51-23.13-48.678" stroke-dasharray="2.4881247313619674,231.3415955071572" stroke-dashoffset="233.82972" stroke-width="1.2"/></g><g fill="#00000000" stroke="#fefbfb" stroke-width="4" stroke-miterlimit="1"><path d="M1160.158 47.466s-2.268-11.067-4.536-22.866-12.702-8.61-12.702-8.61-88.449 3.174-99.789 5.442c-11.34 2.268-8.163 10.434-8.163 10.434l2.268 22.401m122.922-6.981l-122.922 7.446m0-.465l-21.321 29.307 44.454 20.412v138.798l126.096-10.434V94.461m-170.55-10.887v123.375l44.454 35.835" stroke-dasharray="3.08580068314845,175.6053423928954" stroke-dashoffset="178.691143" stroke-width="1.2"/><path d="M1060.369 138.459s1.041 32.4 34.5 47.007c0 0 31.047 10.275 32.022 24l.777 27.636" stroke-dasharray="2.2558497229073438,128.37487046437505" stroke-dashoffset="130.63072" stroke-width="1.2"/><path d="M1186.279 138.459s-1.044 32.4-34.5 47.007c0 0-24.171 10.854-25.293 21.696" stroke-dasharray="1.6519435105864777,94.0080502847904" stroke-dashoffset="95.659994" stroke-width="1.2"/><path d="M1160.158 47.286l26.121 46.878-125.913 9.51-23.13-48.678" stroke-dasharray="4.0379836293585605,229.7917366091606" stroke-dashoffset="233.82972" stroke-width="1.2"/></g><g fill="#00000000" stroke="#fef9f9" stroke-width="4" stroke-miterlimit="1"><path d="M1360.158 47.466s-2.268-11.067-4.536-22.866-12.702-8.61-12.702-8.61-88.449 3.174-99.789 5.442c-11.34 2.268-8.163 10.434-8.163 10.434l2.268 22.401m122.922-6.981l-122.922 7.446m0-.465l-21.321 29.307 44.454 20.412v138.798l126.096-10.434V94.461m-170.55-10.887v123.375l44.454 35.835" stroke-dasharray="4.621491694339332,174.06965138170452" stroke-dashoffset="178.691143" stroke-width="1.2"/><path d="M1260.369 138.459s1.041 32.4 34.5 47.007c0 0 31.047 10.275 32.022 24l.777 27.636" stroke-dasharray="3.3785042614796885,127.25221592580272" stroke-dashoffset="130.63072" stroke-width="1.2"/><path d="M1386.279 138.459s-1.044 32.4-34.5 47.007c0 0-24.171 10.854-25.293 21.696" stroke-dasharray="2.4740558440423066,93.18593795133458" stroke-dashoffset="95.659994" stroke-width="1.2"/><path d="M1360.158 47.286l26.121 46.878-125.913 9.51-23.13-48.678" stroke-dasharray="6.047541536583755,227.78217870193544" stroke-dashoffset="233.82972" stroke-width="1.2"/></g><g fill="#00000000" stroke="#fef6f6" stroke-width="4" stroke-miterlimit="1"><path d="M1560.158 47.466s-2.268-11.067-4.536-22.866-12.702-8.61-12.702-8.61-88.449 3.174-99.789 5.442c-11.34 2.268-8.163 10.434-8.163 10.434l2.268 22.401m122.922-6.981l-122.922 7.446m0-.465l-21.321 29.307 44.454 20.412v138.798l126.096-10.434V94.461m-170.55-10.887v123.375l44.454 35.835" stroke-dasharray="6.550953925377306,172.14018915066654" stroke-dashoffset="178.691143" stroke-width="1.2"/><path d="M1460.369 138.459s1.041 32.4 34.5 47.007c0 0 31.047 10.275 32.022 24l.777 27.636" stroke-dasharray="4.789022077169021,125.84169811011338" stroke-dashoffset="130.63072" stroke-width="1.2"/><path d="M1586.279 138.459s-1.044 32.4-34.5 47.007c0 0-24.171 10.854-25.293 21.696" stroke-dasharray="3.506968510401825,92.15302528497504" stroke-dashoffset="95.659994" stroke-width="1.2"/><path d="M1560.158 47.286l26.121 46.878-125.913 9.51-23.13-48.678" stroke-dasharray="8.572376320937899,225.25734391758127" stroke-dashoffset="233.82972" stroke-width="1.2"/></g><g fill="#00000000" stroke="#fdf3f3" stroke-width="4" stroke-miterlimit="1"><path d="M1760.158 47.466s-2.268-11.067-4.536-22.866-12.702-8.61-12.702-8.61-88.449 3.174-99.789 5.442c-11.34 2.268-8.163 10.434-8.163 10.434l2.268 22.401m122.922-6.981l-122.922 7.446m0-.465l-21.321 29.307 44.454 20.412v138.798l126.096-10.434V94.461m-170.55-10.887v123.375l44.454 35.835" stroke-dasharray="8.922192969916177,169.76895010612768" stroke-dashoffset="178.691143" stroke-width="1.2"/><path d="M1660.369 138.459s1.041 32.4 34.5 47.007c0 0 31.047 10.275 32.022 24l.777 27.636" stroke-dasharray="6.522497272369355,124.10822291491304" stroke-dashoffset="130.63072" stroke-width="1.2"/><path d="M1786.279 138.459s-1.044 32.4-34.5 47.007c0 0-24.171 10.854-25.293 21.696" stroke-dasharray="4.7763806837372025,90.88361311163968" stroke-dashoffset="95.659994" stroke-width="1.2"/><path d="M1760.158 47.286l26.121 46.878-125.913 9.51-23.13-48.678" stroke-dasharray="11.675306622118068,222.1544136164011" stroke-dashoffset="233.82972" stroke-width="1.2"/></g><g fill="#00000000" stroke="#fdefef" stroke-width="4" stroke-miterlimit="1"><path d="M1960.158 47.466s-2.268-11.067-4.536-22.866-12.702-8.61-12.702-8.61-88.449 3.174-99.789 5.442c-11.34 2.268-8.163 10.434-8.163 10.434l2.268 22.401m122.922-6.981l-122.922 7.446m0-.465l-21.321 29.307 44.454 20.412v138.798l126.096-10.434V94.461m-170.55-10.887v123.375l44.454 35.835" stroke-dasharray="11.78855706653086,166.90258600951302" stroke-dashoffset="178.691143" stroke-width="1.2"/><path d="M1860.369 138.459s1.041 32.4 34.5 47.007c0 0 31.047 10.275 32.022 24l.777 27.636" stroke-dasharray="8.617929646991305,122.0127905402911" stroke-dashoffset="130.63072" stroke-width="1.2"/><path d="M1986.279 138.459s-1.044 32.4-34.5 47.007c0 0-24.171 10.854-25.293 21.696" stroke-dasharray="6.310851654023428,89.34914214135345" stroke-dashoffset="95.659994" stroke-width="1.2"/><path d="M1960.158 47.286l26.121 46.878-125.913 9.51-23.13-48.678" stroke-dasharray="15.426142300235137,218.40357793828403" stroke-dashoffset="233.82972" stroke-width="1.2"/></g><g fill="#00000000" stroke="#fceaea" stroke-width="4" stroke-miterlimit="1"><path d="M2160.158 47.466s-2.268-11.067-4.536-22.866-12.702-8.61-12.702-8.61-88.449 3.174-99.789 5.442c-11.34 2.268-8.163 10.434-8.163 10.434l2.268 22.401m122.922-6.981l-122.922 7.446m0-.465l-21.321 29.307 44.454 20.412v138.798l126.096-10.434V94.461m-170.55-10.887v123.375l44.454 35.835" stroke-dasharray="15.207595790133224,163.48354728591062" stroke-dashoffset="178.691143" stroke-width="1.2"/><path d="M2060.369 138.459s1.041 32.4 34.5 47.007c0 0 31.047 10.275 32.022 24l.777 27.636" stroke-dasharray="11.11739035401871,119.5133298332637" stroke-dashoffset="130.63072" stroke-width="1.2"/><path d="M2186.279 138.459s-1.044 32.4-34.5 47.007c0 0-24.171 10.854-25.293 21.696" stroke-dasharray="8.141189842339617,87.51880395303726" stroke-dashoffset="95.659994" stroke-width="1.2"/><path d="M2160.158 47.286l26.121 46.878-125.913 9.51-23.13-48.678" stroke-dasharray="19.90019095459055,213.92952928392862" stroke-dashoffset="233.82972" stroke-width="1.2"/></g><g fill="#00000000" stroke="#fce5e5" stroke-width="4" stroke-miterlimit="1"><path d="M2360.158 47.466s-2.268-11.067-4.536-22.866-12.702-8.61-12.702-8.61-88.449 3.174-99.789 5.442c-11.34 2.268-8.163 10.434-8.163 10.434l2.268 22.401m122.922-6.981l-122.922 7.446m0-.465l-21.321 29.307 44.454 20.412v138.798l126.096-10.434V94.461m-170.55-10.887v123.375l44.454 35.835" stroke-dasharray="19.238219667070425,159.45292340897342" stroke-dashoffset="178.691143" stroke-width="1.2"/><path d="M2260.369 138.459s1.041 32.4 34.5 47.007c0 0 31.047 10.275 32.022 24l.777 27.636" stroke-dasharray="14.06394545901513,116.56677472826728" stroke-dashoffset="130.63072" stroke-width="1.2"/><path d="M2386.279 138.459s-1.044 32.4-34.5 47.007c0 0-24.171 10.854-25.293 21.696" stroke-dasharray="10.298932237524966,85.36106155785191" stroke-dashoffset="95.659994" stroke-width="1.2"/><path d="M2360.158 47.286l26.121 46.878-125.913 9.51-23.13-48.678" stroke-dasharray="25.1745410835717,208.65517915494746" stroke-dashoffset="233.82972" stroke-width="1.2"/></g><g fill="#00000000" stroke="#fbdede" stroke-width="4" stroke-miterlimit="1"><path d="M2560.158 47.466s-2.268-11.067-4.536-22.866-12.702-8.61-12.702-8.61-88.449 3.174-99.789 5.442c-11.34 2.268-8.163 10.434-8.163 10.434l2.268 22.401m122.922-6.981l-122.922 7.446m0-.465l-21.321 29.307 44.454 20.412v138.798l126.096-10.434V94.461m-170.55-10.887v123.375l44.454 35.835" stroke-dasharray="23.935102349699804,154.75604072634405" stroke-dashoffset="178.691143" stroke-width="1.2"/><path d="M2460.369 138.459s1.041 32.4 34.5 47.007c0 0 31.047 10.275 32.022 24l.777 27.636" stroke-dasharray="17.497563694956153,113.13315649232625" stroke-dashoffset="130.63072" stroke-width="1.2"/><path d="M2586.279 138.459s-1.044 32.4-34.5 47.007c0 0-24.171 10.854-25.293 21.696" stroke-dasharray="12.813347672691405,82.84664612268547" stroke-dashoffset="95.659994" stroke-width="1.2"/><path d="M2560.158 47.286l26.121 46.878-125.913 9.51-23.13-48.678" stroke-dasharray="31.32073694289861,202.50898329562054" stroke-dashoffset="233.82972" stroke-width="1.2"/></g><g fill="#00000000" stroke="#fad7d7" stroke-width="4" stroke-miterlimit="1"><path d="M2760.158 47.466s-2.268-11.067-4.536-22.866-12.702-8.61-12.702-8.61-88.449 3.174-99.789 5.442c-11.34 2.268-8.163 10.434-8.163 10.434l2.268 22.401m122.922-6.981l-122.922 7.446m0-.465l-21.321 29.307 44.454 20.412v138.798l126.096-10.434V94.461m-170.55-10.887v123.375l44.454 35.835" stroke-dasharray="29.33914464175581,149.35199843428805" stroke-dashoffset="178.691143" stroke-width="1.2"/><path d="M2660.369 138.459s1.041 32.4 34.5 47.007c0 0 31.047 10.275 32.022 24l.777 27.636" stroke-dasharray="21.448145264818244,109.18257492246416" stroke-dashoffset="130.63072" stroke-width="1.2"/><path d="M2786.279 138.459s-1.044 32.4-34.5 47.007c0 0-24.171 10.854-25.293 21.696" stroke-dasharray="15.706331864459871,79.95366193091701" stroke-dashoffset="95.659994" stroke-width="1.2"/><path d="M2760.158 47.286l26.121 46.878-125.913 9.51-23.13-48.678" stroke-dasharray="38.392300063242146,195.43742017527703" stroke-dashoffset="233.82972" stroke-width="1.2"/></g><g fill="#00000000" stroke="#f9cece" stroke-width="4" stroke-miterlimit="1"><path d="M2960.158 47.466s-2.268-11.067-4.536-22.866-12.702-8.61-12.702-8.61-88.449 3.174-99.789 5.442c-11.34 2.268-8.163 10.434-8.163 10.434l2.268 22.401m122.922-6.981l-122.922 7.446m0-.465l-21.321 29.307 44.454 20.412v138.798l126.096-10.434V94.461m-170.55-10.887v123.375l44.454 35.835" stroke-dasharray="35.46341226723607,143.22773080880776" stroke-dashoffset="178.691143" stroke-width="1.2"/><path d="M2860.369 138.459s1.041 32.4 34.5 47.007c0 0 31.047 10.275 32.022 24l.777 27.636" stroke-dasharray="25.92524176084149,104.7054784264409" stroke-dashoffset="130.63072" stroke-width="1.2"/><path d="M2986.279 138.459s-1.044 32.4-34.5 47.007c0 0-24.171 10.854-25.293 21.696" stroke-dasharray="18.984879379293083,76.67511441608379" stroke-dashoffset="95.659994" stroke-width="1.2"/><path d="M2960.158 47.286l26.121 46.878-125.913 9.51-23.13-48.678" stroke-dasharray="46.406327848169646,187.4233923903495" stroke-dashoffset="233.82972" stroke-width="1.2"/></g><g fill="#00000000" stroke="#f8c5c5" stroke-width="4" stroke-miterlimit="1"><path d="M3160.158 47.466s-2.268-11.067-4.536-22.866-12.702-8.61-12.702-8.61-88.449 3.174-99.789 5.442c-11.34 2.268-8.163 10.434-8.163 10.434l2.268 22.401m122.922-6.981l-122.922 7.446m0-.465l-21.321 29.307 44.454 20.412v138.798l126.096-10.434V94.461m-170.55-10.887v123.375l44.454 35.835" stroke-dasharray="42.276065879331895,136.41507719671196" stroke-dashoffset="178.691143" stroke-width="1.2"/><path d="M3060.369 138.459s1.041 32.4 34.5 47.007c0 0 31.047 10.275 32.022 24l.777 27.636" stroke-dasharray="30.905577285114475,99.72514290216793" stroke-dashoffset="130.63072" stroke-width="1.2"/><path d="M3186.279 138.459s-1.044 32.4-34.5 47.007c0 0-24.171 10.854-25.293 21.696" stroke-dasharray="22.631945434412565,73.02804836096432" stroke-dashoffset="95.659994" stroke-width="1.2"/><path d="M3160.158 47.286l26.121 46.878-125.913 9.51-23.13-48.678" stroke-dasharray="55.32115631015102,178.50856392836815" stroke-dashoffset="233.82972" stroke-width="1.2"/></g><g fill="#00000000" stroke="#f6bbbb" stroke-width="4" stroke-miterlimit="1"><path d="M3360.158 47.466s-2.268-11.067-4.536-22.866-12.702-8.61-12.702-8.61-88.449 3.174-99.789 5.442c-11.34 2.268-8.163 10.434-8.163 10.434l2.268 22.401m122.922-6.981l-122.922 7.446m0-.465l-21.321 29.307 44.454 20.412v138.798l126.096-10.434V94.461m-170.55-10.887v123.375l44.454 35.835" stroke-dasharray="49.68570440732113,129.00543866872275" stroke-dashoffset="178.691143" stroke-width="1.2"/><path d="M3260.369 138.459s1.041 32.4 34.5 47.007c0 0 31.047 10.275 32.022 24l.777 27.636" stroke-dasharray="36.32233382142897,94.30838636585344" stroke-dashoffset="130.63072" stroke-width="1.2"/><path d="M3386.279 138.459s-1.044 32.4-34.5 47.007c0 0-24.171 10.854-25.293 21.696" stroke-dasharray="26.598599648000512,69.06139414737638" stroke-dashoffset="95.659994" stroke-width="1.2"/><path d="M3360.158 47.286l26.121 46.878-125.913 9.51-23.13-48.678" stroke-dasharray="65.01718082621198,168.81253941230722" stroke-dashoffset="233.82972" stroke-width="1.2"/></g><g fill="#00000000" stroke="#f5b0b0" stroke-width="4" stroke-miterlimit="1"><path d="M3560.158 47.466s-2.268-11.067-4.536-22.866-12.702-8.61-12.702-8.61-88.449 3.174-99.789 5.442c-11.34 2.268-8.163 10.434-8.163 10.434l2.268 22.401m122.922-6.981l-122.922 7.446m0-.465l-21.321 29.307 44.454 20.412v138.798l126.096-10.434V94.461m-170.55-10.887v123.375l44.454 35.835" stroke-dasharray="57.53819489858871,121.15294817745514" stroke-dashoffset="178.691143" stroke-width="1.2"/><path d="M3460.369 138.459s1.041 32.4 34.5 47.007c0 0 31.047 10.275 32.022 24l.777 27.636" stroke-dasharray="42.06283371683532,88.56788647044708" stroke-dashoffset="130.63072" stroke-width="1.2"/><path d="M3586.279 138.459s-1.044 32.4-34.5 47.007c0 0-24.171 10.854-25.293 21.696" stroke-dasharray="30.802328936100956,64.85766485927591" stroke-dashoffset="95.659994" stroke-width="1.2"/><path d="M3560.158 47.286l26.121 46.878-125.913 9.51-23.13-48.678" stroke-dasharray="75.29270776694759,158.5370124715716" stroke-dashoffset="233.82972" stroke-width="1.2"/></g><g fill="#00000000" stroke="#f4a5a5" stroke-width="4" stroke-miterlimit="1"><path d="M3760.158 47.466s-2.268-11.067-4.536-22.866-12.702-8.61-12.702-8.61-88.449 3.174-99.789 5.442c-11.34 2.268-8.163 10.434-8.163 10.434l2.268 22.401m122.922-6.981l-122.922 7.446m0-.465l-21.321 29.307 44.454 20.412v138.798l126.096-10.434V94.461m-170.55-10.887v123.375l44.454 35.835" stroke-dasharray="65.63248996054888,113.05865311549498" stroke-dashoffset="178.691143" stroke-width="1.2"/><path d="M3660.369 138.459s1.041 32.4 34.5 47.007c0 0 31.047 10.275 32.022 24l.777 27.636" stroke-dasharray="47.980102895097,82.65061729218542" stroke-dashoffset="130.63072" stroke-width="1.2"/><path d="M3786.279 138.459s-1.044 32.4-34.5 47.007c0 0-24.171 10.854-25.293 21.696" stroke-dasharray="35.135505175706456,60.52448861967042" stroke-dashoffset="95.659994" stroke-width="1.2"/><path d="M3760.158 47.286l26.121 46.878-125.913 9.51-23.13-48.678" stroke-dasharray="85.88465271332203,147.94506752519715" stroke-dashoffset="233.82972" stroke-width="1.2"/></g><g fill="#00000000" stroke="#f29999" stroke-width="4" stroke-miterlimit="1"><path d="M3960.158 47.466s-2.268-11.067-4.536-22.866-12.702-8.61-12.702-8.61-88.449 3.174-99.789 5.442c-11.34 2.268-8.163 10.434-8.163 10.434l2.268 22.401m122.922-6.981l-122.922 7.446m0-.465l-21.321 29.307 44.454 20.412v138.798l126.096-10.434V94.461m-170.55-10.887v123.375l44.454 35.835" stroke-dasharray="73.75325292179706,104.9378901542468" stroke-dashoffset="178.691143" stroke-width="1.2"/><path d="M3860.369 138.459s1.041 32.4 34.5 47.007c0 0 31.047 10.275 32.022 24l.777 27.636" stroke-dasharray="53.916721217845165,76.71399896943724" stroke-dashoffset="130.63072" stroke-width="1.2"/><path d="M3986.279 138.459s-1.044 32.4-34.5 47.007c0 0-24.171 10.854-25.293 21.696" stroke-dasharray="39.48285066308821,56.17714313228867" stroke-dashoffset="95.659994" stroke-width="1.2"/><path d="M3960.158 47.286l26.121 46.878-125.913 9.51-23.13-48.678" stroke-dasharray="96.511232736619,137.31848750190017" stroke-dashoffset="233.82972" stroke-width="1.2"/></g><g fill="#00000000" stroke="#f18f8f" stroke-width="4" stroke-miterlimit="1"><path d="M4160.158 47.466s-2.268-11.067-4.536-22.866-12.702-8.61-12.702-8.61-88.449 3.174-99.789 5.442c-11.34 2.268-8.163 10.434-8.163 10.434l2.268 22.401m122.922-6.981l-122.922 7.446m0-.465l-21.321 29.307 44.454 20.412v138.798l126.096-10.434V94.461m-170.55-10.887v123.375l44.454 35.835" stroke-dasharray="81.70683606138657,96.98430701465729" stroke-dashoffset="178.691143" stroke-width="1.2"/><path d="M4060.369 138.459s1.041 32.4 34.5 47.007c0 0 31.047 10.275 32.022 24l.777 27.636" stroke-dasharray="59.7311240791658,70.89959610811661" stroke-dashoffset="130.63072" stroke-width="1.2"/><path d="M4186.279 138.459s-1.044 32.4-34.5 47.007c0 0-24.171 10.854-25.293 21.696" stroke-dasharray="43.74069859380721,51.91929520156967" stroke-dashoffset="95.659994" stroke-width="1.2"/><path d="M4160.158 47.286l26.121 46.878-125.913 9.51-23.13-48.678" stroke-dasharray="106.91904639995522,126.91067383856395" stroke-dashoffset="233.82972" stroke-width="1.2"/></g><g fill="#00000000" stroke="#f08484" stroke-width="4" stroke-miterlimit="1"><path d="M4360.158 47.466s-2.268-11.067-4.536-22.866-12.702-8.61-12.702-8.61-88.449 3.174-99.789 5.442c-11.34 2.268-8.163 10.434-8.163 10.434l2.268 22.401m122.922-6.981l-122.922 7.446m0-.465l-21.321 29.307 44.454 20.412v138.798l126.096-10.434V94.461m-170.55-10.887v123.375l44.454 35.835" stroke-dasharray="89.34557153802191,89.34557153802194" stroke-dashoffset="178.691143" stroke-width="1.2"/><path d="M4260.369 138.459s1.041 32.4 34.5 47.007c0 0 31.047 10.275 32.022 24l.777 27.636" stroke-dasharray="65.31536009364119,65.31536009364122" stroke-dashoffset="130.63072" stroke-width="1.2"/><path d="M4386.279 138.459s-1.044 32.4-34.5 47.007c0 0-24.171 10.854-25.293 21.696" stroke-dasharray="47.82999689768843,47.829996897688446" stroke-dashoffset="95.659994" stroke-width="1.2"/><path d="M4360.158 47.286l26.121 46.878-125.913 9.51-23.13-48.678" stroke-dasharray="116.91486011925956,116.91486011925961" stroke-dashoffset="233.82972" stroke-width="1.2"/></g><g fill="#00000000" stroke="#ee7a7a" stroke-width="4" stroke-miterlimit="1"><path d="M4560.158 47.466s-2.268-11.067-4.536-22.866-12.702-8.61-12.702-8.61-88.449 3.174-99.789 5.442c-11.34 2.268-8.163 10.434-8.163 10.434l2.268 22.401m122.922-6.981l-122.922 7.446m0-.465l-21.321 29.307 44.454 20.412v138.798l126.096-10.434V94.461m-170.55-10.887v123.375l44.454 35.835" stroke-dasharray="96.57459287572058,82.11655020032327" stroke-dashoffset="178.691143" stroke-width="1.2"/><path d="M4460.369 138.459s1.041 32.4 34.5 47.007c0 0 31.047 10.275 32.022 24l.777 27.636" stroke-dasharray="70.60007788847301,60.03064229880939" stroke-dashoffset="130.63072" stroke-width="1.2"/><path d="M4586.279 138.459s-1.044 32.4-34.5 47.007c0 0-24.171 10.854-25.293 21.696" stroke-dasharray="51.69996003299959,43.960033762377286" stroke-dashoffset="95.659994" stroke-width="1.2"/><path d="M4560.158 47.286l26.121 46.878-125.913 9.51-23.13-48.678" stroke-dasharray="126.37453454908295,107.45518568943622" stroke-dashoffset="233.82972" stroke-width="1.2"/></g><g fill="#00000000" stroke="#ed7171" stroke-width="4" stroke-miterlimit="1"><path d="M4760.158 47.466s-2.268-11.067-4.536-22.866-12.702-8.61-12.702-8.61-88.449 3.174-99.789 5.442c-11.34 2.268-8.163 10.434-8.163 10.434l2.268 22.401m122.922-6.981l-122.922 7.446m0-.465l-21.321 29.307 44.454 20.412v138.798l126.096-10.434V94.461m-170.55-10.887v123.375l44.454 35.835" stroke-dasharray="103.34542132800966,75.3457217480342" stroke-dashoffset="178.691143" stroke-width="1.2"/><path d="M4660.369 138.459s1.041 32.4 34.5 47.007c0 0 31.047 10.275 32.022 24l.777 27.636" stroke-dasharray="75.5498374667117,55.08088272057071" stroke-dashoffset="130.63072" stroke-width="1.2"/><path d="M4786.279 138.459s-1.044 32.4-34.5 47.007c0 0-24.171 10.854-25.293 21.696" stroke-dasharray="55.324635529422494,40.33535826595438" stroke-dashoffset="95.659994" stroke-width="1.2"/><path d="M4760.158 47.286l26.121 46.878-125.913 9.51-23.13-48.678" stroke-dasharray="135.234631896538,98.5950883419812" stroke-dashoffset="233.82972" stroke-width="1.2"/></g><g fill="#00000000" stroke="#ec6868" stroke-width="4" stroke-miterlimit="1"><path d="M4960.158 47.466s-2.268-11.067-4.536-22.866-12.702-8.61-12.702-8.61-88.449 3.174-99.789 5.442c-11.34 2.268-8.163 10.434-8.163 10.434l2.268 22.401m122.922-6.981l-122.922 7.446m0-.465l-21.321 29.307 44.454 20.412v138.798l126.096-10.434V94.461m-170.55-10.887v123.375l44.454 35.835" stroke-dasharray="109.64394663919866,69.0471964368452" stroke-dashoffset="178.691143" stroke-width="1.2"/><path d="M4860.369 138.459s1.041 32.4 34.5 47.007c0 0 31.047 10.275 32.022 24l.777 27.636" stroke-dasharray="80.15432363964027,50.47639654764214" stroke-dashoffset="130.63072" stroke-width="1.2"/><path d="M4986.279 138.459s-1.044 32.4-34.5 47.007c0 0-24.171 10.854-25.293 21.696" stroke-dasharray="58.6964696439536,36.96352415142328" stroke-dashoffset="95.659994" stroke-width="1.2"/><path d="M4960.158 47.286l26.121 46.878-125.913 9.51-23.13-48.678" stroke-dasharray="143.4766879160901,90.35303232242909" stroke-dashoffset="233.82972" stroke-width="1.2"/></g><g fill="#00000000" stroke="#eb6060" stroke-width="4" stroke-miterlimit="1"><path d="M5160.158 47.466s-2.268-11.067-4.536-22.866-12.702-8.61-12.702-8.61-88.449 3.174-99.789 5.442c-11.34 2.268-8.163 10.434-8.163 10.434l2.268 22.401m122.922-6.981l-122.922 7.446m0-.465l-21.321 29.307 44.454 20.412v138.798l126.096-10.434V94.461m-170.55-10.887v123.375l44.454 35.835" stroke-dasharray="115.47845769003442,63.21268538600944" stroke-dashoffset="178.691143" stroke-width="1.2"/><path d="M5060.369 138.459s1.041 32.4 34.5 47.007c0 0 31.047 10.275 32.022 24l.777 27.636" stroke-dasharray="84.4195959267339,46.21112426054851" stroke-dashoffset="130.63072" stroke-width="1.2"/><path d="M5186.279 138.459s-1.044 32.4-34.5 47.007c0 0-24.171 10.854-25.293 21.696" stroke-dasharray="61.819899721763825,33.84009407361305" stroke-dashoffset="95.659994" stroke-width="1.2"/><path d="M5160.158 47.286l26.121 46.878-125.913 9.51-23.13-48.678" stroke-dasharray="151.11154918151325,82.71817105700593" stroke-dashoffset="233.82972" stroke-width="1.2"/></g><g fill="#00000000" stroke="#ea5959" stroke-width="4" stroke-miterlimit="1"><path d="M5360.158 47.466s-2.268-11.067-4.536-22.866-12.702-8.61-12.702-8.61-88.449 3.174-99.789 5.442c-11.34 2.268-8.163 10.434-8.163 10.434l2.268 22.401m122.922-6.981l-122.922 7.446m0-.465l-21.321 29.307 44.454 20.412v138.798l126.096-10.434V94.461m-170.55-10.887v123.375l44.454 35.835" stroke-dasharray="120.87021558272201,57.820927493321854" stroke-dashoffset="178.691143" stroke-width="1.2"/><path d="M5260.369 138.459s1.041 32.4 34.5 47.007c0 0 31.047 10.275 32.022 24l.777 27.636" stroke-dasharray="88.36119708542988,42.26952310185253" stroke-dashoffset="130.63072" stroke-width="1.2"/><path d="M5386.279 138.459s-1.044 32.4-34.5 47.007c0 0-24.171 10.854-25.293 21.696" stroke-dasharray="64.7063076191109,30.953686176265975" stroke-dashoffset="95.659994" stroke-width="1.2"/><path d="M5360.158 47.286l26.121 46.878-125.913 9.51-23.13-48.678" stroke-dasharray="158.1670373156086,75.66268292291055" stroke-dashoffset="233.82972" stroke-width="1.2"/></g><g fill="#00000000" stroke="#e95252" stroke-width="4" stroke-miterlimit="1"><path d="M5560.158 47.466s-2.268-11.067-4.536-22.866-12.702-8.61-12.702-8.61-88.449 3.174-99.789 5.442c-11.34 2.268-8.163 10.434-8.163 10.434l2.268 22.401m122.922-6.981l-122.922 7.446m0-.465l-21.321 29.307 44.454 20.412v138.798l126.096-10.434V94.461m-170.55-10.887v123.375l44.454 35.835" stroke-dasharray="125.8469429191799,52.84420015686396" stroke-dashoffset="178.691143" stroke-width="1.2"/><path d="M5460.369 138.459s1.041 32.4 34.5 47.007c0 0 31.047 10.275 32.022 24l.777 27.636" stroke-dasharray="91.99939350046186,38.63132668682055" stroke-dashoffset="130.63072" stroke-width="1.2"/><path d="M5586.279 138.459s-1.044 32.4-34.5 47.007c0 0-24.171 10.854-25.293 21.696" stroke-dasharray="67.37053427260679,28.289459522770084" stroke-dashoffset="95.659994" stroke-width="1.2"/><path d="M5560.158 47.286l26.121 46.878-125.913 9.51-23.13-48.678" stroke-dasharray="164.67942926047468,69.15029097804448" stroke-dashoffset="233.82972" stroke-width="1.2"/></g><g fill="#00000000" stroke="#e84b4b" stroke-width="4" stroke-miterlimit="1"><path d="M5760.158 47.466s-2.268-11.067-4.536-22.866-12.702-8.61-12.702-8.61-88.449 3.174-99.789 5.442c-11.34 2.268-8.163 10.434-8.163 10.434l2.268 22.401m122.922-6.981l-122.922 7.446m0-.465l-21.321 29.307 44.454 20.412v138.798l126.096-10.434V94.461m-170.55-10.887v123.375l44.454 35.835" stroke-dasharray="130.43870785044484,48.25243522559903" stroke-dashoffset="178.691143" stroke-width="1.2"/><path d="M5660.369 138.459s1.041 32.4 34.5 47.007c0 0 31.047 10.275 32.022 24l.777 27.636" stroke-dasharray="95.35616625134512,35.274553935937284" stroke-dashoffset="130.63072" stroke-width="1.2"/><path d="M5786.279 138.459s-1.044 32.4-34.5 47.007c0 0-24.171 10.854-25.293 21.696" stroke-dasharray="69.82867627826684,25.831317517110037" stroke-dashoffset="95.659994" stroke-width="1.2"/><path d="M5760.158 47.286l26.121 46.878-125.913 9.51-23.13-48.678" stroke-dasharray="170.6880712714657,63.14164896705347" stroke-dashoffset="233.82972" stroke-width="1.2"/></g><g fill="#00000000" stroke="#e84646" stroke-width="4" stroke-miterlimit="1"><path d="M5960.158 47.466s-2.268-11.067-4.536-22.866-12.702-8.61-12.702-8.61-88.449 3.174-99.789 5.442c-11.34 2.268-8.163 10.434-8.163 10.434l2.268 22.401m122.922-6.981l-122.922 7.446m0-.465l-21.321 29.307 44.454 20.412v138.798l126.096-10.434V94.461m-170.55-10.887v123.375l44.454 35.835" stroke-dasharray="134.67550435811052,44.01563871793335" stroke-dashoffset="178.691143" stroke-width="1.2"/><path d="M5860.369 138.459s1.041 32.4 34.5 47.007c0 0 31.047 10.275 32.022 24l.777 27.636" stroke-dasharray="98.45344219662128,32.17727799066113" stroke-dashoffset="130.63072" stroke-width="1.2"/><path d="M5986.279 138.459s-1.044 32.4-34.5 47.007c0 0-24.171 10.854-25.293 21.696" stroke-dasharray="72.0967905264537,23.56320326892317" stroke-dashoffset="95.659994" stroke-width="1.2"/><path d="M5960.158 47.286l26.121 46.878-125.913 9.51-23.13-48.678" stroke-dasharray="176.2322125480896,57.59750769042958" stroke-dashoffset="233.82972" stroke-width="1.2"/></g><g fill="#00000000" stroke="#e74040" stroke-width="4" stroke-miterlimit="1"><path d="M6160.158 47.466s-2.268-11.067-4.536-22.866-12.702-8.61-12.702-8.61-88.449 3.174-99.789 5.442c-11.34 2.268-8.163 10.434-8.163 10.434l2.268 22.401m122.922-6.981l-122.922 7.446m0-.465l-21.321 29.307 44.454 20.412v138.798l126.096-10.434V94.461m-170.55-10.887v123.375l44.454 35.835" stroke-dasharray="138.58593720890866,40.105205867135204" stroke-dashoffset="178.691143" stroke-width="1.2"/><path d="M6060.369 138.459s1.041 32.4 34.5 47.007c0 0 31.047 10.275 32.022 24l.777 27.636" stroke-dasharray="101.3121326205019,29.3185875667805" stroke-dashoffset="130.63072" stroke-width="1.2"/><path d="M6186.279 138.459s-1.044 32.4-34.5 47.007c0 0-24.171 10.854-25.293 21.696" stroke-dasharray="74.19019020930983,21.469803586067044" stroke-dashoffset="95.659994" stroke-width="1.2"/><path d="M6160.158 47.286l26.121 46.878-125.913 9.51-23.13-48.678" stroke-dasharray="181.34928440611964,52.48043583239952" stroke-dashoffset="233.82972" stroke-width="1.2"/></g><g fill="#00000000" stroke="#e63b3b" stroke-width="4" stroke-miterlimit="1"><path d="M6360.158 47.466s-2.268-11.067-4.536-22.866-12.702-8.61-12.702-8.61-88.449 3.174-99.789 5.442c-11.34 2.268-8.163 10.434-8.163 10.434l2.268 22.401m122.922-6.981l-122.922 7.446m0-.465l-21.321 29.307 44.454 20.412v138.798l126.096-10.434V94.461m-170.55-10.887v123.375l44.454 35.835" stroke-dasharray="142.19658723291954,36.49455584312431" stroke-dashoffset="178.691143" stroke-width="1.2"/><path d="M6260.369 138.459s1.041 32.4 34.5 47.007c0 0 31.047 10.275 32.022 24l.777 27.636" stroke-dasharray="103.95166922461915,26.67905096266325" stroke-dashoffset="130.63072" stroke-width="1.2"/><path d="M6386.279 138.459s-1.044 32.4-34.5 47.007c0 0-24.171 10.854-25.293 21.696" stroke-dasharray="76.12310503065144,19.536888764725436" stroke-dashoffset="95.659994" stroke-width="1.2"/><path d="M6360.158 47.286l26.121 46.878-125.913 9.51-23.13-48.678" stroke-dasharray="186.07406970023118,47.75565053828801" stroke-dashoffset="233.82972" stroke-width="1.2"/></g><g fill="#00000000" stroke="#e63737" stroke-width="4" stroke-miterlimit="1"><path d="M6560.158 47.466s-2.268-11.067-4.536-22.866-12.702-8.61-12.702-8.61-88.449 3.174-99.789 5.442c-11.34 2.268-8.163 10.434-8.163 10.434l2.268 22.401m122.922-6.981l-122.922 7.446m0-.465l-21.321 29.307 44.454 20.412v138.798l126.096-10.434V94.461m-170.55-10.887v123.375l44.454 35.835" stroke-dasharray="145.53177717747553,33.15936589856831" stroke-dashoffset="178.691143" stroke-width="1.2"/><path d="M6460.369 138.459s1.041 32.4 34.5 47.007c0 0 31.047 10.275 32.022 24l.777 27.636" stroke-dasharray="106.38983295740879,24.24088722987362" stroke-dashoffset="130.63072" stroke-width="1.2"/><path d="M6586.279 138.459s-1.044 32.4-34.5 47.007c0 0-24.171 10.854-25.293 21.696" stroke-dasharray="77.90855585888224,17.75143793649464" stroke-dashoffset="95.659994" stroke-width="1.2"/><path d="M6560.158 47.286l26.121 46.878-125.913 9.51-23.13-48.678" stroke-dasharray="190.43839642763908,43.39132381088008" stroke-dashoffset="233.82972" stroke-width="1.2"/></g><g fill="#00000000" stroke="#e53232" stroke-width="4" stroke-miterlimit="1"><path d="M6760.158 47.466s-2.268-11.067-4.536-22.866-12.702-8.61-12.702-8.61-88.449 3.174-99.789 5.442c-11.34 2.268-8.163 10.434-8.163 10.434l2.268 22.401m122.922-6.981l-122.922 7.446m0-.465l-21.321 29.307 44.454 20.412v138.798l126.096-10.434V94.461m-170.55-10.887v123.375l44.454 35.835" stroke-dasharray="148.61356271559185,30.077580360452" stroke-dashoffset="178.691143" stroke-width="1.2"/><path d="M6660.369 138.459s1.041 32.4 34.5 47.007c0 0 31.047 10.275 32.022 24l.777 27.636" stroke-dasharray="108.64274744089589,21.987972746386514" stroke-dashoffset="130.63072" stroke-width="1.2"/><path d="M6786.279 138.459s-1.044 32.4-34.5 47.007c0 0-24.171 10.854-25.293 21.696" stroke-dasharray="79.55834991347302,16.101643881903854" stroke-dashoffset="95.659994" stroke-width="1.2"/><path d="M6760.158 47.286l26.121 46.878-125.913 9.51-23.13-48.678" stroke-dasharray="194.4711259620077,39.35859427651146" stroke-dashoffset="233.82972" stroke-width="1.2"/></g><g fill="#00000000" stroke="#e52e2e" stroke-width="4" stroke-miterlimit="1"><path d="M6960.158 47.466s-2.268-11.067-4.536-22.866-12.702-8.61-12.702-8.61-88.449 3.174-99.789 5.442c-11.34 2.268-8.163 10.434-8.163 10.434l2.268 22.401m122.922-6.981l-122.922 7.446m0-.465l-21.321 29.307 44.454 20.412v138.798l126.096-10.434V94.461m-170.55-10.887v123.375l44.454 35.835" stroke-dasharray="151.46184227913696,27.22930079690691" stroke-dashoffset="178.691143" stroke-width="1.2"/><path d="M6860.369 138.459s1.041 32.4 34.5 47.007c0 0 31.047 10.275 32.022 24l.777 27.636" stroke-dasharray="110.72495926334909,19.90576092393332" stroke-dashoffset="130.63072" stroke-width="1.2"/><path d="M6986.279 138.459s-1.044 32.4-34.5 47.007c0 0-24.171 10.854-25.293 21.696" stroke-dasharray="81.08313956272985,14.576854232647028" stroke-dashoffset="95.659994" stroke-width="1.2"/><path d="M6960.158 47.286l26.121 46.878-125.913 9.51-23.13-48.678" stroke-dasharray="198.198296777751,35.63142346076816" stroke-dashoffset="233.82972" stroke-width="1.2"/></g><g fill="#00000000" stroke="#e42b2b" stroke-width="4" stroke-miterlimit="1"><path d="M7160.158 47.466s-2.268-11.067-4.536-22.866-12.702-8.61-12.702-8.61-88.449 3.174-99.789 5.442c-11.34 2.268-8.163 10.434-8.163 10.434l2.268 22.401m122.922-6.981l-122.922 7.446m0-.465l-21.321 29.307 44.454 20.412v138.798l126.096-10.434V94.461m-170.55-10.887v123.375l44.454 35.835" stroke-dasharray="154.09452302742957,24.59662004861427" stroke-dashoffset="178.691143" stroke-width="1.2"/><path d="M7060.369 138.459s1.041 32.4 34.5 47.007c0 0 31.047 10.275 32.022 24l.777 27.636" stroke-dasharray="112.64955930928592,17.98116087799648" stroke-dashoffset="130.63072" stroke-width="1.2"/><path d="M7186.279 138.459s-1.044 32.4-34.5 47.007c0 0-24.171 10.854-25.293 21.696" stroke-dasharray="82.49251117293723,13.167482622439644" stroke-dashoffset="95.659994" stroke-width="1.2"/><path d="M7160.158 47.286l26.121 46.878-125.913 9.51-23.13-48.678" stroke-dasharray="201.64334163142138,32.18637860709778" stroke-dashoffset="233.82972" stroke-width="1.2"/></g><g fill="#00000000" stroke="#e42828" stroke-width="4" stroke-miterlimit="1"><path d="M7360.158 47.466s-2.268-11.067-4.536-22.866-12.702-8.61-12.702-8.61-88.449 3.174-99.789 5.442c-11.34 2.268-8.163 10.434-8.163 10.434l2.268 22.401m122.922-6.981l-122.922 7.446m0-.465l-21.321 29.307 44.454 20.412v138.798l126.096-10.434V94.461m-170.55-10.887v123.375l44.454 35.835" stroke-dasharray="156.52770703805515,22.163436037988717" stroke-dashoffset="178.691143" stroke-width="1.2"/><path d="M7260.369 138.459s1.041 32.4 34.5 47.007c0 0 31.047 10.275 32.022 24l.777 27.636" stroke-dasharray="114.42831887276878,16.202401314513622" stroke-dashoffset="130.63072" stroke-width="1.2"/><path d="M7386.279 138.459s-1.044 32.4-34.5 47.007c0 0-24.171 10.854-25.293 21.696" stroke-dasharray="83.79508478320508,11.864909012171797" stroke-dashoffset="95.659994" stroke-width="1.2"/><path d="M7360.158 47.286l26.121 46.878-125.913 9.51-23.13-48.678" stroke-dasharray="204.82733120527112,29.002389033248065" stroke-dashoffset="233.82972" stroke-width="1.2"/></g><g fill="#00000000" stroke="#e32424" stroke-width="4" stroke-miterlimit="1"><path d="M7560.158 47.466s-2.268-11.067-4.536-22.866-12.702-8.61-12.702-8.61-88.449 3.174-99.789 5.442c-11.34 2.268-8.163 10.434-8.163 10.434l2.268 22.401m122.922-6.981l-122.922 7.446m0-.465l-21.321 29.307 44.454 20.412v138.798l126.096-10.434V94.461m-170.55-10.887v123.375l44.454 35.835" stroke-dasharray="158.7758779073539,19.915265168689963" stroke-dashoffset="178.691143" stroke-width="1.2"/><path d="M7460.369 138.459s1.041 32.4 34.5 47.007c0 0 31.047 10.275 32.022 24l.777 27.636" stroke-dasharray="116.07182607018811,14.558894117094297" stroke-dashoffset="130.63072" stroke-width="1.2"/><path d="M7586.279 138.459s-1.044 32.4-34.5 47.007c0 0-24.171 10.854-25.293 21.696" stroke-dasharray="84.99861399962822,10.66137979574866" stroke-dashoffset="95.659994" stroke-width="1.2"/><path d="M7560.158 47.286l26.121 46.878-125.913 9.51-23.13-48.678" stroke-dasharray="207.76921828689777,26.0605019516214" stroke-dashoffset="233.82972" stroke-width="1.2"/></g><g fill="#00000000" stroke="#e32222" stroke-width="4" stroke-miterlimit="1"><path d="M7760.158 47.466s-2.268-11.067-4.536-22.866-12.702-8.61-12.702-8.61-88.449 3.174-99.789 5.442c-11.34 2.268-8.163 10.434-8.163 10.434l2.268 22.401m122.922-6.981l-122.922 7.446m0-.465l-21.321 29.307 44.454 20.412v138.798l126.096-10.434V94.461m-170.55-10.887v123.375l44.454 35.835" stroke-dasharray="160.8520774666676,17.839065609376274" stroke-dashoffset="178.691143" stroke-width="1.2"/><path d="M7660.369 138.459s1.041 32.4 34.5 47.007c0 0 31.047 10.275 32.022 24l.777 27.636" stroke-dasharray="117.58961502725045,13.04110516003196" stroke-dashoffset="130.63072" stroke-width="1.2"/><path d="M7786.279 138.459s-1.044 32.4-34.5 47.007c0 0-24.171 10.854-25.293 21.696" stroke-dasharray="86.11008059804486,9.54991319733202" stroke-dashoffset="95.659994" stroke-width="1.2"/><path d="M7760.158 47.286l26.121 46.878-125.913 9.51-23.13-48.678" stroke-dasharray="210.4860690146759,23.343651223843263" stroke-dashoffset="233.82972" stroke-width="1.2"/></g><g fill="#00000000" stroke="#e31f1f" stroke-width="4" stroke-miterlimit="1"><path d="M7960.158 47.466s-2.268-11.067-4.536-22.866-12.702-8.61-12.702-8.61-88.449 3.174-99.789 5.442c-11.34 2.268-8.163 10.434-8.163 10.434l2.268 22.401m122.922-6.981l-122.922 7.446m0-.465l-21.321 29.307 44.454 20.412v138.798l126.096-10.434V94.461m-170.55-10.887v123.375l44.454 35.835" stroke-dasharray="162.76806784697214,15.923075229071717" stroke-dashoffset="178.691143" stroke-width="1.2"/><path d="M7860.369 138.459s1.041 32.4 34.5 47.007c0 0 31.047 10.275 32.022 24l.777 27.636" stroke-dasharray="118.99028435502221,11.6404358322602" stroke-dashoffset="130.63072" stroke-width="1.2"/><path d="M7986.279 138.459s-1.044 32.4-34.5 47.007c0 0-24.171 10.854-25.293 21.696" stroke-dasharray="87.13578128324299,8.524212512133888" stroke-dashoffset="95.659994" stroke-width="1.2"/><path d="M7960.158 47.286l26.121 46.878-125.913 9.51-23.13-48.678" stroke-dasharray="212.9932749505384,20.836445287980784" stroke-dashoffset="233.82972" stroke-width="1.2"/></g><g fill="#00000000" stroke="#e21c1c" stroke-width="4" stroke-miterlimit="1"><path d="M8160.158 47.466s-2.268-11.067-4.536-22.866-12.702-8.61-12.702-8.61-88.449 3.174-99.789 5.442c-11.34 2.268-8.163 10.434-8.163 10.434l2.268 22.401m122.922-6.981l-122.922 7.446m0-.465l-21.321 29.307 44.454 20.412v138.798l126.096-10.434V94.461m-170.55-10.887v123.375l44.454 35.835" stroke-dasharray="164.53447725773063,14.156665818313233" stroke-dashoffset="178.691143" stroke-width="1.2"/><path d="M8060.369 138.459s1.041 32.4 34.5 47.007c0 0 31.047 10.275 32.022 24l.777 27.636" stroke-dasharray="120.28160372038536,10.349116466897044" stroke-dashoffset="130.63072" stroke-width="1.2"/><path d="M8186.279 138.459s-1.044 32.4-34.5 47.007c0 0-24.171 10.854-25.293 21.696" stroke-dasharray="88.08140572978505,7.578588065591828" stroke-dashoffset="95.659994" stroke-width="1.2"/><path d="M8160.158 47.286l26.121 46.878-125.913 9.51-23.13-48.678" stroke-dasharray="215.30474384168858,18.524976396830592" stroke-dashoffset="233.82972" stroke-width="1.2"/></g><g fill="#00000000" stroke="#e21a1a" stroke-width="4" stroke-miterlimit="1"><path d="M8360.158 47.466s-2.268-11.067-4.536-22.866-12.702-8.61-12.702-8.61-88.449 3.174-99.789 5.442c-11.34 2.268-8.163 10.434-8.163 10.434l2.268 22.401m122.922-6.981l-122.922 7.446m0-.465l-21.321 29.307 44.454 20.412v138.798l126.096-10.434V94.461m-170.55-10.887v123.375l44.454 35.835" stroke-dasharray="166.16092955863382,12.530213517410036" stroke-dashoffset="178.691143" stroke-width="1.2"/><path d="M8260.369 138.459s1.041 32.4 34.5 47.007c0 0 31.047 10.275 32.022 24l.777 27.636" stroke-dasharray="121.47060856841429,9.160111618868116" stroke-dashoffset="130.63072" stroke-width="1.2"/><path d="M8386.279 138.459s-1.044 32.4-34.5 47.007c0 0-24.171 10.854-25.293 21.696" stroke-dasharray="88.95210594656449,6.707887848812394" stroke-dashoffset="95.659994" stroke-width="1.2"/><path d="M8360.158 47.286l26.121 46.878-125.913 9.51-23.13-48.678" stroke-dasharray="217.43306917418502,16.39665106433415" stroke-dashoffset="233.82972" stroke-width="1.2"/></g><g fill="#00000000" stroke="#e21818" stroke-width="4" stroke-miterlimit="1"><path d="M8560.158 47.466s-2.268-11.067-4.536-22.866-12.702-8.61-12.702-8.61-88.449 3.174-99.789 5.442c-11.34 2.268-8.163 10.434-8.163 10.434l2.268 22.401m122.922-6.981l-122.922 7.446m0-.465l-21.321 29.307 44.454 20.412v138.798l126.096-10.434V94.461m-170.55-10.887v123.375l44.454 35.835" stroke-dasharray="167.65615858227414,11.03498449376972" stroke-dashoffset="178.691143" stroke-width="1.2"/><path d="M8460.369 138.459s1.041 32.4 34.5 47.007c0 0 31.047 10.275 32.022 24l.777 27.636" stroke-dasharray="122.56368369704526,8.067036490237147" stroke-dashoffset="130.63072" stroke-width="1.2"/><path d="M8586.279 138.459s-1.044 32.4-34.5 47.007c0 0-24.171 10.854-25.293 21.696" stroke-dasharray="89.75255747797156,5.9074363174053195" stroke-dashoffset="95.659994" stroke-width="1.2"/><path d="M8560.158 47.286l26.121 46.878-125.913 9.51-23.13-48.678" stroke-dasharray="219.38967977206755,14.440040466451627" stroke-dashoffset="233.82972" stroke-width="1.2"/></g><g fill="#00000000" stroke="#e21616" stroke-width="4" stroke-miterlimit="1"><path d="M8760.158 47.466s-2.268-11.067-4.536-22.866-12.702-8.61-12.702-8.61-88.449 3.174-99.789 5.442c-11.34 2.268-8.163 10.434-8.163 10.434l2.268 22.401m122.922-6.981l-122.922 7.446m0-.465l-21.321 29.307 44.454 20.412v138.798l126.096-10.434V94.461m-170.55-10.887v123.375l44.454 35.835" stroke-dasharray="169.0281085636057,9.663034512438145" stroke-dashoffset="178.691143" stroke-width="1.2"/><path d="M8660.369 138.459s1.041 32.4 34.5 47.007c0 0 31.047 10.275 32.022 24l.777 27.636" stroke-dasharray="123.56663667522395,7.064083512058457" stroke-dashoffset="130.63072" stroke-width="1.2"/><path d="M8786.279 138.459s-1.044 32.4-34.5 47.007c0 0-24.171 10.854-25.293 21.696" stroke-dasharray="90.48701316750675,5.172980627870135" stroke-dashoffset="95.659994" stroke-width="1.2"/><path d="M8760.158 47.286l26.121 46.878-125.913 9.51-23.13-48.678" stroke-dasharray="221.18497121625222,12.644749022266936" stroke-dashoffset="233.82972" stroke-width="1.2"/></g><g fill="#00000000" stroke="#e11515" stroke-width="4" stroke-miterlimit="1"><path d="M8960.158 47.466s-2.268-11.067-4.536-22.866-12.702-8.61-12.702-8.61-88.449 3.174-99.789 5.442c-11.34 2.268-8.163 10.434-8.163 10.434l2.268 22.401m122.922-6.981l-122.922 7.446m0-.465l-21.321 29.307 44.454 20.412v138.798l126.096-10.434V94.461m-170.55-10.887v123.375l44.454 35.835" stroke-dasharray="170.28402215802348,8.407120918020397" stroke-dashoffset="178.691143" stroke-width="1.2"/><path d="M8860.369 138.459s1.041 32.4 34.5 47.007c0 0 31.047 10.275 32.022 24l.777 27.636" stroke-dasharray="124.48476218781285,6.145957999469559" stroke-dashoffset="130.63072" stroke-width="1.2"/><path d="M8986.279 138.459s-1.044 32.4-34.5 47.007c0 0-24.171 10.854-25.293 21.696" stroke-dasharray="91.15935027712165,4.500643518255227" stroke-dashoffset="95.659994" stroke-width="1.2"/><path d="M8960.158 47.286l26.121 46.878-125.913 9.51-23.13-48.678" stroke-dasharray="222.82842102227582,11.001299216243362" stroke-dashoffset="233.82972" stroke-width="1.2"/></g><g fill="#00000000" stroke="#e11313" stroke-width="4" stroke-miterlimit="1"><path d="M9160.158 47.466s-2.268-11.067-4.536-22.866-12.702-8.61-12.702-8.61-88.449 3.174-99.789 5.442c-11.34 2.268-8.163 10.434-8.163 10.434l2.268 22.401m122.922-6.981l-122.922 7.446m0-.465l-21.321 29.307 44.454 20.412v138.798l126.096-10.434V94.461m-170.55-10.887v123.375l44.454 35.835" stroke-dasharray="171.43051750823622,7.2606255678076375" stroke-dashoffset="178.691143" stroke-width="1.2"/><path d="M9060.369 138.459s1.041 32.4 34.5 47.007c0 0 31.047 10.275 32.022 24l.777 27.636" stroke-dasharray="125.32289837470785,5.307821812574565" stroke-dashoffset="130.63072" stroke-width="1.2"/><path d="M9186.279 138.459s-1.044 32.4-34.5 47.007c0 0-24.171 10.854-25.293 21.696" stroke-dasharray="91.77311174397347,3.8868820514034086" stroke-dashoffset="95.659994" stroke-width="1.2"/><path d="M9160.158 47.286l26.121 46.878-125.913 9.51-23.13-48.678" stroke-dasharray="224.32868948762962,9.501030750889564" stroke-dashoffset="233.82972" stroke-width="1.2"/></g><g fill="#00000000" stroke="#e11212" stroke-width="4" stroke-miterlimit="1"><path d="M9360.158 47.466s-2.268-11.067-4.536-22.866-12.702-8.61-12.702-8.61-88.449 3.174-99.789 5.442c-11.34 2.268-8.163 10.434-8.163 10.434l2.268 22.401m122.922-6.981l-122.922 7.446m0-.465l-21.321 29.307 44.454 20.412v138.798l126.096-10.434V94.461m-170.55-10.887v123.375l44.454 35.835" stroke-dasharray="172.4736557235835,6.217487352460343" stroke-dashoffset="178.691143" stroke-width="1.2"/><path d="M9260.369 138.459s1.041 32.4 34.5 47.007c0 0 31.047 10.275 32.022 24l.777 27.636" stroke-dasharray="126.08547616104896,4.545244026233446" stroke-dashoffset="130.63072" stroke-width="1.2"/><path d="M9386.279 138.459s-1.044 32.4-34.5 47.007c0 0-24.171 10.854-25.293 21.696" stroke-dasharray="92.331542304605,3.3284514907718865" stroke-dashoffset="95.659994" stroke-width="1.2"/><path d="M9360.158 47.286l26.121 46.878-125.913 9.51-23.13-48.678" stroke-dasharray="225.69370799311292,8.136012245406251" stroke-dashoffset="233.82972" stroke-width="1.2"/></g><g fill="#00000000" stroke="#e11010" stroke-width="4" stroke-miterlimit="1"><path d="M9560.158 47.466s-2.268-11.067-4.536-22.866-12.702-8.61-12.702-8.61-88.449 3.174-99.789 5.442c-11.34 2.268-8.163 10.434-8.163 10.434l2.268 22.401m122.922-6.981l-122.922 7.446m0-.465l-21.321 29.307 44.454 20.412v138.798l126.096-10.434V94.461m-170.55-10.887v123.375l44.454 35.835" stroke-dasharray="173.41900000606728,5.272143069976587" stroke-dashoffset="178.691143" stroke-width="1.2"/><path d="M9460.369 138.459s1.041 32.4 34.5 47.007c0 0 31.047 10.275 32.022 24l.777 27.636" stroke-dasharray="126.7765624808294,3.854157706453009" stroke-dashoffset="130.63072" stroke-width="1.2"/><path d="M9586.279 138.459s-1.044 32.4-34.5 47.007c0 0-24.171 10.854-25.293 21.696" stroke-dasharray="92.83762014730146,2.822373648075413" stroke-dashoffset="95.659994" stroke-width="1.2"/><path d="M9560.158 47.286l26.121 46.878-125.913 9.51-23.13-48.678" stroke-dasharray="226.93075637333504,6.8989638651841245" stroke-dashoffset="233.82972" stroke-width="1.2"/></g><g fill="#00000000" stroke="#e10f0f" stroke-width="4" stroke-miterlimit="1"><path d="M9760.158 47.466s-2.268-11.067-4.536-22.866-12.702-8.61-12.702-8.61-88.449 3.174-99.789 5.442c-11.34 2.268-8.163 10.434-8.163 10.434l2.268 22.401m122.922-6.981l-122.922 7.446m0-.465l-21.321 29.307 44.454 20.412v138.798l126.096-10.434V94.461m-170.55-10.887v123.375l44.454 35.835" stroke-dasharray="174.2716675187701,4.419475557273769" stroke-dashoffset="178.691143" stroke-width="1.2"/><path d="M9660.369 138.459s1.041 32.4 34.5 47.007c0 0 31.047 10.275 32.022 24l.777 27.636" stroke-dasharray="127.39989819488473,3.2308219923976838" stroke-dashoffset="130.63072" stroke-width="1.2"/><path d="M9786.279 138.459s-1.044 32.4-34.5 47.007c0 0-24.171 10.854-25.293 21.696" stroke-dasharray="93.2940846791779,2.36590911619898" stroke-dashoffset="95.659994" stroke-width="1.2"/><path d="M9760.158 47.286l26.121 46.878-125.913 9.51-23.13-48.678" stroke-dasharray="228.0465307901282,5.783189448390975" stroke-dashoffset="233.82972" stroke-width="1.2"/></g><g fill="#00000000" stroke="#e10e0e" stroke-width="4" stroke-miterlimit="1"><path d="M9960.158 47.466s-2.268-11.067-4.536-22.866-12.702-8.61-12.702-8.61-88.449 3.174-99.789 5.442c-11.34 2.268-8.163 10.434-8.163 10.434l2.268 22.401m122.922-6.981l-122.922 7.446m0-.465l-21.321 29.307 44.454 20.412v138.798l126.096-10.434V94.461m-170.55-10.887v123.375l44.454 35.835" stroke-dasharray="175.03637495727912,3.654768118764736" stroke-dashoffset="178.691143" stroke-width="1.2"/><path d="M9860.369 138.459s1.041 32.4 34.5 47.007c0 0 31.047 10.275 32.022 24l.777 27.636" stroke-dasharray="127.95893140551506,2.6717887817673405" stroke-dashoffset="130.63072" stroke-width="1.2"/><path d="M9986.279 138.459s-1.044 32.4-34.5 47.007c0 0-24.171 10.854-25.293 21.696" stroke-dasharray="93.70346092225181,1.9565328731250746" stroke-dashoffset="95.659994" stroke-width="1.2"/><path d="M9960.158 47.286l26.121 46.878-125.913 9.51-23.13-48.678" stroke-dasharray="229.04720336590765,4.78251687261151" stroke-dashoffset="233.82972" stroke-width="1.2"/></g><g fill="#00000000" stroke="#e10d0d" stroke-width="4" stroke-miterlimit="1"><path d="M10160.158 47.466s-2.268-11.067-4.536-22.866-12.702-8.61-12.702-8.61-88.449 3.174-99.789 5.442c-11.34 2.268-8.163 10.434-8.163 10.434l2.268 22.401m122.922-6.981l-122.922 7.446m0-.465l-21.321 29.307 44.454 20.412v138.798l126.096-10.434V94.461m-170.55-10.887v123.375l44.454 35.835" stroke-dasharray="175.71747865959168,2.9736644164521815" stroke-dashoffset="178.691143" stroke-width="1.2"/><path d="M10060.369 138.459s1.041 32.4 34.5 47.007c0 0 31.047 10.275 32.022 24l.777 27.636" stroke-dasharray="128.4568467785084,2.1738734087740075" stroke-dashoffset="130.63072" stroke-width="1.2"/><path d="M10186.279 138.459s-1.044 32.4-34.5 47.007c0 0-24.171 10.854-25.293 21.696" stroke-dasharray="94.06808098576273,1.591912809614148" stroke-dashoffset="95.659994" stroke-width="1.2"/><path d="M10160.158 47.286l26.121 46.878-125.913 9.51-23.13-48.678" stroke-dasharray="229.9384746702576,3.8912455682615876" stroke-dashoffset="233.82972" stroke-width="1.2"/></g><g fill="#00000000" stroke="#e00c0c" stroke-width="4" stroke-miterlimit="1"><path d="M10360.158 47.466s-2.268-11.067-4.536-22.866-12.702-8.61-12.702-8.61-88.449 3.174-99.789 5.442c-11.34 2.268-8.163 10.434-8.163 10.434l2.268 22.401m122.922-6.981l-122.922 7.446m0-.465l-21.321 29.307 44.454 20.412v138.798l126.096-10.434V94.461m-170.55-10.887v123.375l44.454 35.835" stroke-dasharray="176.3190099774408,2.3721330986030473" stroke-dashoffset="178.691143" stroke-width="1.2"/><path d="M10260.369 138.459s1.041 32.4 34.5 47.007c0 0 31.047 10.275 32.022 24l.777 27.636" stroke-dasharray="128.89659140106306,1.7341287862193373" stroke-dashoffset="130.63072" stroke-width="1.2"/><path d="M10386.279 138.459s-1.044 32.4-34.5 47.007c0 0-24.171 10.854-25.293 21.696" stroke-dasharray="94.39010300175423,1.269890793622649" stroke-dashoffset="95.659994" stroke-width="1.2"/><path d="M10360.158 47.286l26.121 46.878-125.913 9.51-23.13-48.678" stroke-dasharray="230.72562000575704,3.104100232762149" stroke-dashoffset="233.82972" stroke-width="1.2"/></g><g fill="#00000000" stroke="#e00c0c" stroke-width="4" stroke-miterlimit="1"><path d="M10560.158 47.466s-2.268-11.067-4.536-22.866-12.702-8.61-12.702-8.61-88.449 3.174-99.789 5.442c-11.34 2.268-8.163 10.434-8.163 10.434l2.268 22.401m122.922-6.981l-122.922 7.446m0-.465l-21.321 29.307 44.454 20.412v138.798l126.096-10.434V94.461m-170.55-10.887v123.375l44.454 35.835" stroke-dasharray="176.8447065326645,1.8464365433793548" stroke-dashoffset="178.691143" stroke-width="1.2"/><path d="M10460.369 138.459s1.041 32.4 34.5 47.007c0 0 31.047 10.275 32.022 24l.777 27.636" stroke-dasharray="129.28089763150462,1.3498225557777965" stroke-dashoffset="130.63072" stroke-width="1.2"/><path d="M10586.279 138.459s-1.044 32.4-34.5 47.007c0 0-24.171 10.854-25.293 21.696" stroke-dasharray="94.67152785776709,0.9884659376097865" stroke-dashoffset="95.659994" stroke-width="1.2"/><path d="M10560.158 47.286l26.121 46.878-125.913 9.51-23.13-48.678" stroke-dasharray="231.41353030910093,2.4161899294182505" stroke-dashoffset="233.82972" stroke-width="1.2"/></g><g fill="#00000000" stroke="#e00b0b" stroke-width="4" stroke-miterlimit="1"><path d="M10760.158 47.466s-2.268-11.067-4.536-22.866-12.702-8.61-12.702-8.61-88.449 3.174-99.789 5.442c-11.34 2.268-8.163 10.434-8.163 10.434l2.268 22.401m122.922-6.981l-122.922 7.446m0-.465l-21.321 29.307 44.454 20.412v138.798l126.096-10.434V94.461m-170.55-10.887v123.375l44.454 35.835" stroke-dasharray="177.29803989566608,1.393103180377784" stroke-dashoffset="178.691143" stroke-width="1.2"/><path d="M10660.369 138.459s1.041 32.4 34.5 47.007c0 0 31.047 10.275 32.022 24l.777 27.636" stroke-dasharray="129.6123033334012,1.01841685388122" stroke-dashoffset="130.63072" stroke-width="1.2"/><path d="M10786.279 138.459s-1.044 32.4-34.5 47.007c0 0-24.171 10.854-25.293 21.696" stroke-dasharray="94.91421401414537,0.7457797812314998" stroke-dashoffset="95.659994" stroke-width="1.2"/><path d="M10760.158 47.286l26.121 46.878-125.913 9.51-23.13-48.678" stroke-dasharray="232.00674837028,1.8229718682391702" stroke-dashoffset="233.82972" stroke-width="1.2"/></g><g fill="#00000000" stroke="#e00a0a" stroke-width="4" stroke-miterlimit="1"><path d="M10960.158 47.466s-2.268-11.067-4.536-22.866-12.702-8.61-12.702-8.61-88.449 3.174-99.789 5.442c-11.34 2.268-8.163 10.434-8.163 10.434l2.268 22.401m122.922-6.981l-122.922 7.446m0-.465l-21.321 29.307 44.454 20.412v138.798l126.096-10.434V94.461m-170.55-10.887v123.375l44.454 35.835" stroke-dasharray="177.68224014814746,1.0089029278963901" stroke-dashoffset="178.691143" stroke-width="1.2"/><path d="M10860.369 138.459s1.041 32.4 34.5 47.007c0 0 31.047 10.275 32.022 24l.777 27.636" stroke-dasharray="129.89316983195184,0.737550355330578" stroke-dashoffset="130.63072" stroke-width="1.2"/><path d="M10986.279 138.459s-1.044 32.4-34.5 47.007c0 0-24.171 10.854-25.293 21.696" stroke-dasharray="95.1198906533782,0.540103141998676" stroke-dashoffset="95.659994" stroke-width="1.2"/><path d="M10960.158 47.286l26.121 46.878-125.913 9.51-23.13-48.678" stroke-dasharray="232.5095009746162,1.3202192639029748" stroke-dashoffset="233.82972" stroke-width="1.2"/></g><g fill="#00000000" stroke="#e00a0a" stroke-width="4" stroke-miterlimit="1"><path d="M11160.158 47.466s-2.268-11.067-4.536-22.866-12.702-8.61-12.702-8.61-88.449 3.174-99.789 5.442c-11.34 2.268-8.163 10.434-8.163 10.434l2.268 22.401m122.922-6.981l-122.922 7.446m0-.465l-21.321 29.307 44.454 20.412v138.798l126.096-10.434V94.461m-170.55-10.887v123.375l44.454 35.835" stroke-dasharray="178.00031772789745,0.690825348146401" stroke-dashoffset="178.691143" stroke-width="1.2"/><path d="M11060.369 138.459s1.041 32.4 34.5 47.007c0 0 31.047 10.275 32.022 24l.777 27.636" stroke-dasharray="130.12569788344283,0.5050223038395956" stroke-dashoffset="130.63072" stroke-width="1.2"/><path d="M11186.279 138.459s-1.044 32.4-34.5 47.007c0 0-24.171 10.854-25.293 21.696" stroke-dasharray="95.29016937442474,0.36982442095213924" stroke-dashoffset="95.659994" stroke-width="1.2"/><path d="M11160.158 47.286l26.121 46.878-125.913 9.51-23.13-48.678" stroke-dasharray="232.92572748817895,0.9039927503402194" stroke-dashoffset="233.82972" stroke-width="1.2"/></g><g fill="#00000000" stroke="#e00a0a" stroke-width="4" stroke-miterlimit="1"><path d="M11360.158 47.466s-2.268-11.067-4.536-22.866-12.702-8.61-12.702-8.61-88.449 3.174-99.789 5.442c-11.34 2.268-8.163 10.434-8.163 10.434l2.268 22.401m122.922-6.981l-122.922 7.446m0-.465l-21.321 29.307 44.454 20.412v138.798l126.096-10.434V94.461m-170.55-10.887v123.375l44.454 35.835" stroke-dasharray="178.25508289820132,0.43606017784254286" stroke-dashoffset="178.691143" stroke-width="1.2"/><path d="M11260.369 138.459s1.041 32.4 34.5 47.007c0 0 31.047 10.275 32.022 24l.777 27.636" stroke-dasharray="130.3119419082027,0.31877827907970063" stroke-dashoffset="130.63072" stroke-width="1.2"/><path d="M11386.279 138.459s-1.044 32.4-34.5 47.007c0 0-24.171 10.854-25.293 21.696" stroke-dasharray="95.42655461541105,0.2334391799658306" stroke-dashoffset="95.659994" stroke-width="1.2"/><path d="M11360.158 47.286l26.121 46.878-125.913 9.51-23.13-48.678" stroke-dasharray="233.2591053348544,0.5706149036647494" stroke-dashoffset="233.82972" stroke-width="1.2"/></g><g fill="#00000000" stroke="#e00909" stroke-width="4" stroke-miterlimit="1"><path d="M11560.158 47.466s-2.268-11.067-4.536-22.866-12.702-8.61-12.702-8.61-88.449 3.174-99.789 5.442c-11.34 2.268-8.163 10.434-8.163 10.434l2.268 22.401m122.922-6.981l-122.922 7.446m0-.465l-21.321 29.307 44.454 20.412v138.798l126.096-10.434V94.461m-170.55-10.887v123.375l44.454 35.835" stroke-dasharray="178.44916313718852,0.24197993885533822" stroke-dashoffset="178.691143" stroke-width="1.2"/><path d="M11460.369 138.459s1.041 32.4 34.5 47.007c0 0 31.047 10.275 32.022 24l.777 27.636" stroke-dasharray="130.45382270294488,0.17689748433751654" stroke-dashoffset="130.63072" stroke-width="1.2"/><path d="M11586.279 138.459s-1.044 32.4-34.5 47.007c0 0-24.171 10.854-25.293 21.696" stroke-dasharray="95.5304529627926,0.1295408325842795" stroke-dashoffset="95.659994" stroke-width="1.2"/><path d="M11560.158 47.286l26.121 46.878-125.913 9.51-23.13-48.678" stroke-dasharray="233.5130727515097,0.3166474870094631" stroke-dashoffset="233.82972" stroke-width="1.2"/></g><g fill="#00000000" stroke="#e00909" stroke-width="4" stroke-miterlimit="1"><path d="M11760.158 47.466s-2.268-11.067-4.536-22.866-12.702-8.61-12.702-8.61-88.449 3.174-99.789 5.442c-11.34 2.268-8.163 10.434-8.163 10.434l2.268 22.401m122.922-6.981l-122.922 7.446m0-.465l-21.321 29.307 44.454 20.412v138.798l126.096-10.434V94.461m-170.55-10.887v123.375l44.454 35.835" stroke-dasharray="178.5850187020372,0.10612437400667848" stroke-dashoffset="178.691143" stroke-width="1.2"/><path d="M11660.369 138.459s1.041 32.4 34.5 47.007c0 0 31.047 10.275 32.022 24l.777 27.636" stroke-dasharray="130.55313881885377,0.07758136842863744" stroke-dashoffset="130.63072" stroke-width="1.2"/><path d="M11786.279 138.459s-1.044 32.4-34.5 47.007c0 0-24.171 10.854-25.293 21.696" stroke-dasharray="95.60318148344994,0.05681231192693693" stroke-dashoffset="95.659994" stroke-width="1.2"/><path d="M11760.158 47.286l26.121 46.878-125.913 9.51-23.13-48.678" stroke-dasharray="233.6908491548309,0.13887108368829065" stroke-dashoffset="233.82972" stroke-width="1.2"/></g><g fill="#00000000" stroke="#e00909" stroke-width="4" stroke-miterlimit="1"><path d="M11960.158 47.466s-2.268-11.067-4.536-22.866-12.702-8.61-12.702-8.61-88.449 3.174-99.789 5.442c-11.34 2.268-8.163 10.434-8.163 10.434l2.268 22.401m122.922-6.981l-122.922 7.446m0-.465l-21.321 29.307 44.454 20.412v138.798l126.096-10.434V94.461m-170.55-10.887v123.375l44.454 35.835" stroke-dasharray="178.66495658841973,0.026186487624143717" stroke-dashoffset="178.691143" stroke-width="1.2"/><path d="M11860.369 138.459s1.041 32.4 34.5 47.007c0 0 31.047 10.275 32.022 24l.777 27.636" stroke-dasharray="130.61157676652505,0.019143420757354" stroke-dashoffset="130.63072" stroke-width="1.2"/><path d="M11986.279 138.459s-1.044 32.4-34.5 47.007c0 0-24.171 10.854-25.293 21.696" stroke-dasharray="95.64597519769751,0.014018597679361608" stroke-dashoffset="95.659994" stroke-width="1.2"/><path d="M11960.158 47.286l26.121 46.878-125.913 9.51-23.13-48.678" stroke-dasharray="233.79545340822318,0.03426683029598836" stroke-dashoffset="233.82972" stroke-width="1.2"/></g><g fill="#00000000" stroke="#e00909" stroke-width="4" stroke-miterlimit="1"><path d="M12160.158 47.466s-2.268-11.067-4.536-22.866-12.702-8.61-12.702-8.61-88.449 3.174-99.789 5.442c-11.34 2.268-8.163 10.434-8.163 10.434l2.268 22.401m122.922-6.981l-122.922 7.446m0-.465l-21.321 29.307 44.454 20.412v138.798l126.096-10.434V94.461m-170.55-10.887v123.375l44.454 35.835" stroke-width="1.2"/><path d="M12060.369 138.459s1.041 32.4 34.5 47.007c0 0 31.047 10.275 32.022 24l.777 27.636" stroke-width="1.2"/><path d="M12186.279 138.459s-1.044 32.4-34.5 47.007c0 0-24.171 10.854-25.293 21.696M12160.158 47.286l26.121 46.878-125.913 9.51-23.13-48.678" stroke-width="1.2"/></g></svg>