<svg xmlns="http://www.w3.org/2000/svg" viewBox="0 0 12200 200" width="12200" height="200"><g stroke="#ffffff" stroke-width="2"><path d="M46.8 164S80 153.2 89.6 97.7c9.6-55.5 36.9-69.6 44-60.6 7 9 15.1 33-2.9 78.8s-58.1 62.5-67.2 64.7c-8.1 1.9-30.9 2.9-32.3-5.4-.3-1.9.7-3.8 2.3-4.8 2.3-1.4 7.1-3.9 13.3-6.4z" fill="none" stroke-dasharray="0,400.08654856447487" stroke-dashoffset="400.086549" stroke-miterlimit="10"/><path d="M190.6 125.1c-1.4-8.5-13.3-43.6-49.3-65.6 1 10.6-.2 24.8-5.9 43 31.8 15.5 37.5 38 37.5 38 2 6.3 4.3 11.3 5.5 13.7.9 1.7 2.7 2.8 4.6 2.6 8.4-.7 8.9-23.5 7.6-31.7zm-96.5 39.2c7.1 3.4 14.6 6 22.5 7.3 35.1 6 77.7 4.4 47.3-21.5-18.1-15.4-25.8-22.3-36.4-26.7-9 18.7-21.6 31.9-33.4 40.9z" fill="#00000000" stroke-dasharray="0,237.7030601530511" stroke-dashoffset="237.70306"/><path d="M73.8 68.7s12.1-18.4 25.4-26.4c13.3-8 25.8-11.5 21.1-19.7-4.7-8.2-35-5-55.9 8.2C44.2 43.5 15.7 74.5 12 109.9c-3.7 35.4.8 77.8 24.6 45.7 23.8-32.1 25.7-33.2 29.4-68.4.1 0 2.3-11.1 7.8-18.5z" fill="none" stroke-dasharray="0,402.7906500045848" stroke-dashoffset="402.79065" stroke-miterlimit="10"/></g><g stroke="#ffffff" stroke-width="2"><path d="M246.8 164s33.2-10.8 42.8-66.3c9.6-55.5 36.9-69.6 44-60.6 7 9 15.1 33-2.9 78.8s-58.1 62.5-67.2 64.7c-8.1 1.9-30.9 2.9-32.3-5.4-.3-1.9.7-3.8 2.3-4.8 2.3-1.4 7.1-3.9 13.3-6.4z" fill="none" stroke-dasharray="0.23929216578162985,399.8472563986932" stroke-dashoffset="400.086549" stroke-miterlimit="10"/><path d="M390.6 125.1c-1.4-8.5-13.3-43.6-49.3-65.6 1 10.6-.2 24.8-5.9 43 31.8 15.5 37.5 38 37.5 38 2 6.3 4.3 11.3 5.5 13.7.9 1.7 2.7 2.8 4.6 2.6 8.4-.7 8.9-23.5 7.6-31.7zm-96.5 39.2c7.1 3.4 14.6 6 22.5 7.3 35.1 6 77.7 4.4 47.3-21.5-18.1-15.4-25.8-22.3-36.4-26.7-9 18.7-21.6 31.9-33.4 40.9z" fill="#00000000" stroke-dasharray="0.14217043857393824,237.56088971447716" stroke-dashoffset="237.70306"/><path d="M273.8 68.7s12.1-18.4 25.4-26.4c13.3-8 25.8-11.5 21.1-19.7-4.7-8.2-35-5-55.9 8.2-20.2 12.7-48.7 43.7-52.4 79.1-3.7 35.4.8 77.8 24.6 45.7 23.8-32.1 25.7-33.2 29.4-68.4.1 0 2.3-11.1 7.8-18.5z" fill="none" stroke-dasharray="0.24090949156381083,402.549740513021" stroke-dashoffset="402.79065" stroke-miterlimit="10"/></g><g stroke="#fffefe" stroke-width="2"><path d="M446.8 164s33.2-10.8 42.8-66.3c9.6-55.5 36.9-69.6 44-60.6 7 9 15.1 33-2.9 78.8s-58.1 62.5-67.2 64.7c-8.1 1.9-30.9 2.9-32.3-5.4-.3-1.9.7-3.8 2.3-4.8 2.3-1.4 7.1-3.9 13.3-6.4z" fill="none" stroke-dasharray="0.9904015979258242,399.09614696654904" stroke-dashoffset="400.086549" stroke-miterlimit="10"/><path d="M590.6 125.1c-1.4-8.5-13.3-43.6-49.3-65.6 1 10.6-.2 24.8-5.9 43 31.8 15.5 37.5 38 37.5 38 2 6.3 4.3 11.3 5.5 13.7.9 1.7 2.7 2.8 4.6 2.6 8.4-.7 8.9-23.5 7.6-31.7zm-96.5 39.2c7.1 3.4 14.6 6 22.5 7.3 35.1 6 77.7 4.4 47.3-21.5-18.1-15.4-25.8-22.3-36.4-26.7-9 18.7-21.6 31.9-33.4 40.9z" fill="#00000000" stroke-dasharray="0.5884264078663505,237.11463374518476" stroke-dashoffset="237.70306"/><path d="M473.8 68.7s12.1-18.4 25.4-26.4c13.3-8 25.8-11.5 21.1-19.7-4.7-8.2-35-5-55.9 8.2-20.2 12.7-48.7 43.7-52.4 79.1-3.7 35.4.8 77.8 24.6 45.7 23.8-32.1 25.7-33.2 29.4-68.4.1 0 2.3-11.1 7.8-18.5z" fill="none" stroke-dasharray="0.9970955155215236,401.7935544890633" stroke-dashoffset="402.79065" stroke-miterlimit="10"/></g><g stroke="#fffefe" stroke-width="2"><path d="M646.8 164s33.2-10.8 42.8-66.3c9.6-55.5 36.9-69.6 44-60.6 7 9 15.1 33-2.9 78.8s-58.1 62.5-67.2 64.7c-8.1 1.9-30.9 2.9-32.3-5.4-.3-1.9.7-3.8 2.3-4.8 2.3-1.4 7.1-3.9 13.3-6.4z" fill="none" stroke-dasharray="2.308584297635575,397.7779642668393" stroke-dashoffset="400.086549" stroke-miterlimit="10"/><path d="M790.6 125.1c-1.4-8.5-13.3-43.6-49.3-65.6 1 10.6-.2 24.8-5.9 43 31.8 15.5 37.5 38 37.5 38 2 6.3 4.3 11.3 5.5 13.7.9 1.7 2.7 2.8 4.6 2.6 8.4-.7 8.9-23.5 7.6-31.7zm-96.5 39.2c7.1 3.4 14.6 6 22.5 7.3 35.1 6 77.7 4.4 47.3-21.5-18.1-15.4-25.8-22.3-36.4-26.7-9 18.7-21.6 31.9-33.4 40.9z" fill="#00000000" stroke-dasharray="1.3715971060217356,236.33146304702936" stroke-dashoffset="237.70306"/><path d="M673.8 68.7s12.1-18.4 25.4-26.4c13.3-8 25.8-11.5 21.1-19.7-4.7-8.2-35-5-55.9 8.2-20.2 12.7-48.7 43.7-52.4 79.1-3.7 35.4.8 77.8 24.6 45.7 23.8-32.1 25.7-33.2 29.4-68.4.1 0 2.3-11.1 7.8-18.5z" fill="none" stroke-dasharray="2.324187536850316,400.46646246773446" stroke-dashoffset="402.79065" stroke-miterlimit="10"/></g><g stroke="#fffdfd" stroke-width="2"><path d="M846.8 164s33.2-10.8 42.8-66.3c9.6-55.5 36.9-69.6 44-60.6 7 9 15.1 33-2.9 78.8s-58.1 62.5-67.2 64.7c-8.1 1.9-30.9 2.9-32.3-5.4-.3-1.9.7-3.8 2.3-4.8 2.3-1.4 7.1-3.9 13.3-6.4z" fill="none" stroke-dasharray="4.2572228848971445,395.8293256795777" stroke-dashoffset="400.086549" stroke-miterlimit="10"/><path d="M990.6 125.1c-1.4-8.5-13.3-43.6-49.3-65.6 1 10.6-.2 24.8-5.9 43 31.8 15.5 37.5 38 37.5 38 2 6.3 4.3 11.3 5.5 13.7.9 1.7 2.7 2.8 4.6 2.6 8.4-.7 8.9-23.5 7.6-31.7zm-96.5 39.2c7.1 3.4 14.6 6 22.5 7.3 35.1 6 77.7 4.4 47.3-21.5-18.1-15.4-25.8-22.3-36.4-26.7-9 18.7-21.6 31.9-33.4 40.9z" fill="#00000000" stroke-dasharray="2.529339991870716,235.17372016118037" stroke-dashoffset="237.70306"/><path d="M873.8 68.7s12.1-18.4 25.4-26.4c13.3-8 25.8-11.5 21.1-19.7-4.7-8.2-35-5-55.9 8.2-20.2 12.7-48.7 43.7-52.4 79.1-3.7 35.4.8 77.8 24.6 45.7 23.8-32.1 25.7-33.2 29.4-68.4.1 0 2.3-11.1 7.8-18.5z" fill="none" stroke-dasharray="4.2859965654300805,398.5046534391547" stroke-dashoffset="402.79065" stroke-miterlimit="10"/></g><g stroke="#fffbfb" stroke-width="2"><path d="M1046.8 164s33.2-10.8 42.8-66.3c9.6-55.5 36.9-69.6 44-60.6 7 9 15.1 33-2.9 78.8s-58.1 62.5-67.2 64.7c-8.1 1.9-30.9 2.9-32.3-5.4-.3-1.9.7-3.8 2.3-4.8 2.3-1.4 7.1-3.9 13.3-6.4z" fill="none" stroke-dasharray="6.909057290843848,393.177491273631" stroke-dashoffset="400.086549" stroke-miterlimit="10"/><path d="M1190.6 125.1c-1.4-8.5-13.3-43.6-49.3-65.6 1 10.6-.2 24.8-5.9 43 31.8 15.5 37.5 38 37.5 38 2 6.3 4.3 11.3 5.5 13.7.9 1.7 2.7 2.8 4.6 2.6 8.4-.7 8.9-23.5 7.6-31.7zm-96.5 39.2c7.1 3.4 14.6 6 22.5 7.3 35.1 6 77.7 4.4 47.3-21.5-18.1-15.4-25.8-22.3-36.4-26.7-9 18.7-21.6 31.9-33.4 40.9z" fill="#00000000" stroke-dasharray="4.10487197507384,233.59818817797725" stroke-dashoffset="237.70306"/><path d="M1073.8 68.7s12.1-18.4 25.4-26.4c13.3-8 25.8-11.5 21.1-19.7-4.7-8.2-35-5-55.9 8.2-20.2 12.7-48.7 43.7-52.4 79.1-3.7 35.4.8 77.8 24.6 45.7 23.8-32.1 25.7-33.2 29.4-68.4.1 0 2.3-11.1 7.8-18.5z" fill="none" stroke-dasharray="6.9557541663999185,395.8348958381849" stroke-dashoffset="402.79065" stroke-miterlimit="10"/></g><g stroke="#fef9f9" stroke-width="2"><path d="M1246.8 164s33.2-10.8 42.8-66.3c9.6-55.5 36.9-69.6 44-60.6 7 9 15.1 33-2.9 78.8s-58.1 62.5-67.2 64.7c-8.1 1.9-30.9 2.9-32.3-5.4-.3-1.9.7-3.8 2.3-4.8 2.3-1.4 7.1-3.9 13.3-6.4z" fill="none" stroke-dasharray="10.347444363377042,389.73910420109786" stroke-dashoffset="400.086549" stroke-miterlimit="10"/><path d="M1390.6 125.1c-1.4-8.5-13.3-43.6-49.3-65.6 1 10.6-.2 24.8-5.9 43 31.8 15.5 37.5 38 37.5 38 2 6.3 4.3 11.3 5.5 13.7.9 1.7 2.7 2.8 4.6 2.6 8.4-.7 8.9-23.5 7.6-31.7zm-96.5 39.2c7.1 3.4 14.6 6 22.5 7.3 35.1 6 77.7 4.4 47.3-21.5-18.1-15.4-25.8-22.3-36.4-26.7-9 18.7-21.6 31.9-33.4 40.9z" fill="#00000000" stroke-dasharray="6.147717784472799,231.5553423685783" stroke-dashoffset="237.70306"/><path d="M1273.8 68.7s12.1-18.4 25.4-26.4c13.3-8 25.8-11.5 21.1-19.7-4.7-8.2-35-5-55.9 8.2-20.2 12.7-48.7 43.7-52.4 79.1-3.7 35.4.8 77.8 24.6 45.7 23.8-32.1 25.7-33.2 29.4-68.4.1 0 2.3-11.1 7.8-18.5z" fill="none" stroke-dasharray="10.417380579190494,392.3732694253943" stroke-dashoffset="402.79065" stroke-miterlimit="10"/></g><g stroke="#fef7f7" stroke-width="2"><path d="M1446.8 164s33.2-10.8 42.8-66.3c9.6-55.5 36.9-69.6 44-60.6 7 9 15.1 33-2.9 78.8s-58.1 62.5-67.2 64.7c-8.1 1.9-30.9 2.9-32.3-5.4-.3-1.9.7-3.8 2.3-4.8 2.3-1.4 7.1-3.9 13.3-6.4z" fill="none" stroke-dasharray="14.667478760789688,385.41906980368515" stroke-dashoffset="400.086549" stroke-miterlimit="10"/><path d="M1590.6 125.1c-1.4-8.5-13.3-43.6-49.3-65.6 1 10.6-.2 24.8-5.9 43 31.8 15.5 37.5 38 37.5 38 2 6.3 4.3 11.3 5.5 13.7.9 1.7 2.7 2.8 4.6 2.6 8.4-.7 8.9-23.5 7.6-31.7zm-96.5 39.2c7.1 3.4 14.6 6 22.5 7.3 35.1 6 77.7 4.4 47.3-21.5-18.1-15.4-25.8-22.3-36.4-26.7-9 18.7-21.6 31.9-33.4 40.9z" fill="#00000000" stroke-dasharray="8.71437592360777,228.98868422944332" stroke-dashoffset="237.70306"/><path d="M1473.8 68.7s12.1-18.4 25.4-26.4c13.3-8 25.8-11.5 21.1-19.7-4.7-8.2-35-5-55.9 8.2-20.2 12.7-48.7 43.7-52.4 79.1-3.7 35.4.8 77.8 24.6 45.7 23.8-32.1 25.7-33.2 29.4-68.4.1 0 2.3-11.1 7.8-18.5z" fill="none" stroke-dasharray="14.766613187033569,388.02403681755123" stroke-dashoffset="402.79065" stroke-miterlimit="10"/></g><g stroke="#fef4f4" stroke-width="2"><path d="M1646.8 164s33.2-10.8 42.8-66.3c9.6-55.5 36.9-69.6 44-60.6 7 9 15.1 33-2.9 78.8s-58.1 62.5-67.2 64.7c-8.1 1.9-30.9 2.9-32.3-5.4-.3-1.9.7-3.8 2.3-4.8 2.3-1.4 7.1-3.9 13.3-6.4z" fill="none" stroke-dasharray="19.9766442226008,380.109904341874" stroke-dashoffset="400.086549" stroke-miterlimit="10"/><path d="M1790.6 125.1c-1.4-8.5-13.3-43.6-49.3-65.6 1 10.6-.2 24.8-5.9 43 31.8 15.5 37.5 38 37.5 38 2 6.3 4.3 11.3 5.5 13.7.9 1.7 2.7 2.8 4.6 2.6 8.4-.7 8.9-23.5 7.6-31.7zm-96.5 39.2c7.1 3.4 14.6 6 22.5 7.3 35.1 6 77.7 4.4 47.3-21.5-18.1-15.4-25.8-22.3-36.4-26.7-9 18.7-21.6 31.9-33.4 40.9z" fill="#00000000" stroke-dasharray="11.868705609670716,225.83435454338036" stroke-dashoffset="237.70306"/><path d="M1673.8 68.7s12.1-18.4 25.4-26.4c13.3-8 25.8-11.5 21.1-19.7-4.7-8.2-35-5-55.9 8.2-20.2 12.7-48.7 43.7-52.4 79.1-3.7 35.4.8 77.8 24.6 45.7 23.8-32.1 25.7-33.2 29.4-68.4.1 0 2.3-11.1 7.8-18.5z" fill="none" stroke-dasharray="20.11166218959999,382.6789878149848" stroke-dashoffset="402.79065" stroke-miterlimit="10"/></g><g stroke="#fdf0f0" stroke-width="2"><path d="M1846.8 164s33.2-10.8 42.8-66.3c9.6-55.5 36.9-69.6 44-60.6 7 9 15.1 33-2.9 78.8s-58.1 62.5-67.2 64.7c-8.1 1.9-30.9 2.9-32.3-5.4-.3-1.9.7-3.8 2.3-4.8 2.3-1.4 7.1-3.9 13.3-6.4z" fill="none" stroke-dasharray="26.394386582979948,373.6921619814949" stroke-dashoffset="400.086549" stroke-miterlimit="10"/><path d="M1990.6 125.1c-1.4-8.5-13.3-43.6-49.3-65.6 1 10.6-.2 24.8-5.9 43 31.8 15.5 37.5 38 37.5 38 2 6.3 4.3 11.3 5.5 13.7.9 1.7 2.7 2.8 4.6 2.6 8.4-.7 8.9-23.5 7.6-31.7zm-96.5 39.2c7.1 3.4 14.6 6 22.5 7.3 35.1 6 77.7 4.4 47.3-21.5-18.1-15.4-25.8-22.3-36.4-26.7-9 18.7-21.6 31.9-33.4 40.9z" fill="#00000000" stroke-dasharray="15.681673088356515,222.02138706469458" stroke-dashoffset="237.70306"/><path d="M1873.8 68.7s12.1-18.4 25.4-26.4c13.3-8 25.8-11.5 21.1-19.7-4.7-8.2-35-5-55.9 8.2-20.2 12.7-48.7 43.7-52.4 79.1-3.7 35.4.8 77.8 24.6 45.7 23.8-32.1 25.7-33.2 29.4-68.4.1 0 2.3-11.1 7.8-18.5z" fill="none" stroke-dasharray="26.572780730511134,376.2178692740737" stroke-dashoffset="402.79065" stroke-miterlimit="10"/></g><g stroke="#fdecec" stroke-width="2"><path d="M2046.8 164s33.2-10.8 42.8-66.3c9.6-55.5 36.9-69.6 44-60.6 7 9 15.1 33-2.9 78.8s-58.1 62.5-67.2 64.7c-8.1 1.9-30.9 2.9-32.3-5.4-.3-1.9.7-3.8 2.3-4.8 2.3-1.4 7.1-3.9 13.3-6.4z" fill="none" stroke-dasharray="34.04955839948251,366.03699016499235" stroke-dashoffset="400.086549" stroke-miterlimit="10"/><path d="M2190.6 125.1c-1.4-8.5-13.3-43.6-49.3-65.6 1 10.6-.2 24.8-5.9 43 31.8 15.5 37.5 38 37.5 38 2 6.3 4.3 11.3 5.5 13.7.9 1.7 2.7 2.8 4.6 2.6 8.4-.7 8.9-23.5 7.6-31.7zm-96.5 39.2c7.1 3.4 14.6 6 22.5 7.3 35.1 6 77.7 4.4 47.3-21.5-18.1-15.4-25.8-22.3-36.4-26.7-9 18.7-21.6 31.9-33.4 40.9z" fill="#00000000" stroke-dasharray="20.229833413438794,217.4732267396123" stroke-dashoffset="237.70306"/><path d="M2073.8 68.7s12.1-18.4 25.4-26.4c13.3-8 25.8-11.5 21.1-19.7-4.7-8.2-35-5-55.9 8.2-20.2 12.7-48.7 43.7-52.4 79.1-3.7 35.4.8 77.8 24.6 45.7 23.8-32.1 25.7-33.2 29.4-68.4.1 0 2.3-11.1 7.8-18.5z" fill="none" stroke-dasharray="34.27969225485332,368.51095774973146" stroke-dashoffset="402.79065" stroke-miterlimit="10"/></g><g stroke="#fce7e6" stroke-width="2"><path d="M2246.8 164s33.2-10.8 42.8-66.3c9.6-55.5 36.9-69.6 44-60.6 7 9 15.1 33-2.9 78.8s-58.1 62.5-67.2 64.7c-8.1 1.9-30.9 2.9-32.3-5.4-.3-1.9.7-3.8 2.3-4.8 2.3-1.4 7.1-3.9 13.3-6.4z" fill="none" stroke-dasharray="43.07405937768213,357.0124891867927" stroke-dashoffset="400.086549" stroke-miterlimit="10"/><path d="M2390.6 125.1c-1.4-8.5-13.3-43.6-49.3-65.6 1 10.6-.2 24.8-5.9 43 31.8 15.5 37.5 38 37.5 38 2 6.3 4.3 11.3 5.5 13.7.9 1.7 2.7 2.8 4.6 2.6 8.4-.7 8.9-23.5 7.6-31.7zm-96.5 39.2c7.1 3.4 14.6 6 22.5 7.3 35.1 6 77.7 4.4 47.3-21.5-18.1-15.4-25.8-22.3-36.4-26.7-9 18.7-21.6 31.9-33.4 40.9z" fill="#00000000" stroke-dasharray="25.591552037994248,212.11150811505684" stroke-dashoffset="237.70306"/><path d="M2273.8 68.7s12.1-18.4 25.4-26.4c13.3-8 25.8-11.5 21.1-19.7-4.7-8.2-35-5-55.9 8.2-20.2 12.7-48.7 43.7-52.4 79.1-3.7 35.4.8 77.8 24.6 45.7 23.8-32.1 25.7-33.2 29.4-68.4.1 0 2.3-11.1 7.8-18.5z" fill="none" stroke-dasharray="43.365187950768366,359.42546205381643" stroke-dashoffset="402.79065" stroke-miterlimit="10"/></g><g stroke="#fce1e0" stroke-width="2"><path d="M2446.8 164s33.2-10.8 42.8-66.3c9.6-55.5 36.9-69.6 44-60.6 7 9 15.1 33-2.9 78.8s-58.1 62.5-67.2 64.7c-8.1 1.9-30.9 2.9-32.3-5.4-.3-1.9.7-3.8 2.3-4.8 2.3-1.4 7.1-3.9 13.3-6.4z" fill="none" stroke-dasharray="53.590302931542794,346.4962456329321" stroke-dashoffset="400.086549" stroke-miterlimit="10"/><path d="M2590.6 125.1c-1.4-8.5-13.3-43.6-49.3-65.6 1 10.6-.2 24.8-5.9 43 31.8 15.5 37.5 38 37.5 38 2 6.3 4.3 11.3 5.5 13.7.9 1.7 2.7 2.8 4.6 2.6 8.4-.7 8.9-23.5 7.6-31.7zm-96.5 39.2c7.1 3.4 14.6 6 22.5 7.3 35.1 6 77.7 4.4 47.3-21.5-18.1-15.4-25.8-22.3-36.4-26.7-9 18.7-21.6 31.9-33.4 40.9z" fill="#00000000" stroke-dasharray="31.839558333223735,205.86350181982735" stroke-dashoffset="237.70306"/><path d="M2473.8 68.7s12.1-18.4 25.4-26.4c13.3-8 25.8-11.5 21.1-19.7-4.7-8.2-35-5-55.9 8.2-20.2 12.7-48.7 43.7-52.4 79.1-3.7 35.4.8 77.8 24.6 45.7 23.8-32.1 25.7-33.2 29.4-68.4.1 0 2.3-11.1 7.8-18.5z" fill="none" stroke-dasharray="53.95250859892418,348.83814140566056" stroke-dashoffset="402.79065" stroke-miterlimit="10"/></g><g stroke="#fbdbd9" stroke-width="2"><path d="M2646.8 164s33.2-10.8 42.8-66.3c9.6-55.5 36.9-69.6 44-60.6 7 9 15.1 33-2.9 78.8s-58.1 62.5-67.2 64.7c-8.1 1.9-30.9 2.9-32.3-5.4-.3-1.9.7-3.8 2.3-4.8 2.3-1.4 7.1-3.9 13.3-6.4z" fill="none" stroke-dasharray="65.68986529208489,334.39668327238996" stroke-dashoffset="400.086549" stroke-miterlimit="10"/><path d="M2790.6 125.1c-1.4-8.5-13.3-43.6-49.3-65.6 1 10.6-.2 24.8-5.9 43 31.8 15.5 37.5 38 37.5 38 2 6.3 4.3 11.3 5.5 13.7.9 1.7 2.7 2.8 4.6 2.6 8.4-.7 8.9-23.5 7.6-31.7zm-96.5 39.2c7.1 3.4 14.6 6 22.5 7.3 35.1 6 77.7 4.4 47.3-21.5-18.1-15.4-25.8-22.3-36.4-26.7-9 18.7-21.6 31.9-33.4 40.9z" fill="#00000000" stroke-dasharray="39.0282604026462,198.6747997504049" stroke-dashoffset="237.70306"/><path d="M2673.8 68.7s12.1-18.4 25.4-26.4c13.3-8 25.8-11.5 21.1-19.7-4.7-8.2-35-5-55.9 8.2-20.2 12.7-48.7 43.7-52.4 79.1-3.7 35.4.8 77.8 24.6 45.7 23.8-32.1 25.7-33.2 29.4-68.4.1 0 2.3-11.1 7.8-18.5z" fill="none" stroke-dasharray="66.13384937496471,336.6568006296201" stroke-dashoffset="402.79065" stroke-miterlimit="10"/></g><g stroke="#fad3d2" stroke-width="2"><path d="M2846.8 164s33.2-10.8 42.8-66.3c9.6-55.5 36.9-69.6 44-60.6 7 9 15.1 33-2.9 78.8s-58.1 62.5-67.2 64.7c-8.1 1.9-30.9 2.9-32.3-5.4-.3-1.9.7-3.8 2.3-4.8 2.3-1.4 7.1-3.9 13.3-6.4z" fill="none" stroke-dasharray="79.40200040177429,320.68454816270054" stroke-dashoffset="400.086549" stroke-miterlimit="10"/><path d="M2990.6 125.1c-1.4-8.5-13.3-43.6-49.3-65.6 1 10.6-.2 24.8-5.9 43 31.8 15.5 37.5 38 37.5 38 2 6.3 4.3 11.3 5.5 13.7.9 1.7 2.7 2.8 4.6 2.6 8.4-.7 8.9-23.5 7.6-31.7zm-96.5 39.2c7.1 3.4 14.6 6 22.5 7.3 35.1 6 77.7 4.4 47.3-21.5-18.1-15.4-25.8-22.3-36.4-26.7-9 18.7-21.6 31.9-33.4 40.9z" fill="#00000000" stroke-dasharray="47.175038864706885,190.5280212883442" stroke-dashoffset="237.70306"/><path d="M2873.8 68.7s12.1-18.4 25.4-26.4c13.3-8 25.8-11.5 21.1-19.7-4.7-8.2-35-5-55.9 8.2-20.2 12.7-48.7 43.7-52.4 79.1-3.7 35.4.8 77.8 24.6 45.7 23.8-32.1 25.7-33.2 29.4-68.4.1 0 2.3-11.1 7.8-18.5z" fill="none" stroke-dasharray="79.93866194264447,322.8519880619403" stroke-dashoffset="402.79065" stroke-miterlimit="10"/></g><g stroke="#f9cac9" stroke-width="2"><path d="M3046.8 164s33.2-10.8 42.8-66.3c9.6-55.5 36.9-69.6 44-60.6 7 9 15.1 33-2.9 78.8s-58.1 62.5-67.2 64.7c-8.1 1.9-30.9 2.9-32.3-5.4-.3-1.9.7-3.8 2.3-4.8 2.3-1.4 7.1-3.9 13.3-6.4z" fill="none" stroke-dasharray="94.65542048353396,305.43112808094094" stroke-dashoffset="400.086549" stroke-miterlimit="10"/><path d="M3190.6 125.1c-1.4-8.5-13.3-43.6-49.3-65.6 1 10.6-.2 24.8-5.9 43 31.8 15.5 37.5 38 37.5 38 2 6.3 4.3 11.3 5.5 13.7.9 1.7 2.7 2.8 4.6 2.6 8.4-.7 8.9-23.5 7.6-31.7zm-96.5 39.2c7.1 3.4 14.6 6 22.5 7.3 35.1 6 77.7 4.4 47.3-21.5-18.1-15.4-25.8-22.3-36.4-26.7-9 18.7-21.6 31.9-33.4 40.9z" fill="#00000000" stroke-dasharray="56.23753957672463,181.46552057632647" stroke-dashoffset="237.70306"/><path d="M3073.8 68.7s12.1-18.4 25.4-26.4c13.3-8 25.8-11.5 21.1-19.7-4.7-8.2-35-5-55.9 8.2-20.2 12.7-48.7 43.7-52.4 79.1-3.7 35.4.8 77.8 24.6 45.7 23.8-32.1 25.7-33.2 29.4-68.4.1 0 2.3-11.1 7.8-18.5z" fill="none" stroke-dasharray="95.29517670568669,307.4954732988981" stroke-dashoffset="402.79065" stroke-miterlimit="10"/></g><g stroke="#f8c1bf" stroke-width="2"><path d="M3246.8 164s33.2-10.8 42.8-66.3c9.6-55.5 36.9-69.6 44-60.6 7 9 15.1 33-2.9 78.8s-58.1 62.5-67.2 64.7c-8.1 1.9-30.9 2.9-32.3-5.4-.3-1.9.7-3.8 2.3-4.8 2.3-1.4 7.1-3.9 13.3-6.4z" fill="none" stroke-dasharray="111.24548003400648,288.8410685304684" stroke-dashoffset="400.086549" stroke-miterlimit="10"/><path d="M3390.6 125.1c-1.4-8.5-13.3-43.6-49.3-65.6 1 10.6-.2 24.8-5.9 43 31.8 15.5 37.5 38 37.5 38 2 6.3 4.3 11.3 5.5 13.7.9 1.7 2.7 2.8 4.6 2.6 8.4-.7 8.9-23.5 7.6-31.7zm-96.5 39.2c7.1 3.4 14.6 6 22.5 7.3 35.1 6 77.7 4.4 47.3-21.5-18.1-15.4-25.8-22.3-36.4-26.7-9 18.7-21.6 31.9-33.4 40.9z" fill="#00000000" stroke-dasharray="66.09417669041446,171.60888346263667" stroke-dashoffset="237.70306"/><path d="M3273.8 68.7s12.1-18.4 25.4-26.4c13.3-8 25.8-11.5 21.1-19.7-4.7-8.2-35-5-55.9 8.2-20.2 12.7-48.7 43.7-52.4 79.1-3.7 35.4.8 77.8 24.6 45.7 23.8-32.1 25.7-33.2 29.4-68.4.1 0 2.3-11.1 7.8-18.5z" fill="none" stroke-dasharray="111.99736500450854,290.79328500007625" stroke-dashoffset="402.79065" stroke-miterlimit="10"/></g><g stroke="#f7b8b5" stroke-width="2"><path d="M3446.8 164s33.2-10.8 42.8-66.3c9.6-55.5 36.9-69.6 44-60.6 7 9 15.1 33-2.9 78.8s-58.1 62.5-67.2 64.7c-8.1 1.9-30.9 2.9-32.3-5.4-.3-1.9.7-3.8 2.3-4.8 2.3-1.4 7.1-3.9 13.3-6.4z" fill="none" stroke-dasharray="128.82707789165536,271.25947067281953" stroke-dashoffset="400.086549" stroke-miterlimit="10"/><path d="M3590.6 125.1c-1.4-8.5-13.3-43.6-49.3-65.6 1 10.6-.2 24.8-5.9 43 31.8 15.5 37.5 38 37.5 38 2 6.3 4.3 11.3 5.5 13.7.9 1.7 2.7 2.8 4.6 2.6 8.4-.7 8.9-23.5 7.6-31.7zm-96.5 39.2c7.1 3.4 14.6 6 22.5 7.3 35.1 6 77.7 4.4 47.3-21.5-18.1-15.4-25.8-22.3-36.4-26.7-9 18.7-21.6 31.9-33.4 40.9z" fill="#00000000" stroke-dasharray="76.53991556401215,161.16314458903895" stroke-dashoffset="237.70306"/><path d="M3473.8 68.7s12.1-18.4 25.4-26.4c13.3-8 25.8-11.5 21.1-19.7-4.7-8.2-35-5-55.9 8.2-20.2 12.7-48.7 43.7-52.4 79.1-3.7 35.4.8 77.8 24.6 45.7 23.8-32.1 25.7-33.2 29.4-68.4.1 0 2.3-11.1 7.8-18.5z" fill="none" stroke-dasharray="129.69779321088293,273.09285679370186" stroke-dashoffset="402.79065" stroke-miterlimit="10"/></g><g stroke="#f6adab" stroke-width="2"><path d="M3646.8 164s33.2-10.8 42.8-66.3c9.6-55.5 36.9-69.6 44-60.6 7 9 15.1 33-2.9 78.8s-58.1 62.5-67.2 64.7c-8.1 1.9-30.9 2.9-32.3-5.4-.3-1.9.7-3.8 2.3-4.8 2.3-1.4 7.1-3.9 13.3-6.4z" fill="none" stroke-dasharray="146.95007223068635,253.13647633378852" stroke-dashoffset="400.086549" stroke-miterlimit="10"/><path d="M3790.6 125.1c-1.4-8.5-13.3-43.6-49.3-65.6 1 10.6-.2 24.8-5.9 43 31.8 15.5 37.5 38 37.5 38 2 6.3 4.3 11.3 5.5 13.7.9 1.7 2.7 2.8 4.6 2.6 8.4-.7 8.9-23.5 7.6-31.7zm-96.5 39.2c7.1 3.4 14.6 6 22.5 7.3 35.1 6 77.7 4.4 47.3-21.5-18.1-15.4-25.8-22.3-36.4-26.7-9 18.7-21.6 31.9-33.4 40.9z" fill="#00000000" stroke-dasharray="87.30731384066243,150.39574631238867" stroke-dashoffset="237.70306"/><path d="M3673.8 68.7s12.1-18.4 25.4-26.4c13.3-8 25.8-11.5 21.1-19.7-4.7-8.2-35-5-55.9 8.2-20.2 12.7-48.7 43.7-52.4 79.1-3.7 35.4.8 77.8 24.6 45.7 23.8-32.1 25.7-33.2 29.4-68.4.1 0 2.3-11.1 7.8-18.5z" fill="none" stroke-dasharray="147.9432770844087,254.8473729201761" stroke-dashoffset="402.79065" stroke-miterlimit="10"/></g><g stroke="#f5a3a0" stroke-width="2"><path d="M3846.8 164s33.2-10.8 42.8-66.3c9.6-55.5 36.9-69.6 44-60.6 7 9 15.1 33-2.9 78.8s-58.1 62.5-67.2 64.7c-8.1 1.9-30.9 2.9-32.3-5.4-.3-1.9.7-3.8 2.3-4.8 2.3-1.4 7.1-3.9 13.3-6.4z" fill="none" stroke-dasharray="165.13232776359405,234.9542208008808" stroke-dashoffset="400.086549" stroke-miterlimit="10"/><path d="M3990.6 125.1c-1.4-8.5-13.3-43.6-49.3-65.6 1 10.6-.2 24.8-5.9 43 31.8 15.5 37.5 38 37.5 38 2 6.3 4.3 11.3 5.5 13.7.9 1.7 2.7 2.8 4.6 2.6 8.4-.7 8.9-23.5 7.6-31.7zm-96.5 39.2c7.1 3.4 14.6 6 22.5 7.3 35.1 6 77.7 4.4 47.3-21.5-18.1-15.4-25.8-22.3-36.4-26.7-9 18.7-21.6 31.9-33.4 40.9z" fill="#00000000" stroke-dasharray="98.1099209169671,139.59313923608397" stroke-dashoffset="237.70306"/><path d="M3873.8 68.7s12.1-18.4 25.4-26.4c13.3-8 25.8-11.5 21.1-19.7-4.7-8.2-35-5-55.9 8.2-20.2 12.7-48.7 43.7-52.4 79.1-3.7 35.4.8 77.8 24.6 45.7 23.8-32.1 25.7-33.2 29.4-68.4.1 0 2.3-11.1 7.8-18.5z" fill="none" stroke-dasharray="166.2484226858463,236.54222731873847" stroke-dashoffset="402.79065" stroke-miterlimit="10"/></g><g stroke="#f49996" stroke-width="2"><path d="M4046.8 164s33.2-10.8 42.8-66.3c9.6-55.5 36.9-69.6 44-60.6 7 9 15.1 33-2.9 78.8s-58.1 62.5-67.2 64.7c-8.1 1.9-30.9 2.9-32.3-5.4-.3-1.9.7-3.8 2.3-4.8 2.3-1.4 7.1-3.9 13.3-6.4z" fill="none" stroke-dasharray="182.94027040843338,217.1462781560415" stroke-dashoffset="400.086549" stroke-miterlimit="10"/><path d="M4190.6 125.1c-1.4-8.5-13.3-43.6-49.3-65.6 1 10.6-.2 24.8-5.9 43 31.8 15.5 37.5 38 37.5 38 2 6.3 4.3 11.3 5.5 13.7.9 1.7 2.7 2.8 4.6 2.6 8.4-.7 8.9-23.5 7.6-31.7zm-96.5 39.2c7.1 3.4 14.6 6 22.5 7.3 35.1 6 77.7 4.4 47.3-21.5-18.1-15.4-25.8-22.3-36.4-26.7-9 18.7-21.6 31.9-33.4 40.9z" fill="#00000000" stroke-dasharray="108.69013781477707,129.01292233827402" stroke-dashoffset="237.70306"/><path d="M4073.8 68.7s12.1-18.4 25.4-26.4c13.3-8 25.8-11.5 21.1-19.7-4.7-8.2-35-5-55.9 8.2-20.2 12.7-48.7 43.7-52.4 79.1-3.7 35.4.8 77.8 24.6 45.7 23.8-32.1 25.7-33.2 29.4-68.4.1 0 2.3-11.1 7.8-18.5z" fill="none" stroke-dasharray="184.17672549656496,218.61392450801984" stroke-dashoffset="402.79065" stroke-miterlimit="10"/></g><g stroke="#f3908d" stroke-width="2"><path d="M4246.8 164s33.2-10.8 42.8-66.3c9.6-55.5 36.9-69.6 44-60.6 7 9 15.1 33-2.9 78.8s-58.1 62.5-67.2 64.7c-8.1 1.9-30.9 2.9-32.3-5.4-.3-1.9.7-3.8 2.3-4.8 2.3-1.4 7.1-3.9 13.3-6.4z" fill="none" stroke-dasharray="200.04327428223738,200.0432742822375" stroke-dashoffset="400.086549" stroke-miterlimit="10"/><path d="M4390.6 125.1c-1.4-8.5-13.3-43.6-49.3-65.6 1 10.6-.2 24.8-5.9 43 31.8 15.5 37.5 38 37.5 38 2 6.3 4.3 11.3 5.5 13.7.9 1.7 2.7 2.8 4.6 2.6 8.4-.7 8.9-23.5 7.6-31.7zm-96.5 39.2c7.1 3.4 14.6 6 22.5 7.3 35.1 6 77.7 4.4 47.3-21.5-18.1-15.4-25.8-22.3-36.4-26.7-9 18.7-21.6 31.9-33.4 40.9z" fill="#00000000" stroke-dasharray="118.85153007652552,118.85153007652558" stroke-dashoffset="237.70306"/><path d="M4273.8 68.7s12.1-18.4 25.4-26.4c13.3-8 25.8-11.5 21.1-19.7-4.7-8.2-35-5-55.9 8.2-20.2 12.7-48.7 43.7-52.4 79.1-3.7 35.4.8 77.8 24.6 45.7 23.8-32.1 25.7-33.2 29.4-68.4.1 0 2.3-11.1 7.8-18.5z" fill="none" stroke-dasharray="201.39532500229234,201.39532500229245" stroke-dashoffset="402.79065" stroke-miterlimit="10"/></g><g stroke="#f28783" stroke-width="2"><path d="M4446.8 164s33.2-10.8 42.8-66.3c9.6-55.5 36.9-69.6 44-60.6 7 9 15.1 33-2.9 78.8s-58.1 62.5-67.2 64.7c-8.1 1.9-30.9 2.9-32.3-5.4-.3-1.9.7-3.8 2.3-4.8 2.3-1.4 7.1-3.9 13.3-6.4z" fill="none" stroke-dasharray="216.22893489591416,183.8576136685607" stroke-dashoffset="400.086549" stroke-miterlimit="10"/><path d="M4590.6 125.1c-1.4-8.5-13.3-43.6-49.3-65.6 1 10.6-.2 24.8-5.9 43 31.8 15.5 37.5 38 37.5 38 2 6.3 4.3 11.3 5.5 13.7.9 1.7 2.7 2.8 4.6 2.6 8.4-.7 8.9-23.5 7.6-31.7zm-96.5 39.2c7.1 3.4 14.6 6 22.5 7.3 35.1 6 77.7 4.4 47.3-21.5-18.1-15.4-25.8-22.3-36.4-26.7-9 18.7-21.6 31.9-33.4 40.9z" fill="#00000000" stroke-dasharray="128.46790201473294,109.23515813831814" stroke-dashoffset="237.70306"/><path d="M4473.8 68.7s12.1-18.4 25.4-26.4c13.3-8 25.8-11.5 21.1-19.7-4.7-8.2-35-5-55.9 8.2-20.2 12.7-48.7 43.7-52.4 79.1-3.7 35.4.8 77.8 24.6 45.7 23.8-32.1 25.7-33.2 29.4-68.4.1 0 2.3-11.1 7.8-18.5z" fill="none" stroke-dasharray="217.69038111634677,185.10026888823802" stroke-dashoffset="402.79065" stroke-miterlimit="10"/></g><g stroke="#f17f7b" stroke-width="2"><path d="M4646.8 164s33.2-10.8 42.8-66.3c9.6-55.5 36.9-69.6 44-60.6 7 9 15.1 33-2.9 78.8s-58.1 62.5-67.2 64.7c-8.1 1.9-30.9 2.9-32.3-5.4-.3-1.9.7-3.8 2.3-4.8 2.3-1.4 7.1-3.9 13.3-6.4z" fill="none" stroke-dasharray="231.3887091285166,168.69783943595826" stroke-dashoffset="400.086549" stroke-miterlimit="10"/><path d="M4790.6 125.1c-1.4-8.5-13.3-43.6-49.3-65.6 1 10.6-.2 24.8-5.9 43 31.8 15.5 37.5 38 37.5 38 2 6.3 4.3 11.3 5.5 13.7.9 1.7 2.7 2.8 4.6 2.6 8.4-.7 8.9-23.5 7.6-31.7zm-96.5 39.2c7.1 3.4 14.6 6 22.5 7.3 35.1 6 77.7 4.4 47.3-21.5-18.1-15.4-25.8-22.3-36.4-26.7-9 18.7-21.6 31.9-33.4 40.9z" fill="#00000000" stroke-dasharray="137.47476500287527,100.22829515017582" stroke-dashoffset="237.70306"/><path d="M4673.8 68.7s12.1-18.4 25.4-26.4c13.3-8 25.8-11.5 21.1-19.7-4.7-8.2-35-5-55.9 8.2-20.2 12.7-48.7 43.7-52.4 79.1-3.7 35.4.8 77.8 24.6 45.7 23.8-32.1 25.7-33.2 29.4-68.4.1 0 2.3-11.1 7.8-18.5z" fill="none" stroke-dasharray="232.95261709749138,169.8380329070934" stroke-dashoffset="402.79065" stroke-miterlimit="10"/></g><g stroke="#f07772" stroke-width="2"><path d="M4846.8 164s33.2-10.8 42.8-66.3c9.6-55.5 36.9-69.6 44-60.6 7 9 15.1 33-2.9 78.8s-58.1 62.5-67.2 64.7c-8.1 1.9-30.9 2.9-32.3-5.4-.3-1.9.7-3.8 2.3-4.8 2.3-1.4 7.1-3.9 13.3-6.4z" fill="none" stroke-dasharray="245.4910043481918,154.59554421628306" stroke-dashoffset="400.086549" stroke-miterlimit="10"/><path d="M4990.6 125.1c-1.4-8.5-13.3-43.6-49.3-65.6 1 10.6-.2 24.8-5.9 43 31.8 15.5 37.5 38 37.5 38 2 6.3 4.3 11.3 5.5 13.7.9 1.7 2.7 2.8 4.6 2.6 8.4-.7 8.9-23.5 7.6-31.7zm-96.5 39.2c7.1 3.4 14.6 6 22.5 7.3 35.1 6 77.7 4.4 47.3-21.5-18.1-15.4-25.8-22.3-36.4-26.7-9 18.7-21.6 31.9-33.4 40.9z" fill="#00000000" stroke-dasharray="145.85334893909157,91.84971121395951" stroke-dashoffset="237.70306"/><path d="M4873.8 68.7s12.1-18.4 25.4-26.4c13.3-8 25.8-11.5 21.1-19.7-4.7-8.2-35-5-55.9 8.2-20.2 12.7-48.7 43.7-52.4 79.1-3.7 35.4.8 77.8 24.6 45.7 23.8-32.1 25.7-33.2 29.4-68.4.1 0 2.3-11.1 7.8-18.5z" fill="none" stroke-dasharray="247.15022678587144,155.64042321871335" stroke-dashoffset="402.79065" stroke-miterlimit="10"/></g><g stroke="#ef706b" stroke-width="2"><path d="M5046.8 164s33.2-10.8 42.8-66.3c9.6-55.5 36.9-69.6 44-60.6 7 9 15.1 33-2.9 78.8s-58.1 62.5-67.2 64.7c-8.1 1.9-30.9 2.9-32.3-5.4-.3-1.9.7-3.8 2.3-4.8 2.3-1.4 7.1-3.9 13.3-6.4z" fill="none" stroke-dasharray="258.5543792234467,141.53216934102818" stroke-dashoffset="400.086549" stroke-miterlimit="10"/><path d="M5190.6 125.1c-1.4-8.5-13.3-43.6-49.3-65.6 1 10.6-.2 24.8-5.9 43 31.8 15.5 37.5 38 37.5 38 2 6.3 4.3 11.3 5.5 13.7.9 1.7 2.7 2.8 4.6 2.6 8.4-.7 8.9-23.5 7.6-31.7zm-96.5 39.2c7.1 3.4 14.6 6 22.5 7.3 35.1 6 77.7 4.4 47.3-21.5-18.1-15.4-25.8-22.3-36.4-26.7-9 18.7-21.6 31.9-33.4 40.9z" fill="#00000000" stroke-dasharray="153.61468006835887,84.08838008469223" stroke-dashoffset="237.70306"/><path d="M5073.8 68.7s12.1-18.4 25.4-26.4c13.3-8 25.8-11.5 21.1-19.7-4.7-8.2-35-5-55.9 8.2-20.2 12.7-48.7 43.7-52.4 79.1-3.7 35.4.8 77.8 24.6 45.7 23.8-32.1 25.7-33.2 29.4-68.4.1 0 2.3-11.1 7.8-18.5z" fill="none" stroke-dasharray="260.30189428415906,142.48875572042576" stroke-dashoffset="402.79065" stroke-miterlimit="10"/></g><g stroke="#ef6964" stroke-width="2"><path d="M5246.8 164s33.2-10.8 42.8-66.3c9.6-55.5 36.9-69.6 44-60.6 7 9 15.1 33-2.9 78.8s-58.1 62.5-67.2 64.7c-8.1 1.9-30.9 2.9-32.3-5.4-.3-1.9.7-3.8 2.3-4.8 2.3-1.4 7.1-3.9 13.3-6.4z" fill="none" stroke-dasharray="270.6264370145966,129.46011154987826" stroke-dashoffset="400.086549" stroke-miterlimit="10"/><path d="M5390.6 125.1c-1.4-8.5-13.3-43.6-49.3-65.6 1 10.6-.2 24.8-5.9 43 31.8 15.5 37.5 38 37.5 38 2 6.3 4.3 11.3 5.5 13.7.9 1.7 2.7 2.8 4.6 2.6 8.4-.7 8.9-23.5 7.6-31.7zm-96.5 39.2c7.1 3.4 14.6 6 22.5 7.3 35.1 6 77.7 4.4 47.3-21.5-18.1-15.4-25.8-22.3-36.4-26.7-9 18.7-21.6 31.9-33.4 40.9z" fill="#00000000" stroke-dasharray="160.78704087278214,76.91601928026897" stroke-dashoffset="237.70306"/><path d="M5273.8 68.7s12.1-18.4 25.4-26.4c13.3-8 25.8-11.5 21.1-19.7-4.7-8.2-35-5-55.9 8.2-20.2 12.7-48.7 43.7-52.4 79.1-3.7 35.4.8 77.8 24.6 45.7 23.8-32.1 25.7-33.2 29.4-68.4.1 0 2.3-11.1 7.8-18.5z" fill="none" stroke-dasharray="272.4555445931661,130.33510541141868" stroke-dashoffset="402.79065" stroke-miterlimit="10"/></g><g stroke="#ee635e" stroke-width="2"><path d="M5446.8 164s33.2-10.8 42.8-66.3c9.6-55.5 36.9-69.6 44-60.6 7 9 15.1 33-2.9 78.8s-58.1 62.5-67.2 64.7c-8.1 1.9-30.9 2.9-32.3-5.4-.3-1.9.7-3.8 2.3-4.8 2.3-1.4 7.1-3.9 13.3-6.4z" fill="none" stroke-dasharray="281.76924817419933,118.31730039027553" stroke-dashoffset="400.086549" stroke-miterlimit="10"/><path d="M5590.6 125.1c-1.4-8.5-13.3-43.6-49.3-65.6 1 10.6-.2 24.8-5.9 43 31.8 15.5 37.5 38 37.5 38 2 6.3 4.3 11.3 5.5 13.7.9 1.7 2.7 2.8 4.6 2.6 8.4-.7 8.9-23.5 7.6-31.7zm-96.5 39.2c7.1 3.4 14.6 6 22.5 7.3 35.1 6 77.7 4.4 47.3-21.5-18.1-15.4-25.8-22.3-36.4-26.7-9 18.7-21.6 31.9-33.4 40.9z" fill="#00000000" stroke-dasharray="167.40730921434147,70.29575093870963" stroke-dashoffset="237.70306"/><path d="M5473.8 68.7s12.1-18.4 25.4-26.4c13.3-8 25.8-11.5 21.1-19.7-4.7-8.2-35-5-55.9 8.2-20.2 12.7-48.7 43.7-52.4 79.1-3.7 35.4.8 77.8 24.6 45.7 23.8-32.1 25.7-33.2 29.4-68.4.1 0 2.3-11.1 7.8-18.5z" fill="none" stroke-dasharray="283.6736676866783,119.1169823179065" stroke-dashoffset="402.79065" stroke-miterlimit="10"/></g><g stroke="#ed5d58" stroke-width="2"><path d="M5646.8 164s33.2-10.8 42.8-66.3c9.6-55.5 36.9-69.6 44-60.6 7 9 15.1 33-2.9 78.8s-58.1 62.5-67.2 64.7c-8.1 1.9-30.9 2.9-32.3-5.4-.3-1.9.7-3.8 2.3-4.8 2.3-1.4 7.1-3.9 13.3-6.4z" fill="none" stroke-dasharray="292.0501348009494,108.03641376352547" stroke-dashoffset="400.086549" stroke-miterlimit="10"/><path d="M5790.6 125.1c-1.4-8.5-13.3-43.6-49.3-65.6 1 10.6-.2 24.8-5.9 43 31.8 15.5 37.5 38 37.5 38 2 6.3 4.3 11.3 5.5 13.7.9 1.7 2.7 2.8 4.6 2.6 8.4-.7 8.9-23.5 7.6-31.7zm-96.5 39.2c7.1 3.4 14.6 6 22.5 7.3 35.1 6 77.7 4.4 47.3-21.5-18.1-15.4-25.8-22.3-36.4-26.7-9 18.7-21.6 31.9-33.4 40.9z" fill="#00000000" stroke-dasharray="173.51548311079839,64.18757704225271" stroke-dashoffset="237.70306"/><path d="M5673.8 68.7s12.1-18.4 25.4-26.4c13.3-8 25.8-11.5 21.1-19.7-4.7-8.2-35-5-55.9 8.2-20.2 12.7-48.7 43.7-52.4 79.1-3.7 35.4.8 77.8 24.6 45.7 23.8-32.1 25.7-33.2 29.4-68.4.1 0 2.3-11.1 7.8-18.5z" fill="none" stroke-dasharray="294.0240406793978,108.766609325187" stroke-dashoffset="402.79065" stroke-miterlimit="10"/></g><g stroke="#ed5852" stroke-width="2"><path d="M5846.8 164s33.2-10.8 42.8-66.3c9.6-55.5 36.9-69.6 44-60.6 7 9 15.1 33-2.9 78.8s-58.1 62.5-67.2 64.7c-8.1 1.9-30.9 2.9-32.3-5.4-.3-1.9.7-3.8 2.3-4.8 2.3-1.4 7.1-3.9 13.3-6.4z" fill="none" stroke-dasharray="301.5362529293707,98.55029563510418" stroke-dashoffset="400.086549" stroke-miterlimit="10"/><path d="M5990.6 125.1c-1.4-8.5-13.3-43.6-49.3-65.6 1 10.6-.2 24.8-5.9 43 31.8 15.5 37.5 38 37.5 38 2 6.3 4.3 11.3 5.5 13.7.9 1.7 2.7 2.8 4.6 2.6 8.4-.7 8.9-23.5 7.6-31.7zm-96.5 39.2c7.1 3.4 14.6 6 22.5 7.3 35.1 6 77.7 4.4 47.3-21.5-18.1-15.4-25.8-22.3-36.4-26.7-9 18.7-21.6 31.9-33.4 40.9z" fill="#00000000" stroke-dasharray="179.1514619163585,58.551598236692605" stroke-dashoffset="237.70306"/><path d="M5873.8 68.7s12.1-18.4 25.4-26.4c13.3-8 25.8-11.5 21.1-19.7-4.7-8.2-35-5-55.9 8.2-20.2 12.7-48.7 43.7-52.4 79.1-3.7 35.4.8 77.8 24.6 45.7 23.8-32.1 25.7-33.2 29.4-68.4.1 0 2.3-11.1 7.8-18.5z" fill="none" stroke-dasharray="303.57427349946306,99.21637650512173" stroke-dashoffset="402.79065" stroke-miterlimit="10"/></g><g stroke="#ec534d" stroke-width="2"><path d="M6046.8 164s33.2-10.8 42.8-66.3c9.6-55.5 36.9-69.6 44-60.6 7 9 15.1 33-2.9 78.8s-58.1 62.5-67.2 64.7c-8.1 1.9-30.9 2.9-32.3-5.4-.3-1.9.7-3.8 2.3-4.8 2.3-1.4 7.1-3.9 13.3-6.4z" fill="none" stroke-dasharray="310.29164816461844,89.79490039985642" stroke-dashoffset="400.086549" stroke-miterlimit="10"/><path d="M6190.6 125.1c-1.4-8.5-13.3-43.6-49.3-65.6 1 10.6-.2 24.8-5.9 43 31.8 15.5 37.5 38 37.5 38 2 6.3 4.3 11.3 5.5 13.7.9 1.7 2.7 2.8 4.6 2.6 8.4-.7 8.9-23.5 7.6-31.7zm-96.5 39.2c7.1 3.4 14.6 6 22.5 7.3 35.1 6 77.7 4.4 47.3-21.5-18.1-15.4-25.8-22.3-36.4-26.7-9 18.7-21.6 31.9-33.4 40.9z" fill="#00000000" stroke-dasharray="184.35329698863274,53.34976316441837" stroke-dashoffset="237.70306"/><path d="M6073.8 68.7s12.1-18.4 25.4-26.4c13.3-8 25.8-11.5 21.1-19.7-4.7-8.2-35-5-55.9 8.2-20.2 12.7-48.7 43.7-52.4 79.1-3.7 35.4.8 77.8 24.6 45.7 23.8-32.1 25.7-33.2 29.4-68.4.1 0 2.3-11.1 7.8-18.5z" fill="none" stroke-dasharray="312.38884462290133,90.40180538168349" stroke-dashoffset="402.79065" stroke-miterlimit="10"/></g><g stroke="#ec4e49" stroke-width="2"><path d="M6246.8 164s33.2-10.8 42.8-66.3c9.6-55.5 36.9-69.6 44-60.6 7 9 15.1 33-2.9 78.8s-58.1 62.5-67.2 64.7c-8.1 1.9-30.9 2.9-32.3-5.4-.3-1.9.7-3.8 2.3-4.8 2.3-1.4 7.1-3.9 13.3-6.4z" fill="none" stroke-dasharray="318.3758345507674,81.71071401370743" stroke-dashoffset="400.086549" stroke-miterlimit="10"/><path d="M6390.6 125.1c-1.4-8.5-13.3-43.6-49.3-65.6 1 10.6-.2 24.8-5.9 43 31.8 15.5 37.5 38 37.5 38 2 6.3 4.3 11.3 5.5 13.7.9 1.7 2.7 2.8 4.6 2.6 8.4-.7 8.9-23.5 7.6-31.7zm-96.5 39.2c7.1 3.4 14.6 6 22.5 7.3 35.1 6 77.7 4.4 47.3-21.5-18.1-15.4-25.8-22.3-36.4-26.7-9 18.7-21.6 31.9-33.4 40.9z" fill="#00000000" stroke-dasharray="189.15634735293554,48.54671280011557" stroke-dashoffset="237.70306"/><path d="M6273.8 68.7s12.1-18.4 25.4-26.4c13.3-8 25.8-11.5 21.1-19.7-4.7-8.2-35-5-55.9 8.2-20.2 12.7-48.7 43.7-52.4 79.1-3.7 35.4.8 77.8 24.6 45.7 23.8-32.1 25.7-33.2 29.4-68.4.1 0 2.3-11.1 7.8-18.5z" fill="none" stroke-dasharray="320.5276703367841,82.26297966780069" stroke-dashoffset="402.79065" stroke-miterlimit="10"/></g><g stroke="#eb4a44" stroke-width="2"><path d="M6446.8 164s33.2-10.8 42.8-66.3c9.6-55.5 36.9-69.6 44-60.6 7 9 15.1 33-2.9 78.8s-58.1 62.5-67.2 64.7c-8.1 1.9-30.9 2.9-32.3-5.4-.3-1.9.7-3.8 2.3-4.8 2.3-1.4 7.1-3.9 13.3-6.4z" fill="none" stroke-dasharray="325.8432703215292,74.24327824294569" stroke-dashoffset="400.086549" stroke-miterlimit="10"/><path d="M6590.6 125.1c-1.4-8.5-13.3-43.6-49.3-65.6 1 10.6-.2 24.8-5.9 43 31.8 15.5 37.5 38 37.5 38 2 6.3 4.3 11.3 5.5 13.7.9 1.7 2.7 2.8 4.6 2.6 8.4-.7 8.9-23.5 7.6-31.7zm-96.5 39.2c7.1 3.4 14.6 6 22.5 7.3 35.1 6 77.7 4.4 47.3-21.5-18.1-15.4-25.8-22.3-36.4-26.7-9 18.7-21.6 31.9-33.4 40.9z" fill="#00000000" stroke-dasharray="193.5929682305314,44.1100919225197" stroke-dashoffset="237.70306"/><path d="M6473.8 68.7s12.1-18.4 25.4-26.4c13.3-8 25.8-11.5 21.1-19.7-4.7-8.2-35-5-55.9 8.2-20.2 12.7-48.7 43.7-52.4 79.1-3.7 35.4.8 77.8 24.6 45.7 23.8-32.1 25.7-33.2 29.4-68.4.1 0 2.3-11.1 7.8-18.5z" fill="none" stroke-dasharray="328.0455769466533,74.74507305793152" stroke-dashoffset="402.79065" stroke-miterlimit="10"/></g><g stroke="#eb4641" stroke-width="2"><path d="M6646.8 164s33.2-10.8 42.8-66.3c9.6-55.5 36.9-69.6 44-60.6 7 9 15.1 33-2.9 78.8s-58.1 62.5-67.2 64.7c-8.1 1.9-30.9 2.9-32.3-5.4-.3-1.9.7-3.8 2.3-4.8 2.3-1.4 7.1-3.9 13.3-6.4z" fill="none" stroke-dasharray="332.7433377682753,67.34321079619954" stroke-dashoffset="400.086549" stroke-miterlimit="10"/><path d="M6790.6 125.1c-1.4-8.5-13.3-43.6-49.3-65.6 1 10.6-.2 24.8-5.9 43 31.8 15.5 37.5 38 37.5 38 2 6.3 4.3 11.3 5.5 13.7.9 1.7 2.7 2.8 4.6 2.6 8.4-.7 8.9-23.5 7.6-31.7zm-96.5 39.2c7.1 3.4 14.6 6 22.5 7.3 35.1 6 77.7 4.4 47.3-21.5-18.1-15.4-25.8-22.3-36.4-26.7-9 18.7-21.6 31.9-33.4 40.9z" fill="#00000000" stroke-dasharray="197.69249907764183,40.01056107540928" stroke-dashoffset="237.70306"/><path d="M6673.8 68.7s12.1-18.4 25.4-26.4c13.3-8 25.8-11.5 21.1-19.7-4.7-8.2-35-5-55.9 8.2-20.2 12.7-48.7 43.7-52.4 79.1-3.7 35.4.8 77.8 24.6 45.7 23.8-32.1 25.7-33.2 29.4-68.4.1 0 2.3-11.1 7.8-18.5z" fill="none" stroke-dasharray="334.99228050847637,67.7983694961084" stroke-dashoffset="402.79065" stroke-miterlimit="10"/></g><g stroke="#eb433d" stroke-width="2"><path d="M6846.8 164s33.2-10.8 42.8-66.3c9.6-55.5 36.9-69.6 44-60.6 7 9 15.1 33-2.9 78.8s-58.1 62.5-67.2 64.7c-8.1 1.9-30.9 2.9-32.3-5.4-.3-1.9.7-3.8 2.3-4.8 2.3-1.4 7.1-3.9 13.3-6.4z" fill="none" stroke-dasharray="339.12058915471107,60.965959409763826" stroke-dashoffset="400.086549" stroke-miterlimit="10"/><path d="M6990.6 125.1c-1.4-8.5-13.3-43.6-49.3-65.6 1 10.6-.2 24.8-5.9 43 31.8 15.5 37.5 38 37.5 38 2 6.3 4.3 11.3 5.5 13.7.9 1.7 2.7 2.8 4.6 2.6 8.4-.7 8.9-23.5 7.6-31.7zm-96.5 39.2c7.1 3.4 14.6 6 22.5 7.3 35.1 6 77.7 4.4 47.3-21.5-18.1-15.4-25.8-22.3-36.4-26.7-9 18.7-21.6 31.9-33.4 40.9z" fill="#00000000" stroke-dasharray="201.48140969050831,36.2216504625428" stroke-dashoffset="237.70306"/><path d="M6873.8 68.7s12.1-18.4 25.4-26.4c13.3-8 25.8-11.5 21.1-19.7-4.7-8.2-35-5-55.9 8.2-20.2 12.7-48.7 43.7-52.4 79.1-3.7 35.4.8 77.8 24.6 45.7 23.8-32.1 25.7-33.2 29.4-68.4.1 0 2.3-11.1 7.8-18.5z" fill="none" stroke-dasharray="341.4126344054061,61.378015599178696" stroke-dashoffset="402.79065" stroke-miterlimit="10"/></g><g stroke="#ea403a" stroke-width="2"><path d="M7046.8 164s33.2-10.8 42.8-66.3c9.6-55.5 36.9-69.6 44-60.6 7 9 15.1 33-2.9 78.8s-58.1 62.5-67.2 64.7c-8.1 1.9-30.9 2.9-32.3-5.4-.3-1.9.7-3.8 2.3-4.8 2.3-1.4 7.1-3.9 13.3-6.4z" fill="none" stroke-dasharray="345.0151183178509,55.071430246623954" stroke-dashoffset="400.086549" stroke-miterlimit="10"/><path d="M7190.6 125.1c-1.4-8.5-13.3-43.6-49.3-65.6 1 10.6-.2 24.8-5.9 43 31.8 15.5 37.5 38 37.5 38 2 6.3 4.3 11.3 5.5 13.7.9 1.7 2.7 2.8 4.6 2.6 8.4-.7 8.9-23.5 7.6-31.7zm-96.5 39.2c7.1 3.4 14.6 6 22.5 7.3 35.1 6 77.7 4.4 47.3-21.5-18.1-15.4-25.8-22.3-36.4-26.7-9 18.7-21.6 31.9-33.4 40.9z" fill="#00000000" stroke-dasharray="204.9835209843449,32.7195391687062" stroke-dashoffset="237.70306"/><path d="M7073.8 68.7s12.1-18.4 25.4-26.4c13.3-8 25.8-11.5 21.1-19.7-4.7-8.2-35-5-55.9 8.2-20.2 12.7-48.7 43.7-52.4 79.1-3.7 35.4.8 77.8 24.6 45.7 23.8-32.1 25.7-33.2 29.4-68.4.1 0 2.3-11.1 7.8-18.5z" fill="none" stroke-dasharray="347.3470034603294,55.44364654425539" stroke-dashoffset="402.79065" stroke-miterlimit="10"/></g><g stroke="#ea3d36" stroke-width="2"><path d="M7246.8 164s33.2-10.8 42.8-66.3c9.6-55.5 36.9-69.6 44-60.6 7 9 15.1 33-2.9 78.8s-58.1 62.5-67.2 64.7c-8.1 1.9-30.9 2.9-32.3-5.4-.3-1.9.7-3.8 2.3-4.8 2.3-1.4 7.1-3.9 13.3-6.4z" fill="none" stroke-dasharray="350.46297754621327,49.623571018261586" stroke-dashoffset="400.086549" stroke-miterlimit="10"/><path d="M7390.6 125.1c-1.4-8.5-13.3-43.6-49.3-65.6 1 10.6-.2 24.8-5.9 43 31.8 15.5 37.5 38 37.5 38 2 6.3 4.3 11.3 5.5 13.7.9 1.7 2.7 2.8 4.6 2.6 8.4-.7 8.9-23.5 7.6-31.7zm-96.5 39.2c7.1 3.4 14.6 6 22.5 7.3 35.1 6 77.7 4.4 47.3-21.5-18.1-15.4-25.8-22.3-36.4-26.7-9 18.7-21.6 31.9-33.4 40.9z" fill="#00000000" stroke-dasharray="208.22025267280375,29.48280748024733" stroke-dashoffset="237.70306"/><path d="M7273.8 68.7s12.1-18.4 25.4-26.4c13.3-8 25.8-11.5 21.1-19.7-4.7-8.2-35-5-55.9 8.2-20.2 12.7-48.7 43.7-52.4 79.1-3.7 35.4.8 77.8 24.6 45.7 23.8-32.1 25.7-33.2 29.4-68.4.1 0 2.3-11.1 7.8-18.5z" fill="none" stroke-dasharray="352.8316836316547,49.958966372930085" stroke-dashoffset="402.79065" stroke-miterlimit="10"/></g><g stroke="#ea3a34" stroke-width="2"><path d="M7446.8 164s33.2-10.8 42.8-66.3c9.6-55.5 36.9-69.6 44-60.6 7 9 15.1 33-2.9 78.8s-58.1 62.5-67.2 64.7c-8.1 1.9-30.9 2.9-32.3-5.4-.3-1.9.7-3.8 2.3-4.8 2.3-1.4 7.1-3.9 13.3-6.4z" fill="none" stroke-dasharray="355.4965953752635,44.5899531892114" stroke-dashoffset="400.086549" stroke-miterlimit="10"/><path d="M7590.6 125.1c-1.4-8.5-13.3-43.6-49.3-65.6 1 10.6-.2 24.8-5.9 43 31.8 15.5 37.5 38 37.5 38 2 6.3 4.3 11.3 5.5 13.7.9 1.7 2.7 2.8 4.6 2.6 8.4-.7 8.9-23.5 7.6-31.7zm-96.5 39.2c7.1 3.4 14.6 6 22.5 7.3 35.1 6 77.7 4.4 47.3-21.5-18.1-15.4-25.8-22.3-36.4-26.7-9 18.7-21.6 31.9-33.4 40.9z" fill="#00000000" stroke-dasharray="211.21087149240492,26.492188660646182" stroke-dashoffset="237.70306"/><path d="M7473.8 68.7s12.1-18.4 25.4-26.4c13.3-8 25.8-11.5 21.1-19.7-4.7-8.2-35-5-55.9 8.2-20.2 12.7-48.7 43.7-52.4 79.1-3.7 35.4.8 77.8 24.6 45.7 23.8-32.1 25.7-33.2 29.4-68.4.1 0 2.3-11.1 7.8-18.5z" fill="none" stroke-dasharray="357.8993226325472,44.891327372037615" stroke-dashoffset="402.79065" stroke-miterlimit="10"/></g><g stroke="#e93731" stroke-width="2"><path d="M7646.8 164s33.2-10.8 42.8-66.3c9.6-55.5 36.9-69.6 44-60.6 7 9 15.1 33-2.9 78.8s-58.1 62.5-67.2 64.7c-8.1 1.9-30.9 2.9-32.3-5.4-.3-1.9.7-3.8 2.3-4.8 2.3-1.4 7.1-3.9 13.3-6.4z" fill="none" stroke-dasharray="360.14517225220135,39.941376312273505" stroke-dashoffset="400.086549" stroke-miterlimit="10"/><path d="M7790.6 125.1c-1.4-8.5-13.3-43.6-49.3-65.6 1 10.6-.2 24.8-5.9 43 31.8 15.5 37.5 38 37.5 38 2 6.3 4.3 11.3 5.5 13.7.9 1.7 2.7 2.8 4.6 2.6 8.4-.7 8.9-23.5 7.6-31.7zm-96.5 39.2c7.1 3.4 14.6 6 22.5 7.3 35.1 6 77.7 4.4 47.3-21.5-18.1-15.4-25.8-22.3-36.4-26.7-9 18.7-21.6 31.9-33.4 40.9z" fill="#00000000" stroke-dasharray="213.97272627849947,23.73033387455162" stroke-dashoffset="237.70306"/><path d="M7673.8 68.7s12.1-18.4 25.4-26.4c13.3-8 25.8-11.5 21.1-19.7-4.7-8.2-35-5-55.9 8.2-20.2 12.7-48.7 43.7-52.4 79.1-3.7 35.4.8 77.8 24.6 45.7 23.8-32.1 25.7-33.2 29.4-68.4.1 0 2.3-11.1 7.8-18.5z" fill="none" stroke-dasharray="362.579318269932,40.21133173465279" stroke-dashoffset="402.79065" stroke-miterlimit="10"/></g><g stroke="#e9352e" stroke-width="2"><path d="M7846.8 164s33.2-10.8 42.8-66.3c9.6-55.5 36.9-69.6 44-60.6 7 9 15.1 33-2.9 78.8s-58.1 62.5-67.2 64.7c-8.1 1.9-30.9 2.9-32.3-5.4-.3-1.9.7-3.8 2.3-4.8 2.3-1.4 7.1-3.9 13.3-6.4z" fill="none" stroke-dasharray="364.43504339602504,35.651505168449845" stroke-dashoffset="400.086549" stroke-miterlimit="10"/><path d="M7990.6 125.1c-1.4-8.5-13.3-43.6-49.3-65.6 1 10.6-.2 24.8-5.9 43 31.8 15.5 37.5 38 37.5 38 2 6.3 4.3 11.3 5.5 13.7.9 1.7 2.7 2.8 4.6 2.6 8.4-.7 8.9-23.5 7.6-31.7zm-96.5 39.2c7.1 3.4 14.6 6 22.5 7.3 35.1 6 77.7 4.4 47.3-21.5-18.1-15.4-25.8-22.3-36.4-26.7-9 18.7-21.6 31.9-33.4 40.9z" fill="#00000000" stroke-dasharray="216.52146355099197,21.18159660205913" stroke-dashoffset="237.70306"/><path d="M7873.8 68.7s12.1-18.4 25.4-26.4c13.3-8 25.8-11.5 21.1-19.7-4.7-8.2-35-5-55.9 8.2-20.2 12.7-48.7 43.7-52.4 79.1-3.7 35.4.8 77.8 24.6 45.7 23.8-32.1 25.7-33.2 29.4-68.4.1 0 2.3-11.1 7.8-18.5z" fill="none" stroke-dasharray="366.89818375705346,35.89246624753135" stroke-dashoffset="402.79065" stroke-miterlimit="10"/></g><g stroke="#e9332c" stroke-width="2"><path d="M8046.8 164s33.2-10.8 42.8-66.3c9.6-55.5 36.9-69.6 44-60.6 7 9 15.1 33-2.9 78.8s-58.1 62.5-67.2 64.7c-8.1 1.9-30.9 2.9-32.3-5.4-.3-1.9.7-3.8 2.3-4.8 2.3-1.4 7.1-3.9 13.3-6.4z" fill="none" stroke-dasharray="368.3900051939996,31.69654337047523" stroke-dashoffset="400.086549" stroke-miterlimit="10"/><path d="M8190.6 125.1c-1.4-8.5-13.3-43.6-49.3-65.6 1 10.6-.2 24.8-5.9 43 31.8 15.5 37.5 38 37.5 38 2 6.3 4.3 11.3 5.5 13.7.9 1.7 2.7 2.8 4.6 2.6 8.4-.7 8.9-23.5 7.6-31.7zm-96.5 39.2c7.1 3.4 14.6 6 22.5 7.3 35.1 6 77.7 4.4 47.3-21.5-18.1-15.4-25.8-22.3-36.4-26.7-9 18.7-21.6 31.9-33.4 40.9z" fill="#00000000" stroke-dasharray="218.8712214359799,18.831838717071204" stroke-dashoffset="237.70306"/><path d="M8073.8 68.7s12.1-18.4 25.4-26.4c13.3-8 25.8-11.5 21.1-19.7-4.7-8.2-35-5-55.9 8.2-20.2 12.7-48.7 43.7-52.4 79.1-3.7 35.4.8 77.8 24.6 45.7 23.8-32.1 25.7-33.2 29.4-68.4.1 0 2.3-11.1 7.8-18.5z" fill="none" stroke-dasharray="370.8798763159893,31.9107736885955" stroke-dashoffset="402.79065" stroke-miterlimit="10"/></g><g stroke="#e9312a" stroke-width="2"><path d="M8246.8 164s33.2-10.8 42.8-66.3c9.6-55.5 36.9-69.6 44-60.6 7 9 15.1 33-2.9 78.8s-58.1 62.5-67.2 64.7c-8.1 1.9-30.9 2.9-32.3-5.4-.3-1.9.7-3.8 2.3-4.8 2.3-1.4 7.1-3.9 13.3-6.4z" fill="none" stroke-dasharray="372.0316053106668,28.054943253808077" stroke-dashoffset="400.086549" stroke-miterlimit="10"/><path d="M8390.6 125.1c-1.4-8.5-13.3-43.6-49.3-65.6 1 10.6-.2 24.8-5.9 43 31.8 15.5 37.5 38 37.5 38 2 6.3 4.3 11.3 5.5 13.7.9 1.7 2.7 2.8 4.6 2.6 8.4-.7 8.9-23.5 7.6-31.7zm-96.5 39.2c7.1 3.4 14.6 6 22.5 7.3 35.1 6 77.7 4.4 47.3-21.5-18.1-15.4-25.8-22.3-36.4-26.7-9 18.7-21.6 31.9-33.4 40.9z" fill="#00000000" stroke-dasharray="221.0348020279577,16.66825812509338" stroke-dashoffset="237.70306"/><path d="M8273.8 68.7s12.1-18.4 25.4-26.4c13.3-8 25.8-11.5 21.1-19.7-4.7-8.2-35-5-55.9 8.2-20.2 12.7-48.7 43.7-52.4 79.1-3.7 35.4.8 77.8 24.6 45.7 23.8-32.1 25.7-33.2 29.4-68.4.1 0 2.3-11.1 7.8-18.5z" fill="none" stroke-dasharray="374.54608924744645,28.244560757138355" stroke-dashoffset="402.79065" stroke-miterlimit="10"/></g><g stroke="#e82f28" stroke-width="2"><path d="M8446.8 164s33.2-10.8 42.8-66.3c9.6-55.5 36.9-69.6 44-60.6 7 9 15.1 33-2.9 78.8s-58.1 62.5-67.2 64.7c-8.1 1.9-30.9 2.9-32.3-5.4-.3-1.9.7-3.8 2.3-4.8 2.3-1.4 7.1-3.9 13.3-6.4z" fill="none" stroke-dasharray="375.3793986544427,24.707149910032193" stroke-dashoffset="400.086549" stroke-miterlimit="10"/><path d="M8590.6 125.1c-1.4-8.5-13.3-43.6-49.3-65.6 1 10.6-.2 24.8-5.9 43 31.8 15.5 37.5 38 37.5 38 2 6.3 4.3 11.3 5.5 13.7.9 1.7 2.7 2.8 4.6 2.6 8.4-.7 8.9-23.5 7.6-31.7zm-96.5 39.2c7.1 3.4 14.6 6 22.5 7.3 35.1 6 77.7 4.4 47.3-21.5-18.1-15.4-25.8-22.3-36.4-26.7-9 18.7-21.6 31.9-33.4 40.9z" fill="#00000000" stroke-dasharray="223.02382346702092,14.679236686030176" stroke-dashoffset="237.70306"/><path d="M8473.8 68.7s12.1-18.4 25.4-26.4c13.3-8 25.8-11.5 21.1-19.7-4.7-8.2-35-5-55.9 8.2-20.2 12.7-48.7 43.7-52.4 79.1-3.7 35.4.8 77.8 24.6 45.7 23.8-32.1 25.7-33.2 29.4-68.4.1 0 2.3-11.1 7.8-18.5z" fill="none" stroke-dasharray="377.9165096273838,24.87414037720098" stroke-dashoffset="402.79065" stroke-miterlimit="10"/></g><g stroke="#e82d26" stroke-width="2"><path d="M8646.8 164s33.2-10.8 42.8-66.3c9.6-55.5 36.9-69.6 44-60.6 7 9 15.1 33-2.9 78.8s-58.1 62.5-67.2 64.7c-8.1 1.9-30.9 2.9-32.3-5.4-.3-1.9.7-3.8 2.3-4.8 2.3-1.4 7.1-3.9 13.3-6.4z" fill="none" stroke-dasharray="378.4511722375377,21.63537632693716" stroke-dashoffset="400.086549" stroke-miterlimit="10"/><path d="M8790.6 125.1c-1.4-8.5-13.3-43.6-49.3-65.6 1 10.6-.2 24.8-5.9 43 31.8 15.5 37.5 38 37.5 38 2 6.3 4.3 11.3 5.5 13.7.9 1.7 2.7 2.8 4.6 2.6 8.4-.7 8.9-23.5 7.6-31.7zm-96.5 39.2c7.1 3.4 14.6 6 22.5 7.3 35.1 6 77.7 4.4 47.3-21.5-18.1-15.4-25.8-22.3-36.4-26.7-9 18.7-21.6 31.9-33.4 40.9z" fill="#00000000" stroke-dasharray="224.8488535346872,12.854206618363897" stroke-dashoffset="237.70306"/><path d="M8673.8 68.7s12.1-18.4 25.4-26.4c13.3-8 25.8-11.5 21.1-19.7-4.7-8.2-35-5-55.9 8.2-20.2 12.7-48.7 43.7-52.4 79.1-3.7 35.4.8 77.8 24.6 45.7 23.8-32.1 25.7-33.2 29.4-68.4.1 0 2.3-11.1 7.8-18.5z" fill="none" stroke-dasharray="381.00904468671325,21.781605317871513" stroke-dashoffset="402.79065" stroke-miterlimit="10"/></g><g stroke="#e82b25" stroke-width="2"><path d="M8846.8 164s33.2-10.8 42.8-66.3c9.6-55.5 36.9-69.6 44-60.6 7 9 15.1 33-2.9 78.8s-58.1 62.5-67.2 64.7c-8.1 1.9-30.9 2.9-32.3-5.4-.3-1.9.7-3.8 2.3-4.8 2.3-1.4 7.1-3.9 13.3-6.4z" fill="none" stroke-dasharray="381.26314224699684,18.82340631747806" stroke-dashoffset="400.086549" stroke-miterlimit="10"/><path d="M8990.6 125.1c-1.4-8.5-13.3-43.6-49.3-65.6 1 10.6-.2 24.8-5.9 43 31.8 15.5 37.5 38 37.5 38 2 6.3 4.3 11.3 5.5 13.7.9 1.7 2.7 2.8 4.6 2.6 8.4-.7 8.9-23.5 7.6-31.7zm-96.5 39.2c7.1 3.4 14.6 6 22.5 7.3 35.1 6 77.7 4.4 47.3-21.5-18.1-15.4-25.8-22.3-36.4-26.7-9 18.7-21.6 31.9-33.4 40.9z" fill="#00000000" stroke-dasharray="226.51952673953582,11.183533413515281" stroke-dashoffset="237.70306"/><path d="M8873.8 68.7s12.1-18.4 25.4-26.4c13.3-8 25.8-11.5 21.1-19.7-4.7-8.2-35-5-55.9 8.2-20.2 12.7-48.7 43.7-52.4 79.1-3.7 35.4.8 77.8 24.6 45.7 23.8-32.1 25.7-33.2 29.4-68.4.1 0 2.3-11.1 7.8-18.5z" fill="none" stroke-dasharray="383.8400202143019,18.95062979028288" stroke-dashoffset="402.79065" stroke-miterlimit="10"/></g><g stroke="#e82a23" stroke-width="2"><path d="M9046.8 164s33.2-10.8 42.8-66.3c9.6-55.5 36.9-69.6 44-60.6 7 9 15.1 33-2.9 78.8s-58.1 62.5-67.2 64.7c-8.1 1.9-30.9 2.9-32.3-5.4-.3-1.9.7-3.8 2.3-4.8 2.3-1.4 7.1-3.9 13.3-6.4z" fill="none" stroke-dasharray="383.8301265961687,16.25642196830616" stroke-dashoffset="400.086549" stroke-miterlimit="10"/><path d="M9190.6 125.1c-1.4-8.5-13.3-43.6-49.3-65.6 1 10.6-.2 24.8-5.9 43 31.8 15.5 37.5 38 37.5 38 2 6.3 4.3 11.3 5.5 13.7.9 1.7 2.7 2.8 4.6 2.6 8.4-.7 8.9-23.5 7.6-31.7zm-96.5 39.2c7.1 3.4 14.6 6 22.5 7.3 35.1 6 77.7 4.4 47.3-21.5-18.1-15.4-25.8-22.3-36.4-26.7-9 18.7-21.6 31.9-33.4 40.9z" fill="#00000000" stroke-dasharray="228.0446468350564,9.658413317994707" stroke-dashoffset="237.70306"/><path d="M9073.8 68.7s12.1-18.4 25.4-26.4c13.3-8 25.8-11.5 21.1-19.7-4.7-8.2-35-5-55.9 8.2-20.2 12.7-48.7 43.7-52.4 79.1-3.7 35.4.8 77.8 24.6 45.7 23.8-32.1 25.7-33.2 29.4-68.4.1 0 2.3-11.1 7.8-18.5z" fill="none" stroke-dasharray="386.42435427468064,16.366295729904138" stroke-dashoffset="402.79065" stroke-miterlimit="10"/></g><g stroke="#e82922" stroke-width="2"><path d="M9246.8 164s33.2-10.8 42.8-66.3c9.6-55.5 36.9-69.6 44-60.6 7 9 15.1 33-2.9 78.8s-58.1 62.5-67.2 64.7c-8.1 1.9-30.9 2.9-32.3-5.4-.3-1.9.7-3.8 2.3-4.8 2.3-1.4 7.1-3.9 13.3-6.4z" fill="none" stroke-dasharray="386.1656960097932,13.920852554681671" stroke-dashoffset="400.086549" stroke-miterlimit="10"/><path d="M9390.6 125.1c-1.4-8.5-13.3-43.6-49.3-65.6 1 10.6-.2 24.8-5.9 43 31.8 15.5 37.5 38 37.5 38 2 6.3 4.3 11.3 5.5 13.7.9 1.7 2.7 2.8 4.6 2.6 8.4-.7 8.9-23.5 7.6-31.7zm-96.5 39.2c7.1 3.4 14.6 6 22.5 7.3 35.1 6 77.7 4.4 47.3-21.5-18.1-15.4-25.8-22.3-36.4-26.7-9 18.7-21.6 31.9-33.4 40.9z" fill="#00000000" stroke-dasharray="229.43227658369548,8.270783569355606" stroke-dashoffset="237.70306"/><path d="M9273.8 68.7s12.1-18.4 25.4-26.4c13.3-8 25.8-11.5 21.1-19.7-4.7-8.2-35-5-55.9 8.2-20.2 12.7-48.7 43.7-52.4 79.1-3.7 35.4.8 77.8 24.6 45.7 23.8-32.1 25.7-33.2 29.4-68.4.1 0 2.3-11.1 7.8-18.5z" fill="none" stroke-dasharray="388.77570931428414,14.014940690300673" stroke-dashoffset="402.79065" stroke-miterlimit="10"/></g><g stroke="#e82821" stroke-width="2"><path d="M9446.8 164s33.2-10.8 42.8-66.3c9.6-55.5 36.9-69.6 44-60.6 7 9 15.1 33-2.9 78.8s-58.1 62.5-67.2 64.7c-8.1 1.9-30.9 2.9-32.3-5.4-.3-1.9.7-3.8 2.3-4.8 2.3-1.4 7.1-3.9 13.3-6.4z" fill="none" stroke-dasharray="388.2823064062197,11.804242158255194" stroke-dashoffset="400.086549" stroke-miterlimit="10"/><path d="M9590.6 125.1c-1.4-8.5-13.3-43.6-49.3-65.6 1 10.6-.2 24.8-5.9 43 31.8 15.5 37.5 38 37.5 38 2 6.3 4.3 11.3 5.5 13.7.9 1.7 2.7 2.8 4.6 2.6 8.4-.7 8.9-23.5 7.6-31.7zm-96.5 39.2c7.1 3.4 14.6 6 22.5 7.3 35.1 6 77.7 4.4 47.3-21.5-18.1-15.4-25.8-22.3-36.4-26.7-9 18.7-21.6 31.9-33.4 40.9z" fill="#00000000" stroke-dasharray="230.6898164089847,7.013243744066386" stroke-dashoffset="237.70306"/><path d="M9473.8 68.7s12.1-18.4 25.4-26.4c13.3-8 25.8-11.5 21.1-19.7-4.7-8.2-35-5-55.9 8.2-20.2 12.7-48.7 43.7-52.4 79.1-3.7 35.4.8 77.8 24.6 45.7 23.8-32.1 25.7-33.2 29.4-68.4.1 0 2.3-11.1 7.8-18.5z" fill="none" stroke-dasharray="390.9066254384129,11.884024566171865" stroke-dashoffset="402.79065" stroke-miterlimit="10"/></g><g stroke="#e82620" stroke-width="2"><path d="M9646.8 164s33.2-10.8 42.8-66.3c9.6-55.5 36.9-69.6 44-60.6 7 9 15.1 33-2.9 78.8s-58.1 62.5-67.2 64.7c-8.1 1.9-30.9 2.9-32.3-5.4-.3-1.9.7-3.8 2.3-4.8 2.3-1.4 7.1-3.9 13.3-6.4z" fill="none" stroke-dasharray="390.1914150299479,9.895133534526986" stroke-dashoffset="400.086549" stroke-miterlimit="10"/><path d="M9790.6 125.1c-1.4-8.5-13.3-43.6-49.3-65.6 1 10.6-.2 24.8-5.9 43 31.8 15.5 37.5 38 37.5 38 2 6.3 4.3 11.3 5.5 13.7.9 1.7 2.7 2.8 4.6 2.6 8.4-.7 8.9-23.5 7.6-31.7zm-96.5 39.2c7.1 3.4 14.6 6 22.5 7.3 35.1 6 77.7 4.4 47.3-21.5-18.1-15.4-25.8-22.3-36.4-26.7-9 18.7-21.6 31.9-33.4 40.9z" fill="#00000000" stroke-dasharray="231.82407339326232,5.878986759788787" stroke-dashoffset="237.70306"/><path d="M9673.8 68.7s12.1-18.4 25.4-26.4c13.3-8 25.8-11.5 21.1-19.7-4.7-8.2-35-5-55.9 8.2-20.2 12.7-48.7 43.7-52.4 79.1-3.7 35.4.8 77.8 24.6 45.7 23.8-32.1 25.7-33.2 29.4-68.4.1 0 2.3-11.1 7.8-18.5z" fill="none" stroke-dasharray="392.82863732869004,9.962012675894774" stroke-dashoffset="402.79065" stroke-miterlimit="10"/></g><g stroke="#e7261f" stroke-width="2"><path d="M9846.8 164s33.2-10.8 42.8-66.3c9.6-55.5 36.9-69.6 44-60.6 7 9 15.1 33-2.9 78.8s-58.1 62.5-67.2 64.7c-8.1 1.9-30.9 2.9-32.3-5.4-.3-1.9.7-3.8 2.3-4.8 2.3-1.4 7.1-3.9 13.3-6.4z" fill="none" stroke-dasharray="391.90358248530106,8.182966079173816" stroke-dashoffset="400.086549" stroke-miterlimit="10"/><path d="M9990.6 125.1c-1.4-8.5-13.3-43.6-49.3-65.6 1 10.6-.2 24.8-5.9 43 31.8 15.5 37.5 38 37.5 38 2 6.3 4.3 11.3 5.5 13.7.9 1.7 2.7 2.8 4.6 2.6 8.4-.7 8.9-23.5 7.6-31.7zm-96.5 39.2c7.1 3.4 14.6 6 22.5 7.3 35.1 6 77.7 4.4 47.3-21.5-18.1-15.4-25.8-22.3-36.4-26.7-9 18.7-21.6 31.9-33.4 40.9z" fill="#00000000" stroke-dasharray="232.8413218988474,4.861738254203691" stroke-dashoffset="237.70306"/><path d="M9873.8 68.7s12.1-18.4 25.4-26.4c13.3-8 25.8-11.5 21.1-19.7-4.7-8.2-35-5-55.9 8.2-20.2 12.7-48.7 43.7-52.4 79.1-3.7 35.4.8 77.8 24.6 45.7 23.8-32.1 25.7-33.2 29.4-68.4.1 0 2.3-11.1 7.8-18.5z" fill="none" stroke-dasharray="394.5523769663581,8.2382730382267" stroke-dashoffset="402.79065" stroke-miterlimit="10"/></g><g stroke="#e7251e" stroke-width="2"><path d="M10046.8 164s33.2-10.8 42.8-66.3c9.6-55.5 36.9-69.6 44-60.6 7 9 15.1 33-2.9 78.8s-58.1 62.5-67.2 64.7c-8.1 1.9-30.9 2.9-32.3-5.4-.3-1.9.7-3.8 2.3-4.8 2.3-1.4 7.1-3.9 13.3-6.4z" fill="none" stroke-dasharray="393.428562541849,6.657986022625908" stroke-dashoffset="400.086549" stroke-miterlimit="10"/><path d="M10190.6 125.1c-1.4-8.5-13.3-43.6-49.3-65.6 1 10.6-.2 24.8-5.9 43 31.8 15.5 37.5 38 37.5 38 2 6.3 4.3 11.3 5.5 13.7.9 1.7 2.7 2.8 4.6 2.6 8.4-.7 8.9-23.5 7.6-31.7zm-96.5 39.2c7.1 3.4 14.6 6 22.5 7.3 35.1 6 77.7 4.4 47.3-21.5-18.1-15.4-25.8-22.3-36.4-26.7-9 18.7-21.6 31.9-33.4 40.9z" fill="#00000000" stroke-dasharray="233.74735692405494,3.9557032289961542" stroke-dashoffset="237.70306"/><path d="M10073.8 68.7s12.1-18.4 25.4-26.4c13.3-8 25.8-11.5 21.1-19.7-4.7-8.2-35-5-55.9 8.2-20.2 12.7-48.7 43.7-52.4 79.1-3.7 35.4.8 77.8 24.6 45.7 23.8-32.1 25.7-33.2 29.4-68.4.1 0 2.3-11.1 7.8-18.5z" fill="none" stroke-dasharray="396.0876640446788,6.702985959906012" stroke-dashoffset="402.79065" stroke-miterlimit="10"/></g><g stroke="#e7241d" stroke-width="2"><path d="M10246.8 164s33.2-10.8 42.8-66.3c9.6-55.5 36.9-69.6 44-60.6 7 9 15.1 33-2.9 78.8s-58.1 62.5-67.2 64.7c-8.1 1.9-30.9 2.9-32.3-5.4-.3-1.9.7-3.8 2.3-4.8 2.3-1.4 7.1-3.9 13.3-6.4z" fill="none" stroke-dasharray="394.77538133022773,5.311167234247109" stroke-dashoffset="400.086549" stroke-miterlimit="10"/><path d="M10390.6 125.1c-1.4-8.5-13.3-43.6-49.3-65.6 1 10.6-.2 24.8-5.9 43 31.8 15.5 37.5 38 37.5 38 2 6.3 4.3 11.3 5.5 13.7.9 1.7 2.7 2.8 4.6 2.6 8.4-.7 8.9-23.5 7.6-31.7zm-96.5 39.2c7.1 3.4 14.6 6 22.5 7.3 35.1 6 77.7 4.4 47.3-21.5-18.1-15.4-25.8-22.3-36.4-26.7-9 18.7-21.6 31.9-33.4 40.9z" fill="#00000000" stroke-dasharray="234.5475411557367,3.15551899731441" stroke-dashoffset="237.70306"/><path d="M10273.8 68.7s12.1-18.4 25.4-26.4c13.3-8 25.8-11.5 21.1-19.7-4.7-8.2-35-5-55.9 8.2-20.2 12.7-48.7 43.7-52.4 79.1-3.7 35.4.8 77.8 24.6 45.7 23.8-32.1 25.7-33.2 29.4-68.4.1 0 2.3-11.1 7.8-18.5z" fill="none" stroke-dasharray="397.44358570002044,5.347064304564328" stroke-dashoffset="402.79065" stroke-miterlimit="10"/></g><g stroke="#e7231c" stroke-width="2"><path d="M10446.8 164s33.2-10.8 42.8-66.3c9.6-55.5 36.9-69.6 44-60.6 7 9 15.1 33-2.9 78.8s-58.1 62.5-67.2 64.7c-8.1 1.9-30.9 2.9-32.3-5.4-.3-1.9.7-3.8 2.3-4.8 2.3-1.4 7.1-3.9 13.3-6.4z" fill="none" stroke-dasharray="395.9524073246397,4.134141239835201" stroke-dashoffset="400.086549" stroke-miterlimit="10"/><path d="M10590.6 125.1c-1.4-8.5-13.3-43.6-49.3-65.6 1 10.6-.2 24.8-5.9 43 31.8 15.5 37.5 38 37.5 38 2 6.3 4.3 11.3 5.5 13.7.9 1.7 2.7 2.8 4.6 2.6 8.4-.7 8.9-23.5 7.6-31.7zm-96.5 39.2c7.1 3.4 14.6 6 22.5 7.3 35.1 6 77.7 4.4 47.3-21.5-18.1-15.4-25.8-22.3-36.4-26.7-9 18.7-21.6 31.9-33.4 40.9z" fill="#00000000" stroke-dasharray="235.24684654792063,2.456213605130471" stroke-dashoffset="237.70306"/><path d="M10473.8 68.7s12.1-18.4 25.4-26.4c13.3-8 25.8-11.5 21.1-19.7-4.7-8.2-35-5-55.9 8.2-20.2 12.7-48.7 43.7-52.4 79.1-3.7 35.4.8 77.8 24.6 45.7 23.8-32.1 25.7-33.2 29.4-68.4.1 0 2.3-11.1 7.8-18.5z" fill="none" stroke-dasharray="398.6285669673551,4.162083037229708" stroke-dashoffset="402.79065" stroke-miterlimit="10"/></g><g stroke="#e7231c" stroke-width="2"><path d="M10646.8 164s33.2-10.8 42.8-66.3c9.6-55.5 36.9-69.6 44-60.6 7 9 15.1 33-2.9 78.8s-58.1 62.5-67.2 64.7c-8.1 1.9-30.9 2.9-32.3-5.4-.3-1.9.7-3.8 2.3-4.8 2.3-1.4 7.1-3.9 13.3-6.4z" fill="none" stroke-dasharray="396.96741331447345,3.1191352500014484" stroke-dashoffset="400.086549" stroke-miterlimit="10"/><path d="M10790.6 125.1c-1.4-8.5-13.3-43.6-49.3-65.6 1 10.6-.2 24.8-5.9 43 31.8 15.5 37.5 38 37.5 38 2 6.3 4.3 11.3 5.5 13.7.9 1.7 2.7 2.8 4.6 2.6 8.4-.7 8.9-23.5 7.6-31.7zm-96.5 39.2c7.1 3.4 14.6 6 22.5 7.3 35.1 6 77.7 4.4 47.3-21.5-18.1-15.4-25.8-22.3-36.4-26.7-9 18.7-21.6 31.9-33.4 40.9z" fill="#00000000" stroke-dasharray="235.84989114095393,1.853169012097175" stroke-dashoffset="237.70306"/><path d="M10673.8 68.7s12.1-18.4 25.4-26.4c13.3-8 25.8-11.5 21.1-19.7-4.7-8.2-35-5-55.9 8.2-20.2 12.7-48.7 43.7-52.4 79.1-3.7 35.4.8 77.8 24.6 45.7 23.8-32.1 25.7-33.2 29.4-68.4.1 0 2.3-11.1 7.8-18.5z" fill="none" stroke-dasharray="399.65043317073184,3.140216833852967" stroke-dashoffset="402.79065" stroke-miterlimit="10"/></g><g stroke="#e7221b" stroke-width="2"><path d="M10846.8 164s33.2-10.8 42.8-66.3c9.6-55.5 36.9-69.6 44-60.6 7 9 15.1 33-2.9 78.8s-58.1 62.5-67.2 64.7c-8.1 1.9-30.9 2.9-32.3-5.4-.3-1.9.7-3.8 2.3-4.8 2.3-1.4 7.1-3.9 13.3-6.4z" fill="none" stroke-dasharray="397.82763139986264,2.258917164612256" stroke-dashoffset="400.086549" stroke-miterlimit="10"/><path d="M10990.6 125.1c-1.4-8.5-13.3-43.6-49.3-65.6 1 10.6-.2 24.8-5.9 43 31.8 15.5 37.5 38 37.5 38 2 6.3 4.3 11.3 5.5 13.7.9 1.7 2.7 2.8 4.6 2.6 8.4-.7 8.9-23.5 7.6-31.7zm-96.5 39.2c7.1 3.4 14.6 6 22.5 7.3 35.1 6 77.7 4.4 47.3-21.5-18.1-15.4-25.8-22.3-36.4-26.7-9 18.7-21.6 31.9-33.4 40.9z" fill="#00000000" stroke-dasharray="236.36097173596437,1.342088417086724" stroke-dashoffset="237.70306"/><path d="M10873.8 68.7s12.1-18.4 25.4-26.4c13.3-8 25.8-11.5 21.1-19.7-4.7-8.2-35-5-55.9 8.2-20.2 12.7-48.7 43.7-52.4 79.1-3.7 35.4.8 77.8 24.6 45.7 23.8-32.1 25.7-33.2 29.4-68.4.1 0 2.3-11.1 7.8-18.5z" fill="none" stroke-dasharray="400.516465290539,2.2741847140458327" stroke-dashoffset="402.79065" stroke-miterlimit="10"/></g><g stroke="#e7221b" stroke-width="2"><path d="M11046.8 164s33.2-10.8 42.8-66.3c9.6-55.5 36.9-69.6 44-60.6 7 9 15.1 33-2.9 78.8s-58.1 62.5-67.2 64.7c-8.1 1.9-30.9 2.9-32.3-5.4-.3-1.9.7-3.8 2.3-4.8 2.3-1.4 7.1-3.9 13.3-6.4z" fill="none" stroke-dasharray="398.5398019018094,1.5467466626654502" stroke-dashoffset="400.086549" stroke-miterlimit="10"/><path d="M11190.6 125.1c-1.4-8.5-13.3-43.6-49.3-65.6 1 10.6-.2 24.8-5.9 43 31.8 15.5 37.5 38 37.5 38 2 6.3 4.3 11.3 5.5 13.7.9 1.7 2.7 2.8 4.6 2.6 8.4-.7 8.9-23.5 7.6-31.7zm-96.5 39.2c7.1 3.4 14.6 6 22.5 7.3 35.1 6 77.7 4.4 47.3-21.5-18.1-15.4-25.8-22.3-36.4-26.7-9 18.7-21.6 31.9-33.4 40.9z" fill="#00000000" stroke-dasharray="236.7840929537881,0.9189671992630021" stroke-dashoffset="237.70306"/><path d="M11073.8 68.7s12.1-18.4 25.4-26.4c13.3-8 25.8-11.5 21.1-19.7-4.7-8.2-35-5-55.9 8.2-20.2 12.7-48.7 43.7-52.4 79.1-3.7 35.4.8 77.8 24.6 45.7 23.8-32.1 25.7-33.2 29.4-68.4.1 0 2.3-11.1 7.8-18.5z" fill="none" stroke-dasharray="401.2334492042009,1.5572008003839164" stroke-dashoffset="402.79065" stroke-miterlimit="10"/></g><g stroke="#e7221b" stroke-width="2"><path d="M11246.8 164s33.2-10.8 42.8-66.3c9.6-55.5 36.9-69.6 44-60.6 7 9 15.1 33-2.9 78.8s-58.1 62.5-67.2 64.7c-8.1 1.9-30.9 2.9-32.3-5.4-.3-1.9.7-3.8 2.3-4.8 2.3-1.4 7.1-3.9 13.3-6.4z" fill="none" stroke-dasharray="399.1102169538746,0.9763316106002526" stroke-dashoffset="400.086549" stroke-miterlimit="10"/><path d="M11390.6 125.1c-1.4-8.5-13.3-43.6-49.3-65.6 1 10.6-.2 24.8-5.9 43 31.8 15.5 37.5 38 37.5 38 2 6.3 4.3 11.3 5.5 13.7.9 1.7 2.7 2.8 4.6 2.6 8.4-.7 8.9-23.5 7.6-31.7zm-96.5 39.2c7.1 3.4 14.6 6 22.5 7.3 35.1 6 77.7 4.4 47.3-21.5-18.1-15.4-25.8-22.3-36.4-26.7-9 18.7-21.6 31.9-33.4 40.9z" fill="#00000000" stroke-dasharray="237.12299313406098,0.5800670189901107" stroke-dashoffset="237.70306"/><path d="M11273.8 68.7s12.1-18.4 25.4-26.4c13.3-8 25.8-11.5 21.1-19.7-4.7-8.2-35-5-55.9 8.2-20.2 12.7-48.7 43.7-52.4 79.1-3.7 35.4.8 77.8 24.6 45.7 23.8-32.1 25.7-33.2 29.4-68.4.1 0 2.3-11.1 7.8-18.5z" fill="none" stroke-dasharray="401.8077195724952,0.9829304320895572" stroke-dashoffset="402.79065" stroke-miterlimit="10"/></g><g stroke="#e7211a" stroke-width="2"><path d="M11446.8 164s33.2-10.8 42.8-66.3c9.6-55.5 36.9-69.6 44-60.6 7 9 15.1 33-2.9 78.8s-58.1 62.5-67.2 64.7c-8.1 1.9-30.9 2.9-32.3-5.4-.3-1.9.7-3.8 2.3-4.8 2.3-1.4 7.1-3.9 13.3-6.4z" fill="none" stroke-dasharray="399.54475943664283,0.5417891278320113" stroke-dashoffset="400.086549" stroke-miterlimit="10"/><path d="M11590.6 125.1c-1.4-8.5-13.3-43.6-49.3-65.6 1 10.6-.2 24.8-5.9 43 31.8 15.5 37.5 38 37.5 38 2 6.3 4.3 11.3 5.5 13.7.9 1.7 2.7 2.8 4.6 2.6 8.4-.7 8.9-23.5 7.6-31.7zm-96.5 39.2c7.1 3.4 14.6 6 22.5 7.3 35.1 6 77.7 4.4 47.3-21.5-18.1-15.4-25.8-22.3-36.4-26.7-9 18.7-21.6 31.9-33.4 40.9z" fill="#00000000" stroke-dasharray="237.38116746731745,0.32189268573364116" stroke-dashoffset="237.70306"/><path d="M11473.8 68.7s12.1-18.4 25.4-26.4c13.3-8 25.8-11.5 21.1-19.7-4.7-8.2-35-5-55.9 8.2-20.2 12.7-48.7 43.7-52.4 79.1-3.7 35.4.8 77.8 24.6 45.7 23.8-32.1 25.7-33.2 29.4-68.4.1 0 2.3-11.1 7.8-18.5z" fill="none" stroke-dasharray="402.24519903716816,0.5454509674166289" stroke-dashoffset="402.79065" stroke-miterlimit="10"/></g><g stroke="#e7211a" stroke-width="2"><path d="M11646.8 164s33.2-10.8 42.8-66.3c9.6-55.5 36.9-69.6 44-60.6 7 9 15.1 33-2.9 78.8s-58.1 62.5-67.2 64.7c-8.1 1.9-30.9 2.9-32.3-5.4-.3-1.9.7-3.8 2.3-4.8 2.3-1.4 7.1-3.9 13.3-6.4z" fill="none" stroke-dasharray="399.848937825722,0.2376107387528918" stroke-dashoffset="400.086549" stroke-miterlimit="10"/><path d="M11790.6 125.1c-1.4-8.5-13.3-43.6-49.3-65.6 1 10.6-.2 24.8-5.9 43 31.8 15.5 37.5 38 37.5 38 2 6.3 4.3 11.3 5.5 13.7.9 1.7 2.7 2.8 4.6 2.6 8.4-.7 8.9-23.5 7.6-31.7zm-96.5 39.2c7.1 3.4 14.6 6 22.5 7.3 35.1 6 77.7 4.4 47.3-21.5-18.1-15.4-25.8-22.3-36.4-26.7-9 18.7-21.6 31.9-33.4 40.9z" fill="#00000000" stroke-dasharray="237.5618886992008,0.14117145385028493" stroke-dashoffset="237.70306"/><path d="M11673.8 68.7s12.1-18.4 25.4-26.4c13.3-8 25.8-11.5 21.1-19.7-4.7-8.2-35-5-55.9 8.2-20.2 12.7-48.7 43.7-52.4 79.1-3.7 35.4.8 77.8 24.6 45.7 23.8-32.1 25.7-33.2 29.4-68.4.1 0 2.3-11.1 7.8-18.5z" fill="none" stroke-dasharray="402.5514333044639,0.23921670012088248" stroke-dashoffset="402.79065" stroke-miterlimit="10"/></g><g stroke="#e7211a" stroke-width="2"><path d="M11846.8 164s33.2-10.8 42.8-66.3c9.6-55.5 36.9-69.6 44-60.6 7 9 15.1 33-2.9 78.8s-58.1 62.5-67.2 64.7c-8.1 1.9-30.9 2.9-32.3-5.4-.3-1.9.7-3.8 2.3-4.8 2.3-1.4 7.1-3.9 13.3-6.4z" fill="none" stroke-dasharray="400.0279174467137,0.05863111776117219" stroke-dashoffset="400.086549" stroke-miterlimit="10"/><path d="M11990.6 125.1c-1.4-8.5-13.3-43.6-49.3-65.6 1 10.6-.2 24.8-5.9 43 31.8 15.5 37.5 38 37.5 38 2 6.3 4.3 11.3 5.5 13.7.9 1.7 2.7 2.8 4.6 2.6 8.4-.7 8.9-23.5 7.6-31.7zm-96.5 39.2c7.1 3.4 14.6 6 22.5 7.3 35.1 6 77.7 4.4 47.3-21.5-18.1-15.4-25.8-22.3-36.4-26.7-9 18.7-21.6 31.9-33.4 40.9z" fill="#00000000" stroke-dasharray="237.66822569995082,0.0348344531002861" stroke-dashoffset="237.70306"/><path d="M11873.8 68.7s12.1-18.4 25.4-26.4c13.3-8 25.8-11.5 21.1-19.7-4.7-8.2-35-5-55.9 8.2-20.2 12.7-48.7 43.7-52.4 79.1-3.7 35.4.8 77.8 24.6 45.7 23.8-32.1 25.7-33.2 29.4-68.4.1 0 2.3-11.1 7.8-18.5z" fill="none" stroke-dasharray="402.7316226113414,0.059027393243419976" stroke-dashoffset="402.79065" stroke-miterlimit="10"/></g><g stroke="#e7211a" stroke-width="2"><path d="M12046.8 164s33.2-10.8 42.8-66.3c9.6-55.5 36.9-69.6 44-60.6 7 9 15.1 33-2.9 78.8s-58.1 62.5-67.2 64.7c-8.1 1.9-30.9 2.9-32.3-5.4-.3-1.9.7-3.8 2.3-4.8 2.3-1.4 7.1-3.9 13.3-6.4z" fill="none" stroke-miterlimit="10"/><path d="M12190.6 125.1c-1.4-8.5-13.3-43.6-49.3-65.6 1 10.6-.2 24.8-5.9 43 31.8 15.5 37.5 38 37.5 38 2 6.3 4.3 11.3 5.5 13.7.9 1.7 2.7 2.8 4.6 2.6 8.4-.7 8.9-23.5 7.6-31.7zm-96.5 39.2c7.1 3.4 14.6 6 22.5 7.3 35.1 6 77.7 4.4 47.3-21.5-18.1-15.4-25.8-22.3-36.4-26.7-9 18.7-21.6 31.9-33.4 40.9z" fill="#00000000"/><path d="M12073.8 68.7s12.1-18.4 25.4-26.4c13.3-8 25.8-11.5 21.1-19.7-4.7-8.2-35-5-55.9 8.2-20.2 12.7-48.7 43.7-52.4 79.1-3.7 35.4.8 77.8 24.6 45.7 23.8-32.1 25.7-33.2 29.4-68.4.1 0 2.3-11.1 7.8-18.5z" fill="none" stroke-miterlimit="10"/></g></svg>