<svg xmlns="http://www.w3.org/2000/svg" viewBox="0 0 12200 200" width="12200" height="200"><g fill="none" stroke="#ffffff" stroke-width="2" stroke-miterlimit="10"><path d="M144 39s-1.7-8.3-3.4-17.1-9.5-6.4-9.5-6.4-66.1 2.4-74.5 4.1c-8.4 1.7-6.1 7.8-6.1 7.8L52.2 44m91.8-5.2l-91.8 5.6m0-.4L36.3 65.9l33.2 15.3v103.7l94.2-7.8v-103M36.3 65.9v92.2l33.2 26.8" stroke-dasharray="0,133.30045759173515" stroke-dashoffset="133.300458"/><path d="M69.5 106.9s.8 24.2 25.8 35.1c0 0 23.2 7.7 23.9 17.9l.6 20.6" stroke-dasharray="0,97.5048723348407" stroke-dashoffset="97.504872"/><path d="M163.6 106.9s-.8 24.2-25.8 35.1c0 0-18.1 8.1-18.9 16.2M144 38.8l19.6 35-94.1 7.1-17.3-36.3" stroke-dasharray="0,71.47084836555791" stroke-dashoffset="71.470848"/></g><g fill="none" stroke="#ffffff" stroke-width="2" stroke-miterlimit="10"><path d="M344 39s-1.7-8.3-3.4-17.1-9.5-6.4-9.5-6.4-66.1 2.4-74.5 4.1c-8.4 1.7-6.1 7.8-6.1 7.8l1.7 16.6m91.8-5.2l-91.8 5.6m0-.4l-15.9 21.9 33.2 15.3v103.7l94.2-7.8v-103m-127.4-8.2v92.2l33.2 26.8" stroke-dasharray="0.07972713731880994,133.22073045441635" stroke-dashoffset="133.300458"/><path d="M269.5 106.9s.8 24.2 25.8 35.1c0 0 23.2 7.7 23.9 17.9l.6 20.6" stroke-dasharray="0.05831776189172559,97.44655457294897" stroke-dashoffset="97.504872"/><path d="M363.6 106.9s-.8 24.2-25.8 35.1c0 0-18.1 8.1-18.9 16.2M344 38.8l19.6 35-94.1 7.1-17.3-36.3" stroke-dasharray="0.04274678605668923,71.42810157950123" stroke-dashoffset="71.470848"/></g><g fill="none" stroke="#fffefe" stroke-width="2" stroke-miterlimit="10"><path d="M544 39s-1.7-8.3-3.4-17.1-9.5-6.4-9.5-6.4-66.1 2.4-74.5 4.1c-8.4 1.7-6.1 7.8-6.1 7.8l1.7 16.6m91.8-5.2l-91.8 5.6m0-.4l-15.9 21.9 33.2 15.3v103.7l94.2-7.8v-103m-127.4-8.2v92.2l33.2 26.8" stroke-dasharray="0.32998106703860497,132.97047652469655" stroke-dashoffset="133.300458"/><path d="M469.5 106.9s.8 24.2 25.8 35.1c0 0 23.2 7.7 23.9 17.9l.6 20.6" stroke-dasharray="0.24137022779814205,97.26350210704256" stroke-dashoffset="97.504872"/><path d="M563.6 106.9s-.8 24.2-25.8 35.1c0 0-18.1 8.1-18.9 16.2M544 38.8l19.6 35-94.1 7.1-17.3-36.3" stroke-dasharray="0.1769238248082607,71.29392454074966" stroke-dashoffset="71.470848"/></g><g fill="none" stroke="#fffefe" stroke-width="2" stroke-miterlimit="10"><path d="M744 39s-1.7-8.3-3.4-17.1-9.5-6.4-9.5-6.4-66.1 2.4-74.5 4.1c-8.4 1.7-6.1 7.8-6.1 7.8l1.7 16.6m91.8-5.2l-91.8 5.6m0-.4l-15.9 21.9 33.2 15.3v103.7l94.2-7.8v-103m-127.4-8.2v92.2l33.2 26.8" stroke-dasharray="0.7691719313435612,132.5312856603916" stroke-dashoffset="133.300458"/><path d="M669.5 106.9s.8 24.2 25.8 35.1c0 0 23.2 7.7 23.9 17.9l.6 20.6" stroke-dasharray="0.5626238073307769,96.94224852750992" stroke-dashoffset="97.504872"/><path d="M763.6 106.9s-.8 24.2-25.8 35.1c0 0-18.1 8.1-18.9 16.2M744 38.8l19.6 35-94.1 7.1-17.3-36.3" stroke-dasharray="0.41240196369368975,71.05844640186423" stroke-dashoffset="71.470848"/></g><g fill="none" stroke="#fffdfd" stroke-width="2" stroke-miterlimit="10"><path d="M944 39s-1.7-8.3-3.4-17.1-9.5-6.4-9.5-6.4-66.1 2.4-74.5 4.1c-8.4 1.7-6.1 7.8-6.1 7.8l1.7 16.6m91.8-5.2l-91.8 5.6m0-.4l-15.9 21.9 33.2 15.3v103.7l94.2-7.8v-103m-127.4-8.2v92.2l33.2 26.8" stroke-dasharray="1.4184174915726864,131.88204010016247" stroke-dashoffset="133.300458"/><path d="M869.5 106.9s.8 24.2 25.8 35.1c0 0 23.2 7.7 23.9 17.9l.6 20.6" stroke-dasharray="1.037525443887709,96.46734689095298" stroke-dashoffset="97.504872"/><path d="M963.6 106.9s-.8 24.2-25.8 35.1c0 0-18.1 8.1-18.9 16.2M944 38.8l19.6 35-94.1 7.1-17.3-36.3" stroke-dasharray="0.7605037768867489,70.71034458867116" stroke-dashoffset="71.470848"/></g><g fill="none" stroke="#fffbfb" stroke-width="2" stroke-miterlimit="10"><path d="M1144 39s-1.7-8.3-3.4-17.1-9.5-6.4-9.5-6.4-66.1 2.4-74.5 4.1c-8.4 1.7-6.1 7.8-6.1 7.8l1.7 16.6m91.8-5.2l-91.8 5.6m0-.4l-15.9 21.9 33.2 15.3v103.7l94.2-7.8v-103m-127.4-8.2v92.2l33.2 26.8" stroke-dasharray="2.3019531691368047,130.99850442259833" stroke-dashoffset="133.300458"/><path d="M1069.5 106.9s.8 24.2 25.8 35.1c0 0 23.2 7.7 23.9 17.9l.6 20.6" stroke-dasharray="1.6838025460115333,95.82106978882916" stroke-dashoffset="97.504872"/><path d="M1163.6 106.9s-.8 24.2-25.8 35.1c0 0-18.1 8.1-18.9 16.2M1144 38.8l19.6 35-94.1 7.1-17.3-36.3" stroke-dasharray="1.2342234142952613,70.23662495126266" stroke-dashoffset="71.470848"/></g><g fill="none" stroke="#fef9f9" stroke-width="2" stroke-miterlimit="10"><path d="M1344 39s-1.7-8.3-3.4-17.1-9.5-6.4-9.5-6.4-66.1 2.4-74.5 4.1c-8.4 1.7-6.1 7.8-6.1 7.8l1.7 16.6m91.8-5.2l-91.8 5.6m0-.4l-15.9 21.9 33.2 15.3v103.7l94.2-7.8v-103m-127.4-8.2v92.2l33.2 26.8" stroke-dasharray="3.4475517197272123,129.85290587200794" stroke-dashoffset="133.300458"/><path d="M1269.5 106.9s.8 24.2 25.8 35.1c0 0 23.2 7.7 23.9 17.9l.6 20.6" stroke-dasharray="2.5217699651813077,94.98310236965939" stroke-dashoffset="97.504872"/><path d="M1363.6 106.9s-.8 24.2-25.8 35.1c0 0-18.1 8.1-18.9 16.2M1344 38.8l19.6 35-94.1 7.1-17.3-36.3" stroke-dasharray="1.8484516155803443,69.62239674997757" stroke-dashoffset="71.470848"/></g><g fill="none" stroke="#fef7f7" stroke-width="2" stroke-miterlimit="10"><path d="M1544 39s-1.7-8.3-3.4-17.1-9.5-6.4-9.5-6.4-66.1 2.4-74.5 4.1c-8.4 1.7-6.1 7.8-6.1 7.8l1.7 16.6m91.8-5.2l-91.8 5.6m0-.4l-15.9 21.9 33.2 15.3v103.7l94.2-7.8v-103m-127.4-8.2v92.2l33.2 26.8" stroke-dasharray="4.8868966915923195,128.41356090014284" stroke-dashoffset="133.300458"/><path d="M1469.5 106.9s.8 24.2 25.8 35.1c0 0 23.2 7.7 23.9 17.9l.6 20.6" stroke-dasharray="3.574603168180032,93.93026916666066" stroke-dashoffset="97.504872"/><path d="M1563.6 106.9s-.8 24.2-25.8 35.1c0 0-18.1 8.1-18.9 16.2M1544 38.8l19.6 35-94.1 7.1-17.3-36.3" stroke-dasharray="2.620175944876851,68.85067242068106" stroke-dashoffset="71.470848"/></g><g fill="none" stroke="#fef4f4" stroke-width="2" stroke-miterlimit="10"><path d="M1744 39s-1.7-8.3-3.4-17.1-9.5-6.4-9.5-6.4-66.1 2.4-74.5 4.1c-8.4 1.7-6.1 7.8-6.1 7.8l1.7 16.6m91.8-5.2l-91.8 5.6m0-.4l-15.9 21.9 33.2 15.3v103.7l94.2-7.8v-103m-127.4-8.2v92.2l33.2 26.8" stroke-dasharray="6.655799415337872,126.64465817639727" stroke-dashoffset="133.300458"/><path d="M1669.5 106.9s.8 24.2 25.8 35.1c0 0 23.2 7.7 23.9 17.9l.6 20.6" stroke-dasharray="4.868496957950907,92.63637537688979" stroke-dashoffset="97.504872"/><path d="M1763.6 106.9s-.8 24.2-25.8 35.1c0 0-18.1 8.1-18.9 16.2M1744 38.8l19.6 35-94.1 7.1-17.3-36.3" stroke-dasharray="3.5685971328179145,67.90225123274" stroke-dashoffset="71.470848"/></g><g fill="none" stroke="#fdf0f0" stroke-width="2" stroke-miterlimit="10"><path d="M1944 39s-1.7-8.3-3.4-17.1-9.5-6.4-9.5-6.4-66.1 2.4-74.5 4.1c-8.4 1.7-6.1 7.8-6.1 7.8l1.7 16.6m91.8-5.2l-91.8 5.6m0-.4l-15.9 21.9 33.2 15.3v103.7l94.2-7.8v-103m-127.4-8.2v92.2l33.2 26.8" stroke-dasharray="8.794056740943857,124.5064008507913" stroke-dashoffset="133.300458"/><path d="M1869.5 106.9s.8 24.2 25.8 35.1c0 0 23.2 7.7 23.9 17.9l.6 20.6" stroke-dasharray="6.432561412934265,91.07231092190644" stroke-dashoffset="97.504872"/><path d="M1963.6 106.9s-.8 24.2-25.8 35.1c0 0-18.1 8.1-18.9 16.2M1944 38.8l19.6 35-94.1 7.1-17.3-36.3" stroke-dasharray="4.715052800306966,66.75579556525095" stroke-dashoffset="71.470848"/></g><g fill="none" stroke="#fdecec" stroke-width="2" stroke-miterlimit="10"><path d="M2144 39s-1.7-8.3-3.4-17.1-9.5-6.4-9.5-6.4-66.1 2.4-74.5 4.1c-8.4 1.7-6.1 7.8-6.1 7.8l1.7 16.6m91.8-5.2l-91.8 5.6m0-.4l-15.9 21.9 33.2 15.3v103.7l94.2-7.8v-103m-127.4-8.2v92.2l33.2 26.8" stroke-dasharray="11.344599641585015,121.95585795015013" stroke-dashoffset="133.300458"/><path d="M2069.5 106.9s.8 24.2 25.8 35.1c0 0 23.2 7.7 23.9 17.9l.6 20.6" stroke-dasharray="8.298199118944433,89.20667321589626" stroke-dashoffset="97.504872"/><path d="M2163.6 106.9s-.8 24.2-25.8 35.1c0 0-18.1 8.1-18.9 16.2M2144 38.8l19.6 35-94.1 7.1-17.3-36.3" stroke-dasharray="6.08256097090815,65.38828739464977" stroke-dashoffset="71.470848"/></g><g fill="none" stroke="#fce7e6" stroke-width="2" stroke-miterlimit="10"><path d="M2344 39s-1.7-8.3-3.4-17.1-9.5-6.4-9.5-6.4-66.1 2.4-74.5 4.1c-8.4 1.7-6.1 7.8-6.1 7.8l1.7 16.6m91.8-5.2l-91.8 5.6m0-.4l-15.9 21.9 33.2 15.3v103.7l94.2-7.8v-103m-127.4-8.2v92.2l33.2 26.8" stroke-dasharray="14.35137433632887,118.94908325540628" stroke-dashoffset="133.300458"/><path d="M2269.5 106.9s.8 24.2 25.8 35.1c0 0 23.2 7.7 23.9 17.9l.6 20.6" stroke-dasharray="10.49755528056054,87.00731705428015" stroke-dashoffset="97.504872"/><path d="M2363.6 106.9s-.8 24.2-25.8 35.1c0 0-18.1 8.1-18.9 16.2M2344 38.8l19.6 35-94.1 7.1-17.3-36.3" stroke-dasharray="7.694684006041367,63.77616435951654" stroke-dashoffset="71.470848"/></g><g fill="none" stroke="#fce1e0" stroke-width="2" stroke-miterlimit="10"><path d="M2544 39s-1.7-8.3-3.4-17.1-9.5-6.4-9.5-6.4-66.1 2.4-74.5 4.1c-8.4 1.7-6.1 7.8-6.1 7.8l1.7 16.6m91.8-5.2l-91.8 5.6m0-.4l-15.9 21.9 33.2 15.3v103.7l94.2-7.8v-103m-127.4-8.2v92.2l33.2 26.8" stroke-dasharray="17.85516641058266,115.44529118115248" stroke-dashoffset="133.300458"/><path d="M2469.5 106.9s.8 24.2 25.8 35.1c0 0 23.2 7.7 23.9 17.9l.6 20.6" stroke-dasharray="13.060463203459708,84.44440913138098" stroke-dashoffset="97.504872"/><path d="M2563.6 106.9s-.8 24.2-25.8 35.1c0 0-18.1 8.1-18.9 16.2M2544 38.8l19.6 35-94.1 7.1-17.3-36.3" stroke-dasharray="9.573289650520136,61.897558715037775" stroke-dashoffset="71.470848"/></g><g fill="none" stroke="#fbdbd9" stroke-width="2" stroke-miterlimit="10"><path d="M2744 39s-1.7-8.3-3.4-17.1-9.5-6.4-9.5-6.4-66.1 2.4-74.5 4.1c-8.4 1.7-6.1 7.8-6.1 7.8l1.7 16.6m91.8-5.2l-91.8 5.6m0-.4l-15.9 21.9 33.2 15.3v103.7l94.2-7.8v-103m-127.4-8.2v92.2l33.2 26.8" stroke-dasharray="21.88648714632611,111.41397044540903" stroke-dashoffset="133.300458"/><path d="M2669.5 106.9s.8 24.2 25.8 35.1c0 0 23.2 7.7 23.9 17.9l.6 20.6" stroke-dasharray="16.00924088045271,81.49563145438799" stroke-dashoffset="97.504872"/><path d="M2763.6 106.9s-.8 24.2-25.8 35.1c0 0-18.1 8.1-18.9 16.2M2744 38.8l19.6 35-94.1 7.1-17.3-36.3" stroke-dasharray="11.734736942019257,59.73611142353865" stroke-dashoffset="71.470848"/></g><g fill="none" stroke="#fad3d2" stroke-width="2" stroke-miterlimit="10"><path d="M2944 39s-1.7-8.3-3.4-17.1-9.5-6.4-9.5-6.4-66.1 2.4-74.5 4.1c-8.4 1.7-6.1 7.8-6.1 7.8l1.7 16.6m91.8-5.2l-91.8 5.6m0-.4l-15.9 21.9 33.2 15.3v103.7l94.2-7.8v-103m-127.4-8.2v92.2l33.2 26.8" stroke-dasharray="26.455083344422818,106.84537424731232" stroke-dashoffset="133.300458"/><path d="M2869.5 106.9s.8 24.2 25.8 35.1c0 0 23.2 7.7 23.9 17.9l.6 20.6" stroke-dasharray="19.351017773741315,78.15385456109938" stroke-dashoffset="97.504872"/><path d="M2963.6 106.9s-.8 24.2-25.8 35.1c0 0-18.1 8.1-18.9 16.2M2944 38.8l19.6 35-94.1 7.1-17.3-36.3" stroke-dasharray="14.184251760022995,57.28659660553491" stroke-dashoffset="71.470848"/></g><g fill="none" stroke="#f9cac9" stroke-width="2" stroke-miterlimit="10"><path d="M3144 39s-1.7-8.3-3.4-17.1-9.5-6.4-9.5-6.4-66.1 2.4-74.5 4.1c-8.4 1.7-6.1 7.8-6.1 7.8l1.7 16.6m91.8-5.2l-91.8 5.6m0-.4l-15.9 21.9 33.2 15.3v103.7l94.2-7.8v-103m-127.4-8.2v92.2l33.2 26.8" stroke-dasharray="31.537203410776055,101.7632541809591" stroke-dashoffset="133.300458"/><path d="M3069.5 106.9s.8 24.2 25.8 35.1c0 0 23.2 7.7 23.9 17.9l.6 20.6" stroke-dasharray="23.068420378447964,74.43645195639273" stroke-dashoffset="97.504872"/><path d="M3163.6 106.9s-.8 24.2-25.8 35.1c0 0-18.1 8.1-18.9 16.2M3144 38.8l19.6 35-94.1 7.1-17.3-36.3" stroke-dasharray="16.909099365200397,54.561749000357516" stroke-dashoffset="71.470848"/></g><g fill="none" stroke="#f8c1bf" stroke-width="2" stroke-miterlimit="10"><path d="M3344 39s-1.7-8.3-3.4-17.1-9.5-6.4-9.5-6.4-66.1 2.4-74.5 4.1c-8.4 1.7-6.1 7.8-6.1 7.8l1.7 16.6m91.8-5.2l-91.8 5.6m0-.4l-15.9 21.9 33.2 15.3v103.7l94.2-7.8v-103m-127.4-8.2v92.2l33.2 26.8" stroke-dasharray="37.064663750262426,96.23579384147274" stroke-dashoffset="133.300458"/><path d="M3269.5 106.9s.8 24.2 25.8 35.1c0 0 23.2 7.7 23.9 17.9l.6 20.6" stroke-dasharray="27.111574651692784,70.39329768314792" stroke-dashoffset="97.504872"/><path d="M3363.6 106.9s-.8 24.2-25.8 35.1c0 0-18.1 8.1-18.9 16.2M3344 38.8l19.6 35-94.1 7.1-17.3-36.3" stroke-dasharray="19.872722198214284,51.598126167343636" stroke-dashoffset="71.470848"/></g><g fill="none" stroke="#f7b8b5" stroke-width="2" stroke-miterlimit="10"><path d="M3544 39s-1.7-8.3-3.4-17.1-9.5-6.4-9.5-6.4-66.1 2.4-74.5 4.1c-8.4 1.7-6.1 7.8-6.1 7.8l1.7 16.6m91.8-5.2l-91.8 5.6m0-.4l-15.9 21.9 33.2 15.3v103.7l94.2-7.8v-103m-127.4-8.2v92.2l33.2 26.8" stroke-dasharray="42.92248388449967,90.37797370723548" stroke-dashoffset="133.300458"/><path d="M3469.5 106.9s.8 24.2 25.8 35.1c0 0 23.2 7.7 23.9 17.9l.6 20.6" stroke-dasharray="31.39637617952096,66.10849615531974" stroke-dashoffset="97.504872"/><path d="M3563.6 106.9s-.8 24.2-25.8 35.1c0 0-18.1 8.1-18.9 16.2M3544 38.8l19.6 35-94.1 7.1-17.3-36.3" stroke-dasharray="23.013471916036256,48.457376449521654" stroke-dashoffset="71.470848"/></g><g fill="none" stroke="#f6adab" stroke-width="2" stroke-miterlimit="10"><path d="M3744 39s-1.7-8.3-3.4-17.1-9.5-6.4-9.5-6.4-66.1 2.4-74.5 4.1c-8.4 1.7-6.1 7.8-6.1 7.8l1.7 16.6m91.8-5.2l-91.8 5.6m0-.4l-15.9 21.9 33.2 15.3v103.7l94.2-7.8v-103m-127.4-8.2v92.2l33.2 26.8" stroke-dasharray="48.96068598600307,84.33977160573208" stroke-dashoffset="133.300458"/><path d="M3669.5 106.9s.8 24.2 25.8 35.1c0 0 23.2 7.7 23.9 17.9l.6 20.6" stroke-dasharray="35.813121145560444,61.691751189280254" stroke-dashoffset="97.504872"/><path d="M3763.6 106.9s-.8 24.2-25.8 35.1c0 0-18.1 8.1-18.9 16.2M3744 38.8l19.6 35-94.1 7.1-17.3-36.3" stroke-dasharray="26.250935872228258,45.21991249332966" stroke-dashoffset="71.470848"/></g><g fill="none" stroke="#f5a3a0" stroke-width="2" stroke-miterlimit="10"><path d="M3944 39s-1.7-8.3-3.4-17.1-9.5-6.4-9.5-6.4-66.1 2.4-74.5 4.1c-8.4 1.7-6.1 7.8-6.1 7.8l1.7 16.6m91.8-5.2l-91.8 5.6m0-.4l-15.9 21.9 33.2 15.3v103.7l94.2-7.8v-103m-127.4-8.2v92.2l33.2 26.8" stroke-dasharray="55.018632675995,78.28182491574015" stroke-dashoffset="133.300458"/><path d="M3869.5 106.9s.8 24.2 25.8 35.1c0 0 23.2 7.7 23.9 17.9l.6 20.6" stroke-dasharray="40.24430862451143,57.26056371032926" stroke-dashoffset="97.504872"/><path d="M3963.6 106.9s-.8 24.2-25.8 35.1c0 0-18.1 8.1-18.9 16.2M3944 38.8l19.6 35-94.1 7.1-17.3-36.3" stroke-dasharray="29.498986157345144,41.97186220821276" stroke-dashoffset="71.470848"/></g><g fill="none" stroke="#f49996" stroke-width="2" stroke-miterlimit="10"><path d="M4144 39s-1.7-8.3-3.4-17.1-9.5-6.4-9.5-6.4-66.1 2.4-74.5 4.1c-8.4 1.7-6.1 7.8-6.1 7.8l1.7 16.6m91.8-5.2l-91.8 5.6m0-.4l-15.9 21.9 33.2 15.3v103.7l94.2-7.8v-103m-127.4-8.2v92.2l33.2 26.8" stroke-dasharray="60.951866152205994,72.34859143952916" stroke-dashoffset="133.300458"/><path d="M4069.5 106.9s.8 24.2 25.8 35.1c0 0 23.2 7.7 23.9 17.9l.6 20.6" stroke-dasharray="44.584272515727854,52.920599819112844" stroke-dashoffset="97.504872"/><path d="M4163.6 106.9s-.8 24.2-25.8 35.1c0 0-18.1 8.1-18.9 16.2M4144 38.8l19.6 35-94.1 7.1-17.3-36.3" stroke-dasharray="32.680169761339165,38.79067860421875" stroke-dashoffset="71.470848"/></g><g fill="none" stroke="#f3908d" stroke-width="2" stroke-miterlimit="10"><path d="M4344 39s-1.7-8.3-3.4-17.1-9.5-6.4-9.5-6.4-66.1 2.4-74.5 4.1c-8.4 1.7-6.1 7.8-6.1 7.8l1.7 16.6m91.8-5.2l-91.8 5.6m0-.4l-15.9 21.9 33.2 15.3v103.7l94.2-7.8v-103m-127.4-8.2v92.2l33.2 26.8" stroke-dasharray="66.65022879586756,66.65022879586759" stroke-dashoffset="133.300458"/><path d="M4269.5 106.9s.8 24.2 25.8 35.1c0 0 23.2 7.7 23.9 17.9l.6 20.6" stroke-dasharray="48.752436167420335,48.75243616742036" stroke-dashoffset="97.504872"/><path d="M4363.6 106.9s-.8 24.2-25.8 35.1c0 0-18.1 8.1-18.9 16.2M4344 38.8l19.6 35-94.1 7.1-17.3-36.3" stroke-dasharray="35.73542418277895,35.735424182778964" stroke-dashoffset="71.470848"/></g><g fill="none" stroke="#f28783" stroke-width="2" stroke-miterlimit="10"><path d="M4544 39s-1.7-8.3-3.4-17.1-9.5-6.4-9.5-6.4-66.1 2.4-74.5 4.1c-8.4 1.7-6.1 7.8-6.1 7.8l1.7 16.6m91.8-5.2l-91.8 5.6m0-.4l-15.9 21.9 33.2 15.3v103.7l94.2-7.8v-103m-127.4-8.2v92.2l33.2 26.8" stroke-dasharray="72.04295188033274,61.25750571140242" stroke-dashoffset="133.300458"/><path d="M4469.5 106.9s.8 24.2 25.8 35.1c0 0 23.2 7.7 23.9 17.9l.6 20.6" stroke-dasharray="52.697034598570255,44.80783773627044" stroke-dashoffset="97.504872"/><path d="M4563.6 106.9s-.8 24.2-25.8 35.1c0 0-18.1 8.1-18.9 16.2M4544 38.8l19.6 35-94.1 7.1-17.3-36.3" stroke-dasharray="38.62680580899739,32.844042556560524" stroke-dashoffset="71.470848"/></g><g fill="none" stroke="#f17f7b" stroke-width="2" stroke-miterlimit="10"><path d="M4744 39s-1.7-8.3-3.4-17.1-9.5-6.4-9.5-6.4-66.1 2.4-74.5 4.1c-8.4 1.7-6.1 7.8-6.1 7.8l1.7 16.6m91.8-5.2l-91.8 5.6m0-.4l-15.9 21.9 33.2 15.3v103.7l94.2-7.8v-103m-127.4-8.2v92.2l33.2 26.8" stroke-dasharray="77.09387111129419,56.20658648044097" stroke-dashoffset="133.300458"/><path d="M4669.5 106.9s.8 24.2 25.8 35.1c0 0 23.2 7.7 23.9 17.9l.6 20.6" stroke-dasharray="56.3916148249702,41.1132575098705" stroke-dashoffset="97.504872"/><path d="M4763.6 106.9s-.8 24.2-25.8 35.1c0 0-18.1 8.1-18.9 16.2M4744 38.8l19.6 35-94.1 7.1-17.3-36.3" stroke-dasharray="41.334924663085324,30.13592370247259" stroke-dashoffset="71.470848"/></g><g fill="none" stroke="#f07772" stroke-width="2" stroke-miterlimit="10"><path d="M4944 39s-1.7-8.3-3.4-17.1-9.5-6.4-9.5-6.4-66.1 2.4-74.5 4.1c-8.4 1.7-6.1 7.8-6.1 7.8l1.7 16.6m91.8-5.2l-91.8 5.6m0-.4l-15.9 21.9 33.2 15.3v103.7l94.2-7.8v-103m-127.4-8.2v92.2l33.2 26.8" stroke-dasharray="81.7924604855718,51.50799710616336" stroke-dashoffset="133.300458"/><path d="M4869.5 106.9s.8 24.2 25.8 35.1c0 0 23.2 7.7 23.9 17.9l.6 20.6" stroke-dasharray="59.82847742371631,37.67639491112439" stroke-dashoffset="97.504872"/><path d="M4963.6 106.9s-.8 24.2-25.8 35.1c0 0-18.1 8.1-18.9 16.2M4944 38.8l19.6 35-94.1 7.1-17.3-36.3" stroke-dasharray="43.854137085667716,27.616711279890197" stroke-dashoffset="71.470848"/></g><g fill="none" stroke="#ef706b" stroke-width="2" stroke-miterlimit="10"><path d="M5144 39s-1.7-8.3-3.4-17.1-9.5-6.4-9.5-6.4-66.1 2.4-74.5 4.1c-8.4 1.7-6.1 7.8-6.1 7.8l1.7 16.6m91.8-5.2l-91.8 5.6m0-.4l-15.9 21.9 33.2 15.3v103.7l94.2-7.8v-103m-127.4-8.2v92.2l33.2 26.8" stroke-dasharray="86.14490336277397,47.155554228961186" stroke-dashoffset="133.300458"/><path d="M5069.5 106.9s.8 24.2 25.8 35.1c0 0 23.2 7.7 23.9 17.9l.6 20.6" stroke-dasharray="63.01214531768607,34.49272701715463" stroke-dashoffset="97.504872"/><path d="M5163.6 106.9s-.8 24.2-25.8 35.1c0 0-18.1 8.1-18.9 16.2M5144 38.8l19.6 35-94.1 7.1-17.3-36.3" stroke-dasharray="46.187758368866945,25.283089996690972" stroke-dashoffset="71.470848"/></g><g fill="none" stroke="#ef6964" stroke-width="2" stroke-miterlimit="10"><path d="M5344 39s-1.7-8.3-3.4-17.1-9.5-6.4-9.5-6.4-66.1 2.4-74.5 4.1c-8.4 1.7-6.1 7.8-6.1 7.8l1.7 16.6m91.8-5.2l-91.8 5.6m0-.4l-15.9 21.9 33.2 15.3v103.7l94.2-7.8v-103m-127.4-8.2v92.2l33.2 26.8" stroke-dasharray="90.16706015211884,43.13339743961632" stroke-dashoffset="133.300458"/><path d="M5269.5 106.9s.8 24.2 25.8 35.1c0 0 23.2 7.7 23.9 17.9l.6 20.6" stroke-dasharray="65.95421987122533,31.550652463615357" stroke-dashoffset="97.504872"/><path d="M5363.6 106.9s-.8 24.2-25.8 35.1c0 0-18.1 8.1-18.9 16.2M5344 38.8l19.6 35-94.1 7.1-17.3-36.3" stroke-dasharray="48.3442922862088,23.126556079349115" stroke-dashoffset="71.470848"/></g><g fill="none" stroke="#ee635e" stroke-width="2" stroke-miterlimit="10"><path d="M5544 39s-1.7-8.3-3.4-17.1-9.5-6.4-9.5-6.4-66.1 2.4-74.5 4.1c-8.4 1.7-6.1 7.8-6.1 7.8l1.7 16.6m91.8-5.2l-91.8 5.6m0-.4l-15.9 21.9 33.2 15.3v103.7l94.2-7.8v-103m-127.4-8.2v92.2l33.2 26.8" stroke-dasharray="93.87961142824346,39.420846163491696" stroke-dashoffset="133.300458"/><path d="M5469.5 106.9s.8 24.2 25.8 35.1c0 0 23.2 7.7 23.9 17.9l.6 20.6" stroke-dasharray="68.66982824013108,28.835044094709616" stroke-dashoffset="97.504872"/><path d="M5563.6 106.9s-.8 24.2-25.8 35.1c0 0-18.1 8.1-18.9 16.2M5544 38.8l19.6 35-94.1 7.1-17.3-36.3" stroke-dasharray="50.33482700828699,21.136021357270916" stroke-dashoffset="71.470848"/></g><g fill="none" stroke="#ed5d58" stroke-width="2" stroke-miterlimit="10"><path d="M5744 39s-1.7-8.3-3.4-17.1-9.5-6.4-9.5-6.4-66.1 2.4-74.5 4.1c-8.4 1.7-6.1 7.8-6.1 7.8l1.7 16.6m91.8-5.2l-91.8 5.6m0-.4l-15.9 21.9 33.2 15.3v103.7l94.2-7.8v-103m-127.4-8.2v92.2l33.2 26.8" stroke-dasharray="97.30498750427438,35.995470087460774" stroke-dashoffset="133.300458"/><path d="M5669.5 106.9s.8 24.2 25.8 35.1c0 0 23.2 7.7 23.9 17.9l.6 20.6" stroke-dasharray="71.17537745598703,26.32949487885366" stroke-dashoffset="97.504872"/><path d="M5763.6 106.9s-.8 24.2-25.8 35.1c0 0-18.1 8.1-18.9 16.2M5744 38.8l19.6 35-94.1 7.1-17.3-36.3" stroke-dasharray="52.171388851719065,19.299459513838848" stroke-dashoffset="71.470848"/></g><g fill="none" stroke="#ed5852" stroke-width="2" stroke-miterlimit="10"><path d="M5944 39s-1.7-8.3-3.4-17.1-9.5-6.4-9.5-6.4-66.1 2.4-74.5 4.1c-8.4 1.7-6.1 7.8-6.1 7.8l1.7 16.6m91.8-5.2l-91.8 5.6m0-.4l-15.9 21.9 33.2 15.3v103.7l94.2-7.8v-103m-127.4-8.2v92.2l33.2 26.8" stroke-dasharray="100.46556336423492,32.83489422750023" stroke-dashoffset="133.300458"/><path d="M5869.5 106.9s.8 24.2 25.8 35.1c0 0 23.2 7.7 23.9 17.9l.6 20.6" stroke-dasharray="73.4872340789694,24.017638255871297" stroke-dashoffset="97.504872"/><path d="M5963.6 106.9s-.8 24.2-25.8 35.1c0 0-18.1 8.1-18.9 16.2M5944 38.8l19.6 35-94.1 7.1-17.3-36.3" stroke-dasharray="53.86597446767338,17.60487389788453" stroke-dashoffset="71.470848"/></g><g fill="none" stroke="#ec534d" stroke-width="2" stroke-miterlimit="10"><path d="M6144 39s-1.7-8.3-3.4-17.1-9.5-6.4-9.5-6.4-66.1 2.4-74.5 4.1c-8.4 1.7-6.1 7.8-6.1 7.8l1.7 16.6m91.8-5.2l-91.8 5.6m0-.4l-15.9 21.9 33.2 15.3v103.7l94.2-7.8v-103m-127.4-8.2v92.2l33.2 26.8" stroke-dasharray="103.38267766223522,29.917779929499922" stroke-dashoffset="133.300458"/><path d="M6069.5 106.9s.8 24.2 25.8 35.1c0 0 23.2 7.7 23.9 17.9l.6 20.6" stroke-dasharray="75.62100662822652,21.88386570661417" stroke-dashoffset="97.504872"/><path d="M6163.6 106.9s-.8 24.2-25.8 35.1c0 0-18.1 8.1-18.9 16.2M6144 38.8l19.6 35-94.1 7.1-17.3-36.3" stroke-dasharray="55.43002486497905,16.04082350057886" stroke-dashoffset="71.470848"/></g><g fill="none" stroke="#ec4e49" stroke-width="2" stroke-miterlimit="10"><path d="M6344 39s-1.7-8.3-3.4-17.1-9.5-6.4-9.5-6.4-66.1 2.4-74.5 4.1c-8.4 1.7-6.1 7.8-6.1 7.8l1.7 16.6m91.8-5.2l-91.8 5.6m0-.4l-15.9 21.9 33.2 15.3v103.7l94.2-7.8v-103m-127.4-8.2v92.2l33.2 26.8" stroke-dasharray="106.0761592311535,27.224298360581656" stroke-dashoffset="133.300458"/><path d="M6269.5 106.9s.8 24.2 25.8 35.1c0 0 23.2 7.7 23.9 17.9l.6 20.6" stroke-dasharray="77.5911992386524,19.91367309618831" stroke-dashoffset="97.504872"/><path d="M6363.6 106.9s-.8 24.2-25.8 35.1c0 0-18.1 8.1-18.9 16.2M6344 38.8l19.6 35-94.1 7.1-17.3-36.3" stroke-dasharray="56.87417154133313,14.596676824224778" stroke-dashoffset="71.470848"/></g><g fill="none" stroke="#eb4a44" stroke-width="2" stroke-miterlimit="10"><path d="M6544 39s-1.7-8.3-3.4-17.1-9.5-6.4-9.5-6.4-66.1 2.4-74.5 4.1c-8.4 1.7-6.1 7.8-6.1 7.8l1.7 16.6m91.8-5.2l-91.8 5.6m0-.4l-15.9 21.9 33.2 15.3v103.7l94.2-7.8v-103m-127.4-8.2v92.2l33.2 26.8" stroke-dasharray="108.56415241375613,24.736305177979023" stroke-dashoffset="133.300458"/><path d="M6469.5 106.9s.8 24.2 25.8 35.1c0 0 23.2 7.7 23.9 17.9l.6 20.6" stroke-dasharray="79.41108389638266,18.093788438458038" stroke-dashoffset="97.504872"/><path d="M6563.6 106.9s-.8 24.2-25.8 35.1c0 0-18.1 8.1-18.9 16.2M6544 38.8l19.6 35-94.1 7.1-17.3-36.3" stroke-dasharray="58.20814283221158,13.262705533346331" stroke-dashoffset="71.470848"/></g><g fill="none" stroke="#eb4641" stroke-width="2" stroke-miterlimit="10"><path d="M6744 39s-1.7-8.3-3.4-17.1-9.5-6.4-9.5-6.4-66.1 2.4-74.5 4.1c-8.4 1.7-6.1 7.8-6.1 7.8l1.7 16.6m91.8-5.2l-91.8 5.6m0-.4l-15.9 21.9 33.2 15.3v103.7l94.2-7.8v-103m-127.4-8.2v92.2l33.2 26.8" stroke-dasharray="110.86311035514484,22.43734723659032" stroke-dashoffset="133.300458"/><path d="M6669.5 106.9s.8 24.2 25.8 35.1c0 0 23.2 7.7 23.9 17.9l.6 20.6" stroke-dasharray="81.09269553244182,16.412176802398868" stroke-dashoffset="97.504872"/><path d="M6763.6 106.9s-.8 24.2-25.8 35.1c0 0-18.1 8.1-18.9 16.2M6744 38.8l19.6 35-94.1 7.1-17.3-36.3" stroke-dasharray="59.44076031452377,12.030088051034143" stroke-dashoffset="71.470848"/></g><g fill="none" stroke="#eb433d" stroke-width="2" stroke-miterlimit="10"><path d="M6944 39s-1.7-8.3-3.4-17.1-9.5-6.4-9.5-6.4-66.1 2.4-74.5 4.1c-8.4 1.7-6.1 7.8-6.1 7.8l1.7 16.6m91.8-5.2l-91.8 5.6m0-.4l-15.9 21.9 33.2 15.3v103.7l94.2-7.8v-103m-127.4-8.2v92.2l33.2 26.8" stroke-dasharray="112.98787693637473,20.31258065536042" stroke-dashoffset="133.300458"/><path d="M6869.5 106.9s.8 24.2 25.8 35.1c0 0 23.2 7.7 23.9 17.9l.6 20.6" stroke-dasharray="82.64689195447274,14.857980380367962" stroke-dashoffset="97.504872"/><path d="M6963.6 106.9s-.8 24.2-25.8 35.1c0 0-18.1 8.1-18.9 16.2M6944 38.8l19.6 35-94.1 7.1-17.3-36.3" stroke-dasharray="60.579982736433166,10.890865629124749" stroke-dashoffset="71.470848"/></g><g fill="none" stroke="#ea403a" stroke-width="2" stroke-miterlimit="10"><path d="M7144 39s-1.7-8.3-3.4-17.1-9.5-6.4-9.5-6.4-66.1 2.4-74.5 4.1c-8.4 1.7-6.1 7.8-6.1 7.8l1.7 16.6m91.8-5.2l-91.8 5.6m0-.4l-15.9 21.9 33.2 15.3v103.7l94.2-7.8v-103m-127.4-8.2v92.2l33.2 26.8" stroke-dasharray="114.95181058411582,18.348647007619327" stroke-dashoffset="133.300458"/><path d="M7069.5 106.9s.8 24.2 25.8 35.1c0 0 23.2 7.7 23.9 17.9l.6 20.6" stroke-dasharray="84.08344440940569,13.42142792543501" stroke-dashoffset="97.504872"/><path d="M7163.6 106.9s-.8 24.2-25.8 35.1c0 0-18.1 8.1-18.9 16.2M7144 38.8l19.6 35-94.1 7.1-17.3-36.3" stroke-dasharray="61.632972399586606,9.837875965971309" stroke-dashoffset="71.470848"/></g><g fill="none" stroke="#ea3d36" stroke-width="2" stroke-miterlimit="10"><path d="M7344 39s-1.7-8.3-3.4-17.1-9.5-6.4-9.5-6.4-66.1 2.4-74.5 4.1c-8.4 1.7-6.1 7.8-6.1 7.8l1.7 16.6m91.8-5.2l-91.8 5.6m0-.4l-15.9 21.9 33.2 15.3v103.7l94.2-7.8v-103m-127.4-8.2v92.2l33.2 26.8" stroke-dasharray="116.76692316573522,16.533534425999925" stroke-dashoffset="133.300458"/><path d="M7269.5 106.9s.8 24.2 25.8 35.1c0 0 23.2 7.7 23.9 17.9l.6 20.6" stroke-dasharray="85.41113918061356,12.093733154227142" stroke-dashoffset="97.504872"/><path d="M7363.6 106.9s-.8 24.2-25.8 35.1c0 0-18.1 8.1-18.9 16.2M7344 38.8l19.6 35-94.1 7.1-17.3-36.3" stroke-dasharray="62.606169629596565,8.86467873596135" stroke-dashoffset="71.470848"/></g><g fill="none" stroke="#ea3a34" stroke-width="2" stroke-miterlimit="10"><path d="M7544 39s-1.7-8.3-3.4-17.1-9.5-6.4-9.5-6.4-66.1 2.4-74.5 4.1c-8.4 1.7-6.1 7.8-6.1 7.8l1.7 16.6m91.8-5.2l-91.8 5.6m0-.4l-15.9 21.9 33.2 15.3v103.7l94.2-7.8v-103m-127.4-8.2v92.2l33.2 26.8" stroke-dasharray="118.44401918998753,14.856438401747623" stroke-dashoffset="133.300458"/><path d="M7469.5 106.9s.8 24.2 25.8 35.1c0 0 23.2 7.7 23.9 17.9l.6 20.6" stroke-dasharray="86.63787940860905,10.86699292623164" stroke-dashoffset="97.504872"/><path d="M7563.6 106.9s-.8 24.2-25.8 35.1c0 0-18.1 8.1-18.9 16.2M7544 38.8l19.6 35-94.1 7.1-17.3-36.3" stroke-dasharray="63.505367410379336,7.965480955178577" stroke-dashoffset="71.470848"/></g><g fill="none" stroke="#e93731" stroke-width="2" stroke-miterlimit="10"><path d="M7744 39s-1.7-8.3-3.4-17.1-9.5-6.4-9.5-6.4-66.1 2.4-74.5 4.1c-8.4 1.7-6.1 7.8-6.1 7.8l1.7 16.6m91.8-5.2l-91.8 5.6m0-.4l-15.9 21.9 33.2 15.3v103.7l94.2-7.8v-103m-127.4-8.2v92.2l33.2 26.8" stroke-dasharray="119.99282763423425,13.307629957500913" stroke-dashoffset="133.300458"/><path d="M7669.5 106.9s.8 24.2 25.8 35.1c0 0 23.2 7.7 23.9 17.9l.6 20.6" stroke-dasharray="87.77078151829215,9.734090816548546" stroke-dashoffset="97.504872"/><path d="M7763.6 106.9s-.8 24.2-25.8 35.1c0 0-18.1 8.1-18.9 16.2M7744 38.8l19.6 35-94.1 7.1-17.3-36.3" stroke-dasharray="64.33578206510678,7.135066300451124" stroke-dashoffset="71.470848"/></g><g fill="none" stroke="#e9352e" stroke-width="2" stroke-miterlimit="10"><path d="M7944 39s-1.7-8.3-3.4-17.1-9.5-6.4-9.5-6.4-66.1 2.4-74.5 4.1c-8.4 1.7-6.1 7.8-6.1 7.8l1.7 16.6m91.8-5.2l-91.8 5.6m0-.4l-15.9 21.9 33.2 15.3v103.7l94.2-7.8v-103m-127.4-8.2v92.2l33.2 26.8" stroke-dasharray="121.42212284181636,11.878334749918794" stroke-dashoffset="133.300458"/><path d="M7869.5 106.9s.8 24.2 25.8 35.1c0 0 23.2 7.7 23.9 17.9l.6 20.6" stroke-dasharray="88.81626365137625,8.688608683464444" stroke-dashoffset="97.504872"/><path d="M7963.6 106.9s-.8 24.2-25.8 35.1c0 0-18.1 8.1-18.9 16.2M7944 38.8l19.6 35-94.1 7.1-17.3-36.3" stroke-dasharray="65.10211807697247,6.368730288585446" stroke-dashoffset="71.470848"/></g><g fill="none" stroke="#e9332c" stroke-width="2" stroke-miterlimit="10"><path d="M8144 39s-1.7-8.3-3.4-17.1-9.5-6.4-9.5-6.4-66.1 2.4-74.5 4.1c-8.4 1.7-6.1 7.8-6.1 7.8l1.7 16.6m91.8-5.2l-91.8 5.6m0-.4l-15.9 21.9 33.2 15.3v103.7l94.2-7.8v-103m-127.4-8.2v92.2l33.2 26.8" stroke-dasharray="122.73983327052099,10.56062432121417" stroke-dashoffset="133.300458"/><path d="M8069.5 106.9s.8 24.2 25.8 35.1c0 0 23.2 7.7 23.9 17.9l.6 20.6" stroke-dasharray="89.78012521229185,7.724747122548852" stroke-dashoffset="97.504872"/><path d="M8163.6 106.9s-.8 24.2-25.8 35.1c0 0-18.1 8.1-18.9 16.2M8144 38.8l19.6 35-94.1 7.1-17.3-36.3" stroke-dasharray="65.80862639615698,5.662221969400939" stroke-dashoffset="71.470848"/></g><g fill="none" stroke="#e9312a" stroke-width="2" stroke-miterlimit="10"><path d="M8344 39s-1.7-8.3-3.4-17.1-9.5-6.4-9.5-6.4-66.1 2.4-74.5 4.1c-8.4 1.7-6.1 7.8-6.1 7.8l1.7 16.6m91.8-5.2l-91.8 5.6m0-.4l-15.9 21.9 33.2 15.3v103.7l94.2-7.8v-103m-127.4-8.2v92.2l33.2 26.8" stroke-dasharray="123.95313815082645,9.347319440908702" stroke-dashoffset="133.300458"/><path d="M8269.5 106.9s.8 24.2 25.8 35.1c0 0 23.2 7.7 23.9 17.9l.6 20.6" stroke-dasharray="90.66761757049332,6.837254764347384" stroke-dashoffset="97.504872"/><path d="M8363.6 106.9s-.8 24.2-25.8 35.1c0 0-18.1 8.1-18.9 16.2M8344 38.8l19.6 35-94.1 7.1-17.3-36.3" stroke-dasharray="66.45915626445714,5.011692101100771" stroke-dashoffset="71.470848"/></g><g fill="none" stroke="#e82f28" stroke-width="2" stroke-miterlimit="10"><path d="M8544 39s-1.7-8.3-3.4-17.1-9.5-6.4-9.5-6.4-66.1 2.4-74.5 4.1c-8.4 1.7-6.1 7.8-6.1 7.8l1.7 16.6m91.8-5.2l-91.8 5.6m0-.4l-15.9 21.9 33.2 15.3v103.7l94.2-7.8v-103m-127.4-8.2v92.2l33.2 26.8" stroke-dasharray="125.06855276861127,8.231904823123886" stroke-dashoffset="133.300458"/><path d="M8469.5 106.9s.8 24.2 25.8 35.1c0 0 23.2 7.7 23.9 17.9l.6 20.6" stroke-dasharray="91.48350644193756,6.021365892903128" stroke-dashoffset="97.504872"/><path d="M8563.6 106.9s-.8 24.2-25.8 35.1c0 0-18.1 8.1-18.9 16.2M8544 38.8l19.6 35-94.1 7.1-17.3-36.3" stroke-dasharray="67.05720094076715,4.413647424790762" stroke-dashoffset="71.470848"/></g><g fill="none" stroke="#e82d26" stroke-width="2" stroke-miterlimit="10"><path d="M8744 39s-1.7-8.3-3.4-17.1-9.5-6.4-9.5-6.4-66.1 2.4-74.5 4.1c-8.4 1.7-6.1 7.8-6.1 7.8l1.7 16.6m91.8-5.2l-91.8 5.6m0-.4l-15.9 21.9 33.2 15.3v103.7l94.2-7.8v-103m-127.4-8.2v92.2l33.2 26.8" stroke-dasharray="126.09200338376931,7.208454207965839" stroke-dashoffset="133.300458"/><path d="M8669.5 106.9s.8 24.2 25.8 35.1c0 0 23.2 7.7 23.9 17.9l.6 20.6" stroke-dasharray="92.23212668957119,5.2727456452695085" stroke-dashoffset="97.504872"/><path d="M8763.6 106.9s-.8 24.2-25.8 35.1c0 0-18.1 8.1-18.9 16.2M8744 38.8l19.6 35-94.1 7.1-17.3-36.3" stroke-dasharray="67.60593786971025,3.864910495847669" stroke-dashoffset="71.470848"/></g><g fill="none" stroke="#e82b25" stroke-width="2" stroke-miterlimit="10"><path d="M8944 39s-1.7-8.3-3.4-17.1-9.5-6.4-9.5-6.4-66.1 2.4-74.5 4.1c-8.4 1.7-6.1 7.8-6.1 7.8l1.7 16.6m91.8-5.2l-91.8 5.6m0-.4l-15.9 21.9 33.2 15.3v103.7l94.2-7.8v-103m-127.4-8.2v92.2l33.2 26.8" stroke-dasharray="127.02889289015253,6.271564701582626" stroke-dashoffset="133.300458"/><path d="M8869.5 106.9s.8 24.2 25.8 35.1c0 0 23.2 7.7 23.9 17.9l.6 20.6" stroke-dasharray="92.91743035140506,4.587441983435635" stroke-dashoffset="97.504872"/><path d="M8963.6 106.9s-.8 24.2-25.8 35.1c0 0-18.1 8.1-18.9 16.2M8944 38.8l19.6 35-94.1 7.1-17.3-36.3" stroke-dasharray="68.10826388610757,3.3625844794503434" stroke-dashoffset="71.470848"/></g><g fill="none" stroke="#e82a23" stroke-width="2" stroke-miterlimit="10"><path d="M9144 39s-1.7-8.3-3.4-17.1-9.5-6.4-9.5-6.4-66.1 2.4-74.5 4.1c-8.4 1.7-6.1 7.8-6.1 7.8l1.7 16.6m91.8-5.2l-91.8 5.6m0-.4l-15.9 21.9 33.2 15.3v103.7l94.2-7.8v-103m-127.4-8.2v92.2l33.2 26.8" stroke-dasharray="127.88415830610613,5.416299285629024" stroke-dashoffset="133.300458"/><path d="M9069.5 106.9s.8 24.2 25.8 35.1c0 0 23.2 7.7 23.9 17.9l.6 20.6" stroke-dasharray="93.54302869293792,3.961843641902778" stroke-dashoffset="97.504872"/><path d="M9163.6 106.9s-.8 24.2-25.8 35.1c0 0-18.1 8.1-18.9 16.2M9144 38.8l19.6 35-94.1 7.1-17.3-36.3" stroke-dasharray="68.56682603930842,2.9040223262494855" stroke-dashoffset="71.470848"/></g><g fill="none" stroke="#e82922" stroke-width="2" stroke-miterlimit="10"><path d="M9344 39s-1.7-8.3-3.4-17.1-9.5-6.4-9.5-6.4-66.1 2.4-74.5 4.1c-8.4 1.7-6.1 7.8-6.1 7.8l1.7 16.6m91.8-5.2l-91.8 5.6m0-.4l-15.9 21.9 33.2 15.3v103.7l94.2-7.8v-103m-127.4-8.2v92.2l33.2 26.8" stroke-dasharray="128.662321112855,4.638136478880141" stroke-dashoffset="133.300458"/><path d="M9269.5 106.9s.8 24.2 25.8 35.1c0 0 23.2 7.7 23.9 17.9l.6 20.6" stroke-dasharray="94.11222902801971,3.392643306820992" stroke-dashoffset="97.504872"/><path d="M9363.6 106.9s-.8 24.2-25.8 35.1c0 0-18.1 8.1-18.9 16.2M9344 38.8l19.6 35-94.1 7.1-17.3-36.3" stroke-dasharray="68.98404858279889,2.4867997827590225" stroke-dashoffset="71.470848"/></g><g fill="none" stroke="#e82821" stroke-width="2" stroke-miterlimit="10"><path d="M9544 39s-1.7-8.3-3.4-17.1-9.5-6.4-9.5-6.4-66.1 2.4-74.5 4.1c-8.4 1.7-6.1 7.8-6.1 7.8l1.7 16.6m91.8-5.2l-91.8 5.6m0-.4l-15.9 21.9 33.2 15.3v103.7l94.2-7.8v-103m-127.4-8.2v92.2l33.2 26.8" stroke-dasharray="129.36753136148602,3.9329262302491377" stroke-dashoffset="133.300458"/><path d="M9469.5 106.9s.8 24.2 25.8 35.1c0 0 23.2 7.7 23.9 17.9l.6 20.6" stroke-dasharray="94.62806698164914,2.876805353191562" stroke-dashoffset="97.504872"/><path d="M9563.6 106.9s-.8 24.2-25.8 35.1c0 0-18.1 8.1-18.9 16.2M9544 38.8l19.6 35-94.1 7.1-17.3-36.3" stroke-dasharray="69.3621566227586,2.1086917427993095" stroke-dashoffset="71.470848"/></g><g fill="none" stroke="#e82620" stroke-width="2" stroke-miterlimit="10"><path d="M9744 39s-1.7-8.3-3.4-17.1-9.5-6.4-9.5-6.4-66.1 2.4-74.5 4.1c-8.4 1.7-6.1 7.8-6.1 7.8l1.7 16.6m91.8-5.2l-91.8 5.6m0-.4l-15.9 21.9 33.2 15.3v103.7l94.2-7.8v-103m-127.4-8.2v92.2l33.2 26.8" stroke-dasharray="130.00360636587794,3.296851225857214" stroke-dashoffset="133.300458"/><path d="M9669.5 106.9s.8 24.2 25.8 35.1c0 0 23.2 7.7 23.9 17.9l.6 20.6" stroke-dasharray="95.09333479257121,2.4115375422694854" stroke-dashoffset="97.504872"/><path d="M9763.6 106.9s-.8 24.2-25.8 35.1c0 0-18.1 8.1-18.9 16.2M9744 38.8l19.6 35-94.1 7.1-17.3-36.3" stroke-dasharray="69.70319686380002,1.7676515017578909" stroke-dashoffset="71.470848"/></g><g fill="none" stroke="#e7261f" stroke-width="2" stroke-miterlimit="10"><path d="M9944 39s-1.7-8.3-3.4-17.1-9.5-6.4-9.5-6.4-66.1 2.4-74.5 4.1c-8.4 1.7-6.1 7.8-6.1 7.8l1.7 16.6m91.8-5.2l-91.8 5.6m0-.4l-15.9 21.9 33.2 15.3v103.7l94.2-7.8v-103m-127.4-8.2v92.2l33.2 26.8" stroke-dasharray="130.5740646981842,2.726392893550963" stroke-dashoffset="133.300458"/><path d="M9869.5 106.9s.8 24.2 25.8 35.1c0 0 23.2 7.7 23.9 17.9l.6 20.6" stroke-dasharray="95.5106061798475,1.9942661549931986" stroke-dashoffset="97.504872"/><path d="M9963.6 106.9s-.8 24.2-25.8 35.1c0 0-18.1 8.1-18.9 16.2M9944 38.8l19.6 35-94.1 7.1-17.3-36.3" stroke-dasharray="70.00905583610754,1.4617925294503795" stroke-dashoffset="71.470848"/></g><g fill="none" stroke="#e7251e" stroke-width="2" stroke-miterlimit="10"><path d="M10144 39s-1.7-8.3-3.4-17.1-9.5-6.4-9.5-6.4-66.1 2.4-74.5 4.1c-8.4 1.7-6.1 7.8-6.1 7.8l1.7 16.6m91.8-5.2l-91.8 5.6m0-.4l-15.9 21.9 33.2 15.3v103.7l94.2-7.8v-103m-127.4-8.2v92.2l33.2 26.8" stroke-dasharray="131.08215611011863,2.21830148161651" stroke-dashoffset="133.300458"/><path d="M10069.5 106.9s.8 24.2 25.8 35.1c0 0 23.2 7.7 23.9 17.9l.6 20.6" stroke-dasharray="95.8822582292863,1.6226141055544017" stroke-dashoffset="97.504872"/><path d="M10163.6 106.9s-.8 24.2-25.8 35.1c0 0-18.1 8.1-18.9 16.2m25.1-119.4l19.6 35-94.1 7.1-17.3-36.3" stroke-dasharray="70.28147593814072,1.1893724274172035" stroke-dashoffset="71.470848"/></g><g fill="none" stroke="#e7241d" stroke-width="2" stroke-miterlimit="10"><path d="M10344 39s-1.7-8.3-3.4-17.1-9.5-6.4-9.5-6.4-66.1 2.4-74.5 4.1c-8.4 1.7-6.1 7.8-6.1 7.8l1.7 16.6m91.8-5.2l-91.8 5.6m0-.4l-15.9 21.9 33.2 15.3v103.7l94.2-7.8v-103m-127.4-8.2v92.2l33.2 26.8" stroke-dasharray="131.53088791934394,1.769569672391216" stroke-dashoffset="133.300458"/><path d="M10269.5 106.9s.8 24.2 25.8 35.1c0 0 23.2 7.7 23.9 17.9l.6 20.6" stroke-dasharray="96.21049069421227,1.2943816406284359" stroke-dashoffset="97.504872"/><path d="M10363.6 106.9s-.8 24.2-25.8 35.1c0 0-18.1 8.1-18.9 16.2m25.1-119.4l19.6 35-94.1 7.1-17.3-36.3" stroke-dasharray="70.52206958405428,0.9487787815036285" stroke-dashoffset="71.470848"/></g><g fill="none" stroke="#e7231c" stroke-width="2" stroke-miterlimit="10"><path d="M10544 39s-1.7-8.3-3.4-17.1-9.5-6.4-9.5-6.4-66.1 2.4-74.5 4.1c-8.4 1.7-6.1 7.8-6.1 7.8l1.7 16.6m91.8-5.2l-91.8 5.6m0-.4l-15.9 21.9 33.2 15.3v103.7l94.2-7.8v-103m-127.4-8.2v92.2l33.2 26.8" stroke-dasharray="131.9230483261745,1.3774092655606676" stroke-dashoffset="133.300458"/><path d="M10469.5 106.9s.8 24.2 25.8 35.1c0 0 23.2 7.7 23.9 17.9l.6 20.6" stroke-dasharray="96.49734305086285,1.0075292839778416" stroke-dashoffset="97.504872"/><path d="M10563.6 106.9s-.8 24.2-25.8 35.1c0 0-18.1 8.1-18.9 16.2m25.1-119.4l19.6 35-94.1 7.1-17.3-36.3" stroke-dasharray="70.73233170526473,0.7385166602931803" stroke-dashoffset="71.470848"/></g><g fill="none" stroke="#e7231c" stroke-width="2" stroke-miterlimit="10"><path d="M10744 39s-1.7-8.3-3.4-17.1-9.5-6.4-9.5-6.4-66.1 2.4-74.5 4.1c-8.4 1.7-6.1 7.8-6.1 7.8l1.7 16.6m91.8-5.2l-91.8 5.6m0-.4l-15.9 21.9 33.2 15.3v103.7l94.2-7.8v-103m-127.4-8.2v92.2l33.2 26.8" stroke-dasharray="132.2612270612223,1.0392305305128249" stroke-dashoffset="133.300458"/><path d="M10669.5 106.9s.8 24.2 25.8 35.1c0 0 23.2 7.7 23.9 17.9l.6 20.6" stroke-dasharray="96.74470960145781,0.7601627333828777" stroke-dashoffset="97.504872"/><path d="M10763.6 106.9s-.8 24.2-25.8 35.1c0 0-18.1 8.1-18.9 16.2m25.1-119.4l19.6 35-94.1 7.1-17.3-36.3" stroke-dasharray="70.91365082096564,0.5571975445922668" stroke-dashoffset="71.470848"/></g><g fill="none" stroke="#e7221b" stroke-width="2" stroke-miterlimit="10"><path d="M10944 39s-1.7-8.3-3.4-17.1-9.5-6.4-9.5-6.4-66.1 2.4-74.5 4.1c-8.4 1.7-6.1 7.8-6.1 7.8l1.7 16.6m91.8-5.2l-91.8 5.6m0-.4l-15.9 21.9 33.2 15.3v103.7l94.2-7.8v-103m-127.4-8.2v92.2l33.2 26.8" stroke-dasharray="132.5478337087652,0.7526238829699453" stroke-dashoffset="133.300458"/><path d="M10869.5 106.9s.8 24.2 25.8 35.1c0 0 23.2 7.7 23.9 17.9l.6 20.6" stroke-dasharray="96.9543528771364,0.5505194577042964" stroke-dashoffset="97.504872"/><path d="M10963.6 106.9s-.8 24.2-25.8 35.1c0 0-18.1 8.1-18.9 16.2m25.1-119.4l19.6 35-94.1 7.1-17.3-36.3" stroke-dasharray="71.06731886245007,0.40352950310785335" stroke-dashoffset="71.470848"/></g><g fill="none" stroke="#e7221b" stroke-width="2" stroke-miterlimit="10"><path d="M11144 39s-1.7-8.3-3.4-17.1-9.5-6.4-9.5-6.4-66.1 2.4-74.5 4.1c-8.4 1.7-6.1 7.8-6.1 7.8l1.7 16.6m91.8-5.2l-91.8 5.6m0-.4l-15.9 21.9 33.2 15.3v103.7l94.2-7.8v-103m-127.4-8.2v92.2l33.2 26.8" stroke-dasharray="132.7851140025753,0.5153435891598516" stroke-dashoffset="133.300458"/><path d="M11069.5 106.9s.8 24.2 25.8 35.1c0 0 23.2 7.7 23.9 17.9l.6 20.6" stroke-dasharray="97.12791555781666,0.3769567770240378" stroke-dashoffset="97.504872"/><path d="M11163.6 106.9s-.8 24.2-25.8 35.1c0 0-18.1 8.1-18.9 16.2m25.1-119.4l19.6 35-94.1 7.1-17.3-36.3" stroke-dasharray="71.19453991034005,0.2763084552178594" stroke-dashoffset="71.470848"/></g><g fill="none" stroke="#e7221b" stroke-width="2" stroke-miterlimit="10"><path d="M11344 39s-1.7-8.3-3.4-17.1-9.5-6.4-9.5-6.4-66.1 2.4-74.5 4.1c-8.4 1.7-6.1 7.8-6.1 7.8l1.7 16.6m91.8-5.2l-91.8 5.6m0-.4l-15.9 21.9 33.2 15.3v103.7l94.2-7.8v-103m-127.4-8.2v92.2l33.2 26.8" stroke-dasharray="132.97516434975725,0.3252932419779072" stroke-dashoffset="133.300458"/><path d="M11269.5 106.9s.8 24.2 25.8 35.1c0 0 23.2 7.7 23.9 17.9l.6 20.6" stroke-dasharray="97.26693109590222,0.23794123893846883" stroke-dashoffset="97.504872"/><path d="M11363.6 106.9s-.8 24.2-25.8 35.1c0 0-18.1 8.1-18.9 16.2m25.1-119.4l19.6 35-94.1 7.1-17.3-36.3" stroke-dasharray="71.2964379817395,0.17441038381840648" stroke-dashoffset="71.470848"/></g><g fill="none" stroke="#e7211a" stroke-width="2" stroke-miterlimit="10"><path d="M11544 39s-1.7-8.3-3.4-17.1-9.5-6.4-9.5-6.4-66.1 2.4-74.5 4.1c-8.4 1.7-6.1 7.8-6.1 7.8l1.7 16.6m91.8-5.2l-91.8 5.6m0-.4l-15.9 21.9 33.2 15.3v103.7l94.2-7.8v-103m-127.4-8.2v92.2l33.2 26.8" stroke-dasharray="133.1199448028964,0.18051278883872712" stroke-dashoffset="133.300458"/><path d="M11469.5 106.9s.8 24.2 25.8 35.1c0 0 23.2 7.7 23.9 17.9l.6 20.6" stroke-dasharray="97.3728332049794,0.13203912986130234" stroke-dashoffset="97.504872"/><path d="M11563.6 106.9s-.8 24.2-25.8 35.1c0 0-18.1 8.1-18.9 16.2m25.1-119.4l19.6 35-94.1 7.1-17.3-36.3" stroke-dasharray="71.37406398542736,0.09678438013056415" stroke-dashoffset="71.470848"/></g><g fill="none" stroke="#e7211a" stroke-width="2" stroke-miterlimit="10"><path d="M11744 39s-1.7-8.3-3.4-17.1-9.5-6.4-9.5-6.4-66.1 2.4-74.5 4.1c-8.4 1.7-6.1 7.8-6.1 7.8l1.7 16.6m91.8-5.2l-91.8 5.6m0-.4l-15.9 21.9 33.2 15.3v103.7l94.2-7.8v-103m-127.4-8.2v92.2l33.2 26.8" stroke-dasharray="133.2212906706824,0.07916692105274926" stroke-dashoffset="133.300458"/><path d="M11669.5 106.9s.8 24.2 25.8 35.1c0 0 23.2 7.7 23.9 17.9l.6 20.6" stroke-dasharray="97.44696435260381,0.057907982236884155" stroke-dashoffset="97.504872"/><path d="M11763.6 106.9s-.8 24.2-25.8 35.1c0 0-18.1 8.1-18.9 16.2m25.1-119.4l19.6 35-94.1 7.1-17.3-36.3" stroke-dasharray="71.4284019470508,0.04244641850711808" stroke-dashoffset="71.470848"/></g><g fill="none" stroke="#e7211a" stroke-width="2" stroke-miterlimit="10"><path d="M11944 39s-1.7-8.3-3.4-17.1-9.5-6.4-9.5-6.4-66.1 2.4-74.5 4.1c-8.4 1.7-6.1 7.8-6.1 7.8l1.7 16.6m91.8-5.2l-91.8 5.6m0-.4l-15.9 21.9 33.2 15.3v103.7l94.2-7.8v-103m-127.4-8.2v92.2l33.2 26.8" stroke-dasharray="133.2809229314105,0.019534660324676396" stroke-dashoffset="133.300458"/><path d="M11869.5 106.9s.8 24.2 25.8 35.1c0 0 23.2 7.7 23.9 17.9l.6 20.6" stroke-dasharray="97.4905833774322,0.014288957408501392" stroke-dashoffset="97.504872"/><path d="M11963.6 106.9s-.8 24.2-25.8 35.1c0 0-18.1 8.1-18.9 16.2m25.1-119.4l19.6 35-94.1 7.1-17.3-36.3" stroke-dasharray="71.46037459246544,0.010473773092465296" stroke-dashoffset="71.470848"/></g><g fill="none" stroke="#e7211a" stroke-width="2" stroke-miterlimit="10"><path d="M12144 39s-1.7-8.3-3.4-17.1-9.5-6.4-9.5-6.4-66.1 2.4-74.5 4.1c-8.4 1.7-6.1 7.8-6.1 7.8l1.7 16.6m91.8-5.2l-91.8 5.6m0-.4l-15.9 21.9 33.2 15.3v103.7l94.2-7.8v-103m-127.4-8.2v92.2l33.2 26.8"/><path d="M12069.5 106.9s.8 24.2 25.8 35.1c0 0 23.2 7.7 23.9 17.9l.6 20.6"/><path d="M12163.6 106.9s-.8 24.2-25.8 35.1c0 0-18.1 8.1-18.9 16.2m25.1-119.4l19.6 35-94.1 7.1-17.3-36.3"/></g></svg>