<svg xmlns="http://www.w3.org/2000/svg" viewBox="0 0 15250 200" width="15250" height="200"><g stroke="#00000000" stroke-width="4"><path d="M47.398 15.75H203.8s24.801 3.201 24.801 20.001 3.201 67.2 3.201 67.2-1.602 17.598-25.2 17.598S37 117.351 37 117.351s-22.398-.402-25.998-16.8V43.35s-5.604-27.6 36.396-27.6z" fill="#00000000" stroke-dasharray="0,604.9310091038565" stroke-dashoffset="604.931009" stroke-width="1.2"/><path d="M37 117.351l10.8 38.799s5.601 20.001 40.002 20.001h88.326c4.6752.0093 9.1827-1.7628 12.6-4.953 3.879-3.63 8.121-9.678 9.879-19.449 3.6-19.998 1.017-28.872 11.253-31.317" fill="#00000000" stroke-dasharray="0,247.70325160392443" stroke-dashoffset="247.703252" stroke-width="1.2"/><path d="M80.374 98.916s103.599 6.399 111.201-39.999c0 0 11.598-33.6-78-33.6s-80.001 55.599-40.002 62.4c39.999 6.801 6.801 11.199 6.801 11.199z" fill="none" stroke-dasharray="0,385.8551586630612" stroke-dashoffset="385.855159" stroke-miterlimit="10" stroke-width="1.2"/></g><g stroke="#00000000" stroke-width="4"><path d="M297.398 15.75H453.8s24.801 3.201 24.801 20.001 3.201 67.2 3.201 67.2-1.602 17.598-25.2 17.598S287 117.351 287 117.351s-22.398-.402-25.998-16.8V43.35s-5.604-27.6 36.396-27.6z" fill="#00000000" stroke-dasharray="0.3618098429860134,604.5691992608705" stroke-dashoffset="604.931009" stroke-width="1.2"/><path d="M287 117.351l10.8 38.799s5.601 20.001 40.002 20.001h88.326c4.6752.0093 9.1827-1.7628 12.6-4.953 3.879-3.63 8.121-9.678 9.879-19.449 3.6-19.998 1.017-28.872 11.253-31.317" fill="#00000000" stroke-dasharray="0.14815156310585884,247.55510004081856" stroke-dashoffset="247.703252" stroke-width="1.2"/><path d="M330.374 98.916s103.599 6.399 111.201-39.999c0 0 11.598-33.6-78-33.6s-80.001 55.599-40.002 62.4c39.999 6.801 6.801 11.199 6.801 11.199z" fill="none" stroke-dasharray="0.23078035721468101,385.62437830584656" stroke-dashoffset="385.855159" stroke-miterlimit="10" stroke-width="1.2"/></g><g stroke="#01000001" stroke-width="4"><path d="M547.398 15.75H703.8s24.801 3.201 24.801 20.001 3.201 67.2 3.201 67.2-1.602 17.598-25.2 17.598S537 117.351 537 117.351s-22.398-.402-25.998-16.8V43.35s-5.604-27.6 36.396-27.6z" fill="#00000000" stroke-dasharray="1.49748758162708,603.4335215222294" stroke-dashoffset="604.931009" stroke-width="1.2"/><path d="M537 117.351l10.8 38.799s5.601 20.001 40.002 20.001h88.326c4.6752.0093 9.1827-1.7628 12.6-4.953 3.879-3.63 8.121-9.678 9.879-19.449 3.6-19.998 1.017-28.872 11.253-31.317" fill="#00000000" stroke-dasharray="0.6131815655392234,247.0900700383852" stroke-dashoffset="247.703252" stroke-width="1.2"/><path d="M580.374 98.916s103.599 6.399 111.201-39.999c0 0 11.598-33.6-78-33.6s-80.001 55.599-40.002 62.4c39.999 6.801 6.801 11.199 6.801 11.199z" fill="none" stroke-dasharray="0.9551722423035516,384.89998642075767" stroke-dashoffset="385.855159" stroke-miterlimit="10" stroke-width="1.2"/></g><g stroke="#01000001" stroke-width="4"><path d="M797.398 15.75H953.8s24.801 3.201 24.801 20.001 3.201 67.2 3.201 67.2-1.602 17.598-25.2 17.598S787 117.351 787 117.351s-22.398-.402-25.998-16.8V43.35s-5.604-27.6 36.396-27.6z" fill="#00000000" stroke-dasharray="3.4905803101374486,601.440428793719" stroke-dashoffset="604.931009" stroke-width="1.2"/><path d="M787 117.351l10.8 38.799s5.601 20.001 40.002 20.001h88.326c4.6752.0093 9.1827-1.7628 12.6-4.953 3.879-3.63 8.121-9.678 9.879-19.449 3.6-19.998 1.017-28.872 11.253-31.317" fill="#00000000" stroke-dasharray="1.429300333085155,246.2739512708393" stroke-dashoffset="247.703252" stroke-width="1.2"/><path d="M830.374 98.916s103.599 6.399 111.201-39.999c0 0 11.598-33.6-78-33.6s-80.001 55.599-40.002 62.4c39.999 6.801 6.801 11.199 6.801 11.199z" fill="none" stroke-dasharray="2.226466157503607,383.62869250555764" stroke-dashoffset="385.855159" stroke-miterlimit="10" stroke-width="1.2"/></g><g stroke="#02000003" stroke-width="4"><path d="M1047.398 15.75H1203.8s24.801 3.201 24.801 20.001 3.201 67.2 3.201 67.2-1.602 17.598-25.2 17.598S1037 117.351 1037 117.351s-22.398-.402-25.998-16.8V43.35s-5.604-27.6 36.396-27.6z" fill="#00000000" stroke-dasharray="6.436922573331257,598.4940865305252" stroke-dashoffset="604.931009" stroke-width="1.2"/><path d="M1037 117.351l10.8 38.799s5.601 20.001 40.002 20.001h88.326c4.6752.0093 9.1827-1.7628 12.6-4.953 3.879-3.63 8.121-9.678 9.879-19.449 3.6-19.998 1.017-28.872 11.253-31.317" fill="#00000000" stroke-dasharray="2.6357495776235096,245.0675020263009" stroke-dashoffset="247.703252" stroke-width="1.2"/><path d="M1080.374 98.916s103.599 6.399 111.201-39.999c0 0 11.598-33.6-78-33.6s-80.001 55.599-40.002 62.4c39.999 6.801 6.801 11.199 6.801 11.199z" fill="none" stroke-dasharray="4.105790153680417,381.7493685093808" stroke-dashoffset="385.855159" stroke-miterlimit="10" stroke-width="1.2"/></g><g stroke="#04000004" stroke-width="4"><path d="M1297.398 15.75H1453.8s24.801 3.201 24.801 20.001 3.201 67.2 3.201 67.2-1.602 17.598-25.2 17.598S1287 117.351 1287 117.351s-22.398-.402-25.998-16.8V43.35s-5.604-27.6 36.396-27.6z" fill="#00000000" stroke-dasharray="10.44649717393083,594.4845119299256" stroke-dashoffset="604.931009" stroke-width="1.2"/><path d="M1287 117.351l10.8 38.799s5.601 20.001 40.002 20.001h88.326c4.6752.0093 9.1827-1.7628 12.6-4.953 3.879-3.63 8.121-9.678 9.879-19.449 3.6-19.998 1.017-28.872 11.253-31.317" fill="#00000000" stroke-dasharray="4.277564348515024,243.4256872554094" stroke-dashoffset="247.703252" stroke-width="1.2"/><path d="M1330.374 98.916s103.599 6.399 111.201-39.999c0 0 11.598-33.6-78-33.6s-80.001 55.599-40.002 62.4c39.999 6.801 6.801 11.199 6.801 11.199z" fill="none" stroke-dasharray="6.66329674600674,379.19186191705444" stroke-dashoffset="385.855159" stroke-miterlimit="10" stroke-width="1.2"/></g><g stroke="#06000007" stroke-width="4"><path d="M1547.398 15.75H1703.8s24.801 3.201 24.801 20.001 3.201 67.2 3.201 67.2-1.602 17.598-25.2 17.598S1537 117.351 1537 117.351s-22.398-.402-25.998-16.8V43.35s-5.604-27.6 36.396-27.6z" fill="#00000000" stroke-dasharray="15.645339696730527,589.285669407126" stroke-dashoffset="604.931009" stroke-width="1.2"/><path d="M1537 117.351l10.8 38.799s5.601 20.001 40.002 20.001h88.326c4.6752.0093 9.1827-1.7628 12.6-4.953 3.879-3.63 8.121-9.678 9.879-19.449 3.6-19.998 1.017-28.872 11.253-31.317" fill="#00000000" stroke-dasharray="6.406352884883717,241.2968987190407" stroke-dashoffset="247.703252" stroke-width="1.2"/><path d="M1580.374 98.916s103.599 6.399 111.201-39.999c0 0 11.598-33.6-78-33.6s-80.001 55.599-40.002 62.4c39.999 6.801 6.801 11.199 6.801 11.199z" fill="none" stroke-dasharray="9.979377714431275,375.87578094862994" stroke-dashoffset="385.855159" stroke-miterlimit="10" stroke-width="1.2"/></g><g stroke="#08000009" stroke-width="4"><path d="M1797.398 15.75H1953.8s24.801 3.201 24.801 20.001 3.201 67.2 3.201 67.2-1.602 17.598-25.2 17.598S1787 117.351 1787 117.351s-22.398-.402-25.998-16.8V43.35s-5.604-27.6 36.396-27.6z" fill="#00000000" stroke-dasharray="22.177233300169338,582.7537758036871" stroke-dashoffset="604.931009" stroke-width="1.2"/><path d="M1787 117.351l10.8 38.799s5.601 20.001 40.002 20.001h88.326c4.6752.0093 9.1827-1.7628 12.6-4.953 3.879-3.63 8.121-9.678 9.879-19.449 3.6-19.998 1.017-28.872 11.253-31.317" fill="#00000000" stroke-dasharray="9.080990587949273,238.62226101597514" stroke-dashoffset="247.703252" stroke-width="1.2"/><path d="M1830.374 98.916s103.599 6.399 111.201-39.999c0 0 11.598-33.6-78-33.6s-80.001 55.599-40.002 62.4c39.999 6.801 6.801 11.199 6.801 11.199z" fill="none" stroke-dasharray="14.145745126243705,371.7094135368175" stroke-dashoffset="385.855159" stroke-miterlimit="10" stroke-width="1.2"/></g><g stroke="#0b00000d" stroke-width="4"><path d="M2047.398 15.75H2203.8s24.801 3.201 24.801 20.001 3.201 67.2 3.201 67.2-1.602 17.598-25.2 17.598S2037 117.351 2037 117.351s-22.398-.402-25.998-16.8V43.35s-5.604-27.6 36.396-27.6z" fill="#00000000" stroke-dasharray="30.204693438072894,574.7263156657835" stroke-dashoffset="604.931009" stroke-width="1.2"/><path d="M2037 117.351l10.8 38.799s5.601 20.001 40.002 20.001h88.326c4.6752.0093 9.1827-1.7628 12.6-4.953 3.879-3.63 8.121-9.678 9.879-19.449 3.6-19.998 1.017-28.872 11.253-31.317" fill="#00000000" stroke-dasharray="12.368023238540705,235.3352283653837" stroke-dashoffset="247.703252" stroke-width="1.2"/><path d="M2080.374 98.916s103.599 6.399 111.201-39.999c0 0 11.598-33.6-78-33.6s-80.001 55.599-40.002 62.4c39.999 6.801 6.801 11.199 6.801 11.199z" fill="none" stroke-dasharray="19.26605944069869,366.5890992223625" stroke-dashoffset="385.855159" stroke-miterlimit="10" stroke-width="1.2"/></g><g stroke="#0f010111" stroke-width="4"><path d="M2297.398 15.75H2453.8s24.801 3.201 24.801 20.001 3.201 67.2 3.201 67.2-1.602 17.598-25.2 17.598S2287 117.351 2287 117.351s-22.398-.402-25.998-16.8V43.35s-5.604-27.6 36.396-27.6z" fill="#00000000" stroke-dasharray="39.90832225579378,565.0226868480627" stroke-dashoffset="604.931009" stroke-width="1.2"/><path d="M2287 117.351l10.8 38.799s5.601 20.001 40.002 20.001h88.326c4.6752.0093 9.1827-1.7628 12.6-4.953 3.879-3.63 8.121-9.678 9.879-19.449 3.6-19.998 1.017-28.872 11.253-31.317" fill="#00000000" stroke-dasharray="16.34140263938796,231.36184896453648" stroke-dashoffset="247.703252" stroke-width="1.2"/><path d="M2330.374 98.916s103.599 6.399 111.201-39.999c0 0 11.598-33.6-78-33.6s-80.001 55.599-40.002 62.4c39.999 6.801 6.801 11.199 6.801 11.199z" fill="none" stroke-dasharray="25.455517710685193,360.39964095237605" stroke-dashoffset="385.855159" stroke-miterlimit="10" stroke-width="1.2"/></g><g stroke="#13010116" stroke-width="4"><path d="M2547.398 15.75H2703.8s24.801 3.201 24.801 20.001 3.201 67.2 3.201 67.2-1.602 17.598-25.2 17.598S2537 117.351 2537 117.351s-22.398-.402-25.998-16.8V43.35s-5.604-27.6 36.396-27.6z" fill="#00000000" stroke-dasharray="51.48294486791597,553.4480642359405" stroke-dashoffset="604.931009" stroke-width="1.2"/><path d="M2537 117.351l10.8 38.799s5.601 20.001 40.002 20.001h88.326c4.6752.0093 9.1827-1.7628 12.6-4.953 3.879-3.63 8.121-9.678 9.879-19.449 3.6-19.998 1.017-28.872 11.253-31.317" fill="#00000000" stroke-dasharray="21.08090452301309,226.62234708091134" stroke-dashoffset="247.703252" stroke-width="1.2"/><path d="M2580.374 98.916s103.599 6.399 111.201-39.999c0 0 11.598-33.6-78-33.6s-80.001 55.599-40.002 62.4c39.999 6.801 6.801 11.199 6.801 11.199z" fill="none" stroke-dasharray="32.83838910800632,353.0167695550549" stroke-dashoffset="385.855159" stroke-miterlimit="10" stroke-width="1.2"/></g><g stroke="#1801011b" stroke-width="4"><path d="M2797.398 15.75H2953.8s24.801 3.201 24.801 20.001 3.201 67.2 3.201 67.2-1.602 17.598-25.2 17.598S2787 117.351 2787 117.351s-22.398-.402-25.998-16.8V43.35s-5.604-27.6 36.396-27.6z" fill="#00000000" stroke-dasharray="65.12799367795182,539.8030154259046" stroke-dashoffset="604.931009" stroke-width="1.2"/><path d="M2787 117.351l10.8 38.799s5.601 20.001 40.002 20.001h88.326c4.6752.0093 9.1827-1.7628 12.6-4.953 3.879-3.63 8.121-9.678 9.879-19.449 3.6-19.998 1.017-28.872 11.253-31.317" fill="#00000000" stroke-dasharray="26.668191184920452,221.03506041900397" stroke-dashoffset="247.703252" stroke-width="1.2"/><path d="M2830.374 98.916s103.599 6.399 111.201-39.999c0 0 11.598-33.6-78-33.6s-80.001 55.599-40.002 62.4c39.999 6.801 6.801 11.199 6.801 11.199z" fill="none" stroke-dasharray="41.54188156305698,344.31327710000426" stroke-dashoffset="385.855159" stroke-miterlimit="10" stroke-width="1.2"/></g><g stroke="#1e010122" stroke-width="4"><path d="M3047.398 15.75H3203.8s24.801 3.201 24.801 20.001 3.201 67.2 3.201 67.2-1.602 17.598-25.2 17.598S3037 117.351 3037 117.351s-22.398-.402-25.998-16.8V43.35s-5.604-27.6 36.396-27.6z" fill="#00000000" stroke-dasharray="81.0285578129984,523.902451290858" stroke-dashoffset="604.931009" stroke-width="1.2"/><path d="M3037 117.351l10.8 38.799s5.601 20.001 40.002 20.001h88.326c4.6752.0093 9.1827-1.7628 12.6-4.953 3.879-3.63 8.121-9.678 9.879-19.449 3.6-19.998 1.017-28.872 11.253-31.317" fill="#00000000" stroke-dasharray="33.1790517282119,214.52419987571253" stroke-dashoffset="247.703252" stroke-width="1.2"/><path d="M3080.374 98.916s103.599 6.399 111.201-39.999c0 0 11.598-33.6-78-33.6s-80.001 55.599-40.002 62.4c39.999 6.801 6.801 11.199 6.801 11.199z" fill="none" stroke-dasharray="51.684054149397724,334.17110451366347" stroke-dashoffset="385.855159" stroke-miterlimit="10" stroke-width="1.2"/></g><g stroke="#2501012a" stroke-width="4"><path d="M3297.398 15.75H3453.8s24.801 3.201 24.801 20.001 3.201 67.2 3.201 67.2-1.602 17.598-25.2 17.598S3287 117.351 3287 117.351s-22.398-.402-25.998-16.8V43.35s-5.604-27.6 36.396-27.6z" fill="#00000000" stroke-dasharray="99.32310056815986,505.6079085356966" stroke-dashoffset="604.931009" stroke-width="1.2"/><path d="M3287 117.351l10.8 38.799s5.601 20.001 40.002 20.001h88.326c4.6752.0093 9.1827-1.7628 12.6-4.953 3.879-3.63 8.121-9.678 9.879-19.449 3.6-19.998 1.017-28.872 11.253-31.317" fill="#00000000" stroke-dasharray="40.67018321074846,207.03306839317597" stroke-dashoffset="247.703252" stroke-width="1.2"/><path d="M3330.374 98.916s103.599 6.399 111.201-39.999c0 0 11.598-33.6-78-33.6s-80.001 55.599-40.002 62.4c39.999 6.801 6.801 11.199 6.801 11.199z" fill="none" stroke-dasharray="63.35322566024197,322.5019330028192" stroke-dashoffset="385.855159" stroke-miterlimit="10" stroke-width="1.2"/></g><g stroke="#2c020233" stroke-width="4"><path d="M3547.398 15.75H3703.8s24.801 3.201 24.801 20.001 3.201 67.2 3.201 67.2-1.602 17.598-25.2 17.598S3537 117.351 3537 117.351s-22.398-.402-25.998-16.8V43.35s-5.604-27.6 36.396-27.6z" fill="#00000000" stroke-dasharray="120.05585391524241,484.87515518861403" stroke-dashoffset="604.931009" stroke-width="1.2"/><path d="M3537 117.351l10.8 38.799s5.601 20.001 40.002 20.001h88.326c4.6752.0093 9.1827-1.7628 12.6-4.953 3.879-3.63 8.121-9.678 9.879-19.449 3.6-19.998 1.017-28.872 11.253-31.317" fill="#00000000" stroke-dasharray="49.15969745532706,198.54355414859734" stroke-dashoffset="247.703252" stroke-width="1.2"/><path d="M3580.374 98.916s103.599 6.399 111.201-39.999c0 0 11.598-33.6-78-33.6s-80.001 55.599-40.002 62.4c39.999 6.801 6.801 11.199 6.801 11.199z" fill="none" stroke-dasharray="76.57760945255508,309.2775492105061" stroke-dashoffset="385.855159" stroke-miterlimit="10" stroke-width="1.2"/></g><g stroke="#3502023c" stroke-width="4"><path d="M3797.398 15.75H3953.8s24.801 3.201 24.801 20.001 3.201 67.2 3.201 67.2-1.602 17.598-25.2 17.598S3787 117.351 3787 117.351s-22.398-.402-25.998-16.8V43.35s-5.604-27.6 36.396-27.6z" fill="#00000000" stroke-dasharray="143.11903070899285,461.8119783948636" stroke-dashoffset="604.931009" stroke-width="1.2"/><path d="M3787 117.351l10.8 38.799s5.601 20.001 40.002 20.001h88.326c4.6752.0093 9.1827-1.7628 12.6-4.953 3.879-3.63 8.121-9.678 9.879-19.449 3.6-19.998 1.017-28.872 11.253-31.317" fill="#00000000" stroke-dasharray="58.60345847625923,189.0997931276652" stroke-dashoffset="247.703252" stroke-width="1.2"/><path d="M3830.374 98.916s103.599 6.399 111.201-39.999c0 0 11.598-33.6-78-33.6s-80.001 55.599-40.002 62.4c39.999 6.801 6.801 11.199 6.801 11.199z" fill="none" stroke-dasharray="91.28845351097065,294.56670515209055" stroke-dashoffset="385.855159" stroke-miterlimit="10" stroke-width="1.2"/></g><g stroke="#3e030347" stroke-width="4"><path d="M4047.398 15.75H4203.8s24.801 3.201 24.801 20.001 3.201 67.2 3.201 67.2-1.602 17.598-25.2 17.598S4037 117.351 4037 117.351s-22.398-.402-25.998-16.8V43.35s-5.604-27.6 36.396-27.6z" fill="#00000000" stroke-dasharray="168.20320687279886,436.72780223105764" stroke-dashoffset="604.931009" stroke-width="1.2"/><path d="M4037 117.351l10.8 38.799s5.601 20.001 40.002 20.001h88.326c4.6752.0093 9.1827-1.7628 12.6-4.953 3.879-3.63 8.121-9.678 9.879-19.449 3.6-19.998 1.017-28.872 11.253-31.317" fill="#00000000" stroke-dasharray="68.87476529649476,178.8284863074297" stroke-dashoffset="247.703252" stroke-width="1.2"/><path d="M4080.374 98.916s103.599 6.399 111.201-39.999c0 0 11.598-33.6-78-33.6s-80.001 55.599-40.002 62.4c39.999 6.801 6.801 11.199 6.801 11.199z" fill="none" stroke-dasharray="107.28839173195189,278.5667669311093" stroke-dashoffset="385.855159" stroke-miterlimit="10" stroke-width="1.2"/></g><g stroke="#48030352" stroke-width="4"><path d="M4297.398 15.75H4453.8s24.801 3.201 24.801 20.001 3.201 67.2 3.201 67.2-1.602 17.598-25.2 17.598S4287 117.351 4287 117.351s-22.398-.402-25.998-16.8V43.35s-5.604-27.6 36.396-27.6z" fill="#00000000" stroke-dasharray="194.78658932303833,410.14441978081817" stroke-dashoffset="604.931009" stroke-width="1.2"/><path d="M4287 117.351l10.8 38.799s5.601 20.001 40.002 20.001h88.326c4.6752.0093 9.1827-1.7628 12.6-4.953 3.879-3.63 8.121-9.678 9.879-19.449 3.6-19.998 1.017-28.872 11.253-31.317" fill="#00000000" stroke-dasharray="79.75995744643878,167.94329415748564" stroke-dashoffset="247.703252" stroke-width="1.2"/><path d="M4330.374 98.916s103.599 6.399 111.201-39.999c0 0 11.598-33.6-78-33.6s-80.001 55.599-40.002 62.4c39.999 6.801 6.801 11.199 6.801 11.199z" fill="none" stroke-dasharray="124.24459847085454,261.61056019220666" stroke-dashoffset="385.855159" stroke-miterlimit="10" stroke-width="1.2"/></g><g stroke="#5203035e" stroke-width="4"><path d="M4547.398 15.75H4703.8s24.801 3.201 24.801 20.001 3.201 67.2 3.201 67.2-1.602 17.598-25.2 17.598S4537 117.351 4537 117.351s-22.398-.402-25.998-16.8V43.35s-5.604-27.6 36.396-27.6z" fill="#00000000" stroke-dasharray="222.18856345296024,382.74244565089623" stroke-dashoffset="604.931009" stroke-width="1.2"/><path d="M4537 117.351l10.8 38.799s5.601 20.001 40.002 20.001h88.326c4.6752.0093 9.1827-1.7628 12.6-4.953 3.879-3.63 8.121-9.678 9.879-19.449 3.6-19.998 1.017-28.872 11.253-31.317" fill="#00000000" stroke-dasharray="90.98034124260646,156.72291036131796" stroke-dashoffset="247.703252" stroke-width="1.2"/><path d="M4580.374 98.916s103.599 6.399 111.201-39.999c0 0 11.598-33.6-78-33.6s-80.001 55.599-40.002 62.4c39.999 6.801 6.801 11.199 6.801 11.199z" fill="none" stroke-dasharray="141.7229437969525,244.1322148661087" stroke-dashoffset="385.855159" stroke-miterlimit="10" stroke-width="1.2"/></g><g stroke="#5c040469" stroke-width="4"><path d="M4797.398 15.75H4953.8s24.801 3.201 24.801 20.001 3.201 67.2 3.201 67.2-1.602 17.598-25.2 17.598S4787 117.351 4787 117.351s-22.398-.402-25.998-16.8V43.35s-5.604-27.6 36.396-27.6z" fill="#00000000" stroke-dasharray="249.68014052989744,355.250868573959" stroke-dashoffset="604.931009" stroke-width="1.2"/><path d="M4787 117.351l10.8 38.799s5.601 20.001 40.002 20.001h88.326c4.6752.0093 9.1827-1.7628 12.6-4.953 3.879-3.63 8.121-9.678 9.879-19.449 3.6-19.998 1.017-28.872 11.253-31.317" fill="#00000000" stroke-dasharray="102.23741507614199,145.46583652778244" stroke-dashoffset="247.703252" stroke-width="1.2"/><path d="M4830.374 98.916s103.599 6.399 111.201-39.999c0 0 11.598-33.6-78-33.6s-80.001 55.599-40.002 62.4c39.999 6.801 6.801 11.199 6.801 11.199z" fill="none" stroke-dasharray="159.25844235014077,226.59671631292045" stroke-dashoffset="385.855159" stroke-miterlimit="10" stroke-width="1.2"/></g><g stroke="#66040475" stroke-width="4"><path d="M5047.398 15.75H5203.8s24.801 3.201 24.801 20.001 3.201 67.2 3.201 67.2-1.602 17.598-25.2 17.598S5037 117.351 5037 117.351s-22.398-.402-25.998-16.8V43.35s-5.604-27.6 36.396-27.6z" fill="#00000000" stroke-dasharray="276.6057563819141,328.3252527219424" stroke-dashoffset="604.931009" stroke-width="1.2"/><path d="M5037 117.351l10.8 38.799s5.601 20.001 40.002 20.001h88.326c4.6752.0093 9.1827-1.7628 12.6-4.953 3.879-3.63 8.121-9.678 9.879-19.449 3.6-19.998 1.017-28.872 11.253-31.317" fill="#00000000" stroke-dasharray="113.26274275419071,134.4405088497337" stroke-dashoffset="247.703252" stroke-width="1.2"/><path d="M5080.374 98.916s103.599 6.399 111.201-39.999c0 0 11.598-33.6-78-33.6s-80.001 55.599-40.002 62.4c39.999 6.801 6.801 11.199 6.801 11.199z" fill="none" stroke-dasharray="176.43294261599974,209.42221604706148" stroke-dashoffset="385.855159" stroke-miterlimit="10" stroke-width="1.2"/></g><g stroke="#7004047f" stroke-width="4"><path d="M5297.398 15.75H5453.8s24.801 3.201 24.801 20.001 3.201 67.2 3.201 67.2-1.602 17.598-25.2 17.598S5287 117.351 5287 117.351s-22.398-.402-25.998-16.8V43.35s-5.604-27.6 36.396-27.6z" fill="#00000000" stroke-dasharray="302.4655045519282,302.4655045519283" stroke-dashoffset="604.931009" stroke-width="1.2"/><path d="M5287 117.351l10.8 38.799s5.601 20.001 40.002 20.001h88.326c4.6752.0093 9.1827-1.7628 12.6-4.953 3.879-3.63 8.121-9.678 9.879-19.449 3.6-19.998 1.017-28.872 11.253-31.317" fill="#00000000" stroke-dasharray="123.85162580196219,123.85162580196224" stroke-dashoffset="247.703252" stroke-width="1.2"/><path d="M5330.374 98.916s103.599 6.399 111.201-39.999c0 0 11.598-33.6-78-33.6s-80.001 55.599-40.002 62.4c39.999 6.801 6.801 11.199 6.801 11.199z" fill="none" stroke-dasharray="192.92757933153055,192.92757933153067" stroke-dashoffset="385.855159" stroke-miterlimit="10" stroke-width="1.2"/></g><g stroke="#7905058a" stroke-width="4"><path d="M5547.398 15.75H5703.8s24.801 3.201 24.801 20.001 3.201 67.2 3.201 67.2-1.602 17.598-25.2 17.598S5537 117.351 5537 117.351s-22.398-.402-25.998-16.8V43.35s-5.604-27.6 36.396-27.6z" fill="#00000000" stroke-dasharray="326.9382293740329,277.99277972982355" stroke-dashoffset="604.931009" stroke-width="1.2"/><path d="M5537 117.351l10.8 38.799s5.601 20.001 40.002 20.001h88.326c4.6752.0093 9.1827-1.7628 12.6-4.953 3.879-3.63 8.121-9.678 9.879-19.449 3.6-19.998 1.017-28.872 11.253-31.317" fill="#00000000" stroke-dasharray="133.87255946681697,113.83069213710745" stroke-dashoffset="247.703252" stroke-width="1.2"/><path d="M5580.374 98.916s103.599 6.399 111.201-39.999c0 0 11.598-33.6-78-33.6s-80.001 55.599-40.002 62.4c39.999 6.801 6.801 11.199 6.801 11.199z" fill="none" stroke-dasharray="208.537503400623,177.31765526243822" stroke-dashoffset="385.855159" stroke-miterlimit="10" stroke-width="1.2"/></g><g stroke="#82050593" stroke-width="4"><path d="M5797.398 15.75H5953.8s24.801 3.201 24.801 20.001 3.201 67.2 3.201 67.2-1.602 17.598-25.2 17.598S5787 117.351 5787 117.351s-22.398-.402-25.998-16.8V43.35s-5.604-27.6 36.396-27.6z" fill="#00000000" stroke-dasharray="349.85981360929236,255.0711954945641" stroke-dashoffset="604.931009" stroke-width="1.2"/><path d="M5787 117.351l10.8 38.799s5.601 20.001 40.002 20.001h88.326c4.6752.0093 9.1827-1.7628 12.6-4.953 3.879-3.63 8.121-9.678 9.879-19.449 3.6-19.998 1.017-28.872 11.253-31.317" fill="#00000000" stroke-dasharray="143.25834207928057,104.44490952464388" stroke-dashoffset="247.703252" stroke-width="1.2"/><path d="M5830.374 98.916s103.599 6.399 111.201-39.999c0 0 11.598-33.6-78-33.6s-80.001 55.599-40.002 62.4c39.999 6.801 6.801 11.199 6.801 11.199z" fill="none" stroke-dasharray="223.15803266561613,162.69712599744508" stroke-dashoffset="385.855159" stroke-miterlimit="10" stroke-width="1.2"/></g><g stroke="#8906069c" stroke-width="4"><path d="M6047.398 15.75H6203.8s24.801 3.201 24.801 20.001 3.201 67.2 3.201 67.2-1.602 17.598-25.2 17.598S6037 117.351 6037 117.351s-22.398-.402-25.998-16.8V43.35s-5.604-27.6 36.396-27.6z" fill="#00000000" stroke-dasharray="371.18248918668394,233.74851991717256" stroke-dashoffset="604.931009" stroke-width="1.2"/><path d="M6037 117.351l10.8 38.799s5.601 20.001 40.002 20.001h88.326c4.6752.0093 9.1827-1.7628 12.6-4.953 3.879-3.63 8.121-9.678 9.879-19.449 3.6-19.998 1.017-28.872 11.253-31.317" fill="#00000000" stroke-dasharray="151.9894138774345,95.71383772648996" stroke-dashoffset="247.703252" stroke-width="1.2"/><path d="M6080.374 98.916s103.599 6.399 111.201-39.999c0 0 11.598-33.6-78-33.6s-80.001 55.599-40.002 62.4c39.999 6.801 6.801 11.199 6.801 11.199z" fill="none" stroke-dasharray="236.75869826915917,149.09646039390205" stroke-dashoffset="385.855159" stroke-miterlimit="10" stroke-width="1.2"/></g><g stroke="#910606a5" stroke-width="4"><path d="M6297.398 15.75H6453.8s24.801 3.201 24.801 20.001 3.201 67.2 3.201 67.2-1.602 17.598-25.2 17.598S6287 117.351 6287 117.351s-22.398-.402-25.998-16.8V43.35s-5.604-27.6 36.396-27.6z" fill="#00000000" stroke-dasharray="390.93431681984015,213.99669228401632" stroke-dashoffset="604.931009" stroke-width="1.2"/><path d="M6287 117.351l10.8 38.799s5.601 20.001 40.002 20.001h88.326c4.6752.0093 9.1827-1.7628 12.6-4.953 3.879-3.63 8.121-9.678 9.879-19.449 3.6-19.998 1.017-28.872 11.253-31.317" fill="#00000000" stroke-dasharray="160.07726498148173,87.6259866224427" stroke-dashoffset="247.703252" stroke-width="1.2"/><path d="M6330.374 98.916s103.599 6.399 111.201-39.999c0 0 11.598-33.6-78-33.6s-80.001 55.599-40.002 62.4c39.999 6.801 6.801 11.199 6.801 11.199z" fill="none" stroke-dasharray="249.35739873347686,136.49775992958436" stroke-dashoffset="385.855159" stroke-miterlimit="10" stroke-width="1.2"/></g><g stroke="#980606ac" stroke-width="4"><path d="M6547.398 15.75H6703.8s24.801 3.201 24.801 20.001 3.201 67.2 3.201 67.2-1.602 17.598-25.2 17.598S6537 117.351 6537 117.351s-22.398-.402-25.998-16.8V43.35s-5.604-27.6 36.396-27.6z" fill="#00000000" stroke-dasharray="409.18727265592855,195.7437364479279" stroke-dashoffset="604.931009" stroke-width="1.2"/><path d="M6537 117.351l10.8 38.799s5.601 20.001 40.002 20.001h88.326c4.6752.0093 9.1827-1.7628 12.6-4.953 3.879-3.63 8.121-9.678 9.879-19.449 3.6-19.998 1.017-28.872 11.253-31.317" fill="#00000000" stroke-dasharray="167.5513677203706,80.15188388355385" stroke-dashoffset="247.703252" stroke-width="1.2"/><path d="M6580.374 98.916s103.599 6.399 111.201-39.999c0 0 11.598-33.6-78-33.6s-80.001 55.599-40.002 62.4c39.999 6.801 6.801 11.199 6.801 11.199z" fill="none" stroke-dasharray="261.00004403386777,124.85511462919344" stroke-dashoffset="385.855159" stroke-miterlimit="10" stroke-width="1.2"/></g><g stroke="#9e0606b4" stroke-width="4"><path d="M6797.398 15.75H6953.8s24.801 3.201 24.801 20.001 3.201 67.2 3.201 67.2-1.602 17.598-25.2 17.598S6787 117.351 6787 117.351s-22.398-.402-25.998-16.8V43.35s-5.604-27.6 36.396-27.6z" fill="#00000000" stroke-dasharray="426.035207242127,178.89580186172944" stroke-dashoffset="604.931009" stroke-width="1.2"/><path d="M6787 117.351l10.8 38.799s5.601 20.001 40.002 20.001h88.326c4.6752.0093 9.1827-1.7628 12.6-4.953 3.879-3.63 8.121-9.678 9.879-19.449 3.6-19.998 1.017-28.872 11.253-31.317" fill="#00000000" stroke-dasharray="174.4501514114131,73.25310019251133" stroke-dashoffset="247.703252" stroke-width="1.2"/><path d="M6830.374 98.916s103.599 6.399 111.201-39.999c0 0 11.598-33.6-78-33.6s-80.001 55.599-40.002 62.4c39.999 6.801 6.801 11.199 6.801 11.199z" fill="none" stroke-dasharray="271.74649672858556,114.10866193447566" stroke-dashoffset="385.855159" stroke-miterlimit="10" stroke-width="1.2"/></g><g stroke="#a40707ba" stroke-width="4"><path d="M7047.398 15.75H7203.8s24.801 3.201 24.801 20.001 3.201 67.2 3.201 67.2-1.602 17.598-25.2 17.598S7037 117.351 7037 117.351s-22.398-.402-25.998-16.8V43.35s-5.604-27.6 36.396-27.6z" fill="#00000000" stroke-dasharray="441.5799116165107,163.35109748734575" stroke-dashoffset="604.931009" stroke-width="1.2"/><path d="M7037 117.351l10.8 38.799s5.601 20.001 40.002 20.001h88.326c4.6752.0093 9.1827-1.7628 12.6-4.953 3.879-3.63 8.121-9.678 9.879-19.449 3.6-19.998 1.017-28.872 11.253-31.317" fill="#00000000" stroke-dasharray="180.81529679296773,66.88795481095671" stroke-dashoffset="247.703252" stroke-width="1.2"/><path d="M7080.374 98.916s103.599 6.399 111.201-39.999c0 0 11.598-33.6-78-33.6s-80.001 55.599-40.002 62.4c39.999 6.801 6.801 11.199 6.801 11.199z" fill="none" stroke-dasharray="281.66168421688053,104.19347444618072" stroke-dashoffset="385.855159" stroke-miterlimit="10" stroke-width="1.2"/></g><g stroke="#a90707c0" stroke-width="4"><path d="M7297.398 15.75H7453.8s24.801 3.201 24.801 20.001 3.201 67.2 3.201 67.2-1.602 17.598-25.2 17.598S7287 117.351 7287 117.351s-22.398-.402-25.998-16.8V43.35s-5.604-27.6 36.396-27.6z" fill="#00000000" stroke-dasharray="455.9229257280674,149.00808337578906" stroke-dashoffset="604.931009" stroke-width="1.2"/><path d="M7287 117.351l10.8 38.799s5.601 20.001 40.002 20.001h88.326c4.6752.0093 9.1827-1.7628 12.6-4.953 3.879-3.63 8.121-9.678 9.879-19.449 3.6-19.998 1.017-28.872 11.253-31.317" fill="#00000000" stroke-dasharray="186.6883817890513,61.01486981487312" stroke-dashoffset="247.703252" stroke-width="1.2"/><path d="M7330.374 98.916s103.599 6.399 111.201-39.999c0 0 11.598-33.6-78-33.6s-80.001 55.599-40.002 62.4c39.999 6.801 6.801 11.199 6.801 11.199z" fill="none" stroke-dasharray="290.810373740864,95.04478492219718" stroke-dashoffset="385.855159" stroke-miterlimit="10" stroke-width="1.2"/></g><g stroke="#ae0707c6" stroke-width="4"><path d="M7547.398 15.75H7703.8s24.801 3.201 24.801 20.001 3.201 67.2 3.201 67.2-1.602 17.598-25.2 17.598S7537 117.351 7537 117.351s-22.398-.402-25.998-16.8V43.35s-5.604-27.6 36.396-27.6z" fill="#00000000" stroke-dasharray="469.1610865554315,135.769922548425" stroke-dashoffset="604.931009" stroke-width="1.2"/><path d="M7537 117.351l10.8 38.799s5.601 20.001 40.002 20.001h88.326c4.6752.0093 9.1827-1.7628 12.6-4.953 3.879-3.63 8.121-9.678 9.879-19.449 3.6-19.998 1.017-28.872 11.253-31.317" fill="#00000000" stroke-dasharray="192.10905858168505,55.59419302223939" stroke-dashoffset="247.703252" stroke-width="1.2"/><path d="M7580.374 98.916s103.599 6.399 111.201-39.999c0 0 11.598-33.6-78-33.6s-80.001 55.599-40.002 62.4c39.999 6.801 6.801 11.199 6.801 11.199z" fill="none" stroke-dasharray="299.25433275367226,86.60082590938894" stroke-dashoffset="385.855159" stroke-miterlimit="10" stroke-width="1.2"/></g><g stroke="#b20707cb" stroke-width="4"><path d="M7797.398 15.75H7953.8s24.801 3.201 24.801 20.001 3.201 67.2 3.201 67.2-1.602 17.598-25.2 17.598S7787 117.351 7787 117.351s-22.398-.402-25.998-16.8V43.35s-5.604-27.6 36.396-27.6z" fill="#00000000" stroke-dasharray="481.38437935521097,123.54662974864551" stroke-dashoffset="604.931009" stroke-width="1.2"/><path d="M7787 117.351l10.8 38.799s5.601 20.001 40.002 20.001h88.326c4.6752.0093 9.1827-1.7628 12.6-4.953 3.879-3.63 8.121-9.678 9.879-19.449 3.6-19.998 1.017-28.872 11.253-31.317" fill="#00000000" stroke-dasharray="197.11417375390528,50.589077850019144" stroke-dashoffset="247.703252" stroke-width="1.2"/><path d="M7830.374 98.916s103.599 6.399 111.201-39.999c0 0 11.598-33.6-78-33.6s-80.001 55.599-40.002 62.4c39.999 6.801 6.801 11.199 6.801 11.199z" fill="none" stroke-dasharray="307.05095833851516,78.80420032454604" stroke-dashoffset="385.855159" stroke-miterlimit="10" stroke-width="1.2"/></g><g stroke="#b60707d0" stroke-width="4"><path d="M8047.398 15.75H8203.8s24.801 3.201 24.801 20.001 3.201 67.2 3.201 67.2-1.602 17.598-25.2 17.598S8037 117.351 8037 117.351s-22.398-.402-25.998-16.8V43.35s-5.604-27.6 36.396-27.6z" fill="#00000000" stroke-dasharray="492.6751449968785,112.25586410697797" stroke-dashoffset="604.931009" stroke-width="1.2"/><path d="M8037 117.351l10.8 38.799s5.601 20.001 40.002 20.001h88.326c4.6752.0093 9.1827-1.7628 12.6-4.953 3.879-3.63 8.121-9.678 9.879-19.449 3.6-19.998 1.017-28.872 11.253-31.317" fill="#00000000" stroke-dasharray="201.73744371436248,45.96580788956194" stroke-dashoffset="247.703252" stroke-width="1.2"/><path d="M8080.374 98.916s103.599 6.399 111.201-39.999c0 0 11.598-33.6-78-33.6s-80.001 55.599-40.002 62.4c39.999 6.801 6.801 11.199 6.801 11.199z" fill="none" stroke-dasharray="314.2527716073488,71.60238705571241" stroke-dashoffset="385.855159" stroke-miterlimit="10" stroke-width="1.2"/></g><g stroke="#ba0707d4" stroke-width="4"><path d="M8297.398 15.75H8453.8s24.801 3.201 24.801 20.001 3.201 67.2 3.201 67.2-1.602 17.598-25.2 17.598S8287 117.351 8287 117.351s-22.398-.402-25.998-16.8V43.35s-5.604-27.6 36.396-27.6z" fill="#00000000" stroke-dasharray="503.1080495232154,101.82295958064107" stroke-dashoffset="604.931009" stroke-width="1.2"/><path d="M8287 117.351l10.8 38.799s5.601 20.001 40.002 20.001h88.326c4.6752.0093 9.1827-1.7628 12.6-4.953 3.879-3.63 8.121-9.678 9.879-19.449 3.6-19.998 1.017-28.872 11.253-31.317" fill="#00000000" stroke-dasharray="206.0094422331279,41.693809370796515" stroke-dashoffset="247.703252" stroke-width="1.2"/><path d="M8330.374 98.916s103.599 6.399 111.201-39.999c0 0 11.598-33.6-78-33.6s-80.001 55.599-40.002 62.4c39.999 6.801 6.801 11.199 6.801 11.199z" fill="none" stroke-dasharray="320.90739828500875,64.94776037805244" stroke-dashoffset="385.855159" stroke-miterlimit="10" stroke-width="1.2"/></g><g stroke="#be0808d8" stroke-width="4"><path d="M8547.398 15.75H8703.8s24.801 3.201 24.801 20.001 3.201 67.2 3.201 67.2-1.602 17.598-25.2 17.598S8537 117.351 8537 117.351s-22.398-.402-25.998-16.8V43.35s-5.604-27.6 36.396-27.6z" fill="#00000000" stroke-dasharray="512.7504559733884,92.1805531304681" stroke-dashoffset="604.931009" stroke-width="1.2"/><path d="M8537 117.351l10.8 38.799s5.601 20.001 40.002 20.001h88.326c4.6752.0093 9.1827-1.7628 12.6-4.953 3.879-3.63 8.121-9.678 9.879-19.449 3.6-19.998 1.017-28.872 11.253-31.317" fill="#00000000" stroke-dasharray="209.95775269341124,37.7454989105132" stroke-dashoffset="247.703252" stroke-width="1.2"/><path d="M8580.374 98.916s103.599 6.399 111.201-39.999c0 0 11.598-33.6-78-33.6s-80.001 55.599-40.002 62.4c39.999 6.801 6.801 11.199 6.801 11.199z" fill="none" stroke-dasharray="327.0578058765073,58.79735278655393" stroke-dashoffset="385.855159" stroke-miterlimit="10" stroke-width="1.2"/></g><g stroke="#c10808dc" stroke-width="4"><path d="M8797.398 15.75H8953.8s24.801 3.201 24.801 20.001 3.201 67.2 3.201 67.2-1.602 17.598-25.2 17.598S8787 117.351 8787 117.351s-22.398-.402-25.998-16.8V43.35s-5.604-27.6 36.396-27.6z" fill="#00000000" stroke-dasharray="521.6629862437622,83.26802286009418" stroke-dashoffset="604.931009" stroke-width="1.2"/><path d="M8787 117.351l10.8 38.799s5.601 20.001 40.002 20.001h88.326c4.6752.0093 9.1827-1.7628 12.6-4.953 3.879-3.63 8.121-9.678 9.879-19.449 3.6-19.998 1.017-28.872 11.253-31.317" fill="#00000000" stroke-dasharray="213.60719815870561,34.096053445218814" stroke-dashoffset="247.703252" stroke-width="1.2"/><path d="M8830.374 98.916s103.599 6.399 111.201-39.999c0 0 11.598-33.6-78-33.6s-80.001 55.599-40.002 62.4c39.999 6.801 6.801 11.199 6.801 11.199z" fill="none" stroke-dasharray="332.7426620498731,53.112496613188114" stroke-dashoffset="385.855159" stroke-miterlimit="10" stroke-width="1.2"/></g><g stroke="#c40808df" stroke-width="4"><path d="M9047.398 15.75H9203.8s24.801 3.201 24.801 20.001 3.201 67.2 3.201 67.2-1.602 17.598-25.2 17.598S9037 117.351 9037 117.351s-22.398-.402-25.998-16.8V43.35s-5.604-27.6 36.396-27.6z" fill="#00000000" stroke-dasharray="529.9001514078841,75.03085769597241" stroke-dashoffset="604.931009" stroke-width="1.2"/><path d="M9037 117.351l10.8 38.799s5.601 20.001 40.002 20.001h88.326c4.6752.0093 9.1827-1.7628 12.6-4.953 3.879-3.63 8.121-9.678 9.879-19.449 3.6-19.998 1.017-28.872 11.253-31.317" fill="#00000000" stroke-dasharray="216.98009947215314,30.723152131771286" stroke-dashoffset="247.703252" stroke-width="1.2"/><path d="M9080.374 98.916s103.599 6.399 111.201-39.999c0 0 11.598-33.6-78-33.6s-80.001 55.599-40.002 62.4c39.999 6.801 6.801 11.199 6.801 11.199z" fill="none" stroke-dasharray="337.99673668566413,47.858421977397086" stroke-dashoffset="385.855159" stroke-miterlimit="10" stroke-width="1.2"/></g><g stroke="#c70808e3" stroke-width="4"><path d="M9297.398 15.75H9453.8s24.801 3.201 24.801 20.001 3.201 67.2 3.201 67.2-1.602 17.598-25.2 17.598S9287 117.351 9287 117.351s-22.398-.402-25.998-16.8V43.35s-5.604-27.6 36.396-27.6z" fill="#00000000" stroke-dasharray="537.5109834233468,67.42002568050967" stroke-dashoffset="604.931009" stroke-width="1.2"/><path d="M9287 117.351l10.8 38.799s5.601 20.001 40.002 20.001h88.326c4.6752.0093 9.1827-1.7628 12.6-4.953 3.879-3.63 8.121-9.678 9.879-19.449 3.6-19.998 1.017-28.872 11.253-31.317" fill="#00000000" stroke-dasharray="220.09653392380102,27.606717680123413" stroke-dashoffset="247.703252" stroke-width="1.2"/><path d="M9330.374 98.916s103.599 6.399 111.201-39.999c0 0 11.598-33.6-78-33.6s-80.001 55.599-40.002 62.4c39.999 6.801 6.801 11.199 6.801 11.199z" fill="none" stroke-dasharray="342.85130481110156,43.003853851959654" stroke-dashoffset="385.855159" stroke-miterlimit="10" stroke-width="1.2"/></g><g stroke="#ca0808e6" stroke-width="4"><path d="M9547.398 15.75H9703.8s24.801 3.201 24.801 20.001 3.201 67.2 3.201 67.2-1.602 17.598-25.2 17.598S9537 117.351 9537 117.351s-22.398-.402-25.998-16.8V43.35s-5.604-27.6 36.396-27.6z" fill="#00000000" stroke-dasharray="544.5396333770948,60.391375726761666" stroke-dashoffset="604.931009" stroke-width="1.2"/><path d="M9537 117.351l10.8 38.799s5.601 20.001 40.002 20.001h88.326c4.6752.0093 9.1827-1.7628 12.6-4.953 3.879-3.63 8.121-9.678 9.879-19.449 3.6-19.998 1.017-28.872 11.253-31.317" fill="#00000000" stroke-dasharray="222.9745802162341,24.72867138769034" stroke-dashoffset="247.703252" stroke-width="1.2"/><path d="M9580.374 98.916s103.599 6.399 111.201-39.999c0 0 11.598-33.6-78-33.6s-80.001 55.599-40.002 62.4c39.999 6.801 6.801 11.199 6.801 11.199z" fill="none" stroke-dasharray="347.334528190753,38.520630472308206" stroke-dashoffset="385.855159" stroke-miterlimit="10" stroke-width="1.2"/></g><g stroke="#cc0808e8" stroke-width="4"><path d="M9797.398 15.75H9953.8s24.801 3.201 24.801 20.001 3.201 67.2 3.201 67.2-1.602 17.598-25.2 17.598S9787 117.351 9787 117.351s-22.398-.402-25.998-16.8V43.35s-5.604-27.6 36.396-27.6z" fill="#00000000" stroke-dasharray="551.0259201299737,53.90508897388285" stroke-dashoffset="604.931009" stroke-width="1.2"/><path d="M9787 117.351l10.8 38.799s5.601 20.001 40.002 20.001h88.326c4.6752.0093 9.1827-1.7628 12.6-4.953 3.879-3.63 8.121-9.678 9.879-19.449 3.6-19.998 1.017-28.872 11.253-31.317" fill="#00000000" stroke-dasharray="225.63054312000995,22.072708483914475" stroke-dashoffset="247.703252" stroke-width="1.2"/><path d="M9830.374 98.916s103.599 6.399 111.201-39.999c0 0 11.598-33.6-78-33.6s-80.001 55.599-40.002 62.4c39.999 6.801 6.801 11.199 6.801 11.199z" fill="none" stroke-dasharray="351.4718052793813,34.38335338367993" stroke-dashoffset="385.855159" stroke-miterlimit="10" stroke-width="1.2"/></g><g stroke="#ce0808eb" stroke-width="4"><path d="M10047.398 15.75h156.402s24.801 3.201 24.801 20.001 3.201 67.2 3.201 67.2-1.602 17.598-25.2 17.598-169.602-3.198-169.602-3.198-22.398-.402-25.998-16.8V43.35s-5.604-27.6 36.396-27.6z" fill="#00000000" stroke-dasharray="557.0058238283116,47.925185275544855" stroke-dashoffset="604.931009" stroke-width="1.2"/><path d="M10037 117.351l10.8 38.799s5.601 20.001 40.002 20.001h88.326c4.6752.0093 9.1827-1.7628 12.6-4.953 3.879-3.63 8.121-9.678 9.879-19.449 3.6-19.998 1.017-28.872 11.253-31.317" fill="#00000000" stroke-dasharray="228.07915555360128,19.624096050323143" stroke-dashoffset="247.703252" stroke-width="1.2"/><path d="M10080.374 98.916s103.599 6.399 111.201-39.999c0 0 11.598-33.6-78-33.6s-80.001 55.599-40.002 62.4c39.999 6.801 6.801 11.199 6.801 11.199z" fill="none" stroke-dasharray="355.2860860082369,30.569072654824296" stroke-dashoffset="385.855159" stroke-miterlimit="10" stroke-width="1.2"/></g><g stroke="#d00808ed" stroke-width="4"><path d="M10297.398 15.75h156.402s24.801 3.201 24.801 20.001 3.201 67.2 3.201 67.2-1.602 17.598-25.2 17.598-169.602-3.198-169.602-3.198-22.398-.402-25.998-16.8V43.35s-5.604-27.6 36.396-27.6z" fill="#00000000" stroke-dasharray="562.511924548849,42.41908455500744" stroke-dashoffset="604.931009" stroke-width="1.2"/><path d="M10287 117.351l10.8 38.799s5.601 20.001 40.002 20.001h88.326c4.6752.0093 9.1827-1.7628 12.6-4.953 3.879-3.63 8.121-9.678 9.879-19.449 3.6-19.998 1.017-28.872 11.253-31.317" fill="#00000000" stroke-dasharray="230.3337581968949,17.369493407029527" stroke-dashoffset="247.703252" stroke-width="1.2"/><path d="M10330.374 98.916s103.599 6.399 111.201-39.999c0 0 11.598-33.6-78-33.6s-80.001 55.599-40.002 62.4c39.999 6.801 6.801 11.199 6.801 11.199z" fill="none" stroke-dasharray="358.7981515746642,27.057007088397018" stroke-dashoffset="385.855159" stroke-miterlimit="10" stroke-width="1.2"/></g><g stroke="#d20808ef" stroke-width="4"><path d="M10547.398 15.75h156.402s24.801 3.201 24.801 20.001 3.201 67.2 3.201 67.2-1.602 17.598-25.2 17.598-169.602-3.198-169.602-3.198-22.398-.402-25.998-16.8V43.35s-5.604-27.6 36.396-27.6z" fill="#00000000" stroke-dasharray="567.573789320329,37.35721978352748" stroke-dashoffset="604.931009" stroke-width="1.2"/><path d="M10537 117.351l10.8 38.799s5.601 20.001 40.002 20.001h88.326c4.6752.0093 9.1827-1.7628 12.6-4.953 3.879-3.63 8.121-9.678 9.879-19.449 3.6-19.998 1.017-28.872 11.253-31.317" fill="#00000000" stroke-dasharray="232.40645796629897,15.296793637625445" stroke-dashoffset="247.703252" stroke-width="1.2"/><path d="M10580.374 98.916s103.599 6.399 111.201-39.999c0 0 11.598-33.6-78-33.6s-80.001 55.599-40.002 62.4c39.999 6.801 6.801 11.199 6.801 11.199z" fill="none" stroke-dasharray="362.02686130376827,23.828297359292957" stroke-dashoffset="385.855159" stroke-miterlimit="10" stroke-width="1.2"/></g><g stroke="#d40909f1" stroke-width="4"><path d="M10797.398 15.75h156.402s24.801 3.201 24.801 20.001 3.201 67.2 3.201 67.2-1.602 17.598-25.2 17.598-169.602-3.198-169.602-3.198-22.398-.402-25.998-16.8V43.35s-5.604-27.6 36.396-27.6z" fill="#00000000" stroke-dasharray="572.2183121117789,32.71269699207755" stroke-dashoffset="604.931009" stroke-width="1.2"/><path d="M10787 117.351l10.8 38.799s5.601 20.001 40.002 20.001h88.326c4.6752.0093 9.1827-1.7628 12.6-4.953 3.879-3.63 8.121-9.678 9.879-19.449 3.6-19.998 1.017-28.872 11.253-31.317" fill="#00000000" stroke-dasharray="234.30826723095376,13.394984372970654" stroke-dashoffset="247.703252" stroke-width="1.2"/><path d="M10830.374 98.916s103.599 6.399 111.201-39.999c0 0 11.598-33.6-78-33.6s-80.001 55.599-40.002 62.4c39.999 6.801 6.801 11.199 6.801 11.199z" fill="none" stroke-dasharray="364.98936950989236,20.865789153168837" stroke-dashoffset="385.855159" stroke-miterlimit="10" stroke-width="1.2"/></g><g stroke="#d50909f3" stroke-width="4"><path d="M11047.398 15.75h156.402s24.801 3.201 24.801 20.001 3.201 67.2 3.201 67.2-1.602 17.598-25.2 17.598-169.602-3.198-169.602-3.198-22.398-.402-25.998-16.8V43.35s-5.604-27.6 36.396-27.6z" fill="#00000000" stroke-dasharray="576.4700118039963,28.46099729986021" stroke-dashoffset="604.931009" stroke-width="1.2"/><path d="M11037 117.351l10.8 38.799s5.601 20.001 40.002 20.001h88.326c4.6752.0093 9.1827-1.7628 12.6-4.953 3.879-3.63 8.121-9.678 9.879-19.449 3.6-19.998 1.017-28.872 11.253-31.317" fill="#00000000" stroke-dasharray="236.0492258241755,11.654025779748945" stroke-dashoffset="247.703252" stroke-width="1.2"/><path d="M11080.374 98.916s103.599 6.399 111.201-39.999c0 0 11.598-33.6-78-33.6s-80.001 55.599-40.002 62.4c39.999 6.801 6.801 11.199 6.801 11.199z" fill="none" stroke-dasharray="367.70131555768796,18.153843105373234" stroke-dashoffset="385.855159" stroke-miterlimit="10" stroke-width="1.2"/></g><g stroke="#d70909f5" stroke-width="4"><path d="M11297.398 15.75h156.402s24.801 3.201 24.801 20.001 3.201 67.2 3.201 67.2-1.602 17.598-25.2 17.598-169.602-3.198-169.602-3.198-22.398-.402-25.998-16.8V43.35s-5.604-27.6 36.396-27.6z" fill="#00000000" stroke-dasharray="580.3512930874336,24.57971601642281" stroke-dashoffset="604.931009" stroke-width="1.2"/><path d="M11287 117.351l10.8 38.799s5.601 20.001 40.002 20.001h88.326c4.6752.0093 9.1827-1.7628 12.6-4.953 3.879-3.63 8.121-9.678 9.879-19.449 3.6-19.998 1.017-28.872 11.253-31.317" fill="#00000000" stroke-dasharray="237.63850787424118,10.064743729683233" stroke-dashoffset="247.703252" stroke-width="1.2"/><path d="M11330.374 98.916s103.599 6.399 111.201-39.999c0 0 11.598-33.6-78-33.6s-80.001 55.599-40.002 62.4c39.999 6.801 6.801 11.199 6.801 11.199z" fill="none" stroke-dasharray="370.17699027579386,15.678168387267334" stroke-dashoffset="385.855159" stroke-miterlimit="10" stroke-width="1.2"/></g><g stroke="#d80909f6" stroke-width="4"><path d="M11547.398 15.75h156.402s24.801 3.201 24.801 20.001 3.201 67.2 3.201 67.2-1.602 17.598-25.2 17.598-169.602-3.198-169.602-3.198-22.398-.402-25.998-16.8V43.35s-5.604-27.6 36.396-27.6z" fill="#00000000" stroke-dasharray="583.8826749029067,21.048334200949757" stroke-dashoffset="604.931009" stroke-width="1.2"/><path d="M11537 117.351l10.8 38.799s5.601 20.001 40.002 20.001h88.326c4.6752.0093 9.1827-1.7628 12.6-4.953 3.879-3.63 8.121-9.678 9.879-19.449 3.6-19.998 1.017-28.872 11.253-31.317" fill="#00000000" stroke-dasharray="239.08451534481785,8.618736259106589" stroke-dashoffset="247.703252" stroke-width="1.2"/><path d="M11580.374 98.916s103.599 6.399 111.201-39.999c0 0 11.598-33.6-78-33.6s-80.001 55.599-40.002 62.4c39.999 6.801 6.801 11.199 6.801 11.199z" fill="none" stroke-dasharray="372.4294816677094,13.425676995351816" stroke-dashoffset="385.855159" stroke-miterlimit="10" stroke-width="1.2"/></g><g stroke="#d90909f7" stroke-width="4"><path d="M11797.398 15.75h156.402s24.801 3.201 24.801 20.001 3.201 67.2 3.201 67.2-1.602 17.598-25.2 17.598-169.602-3.198-169.602-3.198-22.398-.402-25.998-16.8V43.35s-5.604-27.6 36.396-27.6z" fill="#00000000" stroke-dasharray="587.0829906035573,17.848018500299194" stroke-dashoffset="604.931009" stroke-width="1.2"/><path d="M11787 117.351l10.8 38.799s5.601 20.001 40.002 20.001h88.326c4.6752.0093 9.1827-1.7628 12.6-4.953 3.879-3.63 8.121-9.678 9.879-19.449 3.6-19.998 1.017-28.872 11.253-31.317" fill="#00000000" stroke-dasharray="240.39495999599316,7.308291607931269" stroke-dashoffset="247.703252" stroke-width="1.2"/><path d="M11830.374 98.916s103.599 6.399 111.201-39.999c0 0 11.598-33.6-78-33.6s-80.001 55.599-40.002 62.4c39.999 6.801 6.801 11.199 6.801 11.199z" fill="none" stroke-dasharray="374.4708025850744,11.384356077986833" stroke-dashoffset="385.855159" stroke-miterlimit="10" stroke-width="1.2"/></g><g stroke="#da0909f9" stroke-width="4"><path d="M12047.398 15.75h156.402s24.801 3.201 24.801 20.001 3.201 67.2 3.201 67.2-1.602 17.598-25.2 17.598-169.602-3.198-169.602-3.198-22.398-.402-25.998-16.8V43.35s-5.604-27.6 36.396-27.6z" fill="#00000000" stroke-dasharray="589.9695635472979,14.961445556558576" stroke-dashoffset="604.931009" stroke-width="1.2"/><path d="M12037 117.351l10.8 38.799s5.601 20.001 40.002 20.001h88.326c4.6752.0093 9.1827-1.7628 12.6-4.953 3.879-3.63 8.121-9.678 9.879-19.449 3.6-19.998 1.017-28.872 11.253-31.317" fill="#00000000" stroke-dasharray="241.57693528473837,6.126316319186059" stroke-dashoffset="247.703252" stroke-width="1.2"/><path d="M12080.374 98.916s103.599 6.399 111.201-39.999c0 0 11.598-33.6-78-33.6s-80.001 55.599-40.002 62.4c39.999 6.801 6.801 11.199 6.801 11.199z" fill="none" stroke-dasharray="376.31200272928504,9.543155933776148" stroke-dashoffset="385.855159" stroke-miterlimit="10" stroke-width="1.2"/></g><g stroke="#db0909fa" stroke-width="4"><path d="M12297.398 15.75h156.402s24.801 3.201 24.801 20.001 3.201 67.2 3.201 67.2-1.602 17.598-25.2 17.598-169.602-3.198-169.602-3.198-22.398-.402-25.998-16.8V43.35s-5.604-27.6 36.396-27.6z" fill="#00000000" stroke-dasharray="592.5583613717632,12.372647732093197" stroke-dashoffset="604.931009" stroke-width="1.2"/><path d="M12287 117.351l10.8 38.799s5.601 20.001 40.002 20.001h88.326c4.6752.0093 9.1827-1.7628 12.6-4.953 3.879-3.63 8.121-9.678 9.879-19.449 3.6-19.998 1.017-28.872 11.253-31.317" fill="#00000000" stroke-dasharray="242.6369795364212,5.066272067503223" stroke-dashoffset="247.703252" stroke-width="1.2"/><path d="M12330.374 98.916s103.599 6.399 111.201-39.999c0 0 11.598-33.6-78-33.6s-80.001 55.599-40.002 62.4c39.999 6.801 6.801 11.199 6.801 11.199z" fill="none" stroke-dasharray="377.96326705575007,7.891891607311142" stroke-dashoffset="385.855159" stroke-miterlimit="10" stroke-width="1.2"/></g><g stroke="#dc0909fb" stroke-width="4"><path d="M12547.398 15.75h156.402s24.801 3.201 24.801 20.001 3.201 67.2 3.201 67.2-1.602 17.598-25.2 17.598-169.602-3.198-169.602-3.198-22.398-.402-25.998-16.8V43.35s-5.604-27.6 36.396-27.6z" fill="#00000000" stroke-dasharray="594.8641317801431,10.066877323713378" stroke-dashoffset="604.931009" stroke-width="1.2"/><path d="M12537 117.351l10.8 38.799s5.601 20.001 40.002 20.001h88.326c4.6752.0093 9.1827-1.7628 12.6-4.953 3.879-3.63 8.121-9.678 9.879-19.449 3.6-19.998 1.017-28.872 11.253-31.317" fill="#00000000" stroke-dasharray="243.58113154551376,4.1221200584106725" stroke-dashoffset="247.703252" stroke-width="1.2"/><path d="M12580.374 98.916s103.599 6.399 111.201-39.999c0 0 11.598-33.6-78-33.6s-80.001 55.599-40.002 62.4c39.999 6.801 6.801 11.199 6.801 11.199z" fill="none" stroke-dasharray="379.4340023848647,6.421156278196543" stroke-dashoffset="385.855159" stroke-miterlimit="10" stroke-width="1.2"/></g><g stroke="#dd0909fc" stroke-width="4"><path d="M12797.398 15.75h156.402s24.801 3.201 24.801 20.001 3.201 67.2 3.201 67.2-1.602 17.598-25.2 17.598-169.602-3.198-169.602-3.198-22.398-.402-25.998-16.8V43.35s-5.604-27.6 36.396-27.6z" fill="#00000000" stroke-dasharray="596.9005222852908,8.030486818565652" stroke-dashoffset="604.931009" stroke-width="1.2"/><path d="M12787 117.351l10.8 38.799s5.601 20.001 40.002 20.001h88.326c4.6752.0093 9.1827-1.7628 12.6-4.953 3.879-3.63 8.121-9.678 9.879-19.449 3.6-19.998 1.017-28.872 11.253-31.317" fill="#00000000" stroke-dasharray="244.41497960763854,3.288271996285874" stroke-dashoffset="247.703252" stroke-width="1.2"/><path d="M12830.374 98.916s103.599 6.399 111.201-39.999c0 0 11.598-33.6-78-33.6s-80.001 55.599-40.002 62.4c39.999 6.801 6.801 11.199 6.801 11.199z" fill="none" stroke-dasharray="380.7329137807737,5.122244882287549" stroke-dashoffset="385.855159" stroke-miterlimit="10" stroke-width="1.2"/></g><g stroke="#de0909fc" stroke-width="4"><path d="M13047.398 15.75h156.402s24.801 3.201 24.801 20.001 3.201 67.2 3.201 67.2-1.602 17.598-25.2 17.598-169.602-3.198-169.602-3.198-22.398-.402-25.998-16.8V43.35s-5.604-27.6 36.396-27.6z" fill="#00000000" stroke-dasharray="598.680186023289,6.250823080567418" stroke-dashoffset="604.931009" stroke-width="1.2"/><path d="M13037 117.351l10.8 38.799s5.601 20.001 40.002 20.001h88.326c4.6752.0093 9.1827-1.7628 12.6-4.953 3.879-3.63 8.121-9.678 9.879-19.449 3.6-19.998 1.017-28.872 11.253-31.317" fill="#00000000" stroke-dasharray="245.14370484742548,2.559546756498944" stroke-dashoffset="247.703252" stroke-width="1.2"/><path d="M13080.374 98.916s103.599 6.399 111.201-39.999c0 0 11.598-33.6-78-33.6s-80.001 55.599-40.002 62.4c39.999 6.801 6.801 11.199 6.801 11.199z" fill="none" stroke-dasharray="381.8680720445391,3.9870866185221154" stroke-dashoffset="385.855159" stroke-miterlimit="10" stroke-width="1.2"/></g><g stroke="#de0909fd" stroke-width="4"><path d="M13297.398 15.75h156.402s24.801 3.201 24.801 20.001 3.201 67.2 3.201 67.2-1.602 17.598-25.2 17.598-169.602-3.198-169.602-3.198-22.398-.402-25.998-16.8V43.35s-5.604-27.6 36.396-27.6z" fill="#00000000" stroke-dasharray="600.2148754545625,4.716133649293919" stroke-dashoffset="604.931009" stroke-width="1.2"/><path d="M13287 117.351l10.8 38.799s5.601 20.001 40.002 20.001h88.326c4.6752.0093 9.1827-1.7628 12.6-4.953 3.879-3.63 8.121-9.678 9.879-19.449 3.6-19.998 1.017-28.872 11.253-31.317" fill="#00000000" stroke-dasharray="245.77211958663975,1.9311320172846778" stroke-dashoffset="247.703252" stroke-width="1.2"/><path d="M13330.374 98.916s103.599 6.399 111.201-39.999c0 0 11.598-33.6-78-33.6s-80.001 55.599-40.002 62.4c39.999 6.801 6.801 11.199 6.801 11.199z" fill="none" stroke-dasharray="382.84697348138195,3.0081851816792677" stroke-dashoffset="385.855159" stroke-miterlimit="10" stroke-width="1.2"/></g><g stroke="#df0909fe" stroke-width="4"><path d="M13547.398 15.75h156.402s24.801 3.201 24.801 20.001 3.201 67.2 3.201 67.2-1.602 17.598-25.2 17.598-169.602-3.198-169.602-3.198-22.398-.402-25.998-16.8V43.35s-5.604-27.6 36.396-27.6z" fill="#00000000" stroke-dasharray="601.5155255171827,3.415483586673751" stroke-dashoffset="604.931009" stroke-width="1.2"/><path d="M13537 117.351l10.8 38.799s5.601 20.001 40.002 20.001h88.326c4.6752.0093 9.1827-1.7628 12.6-4.953 3.879-3.63 8.121-9.678 9.879-19.449 3.6-19.998 1.017-28.872 11.253-31.317" fill="#00000000" stroke-dasharray="246.30470139326118,1.398550210663236" stroke-dashoffset="247.703252" stroke-width="1.2"/><path d="M13580.374 98.916s103.599 6.399 111.201-39.999c0 0 11.598-33.6-78-33.6s-80.001 55.599-40.002 62.4c39.999 6.801 6.801 11.199 6.801 11.199z" fill="none" stroke-dasharray="383.67659294000566,2.178565723055575" stroke-dashoffset="385.855159" stroke-miterlimit="10" stroke-width="1.2"/></g><g stroke="#df0909fe" stroke-width="4"><path d="M13797.398 15.75h156.402s24.801 3.201 24.801 20.001 3.201 67.2 3.201 67.2-1.602 17.598-25.2 17.598-169.602-3.198-169.602-3.198-22.398-.402-25.998-16.8V43.35s-5.604-27.6 36.396-27.6z" fill="#00000000" stroke-dasharray="602.5923275789927,2.3386815248637305" stroke-dashoffset="604.931009" stroke-width="1.2"/><path d="M13787 117.351l10.8 38.799s5.601 20.001 40.002 20.001h88.326c4.6752.0093 9.1827-1.7628 12.6-4.953 3.879-3.63 8.121-9.678 9.879-19.449 3.6-19.998 1.017-28.872 11.253-31.317" fill="#00000000" stroke-dasharray="246.74562336292394,0.957628241000478" stroke-dashoffset="247.703252" stroke-width="1.2"/><path d="M13830.374 98.916s103.599 6.399 111.201-39.999c0 0 11.598-33.6-78-33.6s-80.001 55.599-40.002 62.4c39.999 6.801 6.801 11.199 6.801 11.199z" fill="none" stroke-dasharray="384.3634309829486,1.4917276801125914" stroke-dashoffset="385.855159" stroke-miterlimit="10" stroke-width="1.2"/></g><g stroke="#df0909fe" stroke-width="4"><path d="M14047.398 15.75h156.402s24.801 3.201 24.801 20.001 3.201 67.2 3.201 67.2-1.602 17.598-25.2 17.598-169.602-3.198-169.602-3.198-22.398-.402-25.998-16.8V43.35s-5.604-27.6 36.396-27.6z" fill="#00000000" stroke-dasharray="603.4547953482589,1.4762137555974981" stroke-dashoffset="604.931009" stroke-width="1.2"/><path d="M14037 117.351l10.8 38.799s5.601 20.001 40.002 20.001h88.326c4.6752.0093 9.1827-1.7628 12.6-4.953 3.879-3.63 8.121-9.678 9.879-19.449 3.6-19.998 1.017-28.872 11.253-31.317" fill="#00000000" stroke-dasharray="247.0987811075853,0.604470496339134" stroke-dashoffset="247.703252" stroke-width="1.2"/><path d="M14080.374 98.916s103.599 6.399 111.201-39.999c0 0 11.598-33.6-78-33.6s-80.001 55.599-40.002 62.4c39.999 6.801 6.801 11.199 6.801 11.199z" fill="none" stroke-dasharray="384.91355592768406,0.9416027353771752" stroke-dashoffset="385.855159" stroke-miterlimit="10" stroke-width="1.2"/></g><g stroke="#e00909" stroke-width="4"><path d="M14297.398 15.75h156.402s24.801 3.201 24.801 20.001 3.201 67.2 3.201 67.2-1.602 17.598-25.2 17.598-169.602-3.198-169.602-3.198-22.398-.402-25.998-16.8V43.35s-5.604-27.6 36.396-27.6z" fill="#00000000" stroke-dasharray="604.1118237425968,0.8191853612596525" stroke-dashoffset="604.931009" stroke-width="1.2"/><path d="M14287 117.351l10.8 38.799s5.601 20.001 40.002 20.001h88.326c4.6752.0093 9.1827-1.7628 12.6-4.953 3.879-3.63 8.121-9.678 9.879-19.449 3.6-19.998 1.017-28.872 11.253-31.317" fill="#00000000" stroke-dasharray="247.36781686079405,0.3354347431303763" stroke-dashoffset="247.703252" stroke-width="1.2"/><path d="M14330.374 98.916s103.599 6.399 111.201-39.999c0 0 11.598-33.6-78-33.6s-80.001 55.599-40.002 62.4c39.999 6.801 6.801 11.199 6.801 11.199z" fill="none" stroke-dasharray="385.3326413961558,0.5225172669054456" stroke-dashoffset="385.855159" stroke-miterlimit="10" stroke-width="1.2"/></g><g stroke="#e00909" stroke-width="4"><path d="M14547.398 15.75h156.402s24.801 3.201 24.801 20.001 3.201 67.2 3.201 67.2-1.602 17.598-25.2 17.598-169.602-3.198-169.602-3.198-22.398-.402-25.998-16.8V43.35s-5.604-27.6 36.396-27.6z" fill="#00000000" stroke-dasharray="604.5717415791586,0.3592675246979365" stroke-dashoffset="604.931009" stroke-width="1.2"/><path d="M14537 117.351l10.8 38.799s5.601 20.001 40.002 20.001h88.326c4.6752.0093 9.1827-1.7628 12.6-4.953 3.879-3.63 8.121-9.678 9.879-19.449 3.6-19.998 1.017-28.872 11.253-31.317" fill="#00000000" stroke-dasharray="247.5561410529292,0.14711055099523543" stroke-dashoffset="247.703252" stroke-width="1.2"/><path d="M14580.374 98.916s103.599 6.399 111.201-39.999c0 0 11.598-33.6-78-33.6s-80.001 55.599-40.002 62.4c39.999 6.801 6.801 11.199 6.801 11.199z" fill="none" stroke-dasharray="385.6259999232073,0.22915873985393256" stroke-dashoffset="385.855159" stroke-miterlimit="10" stroke-width="1.2"/></g><g stroke="#e00909" stroke-width="4"><path d="M14797.398 15.75h156.402s24.801 3.201 24.801 20.001 3.201 67.2 3.201 67.2-1.602 17.598-25.2 17.598-169.602-3.198-169.602-3.198-22.398-.402-25.998-16.8V43.35s-5.604-27.6 36.396-27.6z" fill="#00000000" stroke-dasharray="604.8423588321605,0.08865027169599335" stroke-dashoffset="604.931009" stroke-width="1.2"/><path d="M14787 117.351l10.8 38.799s5.601 20.001 40.002 20.001h88.326c4.6752.0093 9.1827-1.7628 12.6-4.953 3.879-3.63 8.121-9.678 9.879-19.449 3.6-19.998 1.017-28.872 11.253-31.317" fill="#00000000" stroke-dasharray="247.66695166190758,0.03629994201685719" stroke-dashoffset="247.703252" stroke-width="1.2"/><path d="M14830.374 98.916s103.599 6.399 111.201-39.999c0 0 11.598-33.6-78-33.6s-80.001 55.599-40.002 62.4c39.999 6.801 6.801 11.199 6.801 11.199z" fill="none" stroke-dasharray="385.7986130997887,0.05654556327250266" stroke-dashoffset="385.855159" stroke-miterlimit="10" stroke-width="1.2"/></g><g stroke="#e00909" stroke-width="4"><path d="M15047.398 15.75h156.402s24.801 3.201 24.801 20.001 3.201 67.2 3.201 67.2-1.602 17.598-25.2 17.598-169.602-3.198-169.602-3.198-22.398-.402-25.998-16.8V43.35s-5.604-27.6 36.396-27.6z" fill="#00000000" stroke-width="1.2"/><path d="M15037 117.351l10.8 38.799s5.601 20.001 40.002 20.001h88.326c4.6752.0093 9.1827-1.7628 12.6-4.953 3.879-3.63 8.121-9.678 9.879-19.449 3.6-19.998 1.017-28.872 11.253-31.317" fill="#00000000" stroke-width="1.2"/><path d="M15080.374 98.916s103.599 6.399 111.201-39.999c0 0 11.598-33.6-78-33.6s-80.001 55.599-40.002 62.4c39.999 6.801 6.801 11.199 6.801 11.199z" fill="none" stroke-miterlimit="10" stroke-width="1.2"/></g></svg>