<svg xmlns="http://www.w3.org/2000/svg" viewBox="0 0 15250 250" width="15250" height="250"><g stroke="#00000000" stroke-width="4"><path d="M56.635 207.125s42.414-13.725 54.639-84.582c12.225-70.857 47.157-88.824 56.139-77.343 8.982 11.481 19.2 42.165-3.741 100.551s-74.1 79.839-85.83 82.584c-10.365 2.427-39.444 3.681-41.232-6.915-.1818-1.2015.0057-2.4306.5376-3.5232.5319-1.0929 1.3836-1.9986 2.4414-2.5968 5.4702-3.1464 11.1681-5.8791 17.046-8.175z" fill="none" stroke-dasharray="0,510.79210333504534" stroke-dashoffset="510.792103" stroke-miterlimit="10" stroke-width="1.2"/><path d="M91.066 85.367s15.468-23.454 32.436-33.681c16.968-10.227 32.934-14.721 26.946-25.2-5.988-10.479-44.661-6.372-71.358 10.479-25.8 16.284-62.127 55.887-66.867 101.046-4.74 45.159.999 99.303 31.437 58.389 30.438-40.914 32.745-42.42 37.581-87.33 0 0 2.79-14.157 9.825-23.703z" fill="none" stroke-dasharray="0,514.3214950595172" stroke-dashoffset="514.321495" stroke-miterlimit="10" stroke-width="1.2"/><path d="M170.2 127.067c40.632 19.767 47.88 48.537 47.88 48.537 1.9002 6.0165 4.2468 11.8827 7.02 17.55.5274 1.0947 1.3749 2.004 2.4303 2.6064 1.0551.6027 2.2689.8709 3.4797.7686 10.692-1.08 11.361-30.18 9.627-40.683-1.8-10.863-17.019-55.623-62.961-83.676M117.517 206c9.063 4.347 18.675 7.629 28.665 9.351 44.748 7.716 99.15 5.571 60.336-27.507-23.118-19.713-32.952-28.53-46.518-34.086" fill="#00000000" stroke-dasharray="0,247.96848670987168" stroke-dashoffset="247.968487" stroke-width="1.2"/></g><g stroke="#00000000" stroke-width="4"><path d="M306.635 207.125s42.414-13.725 54.639-84.582c12.225-70.857 47.157-88.824 56.139-77.343 8.982 11.481 19.2 42.165-3.741 100.551s-74.1 79.839-85.83 82.584c-10.365 2.427-39.444 3.681-41.232-6.915-.1818-1.2015.0057-2.4306.5376-3.5232.5319-1.0929 1.3836-1.9986 2.4414-2.5968 5.4702-3.1464 11.1681-5.8791 17.046-8.175z" fill="none" stroke-dasharray="0.3055052690717985,510.48659806597357" stroke-dashoffset="510.792103" stroke-miterlimit="10" stroke-width="1.2"/><path d="M341.066 85.367s15.468-23.454 32.436-33.681c16.968-10.227 32.934-14.721 26.946-25.2-5.988-10.479-44.661-6.372-71.358 10.479-25.8 16.284-62.127 55.887-66.867 101.046-4.74 45.159.999 99.303 31.437 58.389 30.438-40.914 32.745-42.42 37.581-87.33 0 0 2.79-14.157 9.825-23.703z" fill="none" stroke-dasharray="0.3076162018004067,514.0138788577168" stroke-dashoffset="514.321495" stroke-miterlimit="10" stroke-width="1.2"/><path d="M420.2 127.067c40.632 19.767 47.88 48.537 47.88 48.537 1.9002 6.0165 4.2468 11.8827 7.02 17.55.5274 1.0947 1.3749 2.004 2.4303 2.6064 1.0551.6027 2.2689.8709 3.4797.7686 10.692-1.08 11.361-30.18 9.627-40.683-1.8-10.863-17.019-55.623-62.961-83.676M367.517 206c9.063 4.347 18.675 7.629 28.665 9.351 44.748 7.716 99.15 5.571 60.336-27.507-23.118-19.713-32.952-28.53-46.518-34.086" fill="#00000000" stroke-dasharray="0.14831020048862306,247.82017650938306" stroke-dashoffset="247.968487" stroke-width="1.2"/></g><g stroke="#01000001" stroke-width="4"><path d="M556.635 207.125s42.414-13.725 54.639-84.582c12.225-70.857 47.157-88.824 56.139-77.343 8.982 11.481 19.2 42.165-3.741 100.551s-74.1 79.839-85.83 82.584c-10.365 2.427-39.444 3.681-41.232-6.915-.1818-1.2015.0057-2.4306.5376-3.5232.5319-1.0929 1.3836-1.9986 2.4414-2.5968 5.4702-3.1464 11.1681-5.8791 17.046-8.175z" fill="none" stroke-dasharray="1.2644496976118567,509.5276536374335" stroke-dashoffset="510.792103" stroke-miterlimit="10" stroke-width="1.2"/><path d="M591.066 85.367s15.468-23.454 32.436-33.681c16.968-10.227 32.934-14.721 26.946-25.2-5.988-10.479-44.661-6.372-71.358 10.479-25.8 16.284-62.127 55.887-66.867 101.046-4.74 45.159.999 99.303 31.437 58.389 30.438-40.914 32.745-42.42 37.581-87.33 0 0 2.79-14.157 9.825-23.703z" fill="none" stroke-dasharray="1.2731865952060526,513.0483084643112" stroke-dashoffset="514.321495" stroke-miterlimit="10" stroke-width="1.2"/><path d="M670.2 127.067c40.632 19.767 47.88 48.537 47.88 48.537 1.9002 6.0165 4.2468 11.8827 7.02 17.55.5274 1.0947 1.3749 2.004 2.4303 2.6064 1.0551.6027 2.2689.8709 3.4797.7686 10.692-1.08 11.361-30.18 9.627-40.683-1.8-10.863-17.019-55.623-62.961-83.676M617.517 206c9.063 4.347 18.675 7.629 28.665 9.351 44.748 7.716 99.15 5.571 60.336-27.507-23.118-19.713-32.952-28.53-46.518-34.086" fill="#00000000" stroke-dasharray="0.6138381466557311,247.35464856321596" stroke-dashoffset="247.968487" stroke-width="1.2"/></g><g stroke="#01000001" stroke-width="4"><path d="M806.635 207.125s42.414-13.725 54.639-84.582c12.225-70.857 47.157-88.824 56.139-77.343 8.982 11.481 19.2 42.165-3.741 100.551s-74.1 79.839-85.83 82.584c-10.365 2.427-39.444 3.681-41.232-6.915-.1818-1.2015.0057-2.4306.5376-3.5232.5319-1.0929 1.3836-1.9986 2.4414-2.5968 5.4702-3.1464 11.1681-5.8791 17.046-8.175z" fill="none" stroke-dasharray="2.9473788442689965,507.84472449077634" stroke-dashoffset="510.792103" stroke-miterlimit="10" stroke-width="1.2"/><path d="M841.066 85.367s15.468-23.454 32.436-33.681c16.968-10.227 32.934-14.721 26.946-25.2-5.988-10.479-44.661-6.372-71.358 10.479-25.8 16.284-62.127 55.887-66.867 101.046-4.74 45.159.999 99.303 31.437 58.389 30.438-40.914 32.745-42.42 37.581-87.33 0 0 2.79-14.157 9.825-23.703z" fill="none" stroke-dasharray="2.9677441835800926,511.3537508759372" stroke-dashoffset="514.321495" stroke-miterlimit="10" stroke-width="1.2"/><path d="M920.2 127.067c40.632 19.767 47.88 48.537 47.88 48.537 1.9002 6.0165 4.2468 11.8827 7.02 17.55.5274 1.0947 1.3749 2.004 2.4303 2.6064 1.0551.6027 2.2689.8709 3.4797.7686 10.692-1.08 11.361-30.18 9.627-40.683-1.8-10.863-17.019-55.623-62.961-83.676M867.517 206c9.063 4.347 18.675 7.629 28.665 9.351 44.748 7.716 99.15 5.571 60.336-27.507-23.118-19.713-32.952-28.53-46.518-34.086" fill="#00000000" stroke-dasharray="1.4308307959386766,246.537655913933" stroke-dashoffset="247.968487" stroke-width="1.2"/></g><g stroke="#02000003" stroke-width="4"><path d="M1056.635 207.125s42.414-13.725 54.639-84.582c12.225-70.857 47.157-88.824 56.139-77.343 8.982 11.481 19.2 42.165-3.741 100.551s-74.1 79.839-85.83 82.584c-10.365 2.427-39.444 3.681-41.232-6.915-.1818-1.2015.0057-2.4306.5376-3.5232.5319-1.0929 1.3836-1.9986 2.4414-2.5968 5.4702-3.1464 11.1681-5.8791 17.046-8.175z" fill="none" stroke-dasharray="5.435213554529858,505.3568897805155" stroke-dashoffset="510.792103" stroke-miterlimit="10" stroke-width="1.2"/><path d="M1091.066 85.367s15.468-23.454 32.436-33.681c16.968-10.227 32.934-14.721 26.946-25.2-5.988-10.479-44.661-6.372-71.358 10.479-25.8 16.284-62.127 55.887-66.867 101.046-4.74 45.159.999 99.303 31.437 58.389 30.438-40.914 32.745-42.42 37.581-87.33 0 0 2.79-14.157 9.825-23.703z" fill="none" stroke-dasharray="5.472768946664635,508.8487261128526" stroke-dashoffset="514.321495" stroke-miterlimit="10" stroke-width="1.2"/><path d="M1170.2 127.067c40.632 19.767 47.88 48.537 47.88 48.537 1.9002 6.0165 4.2468 11.8827 7.02 17.55.5274 1.0947 1.3749 2.004 2.4303 2.6064 1.0551.6027 2.2689.8709 3.4797.7686 10.692-1.08 11.361-30.18 9.627-40.683-1.8-10.863-17.019-55.623-62.961-83.676M1117.517 206c9.063 4.347 18.675 7.629 28.665 9.351 44.748 7.716 99.15 5.571 60.336-27.507-23.118-19.713-32.952-28.53-46.518-34.086" fill="#00000000" stroke-dasharray="2.638571879365391,245.32991483050628" stroke-dashoffset="247.968487" stroke-width="1.2"/></g><g stroke="#04000004" stroke-width="4"><path d="M1306.635 207.125s42.414-13.725 54.639-84.582c12.225-70.857 47.157-88.824 56.139-77.343 8.982 11.481 19.2 42.165-3.741 100.551s-74.1 79.839-85.83 82.584c-10.365 2.427-39.444 3.681-41.232-6.915-.1818-1.2015.0057-2.4306.5376-3.5232.5319-1.0929 1.3836-1.9986 2.4414-2.5968 5.4702-3.1464 11.1681-5.8791 17.046-8.175z" fill="none" stroke-dasharray="8.820821190602308,501.971282144443" stroke-dashoffset="510.792103" stroke-miterlimit="10" stroke-width="1.2"/><path d="M1341.066 85.367s15.468-23.454 32.436-33.681c16.968-10.227 32.934-14.721 26.946-25.2-5.988-10.479-44.661-6.372-71.358 10.479-25.8 16.284-62.127 55.887-66.867 101.046-4.74 45.159.999 99.303 31.437 58.389 30.438-40.914 32.745-42.42 37.581-87.33 0 0 2.79-14.157 9.825-23.703z" fill="none" stroke-dasharray="8.881769927103697,505.4397251324135" stroke-dashoffset="514.321495" stroke-miterlimit="10" stroke-width="1.2"/><path d="M1420.2 127.067c40.632 19.767 47.88 48.537 47.88 48.537 1.9002 6.0165 4.2468 11.8827 7.02 17.55.5274 1.0947 1.3749 2.004 2.4303 2.6064 1.0551.6027 2.2689.8709 3.4797.7686 10.692-1.08 11.361-30.18 9.627-40.683-1.8-10.863-17.019-55.623-62.961-83.676M1367.517 206c9.063 4.347 18.675 7.629 28.665 9.351 44.748 7.716 99.15 5.571 60.336-27.507-23.118-19.713-32.952-28.53-46.518-34.086" fill="#00000000" stroke-dasharray="4.282144668820987,243.6863420410507" stroke-dashoffset="247.968487" stroke-width="1.2"/></g><g stroke="#06000007" stroke-width="4"><path d="M1556.635 207.125s42.414-13.725 54.639-84.582c12.225-70.857 47.157-88.824 56.139-77.343 8.982 11.481 19.2 42.165-3.741 100.551s-74.1 79.839-85.83 82.584c-10.365 2.427-39.444 3.681-41.232-6.915-.1818-1.2015.0057-2.4306.5376-3.5232.5319-1.0929 1.3836-1.9986 2.4414-2.5968 5.4702-3.1464 11.1681-5.8791 17.046-8.175z" fill="none" stroke-dasharray="13.210623774970442,497.5814795600749" stroke-dashoffset="510.792103" stroke-miterlimit="10" stroke-width="1.2"/><path d="M1591.066 85.367s15.468-23.454 32.436-33.681c16.968-10.227 32.934-14.721 26.946-25.2-5.988-10.479-44.661-6.372-71.358 10.479-25.8 16.284-62.127 55.887-66.867 101.046-4.74 45.159.999 99.303 31.437 58.389 30.438-40.914 32.745-42.42 37.581-87.33 0 0 2.79-14.157 9.825-23.703z" fill="none" stroke-dasharray="13.301904485698088,501.0195905738192" stroke-dashoffset="514.321495" stroke-miterlimit="10" stroke-width="1.2"/><path d="M1670.2 127.067c40.632 19.767 47.88 48.537 47.88 48.537 1.9002 6.0165 4.2468 11.8827 7.02 17.55.5274 1.0947 1.3749 2.004 2.4303 2.6064 1.0551.6027 2.2689.8709 3.4797.7686 10.692-1.08 11.361-30.18 9.627-40.683-1.8-10.863-17.019-55.623-62.961-83.676M1617.517 206c9.063 4.347 18.675 7.629 28.665 9.351 44.748 7.716 99.15 5.571 60.336-27.507-23.118-19.713-32.952-28.53-46.518-34.086" fill="#00000000" stroke-dasharray="6.413212664378556,241.55527404549315" stroke-dashoffset="247.968487" stroke-width="1.2"/></g><g stroke="#08000009" stroke-width="4"><path d="M1806.635 207.125s42.414-13.725 54.639-84.582c12.225-70.857 47.157-88.824 56.139-77.343 8.982 11.481 19.2 42.165-3.741 100.551s-74.1 79.839-85.83 82.584c-10.365 2.427-39.444 3.681-41.232-6.915-.1818-1.2015.0057-2.4306.5376-3.5232.5319-1.0929 1.3836-1.9986 2.4414-2.5968 5.4702-3.1464 11.1681-5.8791 17.046-8.175z" fill="none" stroke-dasharray="18.726029039785402,492.0660742952599" stroke-dashoffset="510.792103" stroke-miterlimit="10" stroke-width="1.2"/><path d="M1841.066 85.367s15.468-23.454 32.436-33.681c16.968-10.227 32.934-14.721 26.946-25.2-5.988-10.479-44.661-6.372-71.358 10.479-25.8 16.284-62.127 55.887-66.867 101.046-4.74 45.159.999 99.303 31.437 58.389 30.438-40.914 32.745-42.42 37.581-87.33 0 0 2.79-14.157 9.825-23.703z" fill="none" stroke-dasharray="18.855419238838437,495.4660758206788" stroke-dashoffset="514.321495" stroke-miterlimit="10" stroke-width="1.2"/><path d="M1920.2 127.067c40.632 19.767 47.88 48.537 47.88 48.537 1.9002 6.0165 4.2468 11.8827 7.02 17.55.5274 1.0947 1.3749 2.004 2.4303 2.6064 1.0551.6027 2.2689.8709 3.4797.7686 10.692-1.08 11.361-30.18 9.627-40.683-1.8-10.863-17.019-55.623-62.961-83.676M1867.517 206c9.063 4.347 18.675 7.629 28.665 9.351 44.748 7.716 99.15 5.571 60.336-27.507-23.118-19.713-32.952-28.53-46.518-34.086" fill="#00000000" stroke-dasharray="9.090714309721614,238.87777240015006" stroke-dashoffset="247.968487" stroke-width="1.2"/></g><g stroke="#0b00000d" stroke-width="4"><path d="M2056.635 207.125s42.414-13.725 54.639-84.582c12.225-70.857 47.157-88.824 56.139-77.343 8.982 11.481 19.2 42.165-3.741 100.551s-74.1 79.839-85.83 82.584c-10.365 2.427-39.444 3.681-41.232-6.915-.1818-1.2015.0057-2.4306.5376-3.5232.5319-1.0929 1.3836-1.9986 2.4414-2.5968 5.4702-3.1464 11.1681-5.8791 17.046-8.175z" fill="none" stroke-dasharray="25.504261906955264,485.28784142809" stroke-dashoffset="510.792103" stroke-miterlimit="10" stroke-width="1.2"/><path d="M2091.066 85.367s15.468-23.454 32.436-33.681c16.968-10.227 32.934-14.721 26.946-25.2-5.988-10.479-44.661-6.372-71.358 10.479-25.8 16.284-62.127 55.887-66.867 101.046-4.74 45.159.999 99.303 31.437 58.389 30.438-40.914 32.745-42.42 37.581-87.33 0 0 2.79-14.157 9.825-23.703z" fill="none" stroke-dasharray="25.6804872838267,488.6410077756905" stroke-dashoffset="514.321495" stroke-miterlimit="10" stroke-width="1.2"/><path d="M2170.2 127.067c40.632 19.767 47.88 48.537 47.88 48.537 1.9002 6.0165 4.2468 11.8827 7.02 17.55.5274 1.0947 1.3749 2.004 2.4303 2.6064 1.0551.6027 2.2689.8709 3.4797.7686 10.692-1.08 11.361-30.18 9.627-40.683-1.8-10.863-17.019-55.623-62.961-83.676M2117.517 206c9.063 4.347 18.675 7.629 28.665 9.351 44.748 7.716 99.15 5.571 60.336-27.507-23.118-19.713-32.952-28.53-46.518-34.086" fill="#00000000" stroke-dasharray="12.381266641414065,235.5872200684576" stroke-dashoffset="247.968487" stroke-width="1.2"/></g><g stroke="#0f010111" stroke-width="4"><path d="M2306.635 207.125s42.414-13.725 54.639-84.582c12.225-70.857 47.157-88.824 56.139-77.343 8.982 11.481 19.2 42.165-3.741 100.551s-74.1 79.839-85.83 82.584c-10.365 2.427-39.444 3.681-41.232-6.915-.1818-1.2015.0057-2.4306.5376-3.5232.5319-1.0929 1.3836-1.9986 2.4414-2.5968 5.4702-3.1464 11.1681-5.8791 17.046-8.175z" fill="none" stroke-dasharray="33.6978193526693,477.09428398237606" stroke-dashoffset="510.792103" stroke-miterlimit="10" stroke-width="1.2"/><path d="M2341.066 85.367s15.468-23.454 32.436-33.681c16.968-10.227 32.934-14.721 26.946-25.2-5.988-10.479-44.661-6.372-71.358 10.479-25.8 16.284-62.127 55.887-66.867 101.046-4.74 45.159.999 99.303 31.437 58.389 30.438-40.914 32.745-42.42 37.581-87.33 0 0 2.79-14.157 9.825-23.703z" fill="none" stroke-dasharray="33.930659296708235,480.39083576280905" stroke-dashoffset="514.321495" stroke-miterlimit="10" stroke-width="1.2"/><path d="M2420.2 127.067c40.632 19.767 47.88 48.537 47.88 48.537 1.9002 6.0165 4.2468 11.8827 7.02 17.55.5274 1.0947 1.3749 2.004 2.4303 2.6064 1.0551.6027 2.2689.8709 3.4797.7686 10.692-1.08 11.361-30.18 9.627-40.683-1.8-10.863-17.019-55.623-62.961-83.676M2367.517 206c9.063 4.347 18.675 7.629 28.665 9.351 44.748 7.716 99.15 5.571 60.336-27.507-23.118-19.713-32.952-28.53-46.518-34.086" fill="#00000000" stroke-dasharray="16.35890064812349,231.6095860617482" stroke-dashoffset="247.968487" stroke-width="1.2"/></g><g stroke="#13010116" stroke-width="4"><path d="M2556.635 207.125s42.414-13.725 54.639-84.582c12.225-70.857 47.157-88.824 56.139-77.343 8.982 11.481 19.2 42.165-3.741 100.551s-74.1 79.839-85.83 82.584c-10.365 2.427-39.444 3.681-41.232-6.915-.1818-1.2015.0057-2.4306.5376-3.5232.5319-1.0929 1.3836-1.9986 2.4414-2.5968 5.4702-3.1464 11.1681-5.8791 17.046-8.175z" fill="none" stroke-dasharray="43.47120795464166,467.32089538040367" stroke-dashoffset="510.792103" stroke-miterlimit="10" stroke-width="1.2"/><path d="M2591.066 85.367s15.468-23.454 32.436-33.681c16.968-10.227 32.934-14.721 26.946-25.2-5.988-10.479-44.661-6.372-71.358 10.479-25.8 16.284-62.127 55.887-66.867 101.046-4.74 45.159.999 99.303 31.437 58.389 30.438-40.914 32.745-42.42 37.581-87.33 0 0 2.79-14.157 9.825-23.703z" fill="none" stroke-dasharray="43.771578537127496,470.54991652238976" stroke-dashoffset="514.321495" stroke-miterlimit="10" stroke-width="1.2"/><path d="M2670.2 127.067c40.632 19.767 47.88 48.537 47.88 48.537 1.9002 6.0165 4.2468 11.8827 7.02 17.55.5274 1.0947 1.3749 2.004 2.4303 2.6064 1.0551.6027 2.2689.8709 3.4797.7686 10.692-1.08 11.361-30.18 9.627-40.683-1.8-10.863-17.019-55.623-62.961-83.676M2617.517 206c9.063 4.347 18.675 7.629 28.665 9.351 44.748 7.716 99.15 5.571 60.336-27.507-23.118-19.713-32.952-28.53-46.518-34.086" fill="#00000000" stroke-dasharray="21.103477484443427,226.86500922542825" stroke-dashoffset="247.968487" stroke-width="1.2"/></g><g stroke="#1801011b" stroke-width="4"><path d="M2806.635 207.125s42.414-13.725 54.639-84.582c12.225-70.857 47.157-88.824 56.139-77.343 8.982 11.481 19.2 42.165-3.741 100.551s-74.1 79.839-85.83 82.584c-10.365 2.427-39.444 3.681-41.232-6.915-.1818-1.2015.0057-2.4306.5376-3.5232.5319-1.0929 1.3836-1.9986 2.4414-2.5968 5.4702-3.1464 11.1681-5.8791 17.046-8.175z" fill="none" stroke-dasharray="54.99282459669907,455.7992787383463" stroke-dashoffset="510.792103" stroke-miterlimit="10" stroke-width="1.2"/><path d="M2841.066 85.367s15.468-23.454 32.436-33.681c16.968-10.227 32.934-14.721 26.946-25.2-5.988-10.479-44.661-6.372-71.358 10.479-25.8 16.284-62.127 55.887-66.867 101.046-4.74 45.159.999 99.303 31.437 58.389 30.438-40.914 32.745-42.42 37.581-87.33 0 0 2.79-14.157 9.825-23.703z" fill="none" stroke-dasharray="55.37280545147281,458.94868960804445" stroke-dashoffset="514.321495" stroke-miterlimit="10" stroke-width="1.2"/><path d="M2920.2 127.067c40.632 19.767 47.88 48.537 47.88 48.537 1.9002 6.0165 4.2468 11.8827 7.02 17.55.5274 1.0947 1.3749 2.004 2.4303 2.6064 1.0551.6027 2.2689.8709 3.4797.7686 10.692-1.08 11.361-30.18 9.627-40.683-1.8-10.863-17.019-55.623-62.961-83.676M2867.517 206c9.063 4.347 18.675 7.629 28.665 9.351 44.748 7.716 99.15 5.571 60.336-27.507-23.118-19.713-32.952-28.53-46.518-34.086" fill="#00000000" stroke-dasharray="26.69674688803922,221.27173982183245" stroke-dashoffset="247.968487" stroke-width="1.2"/></g><g stroke="#1e010122" stroke-width="4"><path d="M3056.635 207.125s42.414-13.725 54.639-84.582c12.225-70.857 47.157-88.824 56.139-77.343 8.982 11.481 19.2 42.165-3.741 100.551s-74.1 79.839-85.83 82.584c-10.365 2.427-39.444 3.681-41.232-6.915-.1818-1.2015.0057-2.4306.5376-3.5232.5319-1.0929 1.3836-1.9986 2.4414-2.5968 5.4702-3.1464 11.1681-5.8791 17.046-8.175z" fill="none" stroke-dasharray="68.41895497607236,442.37314835897297" stroke-dashoffset="510.792103" stroke-miterlimit="10" stroke-width="1.2"/><path d="M3091.066 85.367s15.468-23.454 32.436-33.681c16.968-10.227 32.934-14.721 26.946-25.2-5.988-10.479-44.661-6.372-71.358 10.479-25.8 16.284-62.127 55.887-66.867 101.046-4.74 45.159.999 99.303 31.437 58.389 30.438-40.914 32.745-42.42 37.581-87.33 0 0 2.79-14.157 9.825-23.703z" fill="none" stroke-dasharray="68.89170561554567,445.4297894439715" stroke-dashoffset="514.321495" stroke-miterlimit="10" stroke-width="1.2"/><path d="M3170.2 127.067c40.632 19.767 47.88 48.537 47.88 48.537 1.9002 6.0165 4.2468 11.8827 7.02 17.55.5274 1.0947 1.3749 2.004 2.4303 2.6064 1.0551.6027 2.2689.8709 3.4797.7686 10.692-1.08 11.361-30.18 9.627-40.683-1.8-10.863-17.019-55.623-62.961-83.676M3117.517 206c9.063 4.347 18.675 7.629 28.665 9.351 44.748 7.716 99.15 5.571 60.336-27.507-23.118-19.713-32.952-28.53-46.518-34.086" fill="#00000000" stroke-dasharray="33.214579115290505,214.75390759458116" stroke-dashoffset="247.968487" stroke-width="1.2"/></g><g stroke="#2501012a" stroke-width="4"><path d="M3306.635 207.125s42.414-13.725 54.639-84.582c12.225-70.857 47.157-88.824 56.139-77.343 8.982 11.481 19.2 42.165-3.741 100.551s-74.1 79.839-85.83 82.584c-10.365 2.427-39.444 3.681-41.232-6.915-.1818-1.2015.0057-2.4306.5376-3.5232.5319-1.0929 1.3836-1.9986 2.4414-2.5968 5.4702-3.1464 11.1681-5.8791 17.046-8.175z" fill="none" stroke-dasharray="83.86651483468346,426.92558850036187" stroke-dashoffset="510.792103" stroke-miterlimit="10" stroke-width="1.2"/><path d="M3341.066 85.367s15.468-23.454 32.436-33.681c16.968-10.227 32.934-14.721 26.946-25.2-5.988-10.479-44.661-6.372-71.358 10.479-25.8 16.284-62.127 55.887-66.867 101.046-4.74 45.159.999 99.303 31.437 58.389 30.438-40.914 32.745-42.42 37.581-87.33 0 0 2.79-14.157 9.825-23.703z" fill="none" stroke-dasharray="84.44600261745303,429.8754924420642" stroke-dashoffset="514.321495" stroke-miterlimit="10" stroke-width="1.2"/><path d="M3420.2 127.067c40.632 19.767 47.88 48.537 47.88 48.537 1.9002 6.0165 4.2468 11.8827 7.02 17.55.5274 1.0947 1.3749 2.004 2.4303 2.6064 1.0551.6027 2.2689.8709 3.4797.7686 10.692-1.08 11.361-30.18 9.627-40.683-1.8-10.863-17.019-55.623-62.961-83.676M3367.517 206c9.063 4.347 18.675 7.629 28.665 9.351 44.748 7.716 99.15 5.571 60.336-27.507-23.118-19.713-32.952-28.53-46.518-34.086" fill="#00000000" stroke-dasharray="40.713731934000776,207.2547547758709" stroke-dashoffset="247.968487" stroke-width="1.2"/></g><g stroke="#2c020233" stroke-width="4"><path d="M3556.635 207.125s42.414-13.725 54.639-84.582c12.225-70.857 47.157-88.824 56.139-77.343 8.982 11.481 19.2 42.165-3.741 100.551s-74.1 79.839-85.83 82.584c-10.365 2.427-39.444 3.681-41.232-6.915-.1818-1.2015.0057-2.4306.5376-3.5232.5319-1.0929 1.3836-1.9986 2.4414-2.5968 5.4702-3.1464 11.1681-5.8791 17.046-8.175z" fill="none" stroke-dasharray="101.37285279836495,409.41925053668035" stroke-dashoffset="510.792103" stroke-miterlimit="10" stroke-width="1.2"/><path d="M3591.066 85.367s15.468-23.454 32.436-33.681c16.968-10.227 32.934-14.721 26.946-25.2-5.988-10.479-44.661-6.372-71.358 10.479-25.8 16.284-62.127 55.887-66.867 101.046-4.74 45.159.999 99.303 31.437 58.389 30.438-40.914 32.745-42.42 37.581-87.33 0 0 2.79-14.157 9.825-23.703z" fill="none" stroke-dasharray="102.07330314874551,412.2481919107717" stroke-dashoffset="514.321495" stroke-miterlimit="10" stroke-width="1.2"/><path d="M3670.2 127.067c40.632 19.767 47.88 48.537 47.88 48.537 1.9002 6.0165 4.2468 11.8827 7.02 17.55.5274 1.0947 1.3749 2.004 2.4303 2.6064 1.0551.6027 2.2689.8709 3.4797.7686 10.692-1.08 11.361-30.18 9.627-40.683-1.8-10.863-17.019-55.623-62.961-83.676M3617.517 206c9.063 4.347 18.675 7.629 28.665 9.351 44.748 7.716 99.15 5.571 60.336-27.507-23.118-19.713-32.952-28.53-46.518-34.086" fill="#00000000" stroke-dasharray="49.21233656070202,198.75615014916966" stroke-dashoffset="247.968487" stroke-width="1.2"/></g><g stroke="#3502023c" stroke-width="4"><path d="M3806.635 207.125s42.414-13.725 54.639-84.582c12.225-70.857 47.157-88.824 56.139-77.343 8.982 11.481 19.2 42.165-3.741 100.551s-74.1 79.839-85.83 82.584c-10.365 2.427-39.444 3.681-41.232-6.915-.1818-1.2015.0057-2.4306.5376-3.5232.5319-1.0929 1.3836-1.9986 2.4414-2.5968 5.4702-3.1464 11.1681-5.8791 17.046-8.175z" fill="none" stroke-dasharray="120.84695547582463,389.94514785922075" stroke-dashoffset="510.792103" stroke-miterlimit="10" stroke-width="1.2"/><path d="M3841.066 85.367s15.468-23.454 32.436-33.681c16.968-10.227 32.934-14.721 26.946-25.2-5.988-10.479-44.661-6.372-71.358 10.479-25.8 16.284-62.127 55.887-66.867 101.046-4.74 45.159.999 99.303 31.437 58.389 30.438-40.914 32.745-42.42 37.581-87.33 0 0 2.79-14.157 9.825-23.703z" fill="none" stroke-dasharray="121.68196494797427,392.63953011154297" stroke-dashoffset="514.321495" stroke-miterlimit="10" stroke-width="1.2"/><path d="M3920.2 127.067c40.632 19.767 47.88 48.537 47.88 48.537 1.9002 6.0165 4.2468 11.8827 7.02 17.55.5274 1.0947 1.3749 2.004 2.4303 2.6064 1.0551.6027 2.2689.8709 3.4797.7686 10.692-1.08 11.361-30.18 9.627-40.683-1.8-10.863-17.019-55.623-62.961-83.676M3867.517 206c9.063 4.347 18.675 7.629 28.665 9.351 44.748 7.716 99.15 5.571 60.336-27.507-23.118-19.713-32.952-28.53-46.518-34.086" fill="#00000000" stroke-dasharray="58.66620974987868,189.302276959993" stroke-dashoffset="247.968487" stroke-width="1.2"/></g><g stroke="#3e030347" stroke-width="4"><path d="M4056.635 207.125s42.414-13.725 54.639-84.582c12.225-70.857 47.157-88.824 56.139-77.343 8.982 11.481 19.2 42.165-3.741 100.551s-74.1 79.839-85.83 82.584c-10.365 2.427-39.444 3.681-41.232-6.915-.1818-1.2015.0057-2.4306.5376-3.5232.5319-1.0929 1.3836-1.9986 2.4414-2.5968 5.4702-3.1464 11.1681-5.8791 17.046-8.175z" fill="none" stroke-dasharray="142.0275511310517,368.7645522039937" stroke-dashoffset="510.792103" stroke-miterlimit="10" stroke-width="1.2"/><path d="M4091.066 85.367s15.468-23.454 32.436-33.681c16.968-10.227 32.934-14.721 26.946-25.2-5.988-10.479-44.661-6.372-71.358 10.479-25.8 16.284-62.127 55.887-66.867 101.046-4.74 45.159.999 99.303 31.437 58.389 30.438-40.914 32.745-42.42 37.581-87.33 0 0 2.79-14.157 9.825-23.703z" fill="none" stroke-dasharray="143.00891098437768,371.3125840751396" stroke-dashoffset="514.321495" stroke-miterlimit="10" stroke-width="1.2"/><path d="M4170.2 127.067c40.632 19.767 47.88 48.537 47.88 48.537 1.9002 6.0165 4.2468 11.8827 7.02 17.55.5274 1.0947 1.3749 2.004 2.4303 2.6064 1.0551.6027 2.2689.8709 3.4797.7686 10.692-1.08 11.361-30.18 9.627-40.683-1.8-10.863-17.019-55.623-62.961-83.676M4117.517 206c9.063 4.347 18.675 7.629 28.665 9.351 44.748 7.716 99.15 5.571 60.336-27.507-23.118-19.713-32.952-28.53-46.518-34.086" fill="#00000000" stroke-dasharray="68.94851485590594,179.01997185396576" stroke-dashoffset="247.968487" stroke-width="1.2"/></g><g stroke="#48030352" stroke-width="4"><path d="M4306.635 207.125s42.414-13.725 54.639-84.582c12.225-70.857 47.157-88.824 56.139-77.343 8.982 11.481 19.2 42.165-3.741 100.551s-74.1 79.839-85.83 82.584c-10.365 2.427-39.444 3.681-41.232-6.915-.1818-1.2015.0057-2.4306.5376-3.5232.5319-1.0929 1.3836-1.9986 2.4414-2.5968 5.4702-3.1464 11.1681-5.8791 17.046-8.175z" fill="none" stroke-dasharray="164.47404772515594,346.3180556098894" stroke-dashoffset="510.792103" stroke-miterlimit="10" stroke-width="1.2"/><path d="M4341.066 85.367s15.468-23.454 32.436-33.681c16.968-10.227 32.934-14.721 26.946-25.2-5.988-10.479-44.661-6.372-71.358 10.479-25.8 16.284-62.127 55.887-66.867 101.046-4.74 45.159.999 99.303 31.437 58.389 30.438-40.914 32.745-42.42 37.581-87.33 0 0 2.79-14.157 9.825-23.703z" fill="none" stroke-dasharray="165.6105048848133,348.7109901747039" stroke-dashoffset="514.321495" stroke-miterlimit="10" stroke-width="1.2"/><path d="M4420.2 127.067c40.632 19.767 47.88 48.537 47.88 48.537 1.9002 6.0165 4.2468 11.8827 7.02 17.55.5274 1.0947 1.3749 2.004 2.4303 2.6064 1.0551.6027 2.2689.8709 3.4797.7686 10.692-1.08 11.361-30.18 9.627-40.683-1.8-10.863-17.019-55.623-62.961-83.676M4367.517 206c9.063 4.347 18.675 7.629 28.665 9.351 44.748 7.716 99.15 5.571 60.336-27.507-23.118-19.713-32.952-28.53-46.518-34.086" fill="#00000000" stroke-dasharray="79.84536262633316,168.12312408353853" stroke-dashoffset="247.968487" stroke-width="1.2"/></g><g stroke="#5203035e" stroke-width="4"><path d="M4556.635 207.125s42.414-13.725 54.639-84.582c12.225-70.857 47.157-88.824 56.139-77.343 8.982 11.481 19.2 42.165-3.741 100.551s-74.1 79.839-85.83 82.584c-10.365 2.427-39.444 3.681-41.232-6.915-.1818-1.2015.0057-2.4306.5376-3.5232.5319-1.0929 1.3836-1.9986 2.4414-2.5968 5.4702-3.1464 11.1681-5.8791 17.046-8.175z" fill="none" stroke-dasharray="187.61174738133658,323.1803559537087" stroke-dashoffset="510.792103" stroke-miterlimit="10" stroke-width="1.2"/><path d="M4591.066 85.367s15.468-23.454 32.436-33.681c16.968-10.227 32.934-14.721 26.946-25.2-5.988-10.479-44.661-6.372-71.358 10.479-25.8 16.284-62.127 55.887-66.867 101.046-4.74 45.159.999 99.303 31.437 58.389 30.438-40.914 32.745-42.42 37.581-87.33 0 0 2.79-14.157 9.825-23.703z" fill="none" stroke-dasharray="188.9080778145952,325.413417244922" stroke-dashoffset="514.321495" stroke-miterlimit="10" stroke-width="1.2"/><path d="M4670.2 127.067c40.632 19.767 47.88 48.537 47.88 48.537 1.9002 6.0165 4.2468 11.8827 7.02 17.55.5274 1.0947 1.3749 2.004 2.4303 2.6064 1.0551.6027 2.2689.8709 3.4797.7686 10.692-1.08 11.361-30.18 9.627-40.683-1.8-10.863-17.019-55.623-62.961-83.676M4617.517 206c9.063 4.347 18.675 7.629 28.665 9.351 44.748 7.716 99.15 5.571 60.336-27.507-23.118-19.713-32.952-28.53-46.518-34.086" fill="#00000000" stroke-dasharray="91.07776095870767,156.890725751164" stroke-dashoffset="247.968487" stroke-width="1.2"/></g><g stroke="#5c040469" stroke-width="4"><path d="M4806.635 207.125s42.414-13.725 54.639-84.582c12.225-70.857 47.157-88.824 56.139-77.343 8.982 11.481 19.2 42.165-3.741 100.551s-74.1 79.839-85.83 82.584c-10.365 2.427-39.444 3.681-41.232-6.915-.1818-1.2015.0057-2.4306.5376-3.5232.5319-1.0929 1.3836-1.9986 2.4414-2.5968 5.4702-3.1464 11.1681-5.8791 17.046-8.175z" fill="none" stroke-dasharray="210.82510604173783,299.9669972933075" stroke-dashoffset="510.792103" stroke-miterlimit="10" stroke-width="1.2"/><path d="M4841.066 85.367s15.468-23.454 32.436-33.681c16.968-10.227 32.934-14.721 26.946-25.2-5.988-10.479-44.661-6.372-71.358 10.479-25.8 16.284-62.127 55.887-66.867 101.046-4.74 45.159.999 99.303 31.437 58.389 30.438-40.914 32.745-42.42 37.581-87.33 0 0 2.79-14.157 9.825-23.703z" fill="none" stroke-dasharray="212.28183252540188,302.03966253411534" stroke-dashoffset="514.321495" stroke-miterlimit="10" stroke-width="1.2"/><path d="M4920.2 127.067c40.632 19.767 47.88 48.537 47.88 48.537 1.9002 6.0165 4.2468 11.8827 7.02 17.55.5274 1.0947 1.3749 2.004 2.4303 2.6064 1.0551.6027 2.2689.8709 3.4797.7686 10.692-1.08 11.361-30.18 9.627-40.683-1.8-10.863-17.019-55.623-62.961-83.676M4867.517 206c9.063 4.347 18.675 7.629 28.665 9.351 44.748 7.716 99.15 5.571 60.336-27.507-23.118-19.713-32.952-28.53-46.518-34.086" fill="#00000000" stroke-dasharray="102.34688861532206,145.62159809454963" stroke-dashoffset="247.968487" stroke-width="1.2"/></g><g stroke="#66040475" stroke-width="4"><path d="M5056.635 207.125s42.414-13.725 54.639-84.582c12.225-70.857 47.157-88.824 56.139-77.343 8.982 11.481 19.2 42.165-3.741 100.551s-74.1 79.839-85.83 82.584c-10.365 2.427-39.444 3.681-41.232-6.915-.1818-1.2015.0057-2.4306.5376-3.5232.5319-1.0929 1.3836-1.9986 2.4414-2.5968 5.4702-3.1464 11.1681-5.8791 17.046-8.175z" fill="none" stroke-dasharray="233.5605779346687,277.23152540037665" stroke-dashoffset="510.792103" stroke-miterlimit="10" stroke-width="1.2"/><path d="M5091.066 85.367s15.468-23.454 32.436-33.681c16.968-10.227 32.934-14.721 26.946-25.2-5.988-10.479-44.661-6.372-71.358 10.479-25.8 16.284-62.127 55.887-66.867 101.046-4.74 45.159.999 99.303 31.437 58.389 30.438-40.914 32.745-42.42 37.581-87.33 0 0 2.79-14.157 9.825-23.703z" fill="none" stroke-dasharray="235.17439844117874,279.1470966183385" stroke-dashoffset="514.321495" stroke-miterlimit="10" stroke-width="1.2"/><path d="M5170.2 127.067c40.632 19.767 47.88 48.537 47.88 48.537 1.9002 6.0165 4.2468 11.8827 7.02 17.55.5274 1.0947 1.3749 2.004 2.4303 2.6064 1.0551.6027 2.2689.8709 3.4797.7686 10.692-1.08 11.361-30.18 9.627-40.683-1.8-10.863-17.019-55.623-62.961-83.676M5117.517 206c9.063 4.347 18.675 7.629 28.665 9.351 44.748 7.716 99.15 5.571 60.336-27.507-23.118-19.713-32.952-28.53-46.518-34.086" fill="#00000000" stroke-dasharray="113.38402196784561,134.58446474202609" stroke-dashoffset="247.968487" stroke-width="1.2"/></g><g stroke="#7004047f" stroke-width="4"><path d="M5306.635 207.125s42.414-13.725 54.639-84.582c12.225-70.857 47.157-88.824 56.139-77.343 8.982 11.481 19.2 42.165-3.741 100.551s-74.1 79.839-85.83 82.584c-10.365 2.427-39.444 3.681-41.232-6.915-.1818-1.2015.0057-2.4306.5376-3.5232.5319-1.0929 1.3836-1.9986 2.4414-2.5968 5.4702-3.1464 11.1681-5.8791 17.046-8.175z" fill="none" stroke-dasharray="255.3960516675226,255.39605166752273" stroke-dashoffset="510.792103" stroke-miterlimit="10" stroke-width="1.2"/><path d="M5341.066 85.367s15.468-23.454 32.436-33.681c16.968-10.227 32.934-14.721 26.946-25.2-5.988-10.479-44.661-6.372-71.358 10.479-25.8 16.284-62.127 55.887-66.867 101.046-4.74 45.159.999 99.303 31.437 58.389 30.438-40.914 32.745-42.42 37.581-87.33 0 0 2.79-14.157 9.825-23.703z" fill="none" stroke-dasharray="257.16074752975857,257.1607475297587" stroke-dashoffset="514.321495" stroke-miterlimit="10" stroke-width="1.2"/><path d="M5420.2 127.067c40.632 19.767 47.88 48.537 47.88 48.537 1.9002 6.0165 4.2468 11.8827 7.02 17.55.5274 1.0947 1.3749 2.004 2.4303 2.6064 1.0551.6027 2.2689.8709 3.4797.7686 10.692-1.08 11.361-30.18 9.627-40.683-1.8-10.863-17.019-55.623-62.961-83.676M5367.517 206c9.063 4.347 18.675 7.629 28.665 9.351 44.748 7.716 99.15 5.571 60.336-27.507-23.118-19.713-32.952-28.53-46.518-34.086" fill="#00000000" stroke-dasharray="123.98424335493581,123.98424335493587" stroke-dashoffset="247.968487" stroke-width="1.2"/></g><g stroke="#7905058a" stroke-width="4"><path d="M5556.635 207.125s42.414-13.725 54.639-84.582c12.225-70.857 47.157-88.824 56.139-77.343 8.982 11.481 19.2 42.165-3.741 100.551s-74.1 79.839-85.83 82.584c-10.365 2.427-39.444 3.681-41.232-6.915-.1818-1.2015.0057-2.4306.5376-3.5232.5319-1.0929 1.3836-1.9986 2.4414-2.5968 5.4702-3.1464 11.1681-5.8791 17.046-8.175z" fill="none" stroke-dasharray="276.06034957604084,234.73175375900448" stroke-dashoffset="510.792103" stroke-miterlimit="10" stroke-width="1.2"/><path d="M5591.066 85.367s15.468-23.454 32.436-33.681c16.968-10.227 32.934-14.721 26.946-25.2-5.988-10.479-44.661-6.372-71.358 10.479-25.8 16.284-62.127 55.887-66.867 101.046-4.74 45.159.999 99.303 31.437 58.389 30.438-40.914 32.745-42.42 37.581-87.33 0 0 2.79-14.157 9.825-23.703z" fill="none" stroke-dasharray="277.9678283856915,236.3536666738257" stroke-dashoffset="514.321495" stroke-miterlimit="10" stroke-width="1.2"/><path d="M5670.2 127.067c40.632 19.767 47.88 48.537 47.88 48.537 1.9002 6.0165 4.2468 11.8827 7.02 17.55.5274 1.0947 1.3749 2.004 2.4303 2.6064 1.0551.6027 2.2689.8709 3.4797.7686 10.692-1.08 11.361-30.18 9.627-40.683-1.8-10.863-17.019-55.623-62.961-83.676M5617.517 206c9.063 4.347 18.675 7.629 28.665 9.351 44.748 7.716 99.15 5.571 60.336-27.507-23.118-19.713-32.952-28.53-46.518-34.086" fill="#00000000" stroke-dasharray="134.0159072116031,113.95257949826859" stroke-dashoffset="247.968487" stroke-width="1.2"/></g><g stroke="#82050593" stroke-width="4"><path d="M5806.635 207.125s42.414-13.725 54.639-84.582c12.225-70.857 47.157-88.824 56.139-77.343 8.982 11.481 19.2 42.165-3.741 100.551s-74.1 79.839-85.83 82.584c-10.365 2.427-39.444 3.681-41.232-6.915-.1818-1.2015.0057-2.4306.5376-3.5232.5319-1.0929 1.3836-1.9986 2.4414-2.5968 5.4702-3.1464 11.1681-5.8791 17.046-8.175z" fill="none" stroke-dasharray="295.41489422179154,215.37720911325383" stroke-dashoffset="510.792103" stroke-miterlimit="10" stroke-width="1.2"/><path d="M5841.066 85.367s15.468-23.454 32.436-33.681c16.968-10.227 32.934-14.721 26.946-25.2-5.988-10.479-44.661-6.372-71.358 10.479-25.8 16.284-62.127 55.887-66.867 101.046-4.74 45.159.999 99.303 31.437 58.389 30.438-40.914 32.745-42.42 37.581-87.33 0 0 2.79-14.157 9.825-23.703z" fill="none" stroke-dasharray="297.4561060497438,216.8653890097734" stroke-dashoffset="514.321495" stroke-miterlimit="10" stroke-width="1.2"/><path d="M5920.2 127.067c40.632 19.767 47.88 48.537 47.88 48.537 1.9002 6.0165 4.2468 11.8827 7.02 17.55.5274 1.0947 1.3749 2.004 2.4303 2.6064 1.0551.6027 2.2689.8709 3.4797.7686 10.692-1.08 11.361-30.18 9.627-40.683-1.8-10.863-17.019-55.623-62.961-83.676M5867.517 206c9.063 4.347 18.675 7.629 28.665 9.351 44.748 7.716 99.15 5.571 60.336-27.507-23.118-19.713-32.952-28.53-46.518-34.086" fill="#00000000" stroke-dasharray="143.41173991032713,104.55674679954456" stroke-dashoffset="247.968487" stroke-width="1.2"/></g><g stroke="#8906069c" stroke-width="4"><path d="M6056.635 207.125s42.414-13.725 54.639-84.582c12.225-70.857 47.157-88.824 56.139-77.343 8.982 11.481 19.2 42.165-3.741 100.551s-74.1 79.839-85.83 82.584c-10.365 2.427-39.444 3.681-41.232-6.915-.1818-1.2015.0057-2.4306.5376-3.5232.5319-1.0929 1.3836-1.9986 2.4414-2.5968 5.4702-3.1464 11.1681-5.8791 17.046-8.175z" fill="none" stroke-dasharray="313.41935116480926,197.3727521702361" stroke-dashoffset="510.792103" stroke-miterlimit="10" stroke-width="1.2"/><path d="M6091.066 85.367s15.468-23.454 32.436-33.681c16.968-10.227 32.934-14.721 26.946-25.2-5.988-10.479-44.661-6.372-71.358 10.479-25.8 16.284-62.127 55.887-66.867 101.046-4.74 45.159.999 99.303 31.437 58.389 30.438-40.914 32.745-42.42 37.581-87.33 0 0 2.79-14.157 9.825-23.703z" fill="none" stroke-dasharray="315.5849673853185,198.73652767419873" stroke-dashoffset="514.321495" stroke-miterlimit="10" stroke-width="1.2"/><path d="M6170.2 127.067c40.632 19.767 47.88 48.537 47.88 48.537 1.9002 6.0165 4.2468 11.8827 7.02 17.55.5274 1.0947 1.3749 2.004 2.4303 2.6064 1.0551.6027 2.2689.8709 3.4797.7686 10.692-1.08 11.361-30.18 9.627-40.683-1.8-10.863-17.019-55.623-62.961-83.676M6117.517 206c9.063 4.347 18.675 7.629 28.665 9.351 44.748 7.716 99.15 5.571 60.336-27.507-23.118-19.713-32.952-28.53-46.518-34.086" fill="#00000000" stroke-dasharray="152.15216074503354,95.81632596483814" stroke-dashoffset="247.968487" stroke-width="1.2"/></g><g stroke="#910606a5" stroke-width="4"><path d="M6306.635 207.125s42.414-13.725 54.639-84.582c12.225-70.857 47.157-88.824 56.139-77.343 8.982 11.481 19.2 42.165-3.741 100.551s-74.1 79.839-85.83 82.584c-10.365 2.427-39.444 3.681-41.232-6.915-.1818-1.2015.0057-2.4306.5376-3.5232.5319-1.0929 1.3836-1.9986 2.4414-2.5968 5.4702-3.1464 11.1681-5.8791 17.046-8.175z" fill="none" stroke-dasharray="330.09741433171,180.69468900333536" stroke-dashoffset="510.792103" stroke-miterlimit="10" stroke-width="1.2"/><path d="M6341.066 85.367s15.468-23.454 32.436-33.681c16.968-10.227 32.934-14.721 26.946-25.2-5.988-10.479-44.661-6.372-71.358 10.479-25.8 16.284-62.127 55.887-66.867 101.046-4.74 45.159.999 99.303 31.437 58.389 30.438-40.914 32.745-42.42 37.581-87.33 0 0 2.79-14.157 9.825-23.703z" fill="none" stroke-dasharray="332.37827003563564,181.9432250238816" stroke-dashoffset="514.321495" stroke-miterlimit="10" stroke-width="1.2"/><path d="M6420.2 127.067c40.632 19.767 47.88 48.537 47.88 48.537 1.9002 6.0165 4.2468 11.8827 7.02 17.55.5274 1.0947 1.3749 2.004 2.4303 2.6064 1.0551.6027 2.2689.8709 3.4797.7686 10.692-1.08 11.361-30.18 9.627-40.683-1.8-10.863-17.019-55.623-62.961-83.676M6367.517 206c9.063 4.347 18.675 7.629 28.665 9.351 44.748 7.716 99.15 5.571 60.336-27.507-23.118-19.713-32.952-28.53-46.518-34.086" fill="#00000000" stroke-dasharray="160.24867213928925,87.71981457058243" stroke-dashoffset="247.968487" stroke-width="1.2"/></g><g stroke="#980606ac" stroke-width="4"><path d="M6556.635 207.125s42.414-13.725 54.639-84.582c12.225-70.857 47.157-88.824 56.139-77.343 8.982 11.481 19.2 42.165-3.741 100.551s-74.1 79.839-85.83 82.584c-10.365 2.427-39.444 3.681-41.232-6.915-.1818-1.2015.0057-2.4306.5376-3.5232.5319-1.0929 1.3836-1.9986 2.4414-2.5968 5.4702-3.1464 11.1681-5.8791 17.046-8.175z" fill="none" stroke-dasharray="345.5098589961174,165.28224433892797" stroke-dashoffset="510.792103" stroke-miterlimit="10" stroke-width="1.2"/><path d="M6591.066 85.367s15.468-23.454 32.436-33.681c16.968-10.227 32.934-14.721 26.946-25.2-5.988-10.479-44.661-6.372-71.358 10.479-25.8 16.284-62.127 55.887-66.867 101.046-4.74 45.159.999 99.303 31.437 58.389 30.438-40.914 32.745-42.42 37.581-87.33 0 0 2.79-14.157 9.825-23.703z" fill="none" stroke-dasharray="347.8972092098392,166.42428584967803" stroke-dashoffset="514.321495" stroke-miterlimit="10" stroke-width="1.2"/><path d="M6670.2 127.067c40.632 19.767 47.88 48.537 47.88 48.537 1.9002 6.0165 4.2468 11.8827 7.02 17.55.5274 1.0947 1.3749 2.004 2.4303 2.6064 1.0551.6027 2.2689.8709 3.4797.7686 10.692-1.08 11.361-30.18 9.627-40.683-1.8-10.863-17.019-55.623-62.961-83.676M6617.517 206c9.063 4.347 18.675 7.629 28.665 9.351 44.748 7.716 99.15 5.571 60.336-27.507-23.118-19.713-32.952-28.53-46.518-34.086" fill="#00000000" stroke-dasharray="167.73077798035368,80.23770872951799" stroke-dashoffset="247.968487" stroke-width="1.2"/></g><g stroke="#9e0606b4" stroke-width="4"><path d="M6806.635 207.125s42.414-13.725 54.639-84.582c12.225-70.857 47.157-88.824 56.139-77.343 8.982 11.481 19.2 42.165-3.741 100.551s-74.1 79.839-85.83 82.584c-10.365 2.427-39.444 3.681-41.232-6.915-.1818-1.2015.0057-2.4306.5376-3.5232.5319-1.0929 1.3836-1.9986 2.4414-2.5968 5.4702-3.1464 11.1681-5.8791 17.046-8.175z" fill="none" stroke-dasharray="359.7359307540922,151.0561725809532" stroke-dashoffset="510.792103" stroke-miterlimit="10" stroke-width="1.2"/><path d="M6841.066 85.367s15.468-23.454 32.436-33.681c16.968-10.227 32.934-14.721 26.946-25.2-5.988-10.479-44.661-6.372-71.358 10.479-25.8 16.284-62.127 55.887-66.867 101.046-4.74 45.159.999 99.303 31.437 58.389 30.438-40.914 32.745-42.42 37.581-87.33 0 0 2.79-14.157 9.825-23.703z" fill="none" stroke-dasharray="362.221578062868,152.09991699664928" stroke-dashoffset="514.321495" stroke-miterlimit="10" stroke-width="1.2"/><path d="M6920.2 127.067c40.632 19.767 47.88 48.537 47.88 48.537 1.9002 6.0165 4.2468 11.8827 7.02 17.55.5274 1.0947 1.3749 2.004 2.4303 2.6064 1.0551.6027 2.2689.8709 3.4797.7686 10.692-1.08 11.361-30.18 9.627-40.683-1.8-10.863-17.019-55.623-62.961-83.676M6867.517 206c9.063 4.347 18.675 7.629 28.665 9.351 44.748 7.716 99.15 5.571 60.336-27.507-23.118-19.713-32.952-28.53-46.518-34.086" fill="#00000000" stroke-dasharray="174.63694873479304,73.33153797507865" stroke-dashoffset="247.968487" stroke-width="1.2"/></g><g stroke="#a40707ba" stroke-width="4"><path d="M7056.635 207.125s42.414-13.725 54.639-84.582c12.225-70.857 47.157-88.824 56.139-77.343 8.982 11.481 19.2 42.165-3.741 100.551s-74.1 79.839-85.83 82.584c-10.365 2.427-39.444 3.681-41.232-6.915-.1818-1.2015.0057-2.4306.5376-3.5232.5319-1.0929 1.3836-1.9986 2.4414-2.5968 5.4702-3.1464 11.1681-5.8791 17.046-8.175z" fill="none" stroke-dasharray="372.86157999940923,137.9305233356361" stroke-dashoffset="510.792103" stroke-miterlimit="10" stroke-width="1.2"/><path d="M7091.066 85.367s15.468-23.454 32.436-33.681c16.968-10.227 32.934-14.721 26.946-25.2-5.988-10.479-44.661-6.372-71.358 10.479-25.8 16.284-62.127 55.887-66.867 101.046-4.74 45.159.999 99.303 31.437 58.389 30.438-40.914 32.745-42.42 37.581-87.33 0 0 2.79-14.157 9.825-23.703z" fill="none" stroke-dasharray="375.4379208751417,138.88357418437556" stroke-dashoffset="514.321495" stroke-miterlimit="10" stroke-width="1.2"/><path d="M7170.2 127.067c40.632 19.767 47.88 48.537 47.88 48.537 1.9002 6.0165 4.2468 11.8827 7.02 17.55.5274 1.0947 1.3749 2.004 2.4303 2.6064 1.0551.6027 2.2689.8709 3.4797.7686 10.692-1.08 11.361-30.18 9.627-40.683-1.8-10.863-17.019-55.623-62.961-83.676M7117.517 206c9.063 4.347 18.675 7.629 28.665 9.351 44.748 7.716 99.15 5.571 60.336-27.507-23.118-19.713-32.952-28.53-46.518-34.086" fill="#00000000" stroke-dasharray="181.00890977176886,66.95957693810281" stroke-dashoffset="247.968487" stroke-width="1.2"/></g><g stroke="#a90707c0" stroke-width="4"><path d="M7306.635 207.125s42.414-13.725 54.639-84.582c12.225-70.857 47.157-88.824 56.139-77.343 8.982 11.481 19.2 42.165-3.741 100.551s-74.1 79.839-85.83 82.584c-10.365 2.427-39.444 3.681-41.232-6.915-.1818-1.2015.0057-2.4306.5376-3.5232.5319-1.0929 1.3836-1.9986 2.4414-2.5968 5.4702-3.1464 11.1681-5.8791 17.046-8.175z" fill="none" stroke-dasharray="384.9725451110497,125.81955822399563" stroke-dashoffset="510.792103" stroke-miterlimit="10" stroke-width="1.2"/><path d="M7341.066 85.367s15.468-23.454 32.436-33.681c16.968-10.227 32.934-14.721 26.946-25.2-5.988-10.479-44.661-6.372-71.358 10.479-25.8 16.284-62.127 55.887-66.867 101.046-4.74 45.159.999 99.303 31.437 58.389 30.438-40.914 32.745-42.42 37.581-87.33 0 0 2.79-14.157 9.825-23.703z" fill="none" stroke-dasharray="387.6325684473396,126.68892661217764" stroke-dashoffset="514.321495" stroke-miterlimit="10" stroke-width="1.2"/><path d="M7420.2 127.067c40.632 19.767 47.88 48.537 47.88 48.537 1.9002 6.0165 4.2468 11.8827 7.02 17.55.5274 1.0947 1.3749 2.004 2.4303 2.6064 1.0551.6027 2.2689.8709 3.4797.7686 10.692-1.08 11.361-30.18 9.627-40.683-1.8-10.863-17.019-55.623-62.961-83.676M7367.517 206c9.063 4.347 18.675 7.629 28.665 9.351 44.748 7.716 99.15 5.571 60.336-27.507-23.118-19.713-32.952-28.53-46.518-34.086" fill="#00000000" stroke-dasharray="186.88828353600988,61.08020317386181" stroke-dashoffset="247.968487" stroke-width="1.2"/></g><g stroke="#ae0707c6" stroke-width="4"><path d="M7556.635 207.125s42.414-13.725 54.639-84.582c12.225-70.857 47.157-88.824 56.139-77.343 8.982 11.481 19.2 42.165-3.741 100.551s-74.1 79.839-85.83 82.584c-10.365 2.427-39.444 3.681-41.232-6.915-.1818-1.2015.0057-2.4306.5376-3.5232.5319-1.0929 1.3836-1.9986 2.4414-2.5968 5.4702-3.1464 11.1681-5.8791 17.046-8.175z" fill="none" stroke-dasharray="396.1505933703281,114.64150996471722" stroke-dashoffset="510.792103" stroke-miterlimit="10" stroke-width="1.2"/><path d="M7591.066 85.367s15.468-23.454 32.436-33.681c16.968-10.227 32.934-14.721 26.946-25.2-5.988-10.479-44.661-6.372-71.358 10.479-25.8 16.284-62.127 55.887-66.867 101.046-4.74 45.159.999 99.303 31.437 58.389 30.438-40.914 32.745-42.42 37.581-87.33 0 0 2.79-14.157 9.825-23.703z" fill="none" stroke-dasharray="398.8878530436022,115.43364201591503" stroke-dashoffset="514.321495" stroke-miterlimit="10" stroke-width="1.2"/><path d="M7670.2 127.067c40.632 19.767 47.88 48.537 47.88 48.537 1.9002 6.0165 4.2468 11.8827 7.02 17.55.5274 1.0947 1.3749 2.004 2.4303 2.6064 1.0551.6027 2.2689.8709 3.4797.7686 10.692-1.08 11.361-30.18 9.627-40.683-1.8-10.863-17.019-55.623-62.961-83.676M7617.517 206c9.063 4.347 18.675 7.629 28.665 9.351 44.748 7.716 99.15 5.571 60.336-27.507-23.118-19.713-32.952-28.53-46.518-34.086" fill="#00000000" stroke-dasharray="192.31476466820754,55.653722041664146" stroke-dashoffset="247.968487" stroke-width="1.2"/></g><g stroke="#b20707cb" stroke-width="4"><path d="M7806.635 207.125s42.414-13.725 54.639-84.582c12.225-70.857 47.157-88.824 56.139-77.343 8.982 11.481 19.2 42.165-3.741 100.551s-74.1 79.839-85.83 82.584c-10.365 2.427-39.444 3.681-41.232-6.915-.1818-1.2015.0057-2.4306.5376-3.5232.5319-1.0929 1.3836-1.9986 2.4414-2.5968 5.4702-3.1464 11.1681-5.8791 17.046-8.175z" fill="none" stroke-dasharray="406.4717065963284,104.320396738717" stroke-dashoffset="510.792103" stroke-miterlimit="10" stroke-width="1.2"/><path d="M7841.066 85.367s15.468-23.454 32.436-33.681c16.968-10.227 32.934-14.721 26.946-25.2-5.988-10.479-44.661-6.372-71.358 10.479-25.8 16.284-62.127 55.887-66.867 101.046-4.74 45.159.999 99.303 31.437 58.389 30.438-40.914 32.745-42.42 37.581-87.33 0 0 2.79-14.157 9.825-23.703z" fill="none" stroke-dasharray="409.2802814903534,105.04121356916386" stroke-dashoffset="514.321495" stroke-miterlimit="10" stroke-width="1.2"/><path d="M7920.2 127.067c40.632 19.767 47.88 48.537 47.88 48.537 1.9002 6.0165 4.2468 11.8827 7.02 17.55.5274 1.0947 1.3749 2.004 2.4303 2.6064 1.0551.6027 2.2689.8709 3.4797.7686 10.692-1.08 11.361-30.18 9.627-40.683-1.8-10.863-17.019-55.623-62.961-83.676M7867.517 206c9.063 4.347 18.675 7.629 28.665 9.351 44.748 7.716 99.15 5.571 60.336-27.507-23.118-19.713-32.952-28.53-46.518-34.086" fill="#00000000" stroke-dasharray="197.32523920589588,50.6432475039758" stroke-dashoffset="247.968487" stroke-width="1.2"/></g><g stroke="#b60707d0" stroke-width="4"><path d="M8056.635 207.125s42.414-13.725 54.639-84.582c12.225-70.857 47.157-88.824 56.139-77.343 8.982 11.481 19.2 42.165-3.741 100.551s-74.1 79.839-85.83 82.584c-10.365 2.427-39.444 3.681-41.232-6.915-.1818-1.2015.0057-2.4306.5376-3.5232.5319-1.0929 1.3836-1.9986 2.4414-2.5968 5.4702-3.1464 11.1681-5.8791 17.046-8.175z" fill="none" stroke-dasharray="416.00541183473894,94.78669150030642" stroke-dashoffset="510.792103" stroke-miterlimit="10" stroke-width="1.2"/><path d="M8091.066 85.367s15.468-23.454 32.436-33.681c16.968-10.227 32.934-14.721 26.946-25.2-5.988-10.479-44.661-6.372-71.358 10.479-25.8 16.284-62.127 55.887-66.867 101.046-4.74 45.159.999 99.303 31.437 58.389 30.438-40.914 32.745-42.42 37.581-87.33 0 0 2.79-14.157 9.825-23.703z" fill="none" stroke-dasharray="418.8798612404338,95.44163381908345" stroke-dashoffset="514.321495" stroke-miterlimit="10" stroke-width="1.2"/><path d="M8170.2 127.067c40.632 19.767 47.88 48.537 47.88 48.537 1.9002 6.0165 4.2468 11.8827 7.02 17.55.5274 1.0947 1.3749 2.004 2.4303 2.6064 1.0551.6027 2.2689.8709 3.4797.7686 10.692-1.08 11.361-30.18 9.627-40.683-1.8-10.863-17.019-55.623-62.961-83.676M8117.517 206c9.063 4.347 18.675 7.629 28.665 9.351 44.748 7.716 99.15 5.571 60.336-27.507-23.118-19.713-32.952-28.53-46.518-34.086" fill="#00000000" stroke-dasharray="201.9534596605022,46.01502704936947" stroke-dashoffset="247.968487" stroke-width="1.2"/></g><g stroke="#ba0707d4" stroke-width="4"><path d="M8306.635 207.125s42.414-13.725 54.639-84.582c12.225-70.857 47.157-88.824 56.139-77.343 8.982 11.481 19.2 42.165-3.741 100.551s-74.1 79.839-85.83 82.584c-10.365 2.427-39.444 3.681-41.232-6.915-.1818-1.2015.0057-2.4306.5376-3.5232.5319-1.0929 1.3836-1.9986 2.4414-2.5968 5.4702-3.1464 11.1681-5.8791 17.046-8.175z" fill="none" stroke-dasharray="424.8147556552777,85.97734767976765" stroke-dashoffset="510.792103" stroke-miterlimit="10" stroke-width="1.2"/><path d="M8341.066 85.367s15.468-23.454 32.436-33.681c16.968-10.227 32.934-14.721 26.946-25.2-5.988-10.479-44.661-6.372-71.358 10.479-25.8 16.284-62.127 55.887-66.867 101.046-4.74 45.159.999 99.303 31.437 58.389 30.438-40.914 32.745-42.42 37.581-87.33 0 0 2.79-14.157 9.825-23.703z" fill="none" stroke-dasharray="427.7500744929298,86.57142056658746" stroke-dashoffset="514.321495" stroke-miterlimit="10" stroke-width="1.2"/><path d="M8420.2 127.067c40.632 19.767 47.88 48.537 47.88 48.537 1.9002 6.0165 4.2468 11.8827 7.02 17.55.5274 1.0947 1.3749 2.004 2.4303 2.6064 1.0551.6027 2.2689.8709 3.4797.7686 10.692-1.08 11.361-30.18 9.627-40.683-1.8-10.863-17.019-55.623-62.961-83.676M8367.517 206c9.063 4.347 18.675 7.629 28.665 9.351 44.748 7.716 99.15 5.571 60.336-27.507-23.118-19.713-32.952-28.53-46.518-34.086" fill="#00000000" stroke-dasharray="206.2300325398075,41.73845417006419" stroke-dashoffset="247.968487" stroke-width="1.2"/></g><g stroke="#be0808d8" stroke-width="4"><path d="M8556.635 207.125s42.414-13.725 54.639-84.582c12.225-70.857 47.157-88.824 56.139-77.343 8.982 11.481 19.2 42.165-3.741 100.551s-74.1 79.839-85.83 82.584c-10.365 2.427-39.444 3.681-41.232-6.915-.1818-1.2015.0057-2.4306.5376-3.5232.5319-1.0929 1.3836-1.9986 2.4414-2.5968 5.4702-3.1464 11.1681-5.8791 17.046-8.175z" fill="none" stroke-dasharray="432.9566181119428,77.8354852231025" stroke-dashoffset="510.792103" stroke-miterlimit="10" stroke-width="1.2"/><path d="M8591.066 85.367s15.468-23.454 32.436-33.681c16.968-10.227 32.934-14.721 26.946-25.2-5.988-10.479-44.661-6.372-71.358 10.479-25.8 16.284-62.127 55.887-66.867 101.046-4.74 45.159.999 99.303 31.437 58.389 30.438-40.914 32.745-42.42 37.581-87.33 0 0 2.79-14.157 9.825-23.703z" fill="none" stroke-dasharray="435.94819432277814,78.37330073673913" stroke-dashoffset="514.321495" stroke-miterlimit="10" stroke-width="1.2"/><path d="M8670.2 127.067c40.632 19.767 47.88 48.537 47.88 48.537 1.9002 6.0165 4.2468 11.8827 7.02 17.55.5274 1.0947 1.3749 2.004 2.4303 2.6064 1.0551.6027 2.2689.8709 3.4797.7686 10.692-1.08 11.361-30.18 9.627-40.683-1.8-10.863-17.019-55.623-62.961-83.676M8617.517 206c9.063 4.347 18.675 7.629 28.665 9.351 44.748 7.716 99.15 5.571 60.336-27.507-23.118-19.713-32.952-28.53-46.518-34.086" fill="#00000000" stroke-dasharray="210.18257076269168,37.78591594718" stroke-dashoffset="247.968487" stroke-width="1.2"/></g><g stroke="#c10808dc" stroke-width="4"><path d="M8806.635 207.125s42.414-13.725 54.639-84.582c12.225-70.857 47.157-88.824 56.139-77.343 8.982 11.481 19.2 42.165-3.741 100.551s-74.1 79.839-85.83 82.584c-10.365 2.427-39.444 3.681-41.232-6.915-.1818-1.2015.0057-2.4306.5376-3.5232.5319-1.0929 1.3836-1.9986 2.4414-2.5968 5.4702-3.1464 11.1681-5.8791 17.046-8.175z" fill="none" stroke-dasharray="440.48218716747124,70.30991616757407" stroke-dashoffset="510.792103" stroke-miterlimit="10" stroke-width="1.2"/><path d="M8841.066 85.367s15.468-23.454 32.436-33.681c16.968-10.227 32.934-14.721 26.946-25.2-5.988-10.479-44.661-6.372-71.358 10.479-25.8 16.284-62.127 55.887-66.867 101.046-4.74 45.159.999 99.303 31.437 58.389 30.438-40.914 32.745-42.42 37.581-87.33 0 0 2.79-14.157 9.825-23.703z" fill="none" stroke-dasharray="443.5257623833285,70.79573267618869" stroke-dashoffset="514.321495" stroke-miterlimit="10" stroke-width="1.2"/><path d="M8920.2 127.067c40.632 19.767 47.88 48.537 47.88 48.537 1.9002 6.0165 4.2468 11.8827 7.02 17.55.5274 1.0947 1.3749 2.004 2.4303 2.6064 1.0551.6027 2.2689.8709 3.4797.7686 10.692-1.08 11.361-30.18 9.627-40.683-1.8-10.863-17.019-55.623-62.961-83.676M8867.517 206c9.063 4.347 18.675 7.629 28.665 9.351 44.748 7.716 99.15 5.571 60.336-27.507-23.118-19.713-32.952-28.53-46.518-34.086" fill="#00000000" stroke-dasharray="213.8359239726296,34.132562737242104" stroke-dashoffset="247.968487" stroke-width="1.2"/></g><g stroke="#c40808df" stroke-width="4"><path d="M9056.635 207.125s42.414-13.725 54.639-84.582c12.225-70.857 47.157-88.824 56.139-77.343 8.982 11.481 19.2 42.165-3.741 100.551s-74.1 79.839-85.83 82.584c-10.365 2.427-39.444 3.681-41.232-6.915-.1818-1.2015.0057-2.4306.5376-3.5232.5319-1.0929 1.3836-1.9986 2.4414-2.5968 5.4702-3.1464 11.1681-5.8791 17.046-8.175z" fill="none" stroke-dasharray="447.43749092340346,63.35461241164186" stroke-dashoffset="510.792103" stroke-miterlimit="10" stroke-width="1.2"/><path d="M9091.066 85.367s15.468-23.454 32.436-33.681c16.968-10.227 32.934-14.721 26.946-25.2-5.988-10.479-44.661-6.372-71.358 10.479-25.8 16.284-62.127 55.887-66.867 101.046-4.74 45.159.999 99.303 31.437 58.389 30.438-40.914 32.745-42.42 37.581-87.33 0 0 2.79-14.157 9.825-23.703z" fill="none" stroke-dasharray="450.5291248139292,63.79237024558806" stroke-dashoffset="514.321495" stroke-miterlimit="10" stroke-width="1.2"/><path d="M9170.2 127.067c40.632 19.767 47.88 48.537 47.88 48.537 1.9002 6.0165 4.2468 11.8827 7.02 17.55.5274 1.0947 1.3749 2.004 2.4303 2.6064 1.0551.6027 2.2689.8709 3.4797.7686 10.692-1.08 11.361-30.18 9.627-40.683-1.8-10.863-17.019-55.623-62.961-83.676M9117.517 206c9.063 4.347 18.675 7.629 28.665 9.351 44.748 7.716 99.15 5.571 60.336-27.507-23.118-19.713-32.952-28.53-46.518-34.086" fill="#00000000" stroke-dasharray="217.21243691342326,30.75604979644843" stroke-dashoffset="247.968487" stroke-width="1.2"/></g><g stroke="#c70808e3" stroke-width="4"><path d="M9306.635 207.125s42.414-13.725 54.639-84.582c12.225-70.857 47.157-88.824 56.139-77.343 8.982 11.481 19.2 42.165-3.741 100.551s-74.1 79.839-85.83 82.584c-10.365 2.427-39.444 3.681-41.232-6.915-.1818-1.2015.0057-2.4306.5376-3.5232.5319-1.0929 1.3836-1.9986 2.4414-2.5968 5.4702-3.1464 11.1681-5.8791 17.046-8.175z" fill="none" stroke-dasharray="453.86393102120394,56.92817231384141" stroke-dashoffset="510.792103" stroke-miterlimit="10" stroke-width="1.2"/><path d="M9341.066 85.367s15.468-23.454 32.436-33.681c16.968-10.227 32.934-14.721 26.946-25.2-5.988-10.479-44.661-6.372-71.358 10.479-25.8 16.284-62.127 55.887-66.867 101.046-4.74 45.159.999 99.303 31.437 58.389 30.438-40.914 32.745-42.42 37.581-87.33 0 0 2.79-14.157 9.825-23.703z" fill="none" stroke-dasharray="456.99996932665874,57.32152573285852" stroke-dashoffset="514.321495" stroke-miterlimit="10" stroke-width="1.2"/><path d="M9420.2 127.067c40.632 19.767 47.88 48.537 47.88 48.537 1.9002 6.0165 4.2468 11.8827 7.02 17.55.5274 1.0947 1.3749 2.004 2.4303 2.6064 1.0551.6027 2.2689.8709 3.4797.7686 10.692-1.08 11.361-30.18 9.627-40.683-1.8-10.863-17.019-55.623-62.961-83.676M9367.517 206c9.063 4.347 18.675 7.629 28.665 9.351 44.748 7.716 99.15 5.571 60.336-27.507-23.118-19.713-32.952-28.53-46.518-34.086" fill="#00000000" stroke-dasharray="220.3322083734334,27.636278336438302" stroke-dashoffset="247.968487" stroke-width="1.2"/></g><g stroke="#ca0808e6" stroke-width="4"><path d="M9556.635 207.125s42.414-13.725 54.639-84.582c12.225-70.857 47.157-88.824 56.139-77.343 8.982 11.481 19.2 42.165-3.741 100.551s-74.1 79.839-85.83 82.584c-10.365 2.427-39.444 3.681-41.232-6.915-.1818-1.2015.0057-2.4306.5376-3.5232.5319-1.0929 1.3836-1.9986 2.4414-2.5968 5.4702-3.1464 11.1681-5.8791 17.046-8.175z" fill="none" stroke-dasharray="459.79878778908426,50.99331554596106" stroke-dashoffset="510.792103" stroke-miterlimit="10" stroke-width="1.2"/><path d="M9591.066 85.367s15.468-23.454 32.436-33.681c16.968-10.227 32.934-14.721 26.946-25.2-5.988-10.479-44.661-6.372-71.358 10.479-25.8 16.284-62.127 55.887-66.867 101.046-4.74 45.159.999 99.303 31.437 58.389 30.438-40.914 32.745-42.42 37.581-87.33 0 0 2.79-14.157 9.825-23.703z" fill="none" stroke-dasharray="462.97583384353464,51.3456612159826" stroke-dashoffset="514.321495" stroke-miterlimit="10" stroke-width="1.2"/><path d="M9670.2 127.067c40.632 19.767 47.88 48.537 47.88 48.537 1.9002 6.0165 4.2468 11.8827 7.02 17.55.5274 1.0947 1.3749 2.004 2.4303 2.6064 1.0551.6027 2.2689.8709 3.4797.7686 10.692-1.08 11.361-30.18 9.627-40.683-1.8-10.863-17.019-55.623-62.961-83.676M9617.517 206c9.063 4.347 18.675 7.629 28.665 9.351 44.748 7.716 99.15 5.571 60.336-27.507-23.118-19.713-32.952-28.53-46.518-34.086" fill="#00000000" stroke-dasharray="223.21333641351552,24.755150296356167" stroke-dashoffset="247.968487" stroke-width="1.2"/></g><g stroke="#cc0808e8" stroke-width="4"><path d="M9806.635 207.125s42.414-13.725 54.639-84.582c12.225-70.857 47.157-88.824 56.139-77.343 8.982 11.481 19.2 42.165-3.741 100.551s-74.1 79.839-85.83 82.584c-10.365 2.427-39.444 3.681-41.232-6.915-.1818-1.2015.0057-2.4306.5376-3.5232.5319-1.0929 1.3836-1.9986 2.4414-2.5968 5.4702-3.1464 11.1681-5.8791 17.046-8.175z" fill="none" stroke-dasharray="465.2756835069039,45.51641982814144" stroke-dashoffset="510.792103" stroke-miterlimit="10" stroke-width="1.2"/><path d="M9841.066 85.367s15.468-23.454 32.436-33.681c16.968-10.227 32.934-14.721 26.946-25.2-5.988-10.479-44.661-6.372-71.358 10.479-25.8 16.284-62.127 55.887-66.867 101.046-4.74 45.159.999 99.303 31.437 58.389 30.438-40.914 32.745-42.42 37.581-87.33 0 0 2.79-14.157 9.825-23.703z" fill="none" stroke-dasharray="468.4905729624093,45.830922097107916" stroke-dashoffset="514.321495" stroke-miterlimit="10" stroke-width="1.2"/><path d="M9920.2 127.067c40.632 19.767 47.88 48.537 47.88 48.537 1.9002 6.0165 4.2468 11.8827 7.02 17.55.5274 1.0947 1.3749 2.004 2.4303 2.6064 1.0551.6027 2.2689.8709 3.4797.7686 10.692-1.08 11.361-30.18 9.627-40.683-1.8-10.863-17.019-55.623-62.961-83.676M9867.517 206c9.063 4.347 18.675 7.629 28.665 9.351 44.748 7.716 99.15 5.571 60.336-27.507-23.118-19.713-32.952-28.53-46.518-34.086" fill="#00000000" stroke-dasharray="225.87214326301117,22.09634344686052" stroke-dashoffset="247.968487" stroke-width="1.2"/></g><g stroke="#ce0808eb" stroke-width="4"><path d="M10056.635 207.125s42.414-13.725 54.639-84.582c12.225-70.857 47.157-88.824 56.139-77.343 8.982 11.481 19.2 42.165-3.741 100.551s-74.1 79.839-85.83 82.584c-10.365 2.427-39.444 3.681-41.232-6.915-.1818-1.2015.0057-2.4306.5376-3.5232.5319-1.0929 1.3836-1.9986 2.4414-2.5968 5.4702-3.1464 11.1681-5.8791 17.046-8.175z" fill="none" stroke-dasharray="470.32499911785266,40.46710421719269" stroke-dashoffset="510.792103" stroke-miterlimit="10" stroke-width="1.2"/><path d="M10091.066 85.367s15.468-23.454 32.436-33.681c16.968-10.227 32.934-14.721 26.946-25.2-5.988-10.479-44.661-6.372-71.358 10.479-25.8 16.284-62.127 55.887-66.867 101.046-4.74 45.159.999 99.303 31.437 58.389 30.438-40.914 32.745-42.42 37.581-87.33 0 0 2.79-14.157 9.825-23.703z" fill="none" stroke-dasharray="473.57477754798236,40.74671751153491" stroke-dashoffset="514.321495" stroke-miterlimit="10" stroke-width="1.2"/><path d="M10170.2 127.067c40.632 19.767 47.88 48.537 47.88 48.537 1.9002 6.0165 4.2468 11.8827 7.02 17.55.5274 1.0947 1.3749 2.004 2.4303 2.6064 1.0551.6027 2.2689.8709 3.4797.7686 10.692-1.08 11.361-30.18 9.627-40.683-1.8-10.863-17.019-55.623-62.961-83.676M10117.517 206c9.063 4.347 18.675 7.629 28.665 9.351 44.748 7.716 99.15 5.571 60.336-27.507-23.118-19.713-32.952-28.53-46.518-34.086" fill="#00000000" stroke-dasharray="228.32337761607283,19.645109093798844" stroke-dashoffset="247.968487" stroke-width="1.2"/></g><g stroke="#d00808ed" stroke-width="4"><path d="M10306.635 207.125s42.414-13.725 54.639-84.582c12.225-70.857 47.157-88.824 56.139-77.343 8.982 11.481 19.2 42.165-3.741 100.551s-74.1 79.839-85.83 82.584c-10.365 2.427-39.444 3.681-41.232-6.915-.1818-1.2015.0057-2.4306.5376-3.5232.5319-1.0929 1.3836-1.9986 2.4414-2.5968 5.4702-3.1464 11.1681-5.8791 17.046-8.175z" fill="none" stroke-dasharray="474.9742446117881,35.81785872325727" stroke-dashoffset="510.792103" stroke-miterlimit="10" stroke-width="1.2"/><path d="M10341.066 85.367s15.468-23.454 32.436-33.681c16.968-10.227 32.934-14.721 26.946-25.2-5.988-10.479-44.661-6.372-71.358 10.479-25.8 16.284-62.127 55.887-66.867 101.046-4.74 45.159.999 99.303 31.437 58.389 30.438-40.914 32.745-42.42 37.581-87.33 0 0 2.79-14.157 9.825-23.703z" fill="none" stroke-dasharray="478.25614767435474,36.06534738516253" stroke-dashoffset="514.321495" stroke-miterlimit="10" stroke-width="1.2"/><path d="M10420.2 127.067c40.632 19.767 47.88 48.537 47.88 48.537 1.9002 6.0165 4.2468 11.8827 7.02 17.55.5274 1.0947 1.3749 2.004 2.4303 2.6064 1.0551.6027 2.2689.8709 3.4797.7686 10.692-1.08 11.361-30.18 9.627-40.683-1.8-10.863-17.019-55.623-62.961-83.676M10367.517 206c9.063 4.347 18.675 7.629 28.665 9.351 44.748 7.716 99.15 5.571 60.336-27.507-23.118-19.713-32.952-28.53-46.518-34.086" fill="#00000000" stroke-dasharray="230.58039443748922,17.38809227238245" stroke-dashoffset="247.968487" stroke-width="1.2"/></g><g stroke="#d20808ef" stroke-width="4"><path d="M10556.635 207.125s42.414-13.725 54.639-84.582c12.225-70.857 47.157-88.824 56.139-77.343 8.982 11.481 19.2 42.165-3.741 100.551s-74.1 79.839-85.83 82.584c-10.365 2.427-39.444 3.681-41.232-6.915-.1818-1.2015.0057-2.4306.5376-3.5232.5319-1.0929 1.3836-1.9986 2.4414-2.5968 5.4702-3.1464 11.1681-5.8791 17.046-8.175z" fill="none" stroke-dasharray="479.2483858188194,31.543717516225975" stroke-dashoffset="510.792103" stroke-miterlimit="10" stroke-width="1.2"/><path d="M10591.066 85.367s15.468-23.454 32.436-33.681c16.968-10.227 32.934-14.721 26.946-25.2-5.988-10.479-44.661-6.372-71.358 10.479-25.8 16.284-62.127 55.887-66.867 101.046-4.74 45.159.999 99.303 31.437 58.389 30.438-40.914 32.745-42.42 37.581-87.33 0 0 2.79-14.157 9.825-23.703z" fill="none" stroke-dasharray="482.55982167664035,31.761673382876914" stroke-dashoffset="514.321495" stroke-miterlimit="10" stroke-width="1.2"/><path d="M10670.2 127.067c40.632 19.767 47.88 48.537 47.88 48.537 1.9002 6.0165 4.2468 11.8827 7.02 17.55.5274 1.0947 1.3749 2.004 2.4303 2.6064 1.0551.6027 2.2689.8709 3.4797.7686 10.692-1.08 11.361-30.18 9.627-40.683-1.8-10.863-17.019-55.623-62.961-83.676M10617.517 206c9.063 4.347 18.675 7.629 28.665 9.351 44.748 7.716 99.15 5.571 60.336-27.507-23.118-19.713-32.952-28.53-46.518-34.086" fill="#00000000" stroke-dasharray="232.65531360748403,15.313173102387646" stroke-dashoffset="247.968487" stroke-width="1.2"/></g><g stroke="#d40909f1" stroke-width="4"><path d="M10806.635 207.125s42.414-13.725 54.639-84.582c12.225-70.857 47.157-88.824 56.139-77.343 8.982 11.481 19.2 42.165-3.741 100.551s-74.1 79.839-85.83 82.584c-10.365 2.427-39.444 3.681-41.232-6.915-.1818-1.2015.0057-2.4306.5376-3.5232.5319-1.0929 1.3836-1.9986 2.4414-2.5968 5.4702-3.1464 11.1681-5.8791 17.046-8.175z" fill="none" stroke-dasharray="483.17013148886974,27.62197184617557" stroke-dashoffset="510.792103" stroke-miterlimit="10" stroke-width="1.2"/><path d="M10841.066 85.367s15.468-23.454 32.436-33.681c16.968-10.227 32.934-14.721 26.946-25.2-5.988-10.479-44.661-6.372-71.358 10.479-25.8 16.284-62.127 55.887-66.867 101.046-4.74 45.159.999 99.303 31.437 58.389 30.438-40.914 32.745-42.42 37.581-87.33 0 0 2.79-14.157 9.825-23.703z" fill="none" stroke-dasharray="486.508665214146,27.812829845371265" stroke-dashoffset="514.321495" stroke-miterlimit="10" stroke-width="1.2"/><path d="M10920.2 127.067c40.632 19.767 47.88 48.537 47.88 48.537 1.9002 6.0165 4.2468 11.8827 7.02 17.55.5274 1.0947 1.3749 2.004 2.4303 2.6064 1.0551.6027 2.2689.8709 3.4797.7686 10.692-1.08 11.361-30.18 9.627-40.683-1.8-10.863-17.019-55.623-62.961-83.676M10867.517 206c9.063 4.347 18.675 7.629 28.665 9.351 44.748 7.716 99.15 5.571 60.336-27.507-23.118-19.713-32.952-28.53-46.518-34.086" fill="#00000000" stroke-dasharray="234.55915928699628,13.409327422875416" stroke-dashoffset="247.968487" stroke-width="1.2"/></g><g stroke="#d50909f3" stroke-width="4"><path d="M11056.635 207.125s42.414-13.725 54.639-84.582c12.225-70.857 47.157-88.824 56.139-77.343 8.982 11.481 19.2 42.165-3.741 100.551s-74.1 79.839-85.83 82.584c-10.365 2.427-39.444 3.681-41.232-6.915-.1818-1.2015.0057-2.4306.5376-3.5232.5319-1.0929 1.3836-1.9986 2.4414-2.5968 5.4702-3.1464 11.1681-5.8791 17.046-8.175z" fill="none" stroke-dasharray="486.7601848930652,24.03191844198017" stroke-dashoffset="510.792103" stroke-miterlimit="10" stroke-width="1.2"/><path d="M11091.066 85.367s15.468-23.454 32.436-33.681c16.968-10.227 32.934-14.721 26.946-25.2-5.988-10.479-44.661-6.372-71.358 10.479-25.8 16.284-62.127 55.887-66.867 101.046-4.74 45.159.999 99.303 31.437 58.389 30.438-40.914 32.745-42.42 37.581-87.33 0 0 2.79-14.157 9.825-23.703z" fill="none" stroke-dasharray="490.123524610236,24.197970449281218" stroke-dashoffset="514.321495" stroke-miterlimit="10" stroke-width="1.2"/><path d="M11170.2 127.067c40.632 19.767 47.88 48.537 47.88 48.537 1.9002 6.0165 4.2468 11.8827 7.02 17.55.5274 1.0947 1.3749 2.004 2.4303 2.6064 1.0551.6027 2.2689.8709 3.4797.7686 10.692-1.08 11.361-30.18 9.627-40.683-1.8-10.863-17.019-55.623-62.961-83.676M11117.517 206c9.063 4.347 18.675 7.629 28.665 9.351 44.748 7.716 99.15 5.571 60.336-27.507-23.118-19.713-32.952-28.53-46.518-34.086" fill="#00000000" stroke-dasharray="236.30198205977126,11.666504650100418" stroke-dashoffset="247.968487" stroke-width="1.2"/></g><g stroke="#d70909f5" stroke-width="4"><path d="M11306.635 207.125s42.414-13.725 54.639-84.582c12.225-70.857 47.157-88.824 56.139-77.343 8.982 11.481 19.2 42.165-3.741 100.551s-74.1 79.839-85.83 82.584c-10.365 2.427-39.444 3.681-41.232-6.915-.1818-1.2015.0057-2.4306.5376-3.5232.5319-1.0929 1.3836-1.9986 2.4414-2.5968 5.4702-3.1464 11.1681-5.8791 17.046-8.175z" fill="none" stroke-dasharray="490.03746412088793,20.754639214157404" stroke-dashoffset="510.792103" stroke-miterlimit="10" stroke-width="1.2"/><path d="M11341.066 85.367s15.468-23.454 32.436-33.681c16.968-10.227 32.934-14.721 26.946-25.2-5.988-10.479-44.661-6.372-71.358 10.479-25.8 16.284-62.127 55.887-66.867 101.046-4.74 45.159.999 99.303 31.437 58.389 30.438-40.914 32.745-42.42 37.581-87.33 0 0 2.79-14.157 9.825-23.703z" fill="none" stroke-dasharray="493.4234486716612,20.898046387856013" stroke-dashoffset="514.321495" stroke-miterlimit="10" stroke-width="1.2"/><path d="M11420.2 127.067c40.632 19.767 47.88 48.537 47.88 48.537 1.9002 6.0165 4.2468 11.8827 7.02 17.55.5274 1.0947 1.3749 2.004 2.4303 2.6064 1.0551.6027 2.2689.8709 3.4797.7686 10.692-1.08 11.361-30.18 9.627-40.683-1.8-10.863-17.019-55.623-62.961-83.676M11367.517 206c9.063 4.347 18.675 7.629 28.665 9.351 44.748 7.716 99.15 5.571 60.336-27.507-23.118-19.713-32.952-28.53-46.518-34.086" fill="#00000000" stroke-dasharray="237.89296587753765,10.075520832334043" stroke-dashoffset="247.968487" stroke-width="1.2"/></g><g stroke="#d80909f6" stroke-width="4"><path d="M11556.635 207.125s42.414-13.725 54.639-84.582c12.225-70.857 47.157-88.824 56.139-77.343 8.982 11.481 19.2 42.165-3.741 100.551s-74.1 79.839-85.83 82.584c-10.365 2.427-39.444 3.681-41.232-6.915-.1818-1.2015.0057-2.4306.5376-3.5232.5319-1.0929 1.3836-1.9986 2.4414-2.5968 5.4702-3.1464 11.1681-5.8791 17.046-8.175z" fill="none" stroke-dasharray="493.01929497111456,17.772808363930764" stroke-dashoffset="510.792103" stroke-miterlimit="10" stroke-width="1.2"/><path d="M11591.066 85.367s15.468-23.454 32.436-33.681c16.968-10.227 32.934-14.721 26.946-25.2-5.988-10.479-44.661-6.372-71.358 10.479-25.8 16.284-62.127 55.887-66.867 101.046-4.74 45.159.999 99.303 31.437 58.389 30.438-40.914 32.745-42.42 37.581-87.33 0 0 2.79-14.157 9.825-23.703z" fill="none" stroke-dasharray="496.42588291230413,17.895612147213093" stroke-dashoffset="514.321495" stroke-miterlimit="10" stroke-width="1.2"/><path d="M11670.2 127.067c40.632 19.767 47.88 48.537 47.88 48.537 1.9002 6.0165 4.2468 11.8827 7.02 17.55.5274 1.0947 1.3749 2.004 2.4303 2.6064 1.0551.6027 2.2689.8709 3.4797.7686 10.692-1.08 11.361-30.18 9.627-40.683-1.8-10.863-17.019-55.623-62.961-83.676M11617.517 206c9.063 4.347 18.675 7.629 28.665 9.351 44.748 7.716 99.15 5.571 60.336-27.507-23.118-19.713-32.952-28.53-46.518-34.086" fill="#00000000" stroke-dasharray="239.34052170059724,8.627965009274433" stroke-dashoffset="247.968487" stroke-width="1.2"/></g><g stroke="#d90909f7" stroke-width="4"><path d="M11806.635 207.125s42.414-13.725 54.639-84.582c12.225-70.857 47.157-88.824 56.139-77.343 8.982 11.481 19.2 42.165-3.741 100.551s-74.1 79.839-85.83 82.584c-10.365 2.427-39.444 3.681-41.232-6.915-.1818-1.2015.0057-2.4306.5376-3.5232.5319-1.0929 1.3836-1.9986 2.4414-2.5968 5.4702-3.1464 11.1681-5.8791 17.046-8.175z" fill="none" stroke-dasharray="495.72157996472583,15.070523370319497" stroke-dashoffset="510.792103" stroke-miterlimit="10" stroke-width="1.2"/><path d="M11841.066 85.367s15.468-23.454 32.436-33.681c16.968-10.227 32.934-14.721 26.946-25.2-5.988-10.479-44.661-6.372-71.358 10.479-25.8 16.284-62.127 55.887-66.867 101.046-4.74 45.159.999 99.303 31.437 58.389 30.438-40.914 32.745-42.42 37.581-87.33 0 0 2.79-14.157 9.825-23.703z" fill="none" stroke-dasharray="499.14683973390834,15.174655325608903" stroke-dashoffset="514.321495" stroke-miterlimit="10" stroke-width="1.2"/><path d="M11920.2 127.067c40.632 19.767 47.88 48.537 47.88 48.537 1.9002 6.0165 4.2468 11.8827 7.02 17.55.5274 1.0947 1.3749 2.004 2.4303 2.6064 1.0551.6027 2.2689.8709 3.4797.7686 10.692-1.08 11.361-30.18 9.627-40.683-1.8-10.863-17.019-55.623-62.961-83.676M11867.517 206c9.063 4.347 18.675 7.629 28.665 9.351 44.748 7.716 99.15 5.571 60.336-27.507-23.118-19.713-32.952-28.53-46.518-34.086" fill="#00000000" stroke-dasharray="240.6523695466182,7.316117163253501" stroke-dashoffset="247.968487" stroke-width="1.2"/></g><g stroke="#da0909f9" stroke-width="4"><path d="M12056.635 207.125s42.414-13.725 54.639-84.582c12.225-70.857 47.157-88.824 56.139-77.343 8.982 11.481 19.2 42.165-3.741 100.551s-74.1 79.839-85.83 82.584c-10.365 2.427-39.444 3.681-41.232-6.915-.1818-1.2015.0057-2.4306.5376-3.5232.5319-1.0929 1.3836-1.9986 2.4414-2.5968 5.4702-3.1464 11.1681-5.8791 17.046-8.175z" fill="none" stroke-dasharray="498.1589466117878,12.63315672325749" stroke-dashoffset="510.792103" stroke-miterlimit="10" stroke-width="1.2"/><path d="M12091.066 85.367s15.468-23.454 32.436-33.681c16.968-10.227 32.934-14.721 26.946-25.2-5.988-10.479-44.661-6.372-71.358 10.479-25.8 16.284-62.127 55.887-66.867 101.046-4.74 45.159.999 99.303 31.437 58.389 30.438-40.914 32.745-42.42 37.581-87.33 0 0 2.79-14.157 9.825-23.703z" fill="none" stroke-dasharray="501.6010477174309,12.720447342086372" stroke-dashoffset="514.321495" stroke-miterlimit="10" stroke-width="1.2"/><path d="M12170.2 127.067c40.632 19.767 47.88 48.537 47.88 48.537 1.9002 6.0165 4.2468 11.8827 7.02 17.55.5274 1.0947 1.3749 2.004 2.4303 2.6064 1.0551.6027 2.2689.8709 3.4797.7686 10.692-1.08 11.361-30.18 9.627-40.683-1.8-10.863-17.019-55.623-62.961-83.676M12117.517 206c9.063 4.347 18.675 7.629 28.665 9.351 44.748 7.716 99.15 5.571 60.336-27.507-23.118-19.713-32.952-28.53-46.518-34.086" fill="#00000000" stroke-dasharray="241.83561046808686,6.13287624178483" stroke-dashoffset="247.968487" stroke-width="1.2"/></g><g stroke="#db0909fa" stroke-width="4"><path d="M12306.635 207.125s42.414-13.725 54.639-84.582c12.225-70.857 47.157-88.824 56.139-77.343 8.982 11.481 19.2 42.165-3.741 100.551s-74.1 79.839-85.83 82.584c-10.365 2.427-39.444 3.681-41.232-6.915-.1818-1.2015.0057-2.4306.5376-3.5232.5319-1.0929 1.3836-1.9986 2.4414-2.5968 5.4702-3.1464 11.1681-5.8791 17.046-8.175z" fill="none" stroke-dasharray="500.3448776782524,10.447225656792956" stroke-dashoffset="510.792103" stroke-miterlimit="10" stroke-width="1.2"/><path d="M12341.066 85.367s15.468-23.454 32.436-33.681c16.968-10.227 32.934-14.721 26.946-25.2-5.988-10.479-44.661-6.372-71.358 10.479-25.8 16.284-62.127 55.887-66.867 101.046-4.74 45.159.999 99.303 31.437 58.389 30.438-40.914 32.745-42.42 37.581-87.33 0 0 2.79-14.157 9.825-23.703z" fill="none" stroke-dasharray="503.8020827899399,10.519412269577355" stroke-dashoffset="514.321495" stroke-miterlimit="10" stroke-width="1.2"/><path d="M12420.2 127.067c40.632 19.767 47.88 48.537 47.88 48.537 1.9002 6.0165 4.2468 11.8827 7.02 17.55.5274 1.0947 1.3749 2.004 2.4303 2.6064 1.0551.6027 2.2689.8709 3.4797.7686 10.692-1.08 11.361-30.18 9.627-40.683-1.8-10.863-17.019-55.623-62.961-83.676M12367.517 206c9.063 4.347 18.675 7.629 28.665 9.351 44.748 7.716 99.15 5.571 60.336-27.507-23.118-19.713-32.952-28.53-46.518-34.086" fill="#00000000" stroke-dasharray="242.89678979146368,5.0716969184080085" stroke-dashoffset="247.968487" stroke-width="1.2"/></g><g stroke="#dc0909fb" stroke-width="4"><path d="M12556.635 207.125s42.414-13.725 54.639-84.582c12.225-70.857 47.157-88.824 56.139-77.343 8.982 11.481 19.2 42.165-3.741 100.551s-74.1 79.839-85.83 82.584c-10.365 2.427-39.444 3.681-41.232-6.915-.1818-1.2015.0057-2.4306.5376-3.5232.5319-1.0929 1.3836-1.9986 2.4414-2.5968 5.4702-3.1464 11.1681-5.8791 17.046-8.175z" fill="none" stroke-dasharray="502.2918258409012,8.50027749414416" stroke-dashoffset="510.792103" stroke-miterlimit="10" stroke-width="1.2"/><path d="M12591.066 85.367s15.468-23.454 32.436-33.681c16.968-10.227 32.934-14.721 26.946-25.2-5.988-10.479-44.661-6.372-71.358 10.479-25.8 16.284-62.127 55.887-66.867 101.046-4.74 45.159.999 99.303 31.437 58.389 30.438-40.914 32.745-42.42 37.581-87.33 0 0 2.79-14.157 9.825-23.703z" fill="none" stroke-dasharray="505.76248367178374,8.559011387733484" stroke-dashoffset="514.321495" stroke-miterlimit="10" stroke-width="1.2"/><path d="M12670.2 127.067c40.632 19.767 47.88 48.537 47.88 48.537 1.9002 6.0165 4.2468 11.8827 7.02 17.55.5274 1.0947 1.3749 2.004 2.4303 2.6064 1.0551.6027 2.2689.8709 3.4797.7686 10.692-1.08 11.361-30.18 9.627-40.683-1.8-10.863-17.019-55.623-62.961-83.676M12617.517 206c9.063 4.347 18.675 7.629 28.665 9.351 44.748 7.716 99.15 5.571 60.336-27.507-23.118-19.713-32.952-28.53-46.518-34.086" fill="#00000000" stroke-dasharray="243.8419527774269,4.126533932444786" stroke-dashoffset="247.968487" stroke-width="1.2"/></g><g stroke="#dd0909fc" stroke-width="4"><path d="M12806.635 207.125s42.414-13.725 54.639-84.582c12.225-70.857 47.157-88.824 56.139-77.343 8.982 11.481 19.2 42.165-3.741 100.551s-74.1 79.839-85.83 82.584c-10.365 2.427-39.444 3.681-41.232-6.915-.1818-1.2015.0057-2.4306.5376-3.5232.5319-1.0929 1.3836-1.9986 2.4414-2.5968 5.4702-3.1464 11.1681-5.8791 17.046-8.175z" fill="none" stroke-dasharray="504.01131479696716,6.780788538078196" stroke-dashoffset="510.792103" stroke-miterlimit="10" stroke-width="1.2"/><path d="M12841.066 85.367s15.468-23.454 32.436-33.681c16.968-10.227 32.934-14.721 26.946-25.2-5.988-10.479-44.661-6.372-71.358 10.479-25.8 16.284-62.127 55.887-66.867 101.046-4.74 45.159.999 99.303 31.437 58.389 30.438-40.914 32.745-42.42 37.581-87.33 0 0 2.79-14.157 9.825-23.703z" fill="none" stroke-dasharray="507.4938536848438,6.827641374673418" stroke-dashoffset="514.321495" stroke-miterlimit="10" stroke-width="1.2"/><path d="M12920.2 127.067c40.632 19.767 47.88 48.537 47.88 48.537 1.9002 6.0165 4.2468 11.8827 7.02 17.55.5274 1.0947 1.3749 2.004 2.4303 2.6064 1.0551.6027 2.2689.8709 3.4797.7686 10.692-1.08 11.361-30.18 9.627-40.683-1.8-10.863-17.019-55.623-62.961-83.676M12867.517 206c9.063 4.347 18.675 7.629 28.665 9.351 44.748 7.716 99.15 5.571 60.336-27.507-23.118-19.713-32.952-28.53-46.518-34.086" fill="#00000000" stroke-dasharray="244.67669370542112,3.2917930044505668" stroke-dashoffset="247.968487" stroke-width="1.2"/></g><g stroke="#de0909fc" stroke-width="4"><path d="M13056.635 207.125s42.414-13.725 54.639-84.582c12.225-70.857 47.157-88.824 56.139-77.343 8.982 11.481 19.2 42.165-3.741 100.551s-74.1 79.839-85.83 82.584c-10.365 2.427-39.444 3.681-41.232-6.915-.1818-1.2015.0057-2.4306.5376-3.5232.5319-1.0929 1.3836-1.9986 2.4414-2.5968 5.4702-3.1464 11.1681-5.8791 17.046-8.175z" fill="none" stroke-dasharray="505.5140286110728,5.278074723972559" stroke-dashoffset="510.792103" stroke-miterlimit="10" stroke-width="1.2"/><path d="M13091.066 85.367s15.468-23.454 32.436-33.681c16.968-10.227 32.934-14.721 26.946-25.2-5.988-10.479-44.661-6.372-71.358 10.479-25.8 16.284-62.127 55.887-66.867 101.046-4.74 45.159.999 99.303 31.437 58.389 30.438-40.914 32.745-42.42 37.581-87.33 0 0 2.79-14.157 9.825-23.703z" fill="none" stroke-dasharray="509.0069507168284,5.314544342688873" stroke-dashoffset="514.321495" stroke-miterlimit="10" stroke-width="1.2"/><path d="M13170.2 127.067c40.632 19.767 47.88 48.537 47.88 48.537 1.9002 6.0165 4.2468 11.8827 7.02 17.55.5274 1.0947 1.3749 2.004 2.4303 2.6064 1.0551.6027 2.2689.8709 3.4797.7686 10.692-1.08 11.361-30.18 9.627-40.683-1.8-10.863-17.019-55.623-62.961-83.676M13117.517 206c9.063 4.347 18.675 7.629 28.665 9.351 44.748 7.716 99.15 5.571 60.336-27.507-23.118-19.713-32.952-28.53-46.518-34.086" fill="#00000000" stroke-dasharray="245.4061992479087,2.562287461963007" stroke-dashoffset="247.968487" stroke-width="1.2"/></g><g stroke="#de0909fd" stroke-width="4"><path d="M13306.635 207.125s42.414-13.725 54.639-84.582c12.225-70.857 47.157-88.824 56.139-77.343 8.982 11.481 19.2 42.165-3.741 100.551s-74.1 79.839-85.83 82.584c-10.365 2.427-39.444 3.681-41.232-6.915-.1818-1.2015.0057-2.4306.5376-3.5232.5319-1.0929 1.3836-1.9986 2.4414-2.5968 5.4702-3.1464 11.1681-5.8791 17.046-8.175z" fill="none" stroke-dasharray="506.80989083464686,3.9822125003984477" stroke-dashoffset="510.792103" stroke-miterlimit="10" stroke-width="1.2"/><path d="M13341.066 85.367s15.468-23.454 32.436-33.681c16.968-10.227 32.934-14.721 26.946-25.2-5.988-10.479-44.661-6.372-71.358 10.479-25.8 16.284-62.127 55.887-66.867 101.046-4.74 45.159.999 99.303 31.437 58.389 30.438-40.914 32.745-42.42 37.581-87.33 0 0 2.79-14.157 9.825-23.703z" fill="none" stroke-dasharray="510.31176688737634,4.009728172140882" stroke-dashoffset="514.321495" stroke-miterlimit="10" stroke-width="1.2"/><path d="M13420.2 127.067c40.632 19.767 47.88 48.537 47.88 48.537 1.9002 6.0165 4.2468 11.8827 7.02 17.55.5274 1.0947 1.3749 2.004 2.4303 2.6064 1.0551.6027 2.2689.8709 3.4797.7686 10.692-1.08 11.361-30.18 9.627-40.683-1.8-10.863-17.019-55.623-62.961-83.676M13367.517 206c9.063 4.347 18.675 7.629 28.665 9.351 44.748 7.716 99.15 5.571 60.336-27.507-23.118-19.713-32.952-28.53-46.518-34.086" fill="#00000000" stroke-dasharray="246.03528687958138,1.9331998302903044" stroke-dashoffset="247.968487" stroke-width="1.2"/></g><g stroke="#df0909fe" stroke-width="4"><path d="M13556.635 207.125s42.414-13.725 54.639-84.582c12.225-70.857 47.157-88.824 56.139-77.343 8.982 11.481 19.2 42.165-3.741 100.551s-74.1 79.839-85.83 82.584c-10.365 2.427-39.444 3.681-41.232-6.915-.1818-1.2015.0057-2.4306.5376-3.5232.5319-1.0929 1.3836-1.9986 2.4414-2.5968 5.4702-3.1464 11.1681-5.8791 17.046-8.175z" fill="none" stroke-dasharray="507.9081347189748,2.8839686160705496" stroke-dashoffset="510.792103" stroke-miterlimit="10" stroke-width="1.2"/><path d="M13591.066 85.367s15.468-23.454 32.436-33.681c16.968-10.227 32.934-14.721 26.946-25.2-5.988-10.479-44.661-6.372-71.358 10.479-25.8 16.284-62.127 55.887-66.867 101.046-4.74 45.159.999 99.303 31.437 58.389 30.438-40.914 32.745-42.42 37.581-87.33 0 0 2.79-14.157 9.825-23.703z" fill="none" stroke-dasharray="511.41759924625484,2.903895813262397" stroke-dashoffset="514.321495" stroke-miterlimit="10" stroke-width="1.2"/><path d="M13670.2 127.067c40.632 19.767 47.88 48.537 47.88 48.537 1.9002 6.0165 4.2468 11.8827 7.02 17.55.5274 1.0947 1.3749 2.004 2.4303 2.6064 1.0551.6027 2.2689.8709 3.4797.7686 10.692-1.08 11.361-30.18 9.627-40.683-1.8-10.863-17.019-55.623-62.961-83.676M13617.517 206c9.063 4.347 18.675 7.629 28.665 9.351 44.748 7.716 99.15 5.571 60.336-27.507-23.118-19.713-32.952-28.53-46.518-34.086" fill="#00000000" stroke-dasharray="246.5684389628988,1.4000477469728962" stroke-dashoffset="247.968487" stroke-width="1.2"/></g><g stroke="#df0909fe" stroke-width="4"><path d="M13806.635 207.125s42.414-13.725 54.639-84.582c12.225-70.857 47.157-88.824 56.139-77.343 8.982 11.481 19.2 42.165-3.741 100.551s-74.1 79.839-85.83 82.584c-10.365 2.427-39.444 3.681-41.232-6.915-.1818-1.2015.0057-2.4306.5376-3.5232.5319-1.0929 1.3836-1.9986 2.4414-2.5968 5.4702-3.1464 11.1681-5.8791 17.046-8.175z" fill="none" stroke-dasharray="508.81736565894965,1.9747376760956665" stroke-dashoffset="510.792103" stroke-miterlimit="10" stroke-width="1.2"/><path d="M13841.066 85.367s15.468-23.454 32.436-33.681c16.968-10.227 32.934-14.721 26.946-25.2-5.988-10.479-44.661-6.372-71.358 10.479-25.8 16.284-62.127 55.887-66.867 101.046-4.74 45.159.999 99.303 31.437 58.389 30.438-40.914 32.745-42.42 37.581-87.33 0 0 2.79-14.157 9.825-23.703z" fill="none" stroke-dasharray="512.3331126485745,1.9883824109427974" stroke-dashoffset="514.321495" stroke-miterlimit="10" stroke-width="1.2"/><path d="M13920.2 127.067c40.632 19.767 47.88 48.537 47.88 48.537 1.9002 6.0165 4.2468 11.8827 7.02 17.55.5274 1.0947 1.3749 2.004 2.4303 2.6064 1.0551.6027 2.2689.8709 3.4797.7686 10.692-1.08 11.361-30.18 9.627-40.683-1.8-10.863-17.019-55.623-62.961-83.676M13867.517 206c9.063 4.347 18.675 7.629 28.665 9.351 44.748 7.716 99.15 5.571 60.336-27.507-23.118-19.713-32.952-28.53-46.518-34.086" fill="#00000000" stroke-dasharray="247.00983306195258,0.9586536479191001" stroke-dashoffset="247.968487" stroke-width="1.2"/></g><g stroke="#df0909fe" stroke-width="4"><path d="M14056.635 207.125s42.414-13.725 54.639-84.582c12.225-70.857 47.157-88.824 56.139-77.343 8.982 11.481 19.2 42.165-3.741 100.551s-74.1 79.839-85.83 82.584c-10.365 2.427-39.444 3.681-41.232-6.915-.1818-1.2015.0057-2.4306.5376-3.5232.5319-1.0929 1.3836-1.9986 2.4414-2.5968 5.4702-3.1464 11.1681-5.8791 17.046-8.175z" fill="none" stroke-dasharray="509.5456168467583,1.2464864882869924" stroke-dashoffset="510.792103" stroke-miterlimit="10" stroke-width="1.2"/><path d="M14091.066 85.367s15.468-23.454 32.436-33.681c16.968-10.227 32.934-14.721 26.946-25.2-5.988-10.479-44.661-6.372-71.358 10.479-25.8 16.284-62.127 55.887-66.867 101.046-4.74 45.159.999 99.303 31.437 58.389 30.438-40.914 32.745-42.42 37.581-87.33 0 0 2.79-14.157 9.825-23.703z" fill="none" stroke-dasharray="513.0663957930223,1.2550992664949994" stroke-dashoffset="514.321495" stroke-miterlimit="10" stroke-width="1.2"/><path d="M14170.2 127.067c40.632 19.767 47.88 48.537 47.88 48.537 1.9002 6.0165 4.2468 11.8827 7.02 17.55.5274 1.0947 1.3749 2.004 2.4303 2.6064 1.0551.6027 2.2689.8709 3.4797.7686 10.692-1.08 11.361-30.18 9.627-40.683-1.8-10.863-17.019-55.623-62.961-83.676M14117.517 206c9.063 4.347 18.675 7.629 28.665 9.351 44.748 7.716 99.15 5.571 60.336-27.507-23.118-19.713-32.952-28.53-46.518-34.086" fill="#00000000" stroke-dasharray="247.36336896003425,0.6051177498374242" stroke-dashoffset="247.968487" stroke-width="1.2"/></g><g stroke="#e00909" stroke-width="4"><path d="M14306.635 207.125s42.414-13.725 54.639-84.582c12.225-70.857 47.157-88.824 56.139-77.343 8.982 11.481 19.2 42.165-3.741 100.551s-74.1 79.839-85.83 82.584c-10.365 2.427-39.444 3.681-41.232-6.915-.1818-1.2015.0057-2.4306.5376-3.5232.5319-1.0929 1.3836-1.9986 2.4414-2.5968 5.4702-3.1464 11.1681-5.8791 17.046-8.175z" fill="none" stroke-dasharray="510.1003989796694,0.691704355375935" stroke-dashoffset="510.792103" stroke-miterlimit="10" stroke-width="1.2"/><path d="M14341.066 85.367s15.468-23.454 32.436-33.681c16.968-10.227 32.934-14.721 26.946-25.2-5.988-10.479-44.661-6.372-71.358 10.479-25.8 16.284-62.127 55.887-66.867 101.046-4.74 45.159.999 99.303 31.437 58.389 30.438-40.914 32.745-42.42 37.581-87.33 0 0 2.79-14.157 9.825-23.703z" fill="none" stroke-dasharray="513.625011273113,0.6964837864041465" stroke-dashoffset="514.321495" stroke-miterlimit="10" stroke-width="1.2"/><path d="M14420.2 127.067c40.632 19.767 47.88 48.537 47.88 48.537 1.9002 6.0165 4.2468 11.8827 7.02 17.55.5274 1.0947 1.3749 2.004 2.4303 2.6064 1.0551.6027 2.2689.8709 3.4797.7686 10.692-1.08 11.361-30.18 9.627-40.683-1.8-10.863-17.019-55.623-62.961-83.676M14367.517 206c9.063 4.347 18.675 7.629 28.665 9.351 44.748 7.716 99.15 5.571 60.336-27.507-23.118-19.713-32.952-28.53-46.518-34.086" fill="#00000000" stroke-dasharray="247.63269279071494,0.3357939191567566" stroke-dashoffset="247.968487" stroke-width="1.2"/></g><g stroke="#e00909" stroke-width="4"><path d="M14556.635 207.125s42.414-13.725 54.639-84.582c12.225-70.857 47.157-88.824 56.139-77.343 8.982 11.481 19.2 42.165-3.741 100.551s-74.1 79.839-85.83 82.584c-10.365 2.427-39.444 3.681-41.232-6.915-.1818-1.2015.0057-2.4306.5376-3.5232.5319-1.0929 1.3836-1.9986 2.4414-2.5968 5.4702-3.1464 11.1681-5.8791 17.046-8.175z" fill="none" stroke-dasharray="510.4887447506139,0.30335858443144975" stroke-dashoffset="510.792103" stroke-miterlimit="10" stroke-width="1.2"/><path d="M14591.066 85.367s15.468-23.454 32.436-33.681c16.968-10.227 32.934-14.721 26.946-25.2-5.988-10.479-44.661-6.372-71.358 10.479-25.8 16.284-62.127 55.887-66.867 101.046-4.74 45.159.999 99.303 31.437 58.389 30.438-40.914 32.745-42.42 37.581-87.33 0 0 2.79-14.157 9.825-23.703z" fill="none" stroke-dasharray="514.0160403751844,0.3054546843328564" stroke-dashoffset="514.321495" stroke-miterlimit="10" stroke-width="1.2"/><path d="M14670.2 127.067c40.632 19.767 47.88 48.537 47.88 48.537 1.9002 6.0165 4.2468 11.8827 7.02 17.55.5274 1.0947 1.3749 2.004 2.4303 2.6064 1.0551.6027 2.2689.8709 3.4797.7686 10.692-1.08 11.361-30.18 9.627-40.683-1.8-10.863-17.019-55.623-62.961-83.676M14617.517 206c9.063 4.347 18.675 7.629 28.665 9.351 44.748 7.716 99.15 5.571 60.336-27.507-23.118-19.713-32.952-28.53-46.518-34.086" fill="#00000000" stroke-dasharray="247.8212186361862,0.14726807368549696" stroke-dashoffset="247.968487" stroke-width="1.2"/></g><g stroke="#e00909" stroke-width="4"><path d="M14806.635 207.125s42.414-13.725 54.639-84.582c12.225-70.857 47.157-88.824 56.139-77.343 8.982 11.481 19.2 42.165-3.741 100.551s-74.1 79.839-85.83 82.584c-10.365 2.427-39.444 3.681-41.232-6.915-.1818-1.2015.0057-2.4306.5376-3.5232.5319-1.0929 1.3836-1.9986 2.4414-2.5968 5.4702-3.1464 11.1681-5.8791 17.046-8.175z" fill="none" stroke-dasharray="510.71724875153194,0.07485458351341606" stroke-dashoffset="510.792103" stroke-miterlimit="10" stroke-width="1.2"/><path d="M14841.066 85.367s15.468-23.454 32.436-33.681c16.968-10.227 32.934-14.721 26.946-25.2-5.988-10.479-44.661-6.372-71.358 10.479-25.8 16.284-62.127 55.887-66.867 101.046-4.74 45.159.999 99.303 31.437 58.389 30.438-40.914 32.745-42.42 37.581-87.33 0 0 2.79-14.157 9.825-23.703z" fill="none" stroke-dasharray="514.2461232574606,0.07537180205666702" stroke-dashoffset="514.321495" stroke-miterlimit="10" stroke-width="1.2"/><path d="M14920.2 127.067c40.632 19.767 47.88 48.537 47.88 48.537 1.9002 6.0165 4.2468 11.8827 7.02 17.55.5274 1.0947 1.3749 2.004 2.4303 2.6064 1.0551.6027 2.2689.8709 3.4797.7686 10.692-1.08 11.361-30.18 9.627-40.683-1.8-10.863-17.019-55.623-62.961-83.676M14867.517 206c9.063 4.347 18.675 7.629 28.665 9.351 44.748 7.716 99.15 5.571 60.336-27.507-23.118-19.713-32.952-28.53-46.518-34.086" fill="#00000000" stroke-dasharray="247.93214789868819,0.03633881118350873" stroke-dashoffset="247.968487" stroke-width="1.2"/></g><g stroke="#e00909" stroke-width="4"><path d="M15056.635 207.125s42.414-13.725 54.639-84.582c12.225-70.857 47.157-88.824 56.139-77.343 8.982 11.481 19.2 42.165-3.741 100.551s-74.1 79.839-85.83 82.584c-10.365 2.427-39.444 3.681-41.232-6.915-.1818-1.2015.0057-2.4306.5376-3.5232.5319-1.0929 1.3836-1.9986 2.4414-2.5968 5.4702-3.1464 11.1681-5.8791 17.046-8.175z" fill="none" stroke-miterlimit="10" stroke-width="1.2"/><path d="M15091.066 85.367s15.468-23.454 32.436-33.681c16.968-10.227 32.934-14.721 26.946-25.2-5.988-10.479-44.661-6.372-71.358 10.479-25.8 16.284-62.127 55.887-66.867 101.046-4.74 45.159.999 99.303 31.437 58.389 30.438-40.914 32.745-42.42 37.581-87.33 0 0 2.79-14.157 9.825-23.703z" fill="none" stroke-miterlimit="10" stroke-width="1.2"/><path d="M15170.2 127.067c40.632 19.767 47.88 48.537 47.88 48.537 1.9002 6.0165 4.2468 11.8827 7.02 17.55.5274 1.0947 1.3749 2.004 2.4303 2.6064 1.0551.6027 2.2689.8709 3.4797.7686 10.692-1.08 11.361-30.18 9.627-40.683-1.8-10.863-17.019-55.623-62.961-83.676M15117.517 206c9.063 4.347 18.675 7.629 28.665 9.351 44.748 7.716 99.15 5.571 60.336-27.507-23.118-19.713-32.952-28.53-46.518-34.086" fill="#00000000" stroke-width="1.2"/></g></svg>