<svg xmlns="http://www.w3.org/2000/svg" viewBox="0 0 12200 200" width="12200" height="200"><g fill="none" stroke="#ffffff" stroke-width="2" stroke-linecap="round" stroke-miterlimit="10"><path d="M41.1 36.5h124.4s19.7 2.5 19.7 15.9 2.5 53.5 2.5 53.5-1.3 14-20.1 14-135-2.5-135-2.5S15 117 12.1 104V58.5s-4.4-22 29-22z" stroke-dasharray="0,481.2276317056154" stroke-dashoffset="481.227632"/><path d="M32.8 117.4l8.6 30.9s4.5 15.9 31.8 15.9h70.3c3.7 0 7.3-1.4 10-3.9 3.1-2.9 6.5-7.7 7.9-15.5 2.9-15.9.8-23 9-24.9M67.3 102.7s82.4 5.1 88.5-31.8c0 0 9.2-26.7-62.1-26.7S30.1 88.4 61.9 93.8c31.8 5.4 5.4 8.9 5.4 8.9z" stroke-dasharray="0,197.11782729923925" stroke-dashoffset="197.117827"/></g><g fill="none" stroke="#ffffff" stroke-width="2" stroke-linecap="round" stroke-miterlimit="10"><path d="M241.1 36.5h124.4s19.7 2.5 19.7 15.9 2.5 53.5 2.5 53.5-1.3 14-20.1 14-135-2.5-135-2.5-17.6-.4-20.5-13.4V58.5s-4.4-22 29-22z" stroke-dasharray="0.28782272895196803,480.9398089766634" stroke-dashoffset="481.227632"/><path d="M232.8 117.4l8.6 30.9s4.5 15.9 31.8 15.9h70.3c3.7 0 7.3-1.4 10-3.9 3.1-2.9 6.5-7.7 7.9-15.5 2.9-15.9.8-23 9-24.9m-103.1-17.2s82.4 5.1 88.5-31.8c0 0 9.2-26.7-62.1-26.7s-63.6 44.2-31.8 49.6c31.8 5.4 5.4 8.9 5.4 8.9z" stroke-dasharray="0.11789637011753443,196.99993092912172" stroke-dashoffset="197.117827"/></g><g fill="none" stroke="#fffefe" stroke-width="2" stroke-linecap="round" stroke-miterlimit="10"><path d="M441.1 36.5h124.4s19.7 2.5 19.7 15.9 2.5 53.5 2.5 53.5-1.3 14-20.1 14-135-2.5-135-2.5-17.6-.4-20.5-13.4V58.5s-4.4-22 29-22z" stroke-dasharray="1.19126378309241,480.036367922523" stroke-dashoffset="481.227632"/><path d="M432.8 117.4l8.6 30.9s4.5 15.9 31.8 15.9h70.3c3.7 0 7.3-1.4 10-3.9 3.1-2.9 6.5-7.7 7.9-15.5 2.9-15.9.8-23 9-24.9m-103.1-17.2s82.4 5.1 88.5-31.8c0 0 9.2-26.7-62.1-26.7s-63.6 44.2-31.8 49.6c31.8 5.4 5.4 8.9 5.4 8.9z" stroke-dasharray="0.4879589474760162,196.62986835176324" stroke-dashoffset="197.117827"/></g><g fill="none" stroke="#fffefe" stroke-width="2" stroke-linecap="round" stroke-miterlimit="10"><path d="M641.1 36.5h124.4s19.7 2.5 19.7 15.9 2.5 53.5 2.5 53.5-1.3 14-20.1 14-135-2.5-135-2.5-17.6-.4-20.5-13.4V58.5s-4.4-22 29-22z" stroke-dasharray="2.7767855683478606,478.45084613726755" stroke-dashoffset="481.227632"/><path d="M632.8 117.4l8.6 30.9s4.5 15.9 31.8 15.9h70.3c3.7 0 7.3-1.4 10-3.9 3.1-2.9 6.5-7.7 7.9-15.5 2.9-15.9.8-23 9-24.9m-103.1-17.2s82.4 5.1 88.5-31.8c0 0 9.2-26.7-62.1-26.7s-63.6 44.2-31.8 49.6c31.8 5.4 5.4 8.9 5.4 8.9z" stroke-dasharray="1.1374116988432825,195.980415600396" stroke-dashoffset="197.117827"/></g><g fill="none" stroke="#fffdfd" stroke-width="2" stroke-linecap="round" stroke-miterlimit="10"><path d="M841.1 36.5h124.4s19.7 2.5 19.7 15.9 2.5 53.5 2.5 53.5-1.3 14-20.1 14-135-2.5-135-2.5-17.6-.4-20.5-13.4V58.5s-4.4-22 29-22z" stroke-dasharray="5.120625259441455,476.10700644617395" stroke-dashoffset="481.227632"/><path d="M832.8 117.4l8.6 30.9s4.5 15.9 31.8 15.9h70.3c3.7 0 7.3-1.4 10-3.9 3.1-2.9 6.5-7.7 7.9-15.5 2.9-15.9.8-23 9-24.9m-103.1-17.2s82.4 5.1 88.5-31.8c0 0 9.2-26.7-62.1-26.7s-63.6 44.2-31.8 49.6c31.8 5.4 5.4 8.9 5.4 8.9z" stroke-dasharray="2.0974824782550505,195.0203448209842" stroke-dashoffset="197.117827"/></g><g fill="none" stroke="#fffbfb" stroke-width="2" stroke-linecap="round" stroke-miterlimit="10"><path d="M1041.1 36.5h124.4s19.7 2.5 19.7 15.9 2.5 53.5 2.5 53.5-1.3 14-20.1 14-135-2.5-135-2.5-17.6-.4-20.5-13.4V58.5s-4.4-22 29-22z" stroke-dasharray="8.31027508752996,472.9173566180854" stroke-dashoffset="481.227632"/><path d="M1032.8 117.4l8.6 30.9s4.5 15.9 31.8 15.9h70.3c3.7 0 7.3-1.4 10-3.9 3.1-2.9 6.5-7.7 7.9-15.5 2.9-15.9.8-23 9-24.9m-103.1-17.2s82.4 5.1 88.5-31.8c0 0 9.2-26.7-62.1-26.7s-63.6 44.2-31.8 49.6c31.8 5.4 5.4 8.9 5.4 8.9z" stroke-dasharray="3.4040093743307507,193.71381792490848" stroke-dashoffset="197.117827"/></g><g fill="none" stroke="#fef9f9" stroke-width="2" stroke-linecap="round" stroke-miterlimit="10"><path d="M1241.1 36.5h124.4s19.7 2.5 19.7 15.9 2.5 53.5 2.5 53.5-1.3 14-20.1 14-135-2.5-135-2.5-17.6-.4-20.5-13.4V58.5s-4.4-22 29-22z" stroke-dasharray="12.445997404961739,468.7816343006537" stroke-dashoffset="481.227632"/><path d="M1232.8 117.4l8.6 30.9s4.5 15.9 31.8 15.9h70.3c3.7 0 7.3-1.4 10-3.9 3.1-2.9 6.5-7.7 7.9-15.5 2.9-15.9.8-23 9-24.9m-103.1-17.2s82.4 5.1 88.5-31.8c0 0 9.2-26.7-62.1-26.7s-63.6 44.2-31.8 49.6c31.8 5.4 5.4 8.9 5.4 8.9z" stroke-dasharray="5.098061302803199,192.01976599643606" stroke-dashoffset="197.117827"/></g><g fill="none" stroke="#fef7f7" stroke-width="2" stroke-linecap="round" stroke-miterlimit="10"><path d="M1441.1 36.5h124.4s19.7 2.5 19.7 15.9 2.5 53.5 2.5 53.5-1.3 14-20.1 14-135-2.5-135-2.5-17.6-.4-20.5-13.4V58.5s-4.4-22 29-22z" stroke-dasharray="17.642172906020008,463.5854587995954" stroke-dashoffset="481.227632"/><path d="M1432.8 117.4l8.6 30.9s4.5 15.9 31.8 15.9h70.3c3.7 0 7.3-1.4 10-3.9 3.1-2.9 6.5-7.7 7.9-15.5 2.9-15.9.8-23 9-24.9m-103.1-17.2s82.4 5.1 88.5-31.8c0 0 9.2-26.7-62.1-26.7s-63.6 44.2-31.8 49.6c31.8 5.4 5.4 8.9 5.4 8.9z" stroke-dasharray="7.226490257316598,189.89133704192264" stroke-dashoffset="197.117827"/></g><g fill="none" stroke="#fef4f4" stroke-width="2" stroke-linecap="round" stroke-miterlimit="10"><path d="M1641.1 36.5h124.4s19.7 2.5 19.7 15.9 2.5 53.5 2.5 53.5-1.3 14-20.1 14-135-2.5-135-2.5-17.6-.4-20.5-13.4V58.5s-4.4-22 29-22z" stroke-dasharray="24.028083981230477,457.1995477243849" stroke-dashoffset="481.227632"/><path d="M1632.8 117.4l8.6 30.9s4.5 15.9 31.8 15.9h70.3c3.7 0 7.3-1.4 10-3.9 3.1-2.9 6.5-7.7 7.9-15.5 2.9-15.9.8-23 9-24.9m-103.1-17.2s82.4 5.1 88.5-31.8c0 0 9.2-26.7-62.1-26.7s-63.6 44.2-31.8 49.6c31.8 5.4 5.4 8.9 5.4 8.9z" stroke-dasharray="9.842252182728387,187.27557511651085" stroke-dashoffset="197.117827"/></g><g fill="none" stroke="#fdf0f0" stroke-width="2" stroke-linecap="round" stroke-miterlimit="10"><path d="M1841.1 36.5h124.4s19.7 2.5 19.7 15.9 2.5 53.5 2.5 53.5-1.3 14-20.1 14-135-2.5-135-2.5-17.6-.4-20.5-13.4V58.5s-4.4-22 29-22z" stroke-dasharray="31.74740113413986,449.48023057147554" stroke-dashoffset="481.227632"/><path d="M1832.8 117.4l8.6 30.9s4.5 15.9 31.8 15.9h70.3c3.7 0 7.3-1.4 10-3.9 3.1-2.9 6.5-7.7 7.9-15.5 2.9-15.9.8-23 9-24.9m-103.1-17.2s82.4 5.1 88.5-31.8c0 0 9.2-26.7-62.1-26.7s-63.6 44.2-31.8 49.6c31.8 5.4 5.4 8.9 5.4 8.9z" stroke-dasharray="13.004196603962443,184.1136306952768" stroke-dashoffset="197.117827"/></g><g fill="none" stroke="#fdecec" stroke-width="2" stroke-linecap="round" stroke-miterlimit="10"><path d="M2041.1 36.5h124.4s19.7 2.5 19.7 15.9 2.5 53.5 2.5 53.5-1.3 14-20.1 14-135-2.5-135-2.5-17.6-.4-20.5-13.4V58.5s-4.4-22 29-22z" stroke-dasharray="40.95510935820537,440.27252234741" stroke-dashoffset="481.227632"/><path d="M2032.8 117.4l8.6 30.9s4.5 15.9 31.8 15.9h70.3c3.7 0 7.3-1.4 10-3.9 3.1-2.9 6.5-7.7 7.9-15.5 2.9-15.9.8-23 9-24.9m-103.1-17.2s82.4 5.1 88.5-31.8c0 0 9.2-26.7-62.1-26.7s-63.6 44.2-31.8 49.6c31.8 5.4 5.4 8.9 5.4 8.9z" stroke-dasharray="16.775807625341685,180.34201967389757" stroke-dashoffset="197.117827"/></g><g fill="none" stroke="#fce7e6" stroke-width="2" stroke-linecap="round" stroke-miterlimit="10"><path d="M2241.1 36.5h124.4s19.7 2.5 19.7 15.9 2.5 53.5 2.5 53.5-1.3 14-20.1 14-135-2.5-135-2.5-17.6-.4-20.5-13.4V58.5s-4.4-22 29-22z" stroke-dasharray="51.80985878341419,429.4177729222012" stroke-dashoffset="481.227632"/><path d="M2232.8 117.4l8.6 30.9s4.5 15.9 31.8 15.9h70.3c3.7 0 7.3-1.4 10-3.9 3.1-2.9 6.5-7.7 7.9-15.5 2.9-15.9.8-23 9-24.9m-103.1-17.2s82.4 5.1 88.5-31.8c0 0 9.2-26.7-62.1-26.7s-63.6 44.2-31.8 49.6c31.8 5.4 5.4 8.9 5.4 8.9z" stroke-dasharray="21.22207064434418,175.89575665489508" stroke-dashoffset="197.117827"/></g><g fill="none" stroke="#fce1e0" stroke-width="2" stroke-linecap="round" stroke-miterlimit="10"><path d="M2441.1 36.5h124.4s19.7 2.5 19.7 15.9 2.5 53.5 2.5 53.5-1.3 14-20.1 14-135-2.5-135-2.5-17.6-.4-20.5-13.4V58.5s-4.4-22 29-22z" stroke-dasharray="64.45888934448108,416.7687423611343" stroke-dashoffset="481.227632"/><path d="M2432.8 117.4l8.6 30.9s4.5 15.9 31.8 15.9h70.3c3.7 0 7.3-1.4 10-3.9 3.1-2.9 6.5-7.7 7.9-15.5 2.9-15.9.8-23 9-24.9m-103.1-17.2s82.4 5.1 88.5-31.8c0 0 9.2-26.7-62.1-26.7s-63.6 44.2-31.8 49.6c31.8 5.4 5.4 8.9 5.4 8.9z" stroke-dasharray="26.403297276742656,170.71453002249658" stroke-dashoffset="197.117827"/></g><g fill="none" stroke="#fbdbd9" stroke-width="2" stroke-linecap="round" stroke-miterlimit="10"><path d="M2641.1 36.5h124.4s19.7 2.5 19.7 15.9 2.5 53.5 2.5 53.5-1.3 14-20.1 14-135-2.5-135-2.5-17.6-.4-20.5-13.4V58.5s-4.4-22 29-22z" stroke-dasharray="79.01234974031276,402.2152819653026" stroke-dashoffset="481.227632"/><path d="M2632.8 117.4l8.6 30.9s4.5 15.9 31.8 15.9h70.3c3.7 0 7.3-1.4 10-3.9 3.1-2.9 6.5-7.7 7.9-15.5 2.9-15.9.8-23 9-24.9m-103.1-17.2s82.4 5.1 88.5-31.8c0 0 9.2-26.7-62.1-26.7s-63.6 44.2-31.8 49.6c31.8 5.4 5.4 8.9 5.4 8.9z" stroke-dasharray="32.3646060294096,164.75322126982965" stroke-dashoffset="197.117827"/></g><g fill="none" stroke="#fad3d2" stroke-width="2" stroke-linecap="round" stroke-miterlimit="10"><path d="M2841.1 36.5h124.4s19.7 2.5 19.7 15.9 2.5 53.5 2.5 53.5-1.3 14-20.1 14-135-2.5-135-2.5-17.6-.4-20.5-13.4V58.5s-4.4-22 29-22z" stroke-dasharray="95.50542687109727,385.7222048345181" stroke-dashoffset="481.227632"/><path d="M2832.8 117.4l8.6 30.9s4.5 15.9 31.8 15.9h70.3c3.7 0 7.3-1.4 10-3.9 3.1-2.9 6.5-7.7 7.9-15.5 2.9-15.9.8-23 9-24.9m-103.1-17.2s82.4 5.1 88.5-31.8c0 0 9.2-26.7-62.1-26.7s-63.6 44.2-31.8 49.6c31.8 5.4 5.4 8.9 5.4 8.9z" stroke-dasharray="39.12040996771674,157.9974173315225" stroke-dashoffset="197.117827"/></g><g fill="none" stroke="#f9cac9" stroke-width="2" stroke-linecap="round" stroke-miterlimit="10"><path d="M3041.1 36.5h124.4s19.7 2.5 19.7 15.9 2.5 53.5 2.5 53.5-1.3 14-20.1 14-135-2.5-135-2.5-17.6-.4-20.5-13.4V58.5s-4.4-22 29-22z" stroke-dasharray="113.8523751693932,367.37525653622225" stroke-dashoffset="481.227632"/><path d="M3032.8 117.4l8.6 30.9s4.5 15.9 31.8 15.9h70.3c3.7 0 7.3-1.4 10-3.9 3.1-2.9 6.5-7.7 7.9-15.5 2.9-15.9.8-23 9-24.9m-103.1-17.2s82.4 5.1 88.5-31.8c0 0 9.2-26.7-62.1-26.7s-63.6 44.2-31.8 49.6c31.8 5.4 5.4 8.9 5.4 8.9z" stroke-dasharray="46.635586461871,150.48224083736827" stroke-dashoffset="197.117827"/></g><g fill="none" stroke="#f8c1bf" stroke-width="2" stroke-linecap="round" stroke-miterlimit="10"><path d="M3241.1 36.5h124.4s19.7 2.5 19.7 15.9 2.5 53.5 2.5 53.5-1.3 14-20.1 14-135-2.5-135-2.5-17.6-.4-20.5-13.4V58.5s-4.4-22 29-22z" stroke-dasharray="133.80704521759762,347.4205864880178" stroke-dashoffset="481.227632"/><path d="M3232.8 117.4l8.6 30.9s4.5 15.9 31.8 15.9h70.3c3.7 0 7.3-1.4 10-3.9 3.1-2.9 6.5-7.7 7.9-15.5 2.9-15.9.8-23 9-24.9m-103.1-17.2s82.4 5.1 88.5-31.8c0 0 9.2-26.7-62.1-26.7s-63.6 44.2-31.8 49.6c31.8 5.4 5.4 8.9 5.4 8.9z" stroke-dasharray="54.80930913534683,142.30851816389244" stroke-dashoffset="197.117827"/></g><g fill="none" stroke="#f7b8b5" stroke-width="2" stroke-linecap="round" stroke-miterlimit="10"><path d="M3441.1 36.5h124.4s19.7 2.5 19.7 15.9 2.5 53.5 2.5 53.5-1.3 14-20.1 14-135-2.5-135-2.5-17.6-.4-20.5-13.4V58.5s-4.4-22 29-22z" stroke-dasharray="154.95434629281343,326.273285412802" stroke-dashoffset="481.227632"/><path d="M3432.8 117.4l8.6 30.9s4.5 15.9 31.8 15.9h70.3c3.7 0 7.3-1.4 10-3.9 3.1-2.9 6.5-7.7 7.9-15.5 2.9-15.9.8-23 9-24.9m-103.1-17.2s82.4 5.1 88.5-31.8c0 0 9.2-26.7-62.1-26.7s-63.6 44.2-31.8 49.6c31.8 5.4 5.4 8.9 5.4 8.9z" stroke-dasharray="63.471550799265735,133.6462764999735" stroke-dashoffset="197.117827"/></g><g fill="none" stroke="#f6adab" stroke-width="2" stroke-linecap="round" stroke-miterlimit="10"><path d="M3641.1 36.5h124.4s19.7 2.5 19.7 15.9 2.5 53.5 2.5 53.5-1.3 14-20.1 14-135-2.5-135-2.5-17.6-.4-20.5-13.4V58.5s-4.4-22 29-22z" stroke-dasharray="176.75284383410403,304.47478787151135" stroke-dashoffset="481.227632"/><path d="M3632.8 117.4l8.6 30.9s4.5 15.9 31.8 15.9h70.3c3.7 0 7.3-1.4 10-3.9 3.1-2.9 6.5-7.7 7.9-15.5 2.9-15.9.8-23 9-24.9m-103.1-17.2s82.4 5.1 88.5-31.8c0 0 9.2-26.7-62.1-26.7s-63.6 44.2-31.8 49.6c31.8 5.4 5.4 8.9 5.4 8.9z" stroke-dasharray="72.40053199366973,124.71729530556952" stroke-dashoffset="197.117827"/></g><g fill="none" stroke="#f5a3a0" stroke-width="2" stroke-linecap="round" stroke-miterlimit="10"><path d="M3841.1 36.5h124.4s19.7 2.5 19.7 15.9 2.5 53.5 2.5 53.5-1.3 14-20.1 14-135-2.5-135-2.5-17.6-.4-20.5-13.4V58.5s-4.4-22 29-22z" stroke-dasharray="198.62262126241828,282.6050104431971" stroke-dashoffset="481.227632"/><path d="M3832.8 117.4l8.6 30.9s4.5 15.9 31.8 15.9h70.3c3.7 0 7.3-1.4 10-3.9 3.1-2.9 6.5-7.7 7.9-15.5 2.9-15.9.8-23 9-24.9m-103.1-17.2s82.4 5.1 88.5-31.8c0 0 9.2-26.7-62.1-26.7s-63.6 44.2-31.8 49.6c31.8 5.4 5.4 8.9 5.4 8.9z" stroke-dasharray="81.35871046506806,115.75911683417118" stroke-dashoffset="197.117827"/></g><g fill="none" stroke="#f49996" stroke-width="2" stroke-linecap="round" stroke-miterlimit="10"><path d="M4041.1 36.5h124.4s19.7 2.5 19.7 15.9 2.5 53.5 2.5 53.5-1.3 14-20.1 14-135-2.5-135-2.5-17.6-.4-20.5-13.4V58.5s-4.4-22 29-22z" stroke-dasharray="220.0421718453453,261.1854598602701" stroke-dashoffset="481.227632"/><path d="M4032.8 117.4l8.6 30.9s4.5 15.9 31.8 15.9h70.3c3.7 0 7.3-1.4 10-3.9 3.1-2.9 6.5-7.7 7.9-15.5 2.9-15.9.8-23 9-24.9m-103.1-17.2s82.4 5.1 88.5-31.8c0 0 9.2-26.7-62.1-26.7s-63.6 44.2-31.8 49.6c31.8 5.4 5.4 8.9 5.4 8.9z" stroke-dasharray="90.13246948149876,106.98535781774049" stroke-dashoffset="197.117827"/></g><g fill="none" stroke="#f3908d" stroke-width="2" stroke-linecap="round" stroke-miterlimit="10"><path d="M4241.1 36.5h124.4s19.7 2.5 19.7 15.9 2.5 53.5 2.5 53.5-1.3 14-20.1 14-135-2.5-135-2.5-17.6-.4-20.5-13.4V58.5s-4.4-22 29-22z" stroke-dasharray="240.61381585280765,240.61381585280776" stroke-dashoffset="481.227632"/><path d="M4232.8 117.4l8.6 30.9s4.5 15.9 31.8 15.9h70.3c3.7 0 7.3-1.4 10-3.9 3.1-2.9 6.5-7.7 7.9-15.5 2.9-15.9.8-23 9-24.9m-103.1-17.2s82.4 5.1 88.5-31.8c0 0 9.2-26.7-62.1-26.7s-63.6 44.2-31.8 49.6c31.8 5.4 5.4 8.9 5.4 8.9z" stroke-dasharray="98.5589136496196,98.55891364961965" stroke-dashoffset="197.117827"/></g><g fill="none" stroke="#f28783" stroke-width="2" stroke-linecap="round" stroke-miterlimit="10"><path d="M4441.1 36.5h124.4s19.7 2.5 19.7 15.9 2.5 53.5 2.5 53.5-1.3 14-20.1 14-135-2.5-135-2.5-17.6-.4-20.5-13.4V58.5s-4.4-22 29-22z" stroke-dasharray="260.08207129068154,221.14556041493387" stroke-dashoffset="481.227632"/><path d="M4432.8 117.4l8.6 30.9s4.5 15.9 31.8 15.9h70.3c3.7 0 7.3-1.4 10-3.9 3.1-2.9 6.5-7.7 7.9-15.5 2.9-15.9.8-23 9-24.9m-103.1-17.2s82.4 5.1 88.5-31.8c0 0 9.2-26.7-62.1-26.7s-63.6 44.2-31.8 49.6c31.8 5.4 5.4 8.9 5.4 8.9z" stroke-dasharray="106.53339383401571,90.58443346522354" stroke-dashoffset="197.117827"/></g><g fill="none" stroke="#f17f7b" stroke-width="2" stroke-linecap="round" stroke-miterlimit="10"><path d="M4641.1 36.5h124.4s19.7 2.5 19.7 15.9 2.5 53.5 2.5 53.5-1.3 14-20.1 14-135-2.5-135-2.5-17.6-.4-20.5-13.4V58.5s-4.4-22 29-22z" stroke-dasharray="278.31638153510966,202.91125017050578" stroke-dashoffset="481.227632"/><path d="M4632.8 117.4l8.6 30.9s4.5 15.9 31.8 15.9h70.3c3.7 0 7.3-1.4 10-3.9 3.1-2.9 6.5-7.7 7.9-15.5 2.9-15.9.8-23 9-24.9m-103.1-17.2s82.4 5.1 88.5-31.8c0 0 9.2-26.7-62.1-26.7s-63.6 44.2-31.8 49.6c31.8 5.4 5.4 8.9 5.4 8.9z" stroke-dasharray="114.00243214535004,83.11539515388921" stroke-dashoffset="197.117827"/></g><g fill="none" stroke="#f07772" stroke-width="2" stroke-linecap="round" stroke-miterlimit="10"><path d="M4841.1 36.5h124.4s19.7 2.5 19.7 15.9 2.5 53.5 2.5 53.5-1.3 14-20.1 14-135-2.5-135-2.5-17.6-.4-20.5-13.4V58.5s-4.4-22 29-22z" stroke-dasharray="295.27874668966837,185.94888501594704" stroke-dashoffset="481.227632"/><path d="M4832.8 117.4l8.6 30.9s4.5 15.9 31.8 15.9h70.3c3.7 0 7.3-1.4 10-3.9 3.1-2.9 6.5-7.7 7.9-15.5 2.9-15.9.8-23 9-24.9m-103.1-17.2s82.4 5.1 88.5-31.8c0 0 9.2-26.7-62.1-26.7s-63.6 44.2-31.8 49.6c31.8 5.4 5.4 8.9 5.4 8.9z" stroke-dasharray="120.9504632741368,76.16736402510246" stroke-dashoffset="197.117827"/></g><g fill="none" stroke="#ef706b" stroke-width="2" stroke-linecap="round" stroke-miterlimit="10"><path d="M5041.1 36.5h124.4s19.7 2.5 19.7 15.9 2.5 53.5 2.5 53.5-1.3 14-20.1 14-135-2.5-135-2.5-17.6-.4-20.5-13.4V58.5s-4.4-22 29-22z" stroke-dasharray="310.9914892846333,170.23614242098208" stroke-dashoffset="481.227632"/><path d="M5032.8 117.4l8.6 30.9s4.5 15.9 31.8 15.9h70.3c3.7 0 7.3-1.4 10-3.9 3.1-2.9 6.5-7.7 7.9-15.5 2.9-15.9.8-23 9-24.9m-103.1-17.2s82.4 5.1 88.5-31.8c0 0 9.2-26.7-62.1-26.7s-63.6 44.2-31.8 49.6c31.8 5.4 5.4 8.9 5.4 8.9z" stroke-dasharray="127.3866308529894,69.73119644624985" stroke-dashoffset="197.117827"/></g><g fill="none" stroke="#ef6964" stroke-width="2" stroke-linecap="round" stroke-miterlimit="10"><path d="M5241.1 36.5h124.4s19.7 2.5 19.7 15.9 2.5 53.5 2.5 53.5-1.3 14-20.1 14-135-2.5-135-2.5-17.6-.4-20.5-13.4V58.5s-4.4-22 29-22z" stroke-dasharray="325.5118669416497,155.71576476396567" stroke-dashoffset="481.227632"/><path d="M5232.8 117.4l8.6 30.9s4.5 15.9 31.8 15.9h70.3c3.7 0 7.3-1.4 10-3.9 3.1-2.9 6.5-7.7 7.9-15.5 2.9-15.9.8-23 9-24.9m-103.1-17.2s82.4 5.1 88.5-31.8c0 0 9.2-26.7-62.1-26.7s-63.6 44.2-31.8 49.6c31.8 5.4 5.4 8.9 5.4 8.9z" stroke-dasharray="133.33438843534373,63.783438863895526" stroke-dashoffset="197.117827"/></g><g fill="none" stroke="#ee635e" stroke-width="2" stroke-linecap="round" stroke-miterlimit="10"><path d="M5441.1 36.5h124.4s19.7 2.5 19.7 15.9 2.5 53.5 2.5 53.5-1.3 14-20.1 14-135-2.5-135-2.5-17.6-.4-20.5-13.4V58.5s-4.4-22 29-22z" stroke-dasharray="338.9145385488767,142.31309315673872" stroke-dashoffset="481.227632"/><path d="M5432.8 117.4l8.6 30.9s4.5 15.9 31.8 15.9h70.3c3.7 0 7.3-1.4 10-3.9 3.1-2.9 6.5-7.7 7.9-15.5 2.9-15.9.8-23 9-24.9m-103.1-17.2s82.4 5.1 88.5-31.8c0 0 9.2-26.7-62.1-26.7s-63.6 44.2-31.8 49.6c31.8 5.4 5.4 8.9 5.4 8.9z" stroke-dasharray="138.82431738613585,58.293509913103414" stroke-dashoffset="197.117827"/></g><g fill="none" stroke="#ed5d58" stroke-width="2" stroke-linecap="round" stroke-miterlimit="10"><path d="M5641.1 36.5h124.4s19.7 2.5 19.7 15.9 2.5 53.5 2.5 53.5-1.3 14-20.1 14-135-2.5-135-2.5-17.6-.4-20.5-13.4V58.5s-4.4-22 29-22z" stroke-dasharray="351.28047972079685,129.94715198481856" stroke-dashoffset="481.227632"/><path d="M5632.8 117.4l8.6 30.9s4.5 15.9 31.8 15.9h70.3c3.7 0 7.3-1.4 10-3.9 3.1-2.9 6.5-7.7 7.9-15.5 2.9-15.9.8-23 9-24.9m-103.1-17.2s82.4 5.1 88.5-31.8c0 0 9.2-26.7-62.1-26.7s-63.6 44.2-31.8 49.6c31.8 5.4 5.4 8.9 5.4 8.9z" stroke-dasharray="143.88958649314804,53.22824080609119" stroke-dashoffset="197.117827"/></g><g fill="none" stroke="#ed5852" stroke-width="2" stroke-linecap="round" stroke-miterlimit="10"><path d="M5841.1 36.5h124.4s19.7 2.5 19.7 15.9 2.5 53.5 2.5 53.5-1.3 14-20.1 14-135-2.5-135-2.5-17.6-.4-20.5-13.4V58.5s-4.4-22 29-22z" stroke-dasharray="362.6904663284426,118.5371653771728" stroke-dashoffset="481.227632"/><path d="M5832.8 117.4l8.6 30.9s4.5 15.9 31.8 15.9h70.3c3.7 0 7.3-1.4 10-3.9 3.1-2.9 6.5-7.7 7.9-15.5 2.9-15.9.8-23 9-24.9m-103.1-17.2s82.4 5.1 88.5-31.8c0 0 9.2-26.7-62.1-26.7s-63.6 44.2-31.8 49.6c31.8 5.4 5.4 8.9 5.4 8.9z" stroke-dasharray="148.56328272634445,48.554544572894805" stroke-dashoffset="197.117827"/></g><g fill="none" stroke="#ec534d" stroke-width="2" stroke-linecap="round" stroke-miterlimit="10"><path d="M6041.1 36.5h124.4s19.7 2.5 19.7 15.9 2.5 53.5 2.5 53.5-1.3 14-20.1 14-135-2.5-135-2.5-17.6-.4-20.5-13.4V58.5s-4.4-22 29-22z" stroke-dasharray="373.2215329909498,108.00609871466558" stroke-dashoffset="481.227632"/><path d="M6032.8 117.4l8.6 30.9s4.5 15.9 31.8 15.9h70.3c3.7 0 7.3-1.4 10-3.9 3.1-2.9 6.5-7.7 7.9-15.5 2.9-15.9.8-23 9-24.9m-103.1-17.2s82.4 5.1 88.5-31.8c0 0 9.2-26.7-62.1-26.7s-63.6 44.2-31.8 49.6c31.8 5.4 5.4 8.9 5.4 8.9z" stroke-dasharray="152.87696058457422,44.24086671466502" stroke-dashoffset="197.117827"/></g><g fill="none" stroke="#ec4e49" stroke-width="2" stroke-linecap="round" stroke-miterlimit="10"><path d="M6241.1 36.5h124.4s19.7 2.5 19.7 15.9 2.5 53.5 2.5 53.5-1.3 14-20.1 14-135-2.5-135-2.5-17.6-.4-20.5-13.4V58.5s-4.4-22 29-22z" stroke-dasharray="382.94526372579185,98.28236797982355" stroke-dashoffset="481.227632"/><path d="M6232.8 117.4l8.6 30.9s4.5 15.9 31.8 15.9h70.3c3.7 0 7.3-1.4 10-3.9 3.1-2.9 6.5-7.7 7.9-15.5 2.9-15.9.8-23 9-24.9m-103.1-17.2s82.4 5.1 88.5-31.8c0 0 9.2-26.7-62.1-26.7s-63.6 44.2-31.8 49.6c31.8 5.4 5.4 8.9 5.4 8.9z" stroke-dasharray="156.85994192108117,40.257885378158086" stroke-dashoffset="197.117827"/></g><g fill="none" stroke="#eb4a44" stroke-width="2" stroke-linecap="round" stroke-miterlimit="10"><path d="M6441.1 36.5h124.4s19.7 2.5 19.7 15.9 2.5 53.5 2.5 53.5-1.3 14-20.1 14-135-2.5-135-2.5-17.6-.4-20.5-13.4V58.5s-4.4-22 29-22z" stroke-dasharray="391.92716137711557,89.30047032849984" stroke-dashoffset="481.227632"/><path d="M6432.8 117.4l8.6 30.9s4.5 15.9 31.8 15.9h70.3c3.7 0 7.3-1.4 10-3.9 3.1-2.9 6.5-7.7 7.9-15.5 2.9-15.9.8-23 9-24.9m-103.1-17.2s82.4 5.1 88.5-31.8c0 0 9.2-26.7-62.1-26.7s-63.6 44.2-31.8 49.6c31.8 5.4 5.4 8.9 5.4 8.9z" stroke-dasharray="160.53905765219145,36.57876964704782" stroke-dashoffset="197.117827"/></g><g fill="none" stroke="#eb4641" stroke-width="2" stroke-linecap="round" stroke-miterlimit="10"><path d="M6641.1 36.5h124.4s19.7 2.5 19.7 15.9 2.5 53.5 2.5 53.5-1.3 14-20.1 14-135-2.5-135-2.5-17.6-.4-20.5-13.4V58.5s-4.4-22 29-22z" stroke-dasharray="400.22662340082206,81.00100830479336" stroke-dashoffset="481.227632"/><path d="M6632.8 117.4l8.6 30.9s4.5 15.9 31.8 15.9h70.3c3.7 0 7.3-1.4 10-3.9 3.1-2.9 6.5-7.7 7.9-15.5 2.9-15.9.8-23 9-24.9m-103.1-17.2s82.4 5.1 88.5-31.8c0 0 9.2-26.7-62.1-26.7s-63.6 44.2-31.8 49.6c31.8 5.4 5.4 8.9 5.4 8.9z" stroke-dasharray="163.9386378385311,33.17918946070816" stroke-dashoffset="197.117827"/></g><g fill="none" stroke="#eb433d" stroke-width="2" stroke-linecap="round" stroke-miterlimit="10"><path d="M6841.1 36.5h124.4s19.7 2.5 19.7 15.9 2.5 53.5 2.5 53.5-1.3 14-20.1 14-135-2.5-135-2.5-17.6-.4-20.5-13.4V58.5s-4.4-22 29-22z" stroke-dasharray="407.8972376529062,73.33039405270921" stroke-dashoffset="481.227632"/><path d="M6832.8 117.4l8.6 30.9s4.5 15.9 31.8 15.9h70.3c3.7 0 7.3-1.4 10-3.9 3.1-2.9 6.5-7.7 7.9-15.5 2.9-15.9.8-23 9-24.9m-103.1-17.2s82.4 5.1 88.5-31.8c0 0 9.2-26.7-62.1-26.7s-63.6 44.2-31.8 49.6c31.8 5.4 5.4 8.9 5.4 8.9z" stroke-dasharray="167.08063284422596,30.037194455013303" stroke-dashoffset="197.117827"/></g><g fill="none" stroke="#ea403a" stroke-width="2" stroke-linecap="round" stroke-miterlimit="10"><path d="M7041.1 36.5h124.4s19.7 2.5 19.7 15.9 2.5 53.5 2.5 53.5-1.3 14-20.1 14-135-2.5-135-2.5-17.6-.4-20.5-13.4V58.5s-4.4-22 29-22z" stroke-dasharray="414.98722935439014,66.24040235122526" stroke-dashoffset="481.227632"/><path d="M7032.8 117.4l8.6 30.9s4.5 15.9 31.8 15.9h70.3c3.7 0 7.3-1.4 10-3.9 3.1-2.9 6.5-7.7 7.9-15.5 2.9-15.9.8-23 9-24.9m-103.1-17.2s82.4 5.1 88.5-31.8c0 0 9.2-26.7-62.1-26.7s-63.6 44.2-31.8 49.6c31.8 5.4 5.4 8.9 5.4 8.9z" stroke-dasharray="169.98479642023003,27.133030879009226" stroke-dashoffset="197.117827"/></g><g fill="none" stroke="#ea3d36" stroke-width="2" stroke-linecap="round" stroke-miterlimit="10"><path d="M7241.1 36.5h124.4s19.7 2.5 19.7 15.9 2.5 53.5 2.5 53.5-1.3 14-20.1 14-135-2.5-135-2.5-17.6-.4-20.5-13.4V58.5s-4.4-22 29-22z" stroke-dasharray="421.5399625160948,59.687669189520584" stroke-dashoffset="481.227632"/><path d="M7232.8 117.4l8.6 30.9s4.5 15.9 31.8 15.9h70.3c3.7 0 7.3-1.4 10-3.9 3.1-2.9 6.5-7.7 7.9-15.5 2.9-15.9.8-23 9-24.9m-103.1-17.2s82.4 5.1 88.5-31.8c0 0 9.2-26.7-62.1-26.7s-63.6 44.2-31.8 49.6c31.8 5.4 5.4 8.9 5.4 8.9z" stroke-dasharray="172.66889109519468,24.44893620404456" stroke-dashoffset="197.117827"/></g><g fill="none" stroke="#ea3a34" stroke-width="2" stroke-linecap="round" stroke-miterlimit="10"><path d="M7441.1 36.5h124.4s19.7 2.5 19.7 15.9 2.5 53.5 2.5 53.5-1.3 14-20.1 14-135-2.5-135-2.5-17.6-.4-20.5-13.4V58.5s-4.4-22 29-22z" stroke-dasharray="427.59444246668636,53.63318923892904" stroke-dashoffset="481.227632"/><path d="M7432.8 117.4l8.6 30.9s4.5 15.9 31.8 15.9h70.3c3.7 0 7.3-1.4 10-3.9 3.1-2.9 6.5-7.7 7.9-15.5 2.9-15.9.8-23 9-24.9m-103.1-17.2s82.4 5.1 88.5-31.8c0 0 9.2-26.7-62.1-26.7s-63.6 44.2-31.8 49.6c31.8 5.4 5.4 8.9 5.4 8.9z" stroke-dasharray="175.1488940182552,21.968933280984054" stroke-dashoffset="197.117827"/></g><g fill="none" stroke="#e93731" stroke-width="2" stroke-linecap="round" stroke-miterlimit="10"><path d="M7641.1 36.5h124.4s19.7 2.5 19.7 15.9 2.5 53.5 2.5 53.5-1.3 14-20.1 14-135-2.5-135-2.5-17.6-.4-20.5-13.4V58.5s-4.4-22 29-22z" stroke-dasharray="433.18579176177474,48.041839943840685" stroke-dashoffset="481.227632"/><path d="M7632.8 117.4l8.6 30.9s4.5 15.9 31.8 15.9h70.3c3.7 0 7.3-1.4 10-3.9 3.1-2.9 6.5-7.7 7.9-15.5 2.9-15.9.8-23 9-24.9m-103.1-17.2s82.4 5.1 88.5-31.8c0 0 9.2-26.7-62.1-26.7s-63.6 44.2-31.8 49.6c31.8 5.4 5.4 8.9 5.4 8.9z" stroke-dasharray="177.43919189830956,19.6786354009297" stroke-dashoffset="197.117827"/></g><g fill="none" stroke="#e9352e" stroke-width="2" stroke-linecap="round" stroke-miterlimit="10"><path d="M7841.1 36.5h124.4s19.7 2.5 19.7 15.9 2.5 53.5 2.5 53.5-1.3 14-20.1 14-135-2.5-135-2.5-17.6-.4-20.5-13.4V58.5s-4.4-22 29-22z" stroke-dasharray="438.34568663520065,42.88194507041473" stroke-dashoffset="481.227632"/><path d="M7832.8 117.4l8.6 30.9s4.5 15.9 31.8 15.9h70.3c3.7 0 7.3-1.4 10-3.9 3.1-2.9 6.5-7.7 7.9-15.5 2.9-15.9.8-23 9-24.9m-103.1-17.2s82.4 5.1 88.5-31.8c0 0 9.2-26.7-62.1-26.7s-63.6 44.2-31.8 49.6c31.8 5.4 5.4 8.9 5.4 8.9z" stroke-dasharray="179.55275978080473,17.56506751843452" stroke-dashoffset="197.117827"/></g><g fill="none" stroke="#e9332c" stroke-width="2" stroke-linecap="round" stroke-miterlimit="10"><path d="M8041.1 36.5h124.4s19.7 2.5 19.7 15.9 2.5 53.5 2.5 53.5-1.3 14-20.1 14-135-2.5-135-2.5-17.6-.4-20.5-13.4V58.5s-4.4-22 29-22z" stroke-dasharray="443.1027495915895,38.124882114025944" stroke-dashoffset="481.227632"/><path d="M8032.8 117.4l8.6 30.9s4.5 15.9 31.8 15.9h70.3c3.7 0 7.3-1.4 10-3.9 3.1-2.9 6.5-7.7 7.9-15.5 2.9-15.9.8-23 9-24.9m-103.1-17.2s82.4 5.1 88.5-31.8c0 0 9.2-26.7-62.1-26.7s-63.6 44.2-31.8 49.6c31.8 5.4 5.4 8.9 5.4 8.9z" stroke-dasharray="181.50132185934862,15.616505439890616" stroke-dashoffset="197.117827"/></g><g fill="none" stroke="#e9312a" stroke-width="2" stroke-linecap="round" stroke-miterlimit="10"><path d="M8241.1 36.5h124.4s19.7 2.5 19.7 15.9 2.5 53.5 2.5 53.5-1.3 14-20.1 14-135-2.5-135-2.5-17.6-.4-20.5-13.4V58.5s-4.4-22 29-22z" stroke-dasharray="447.4828983520275,33.74473335358788" stroke-dashoffset="481.227632"/><path d="M8232.8 117.4l8.6 30.9s4.5 15.9 31.8 15.9h70.3c3.7 0 7.3-1.4 10-3.9 3.1-2.9 6.5-7.7 7.9-15.5 2.9-15.9.8-23 9-24.9m-103.1-17.2s82.4 5.1 88.5-31.8c0 0 9.2-26.7-62.1-26.7s-63.6 44.2-31.8 49.6c31.8 5.4 5.4 8.9 5.4 8.9z" stroke-dasharray="183.2954944089274,13.822332890311868" stroke-dashoffset="197.117827"/></g><g fill="none" stroke="#e82f28" stroke-width="2" stroke-linecap="round" stroke-miterlimit="10"><path d="M8441.1 36.5h124.4s19.7 2.5 19.7 15.9 2.5 53.5 2.5 53.5-1.3 14-20.1 14-135-2.5-135-2.5-17.6-.4-20.5-13.4V58.5s-4.4-22 29-22z" stroke-dasharray="451.509653732946,29.717977972669427" stroke-dashoffset="481.227632"/><path d="M8432.8 117.4l8.6 30.9s4.5 15.9 31.8 15.9h70.3c3.7 0 7.3-1.4 10-3.9 3.1-2.9 6.5-7.7 7.9-15.5 2.9-15.9.8-23 9-24.9m-103.1-17.2s82.4 5.1 88.5-31.8c0 0 9.2-26.7-62.1-26.7s-63.6 44.2-31.8 49.6c31.8 5.4 5.4 8.9 5.4 8.9z" stroke-dasharray="184.94491189756764,12.172915401671629" stroke-dashoffset="197.117827"/></g><g fill="none" stroke="#e82d26" stroke-width="2" stroke-linecap="round" stroke-miterlimit="10"><path d="M8641.1 36.5h124.4s19.7 2.5 19.7 15.9 2.5 53.5 2.5 53.5-1.3 14-20.1 14-135-2.5-135-2.5-17.6-.4-20.5-13.4V58.5s-4.4-22 29-22z" stroke-dasharray="455.2044101096165,26.0232215959989" stroke-dashoffset="481.227632"/><path d="M8632.8 117.4l8.6 30.9s4.5 15.9 31.8 15.9h70.3c3.7 0 7.3-1.4 10-3.9 3.1-2.9 6.5-7.7 7.9-15.5 2.9-15.9.8-23 9-24.9m-103.1-17.2s82.4 5.1 88.5-31.8c0 0 9.2-26.7-62.1-26.7s-63.6 44.2-31.8 49.6c31.8 5.4 5.4 8.9 5.4 8.9z" stroke-dasharray="186.45833777211266,10.659489527126603" stroke-dashoffset="197.117827"/></g><g fill="none" stroke="#e82b25" stroke-width="2" stroke-linecap="round" stroke-miterlimit="10"><path d="M8841.1 36.5h124.4s19.7 2.5 19.7 15.9 2.5 53.5 2.5 53.5-1.3 14-20.1 14-135-2.5-135-2.5-17.6-.4-20.5-13.4V58.5s-4.4-22 29-22z" stroke-dasharray="458.5866724549379,22.640959250677515" stroke-dashoffset="481.227632"/><path d="M8832.8 117.4l8.6 30.9s4.5 15.9 31.8 15.9h70.3c3.7 0 7.3-1.4 10-3.9 3.1-2.9 6.5-7.7 7.9-15.5 2.9-15.9.8-23 9-24.9m-103.1-17.2s82.4 5.1 88.5-31.8c0 0 9.2-26.7-62.1-26.7s-63.6 44.2-31.8 49.6c31.8 5.4 5.4 8.9 5.4 8.9z" stroke-dasharray="187.84376155275214,9.274065746487114" stroke-dashoffset="197.117827"/></g><g fill="none" stroke="#e82a23" stroke-width="2" stroke-linecap="round" stroke-miterlimit="10"><path d="M9041.1 36.5h124.4s19.7 2.5 19.7 15.9 2.5 53.5 2.5 53.5-1.3 14-20.1 14-135-2.5-135-2.5-17.6-.4-20.5-13.4V58.5s-4.4-22 29-22z" stroke-dasharray="461.67426388586625,19.55336781974916" stroke-dashoffset="481.227632"/><path d="M9032.8 117.4l8.6 30.9s4.5 15.9 31.8 15.9h70.3c3.7 0 7.3-1.4 10-3.9 3.1-2.9 6.5-7.7 7.9-15.5 2.9-15.9.8-23 9-24.9m-103.1-17.2s82.4 5.1 88.5-31.8c0 0 9.2-26.7-62.1-26.7s-63.6 44.2-31.8 49.6c31.8 5.4 5.4 8.9 5.4 8.9z" stroke-dasharray="189.10848384705434,8.009343452184899" stroke-dashoffset="197.117827"/></g><g fill="none" stroke="#e82922" stroke-width="2" stroke-linecap="round" stroke-miterlimit="10"><path d="M9241.1 36.5h124.4s19.7 2.5 19.7 15.9 2.5 53.5 2.5 53.5-1.3 14-20.1 14-135-2.5-135-2.5-17.6-.4-20.5-13.4V58.5s-4.4-22 29-22z" stroke-dasharray="464.4835073898914,16.74412431572403" stroke-dashoffset="481.227632"/><path d="M9232.8 117.4l8.6 30.9s4.5 15.9 31.8 15.9h70.3c3.7 0 7.3-1.4 10-3.9 3.1-2.9 6.5-7.7 7.9-15.5 2.9-15.9.8-23 9-24.9m-103.1-17.2s82.4 5.1 88.5-31.8c0 0 9.2-26.7-62.1-26.7s-63.6 44.2-31.8 49.6c31.8 5.4 5.4 8.9 5.4 8.9z" stroke-dasharray="190.25919078777028,6.8586365114689825" stroke-dashoffset="197.117827"/></g><g fill="none" stroke="#e82821" stroke-width="2" stroke-linecap="round" stroke-miterlimit="10"><path d="M9441.1 36.5h124.4s19.7 2.5 19.7 15.9 2.5 53.5 2.5 53.5-1.3 14-20.1 14-135-2.5-135-2.5-17.6-.4-20.5-13.4V58.5s-4.4-22 29-22z" stroke-dasharray="467.02938505553766,14.198246650077762" stroke-dashoffset="481.227632"/><path d="M9432.8 117.4l8.6 30.9s4.5 15.9 31.8 15.9h70.3c3.7 0 7.3-1.4 10-3.9 3.1-2.9 6.5-7.7 7.9-15.5 2.9-15.9.8-23 9-24.9m-103.1-17.2s82.4 5.1 88.5-31.8c0 0 9.2-26.7-62.1-26.7s-63.6 44.2-31.8 49.6c31.8 5.4 5.4 8.9 5.4 8.9z" stroke-dasharray="191.3020192559594,5.815808043279848" stroke-dashoffset="197.117827"/></g><g fill="none" stroke="#e82620" stroke-width="2" stroke-linecap="round" stroke-miterlimit="10"><path d="M9641.1 36.5h124.4s19.7 2.5 19.7 15.9 2.5 53.5 2.5 53.5-1.3 14-20.1 14-135-2.5-135-2.5-17.6-.4-20.5-13.4V58.5s-4.4-22 29-22z" stroke-dasharray="469.32567775760896,11.901953948006478" stroke-dashoffset="481.227632"/><path d="M9632.8 117.4l8.6 30.9s4.5 15.9 31.8 15.9h70.3c3.7 0 7.3-1.4 10-3.9 3.1-2.9 6.5-7.7 7.9-15.5 2.9-15.9.8-23 9-24.9m-103.1-17.2s82.4 5.1 88.5-31.8c0 0 9.2-26.7-62.1-26.7s-63.6 44.2-31.8 49.6c31.8 5.4 5.4 8.9 5.4 8.9z" stroke-dasharray="192.24261409809492,4.875213201144334" stroke-dashoffset="197.117827"/></g><g fill="none" stroke="#e7261f" stroke-width="2" stroke-linecap="round" stroke-miterlimit="10"><path d="M9841.1 36.5h124.4s19.7 2.5 19.7 15.9 2.5 53.5 2.5 53.5-1.3 14-20.1 14-135-2.5-135-2.5-17.6-.4-20.5-13.4V58.5s-4.4-22 29-22z" stroke-dasharray="471.3850878841912,9.84254382142419" stroke-dashoffset="481.227632"/><path d="M9832.8 117.4l8.6 30.9s4.5 15.9 31.8 15.9h70.3c3.7 0 7.3-1.4 10-3.9 3.1-2.9 6.5-7.7 7.9-15.5 2.9-15.9.8-23 9-24.9m-103.1-17.2s82.4 5.1 88.5-31.8c0 0 9.2-26.7-62.1-26.7s-63.6 44.2-31.8 49.6c31.8 5.4 5.4 8.9 5.4 8.9z" stroke-dasharray="193.0861783968264,4.031648902412867" stroke-dashoffset="197.117827"/></g><g fill="none" stroke="#e7251e" stroke-width="2" stroke-linecap="round" stroke-miterlimit="10"><path d="M10041.1 36.5h124.4s19.7 2.5 19.7 15.9 2.5 53.5 2.5 53.5-1.3 14-20.1 14-135-2.5-135-2.5-17.6-.4-20.5-13.4V58.5s-4.4-22 29-22z" stroke-dasharray="473.21934735540805,8.008284350207347" stroke-dashoffset="481.227632"/><path d="M10032.8 117.4l8.6 30.9s4.5 15.9 31.8 15.9h70.3c3.7 0 7.3-1.4 10-3.9 3.1-2.9 6.5-7.7 7.9-15.5 2.9-15.9.8-23 9-24.9m-103.1-17.2s82.4 5.1 88.5-31.8c0 0 9.2-26.7-62.1-26.7s-63.6 44.2-31.8 49.6c31.8 5.4 5.4 8.9 5.4 8.9z" stroke-dasharray="193.8375177170309,3.2803095822083734" stroke-dashoffset="197.117827"/></g><g fill="none" stroke="#e7241d" stroke-width="2" stroke-linecap="round" stroke-miterlimit="10"><path d="M10241.1 36.5h124.4s19.7 2.5 19.7 15.9 2.5 53.5 2.5 53.5-1.3 14-20.1 14-135-2.5-135-2.5-17.6-.4-20.5-13.4V58.5s-4.4-22 29-22z" stroke-dasharray="474.83931288085165,6.388318824763772" stroke-dashoffset="481.227632"/><path d="M10232.8 117.4l8.6 30.9s4.5 15.9 31.8 15.9h70.3c3.7 0 7.3-1.4 10-3.9 3.1-2.9 6.5-7.7 7.9-15.5 2.9-15.9.8-23 9-24.9m-103.1-17.2s82.4 5.1 88.5-31.8c0 0 9.2-26.7-62.1-26.7s-63.6 44.2-31.8 49.6c31.8 5.4 5.4 8.9 5.4 8.9z" stroke-dasharray="194.50107912464026,2.6167481745989902" stroke-dashoffset="197.117827"/></g><g fill="none" stroke="#e7231c" stroke-width="2" stroke-linecap="round" stroke-miterlimit="10"><path d="M10441.1 36.5h124.4s19.7 2.5 19.7 15.9 2.5 53.5 2.5 53.5-1.3 14-20.1 14-135-2.5-135-2.5-17.6-.4-20.5-13.4V58.5s-4.4-22 29-22z" stroke-dasharray="476.255050135151,4.972581570464381" stroke-dashoffset="481.227632"/><path d="M10432.8 117.4l8.6 30.9s4.5 15.9 31.8 15.9h70.3c3.7 0 7.3-1.4 10-3.9 3.1-2.9 6.5-7.7 7.9-15.5 2.9-15.9.8-23 9-24.9m-103.1-17.2s82.4 5.1 88.5-31.8c0 0 9.2-26.7-62.1-26.7s-63.6 44.2-31.8 49.6c31.8 5.4 5.4 8.9 5.4 8.9z" stroke-dasharray="195.08098566617653,2.0368416330627346" stroke-dashoffset="197.117827"/></g><g fill="none" stroke="#e7231c" stroke-width="2" stroke-linecap="round" stroke-miterlimit="10"><path d="M10641.1 36.5h124.4s19.7 2.5 19.7 15.9 2.5 53.5 2.5 53.5-1.3 14-20.1 14-135-2.5-135-2.5-17.6-.4-20.5-13.4V58.5s-4.4-22 29-22z" stroke-dasharray="477.47590829798423,3.751723407631156" stroke-dashoffset="481.227632"/><path d="M10632.8 117.4l8.6 30.9s4.5 15.9 31.8 15.9h70.3c3.7 0 7.3-1.4 10-3.9 3.1-2.9 6.5-7.7 7.9-15.5 2.9-15.9.8-23 9-24.9m-103.1-17.2s82.4 5.1 88.5-31.8c0 0 9.2-26.7-62.1-26.7s-63.6 44.2-31.8 49.6c31.8 5.4 5.4 8.9 5.4 8.9z" stroke-dasharray="195.5810669014233,1.5367603978159554" stroke-dashoffset="197.117827"/></g><g fill="none" stroke="#e7221b" stroke-width="2" stroke-linecap="round" stroke-miterlimit="10"><path d="M10841.1 36.5h124.4s19.7 2.5 19.7 15.9 2.5 53.5 2.5 53.5-1.3 14-20.1 14-135-2.5-135-2.5-17.6-.4-20.5-13.4V58.5s-4.4-22 29-22z" stroke-dasharray="478.51058620322124,2.717045502394187" stroke-dashoffset="481.227632"/><path d="M10832.8 117.4l8.6 30.9s4.5 15.9 31.8 15.9h70.3c3.7 0 7.3-1.4 10-3.9 3.1-2.9 6.5-7.7 7.9-15.5 2.9-15.9.8-23 9-24.9m-103.1-17.2s82.4 5.1 88.5-31.8c0 0 9.2-26.7-62.1-26.7s-63.6 44.2-31.8 49.6c31.8 5.4 5.4 8.9 5.4 8.9z" stroke-dasharray="196.0048859990756,1.11294130016363" stroke-dashoffset="197.117827"/></g><g fill="none" stroke="#e7221b" stroke-width="2" stroke-linecap="round" stroke-miterlimit="10"><path d="M11041.1 36.5h124.4s19.7 2.5 19.7 15.9 2.5 53.5 2.5 53.5-1.3 14-20.1 14-135-2.5-135-2.5-17.6-.4-20.5-13.4V58.5s-4.4-22 29-22z" stroke-dasharray="479.3671911684522,1.8604405371631918" stroke-dashoffset="481.227632"/><path d="M11032.8 117.4l8.6 30.9s4.5 15.9 31.8 15.9h70.3c3.7 0 7.3-1.4 10-3.9 3.1-2.9 6.5-7.7 7.9-15.5 2.9-15.9.8-23 9-24.9m-103.1-17.2s82.4 5.1 88.5-31.8c0 0 9.2-26.7-62.1-26.7s-63.6 44.2-31.8 49.6c31.8 5.4 5.4 8.9 5.4 8.9z" stroke-dasharray="196.3557638341692,0.7620634650700558" stroke-dashoffset="197.117827"/></g><g fill="none" stroke="#e7221b" stroke-width="2" stroke-linecap="round" stroke-miterlimit="10"><path d="M11241.1 36.5h124.4s19.7 2.5 19.7 15.9 2.5 53.5 2.5 53.5-1.3 14-20.1 14-135-2.5-135-2.5-17.6-.4-20.5-13.4V58.5s-4.4-22 29-22z" stroke-dasharray="480.0532914274574,1.1743402781580228" stroke-dashoffset="481.227632"/><path d="M11232.8 117.4l8.6 30.9s4.5 15.9 31.8 15.9h70.3c3.7 0 7.3-1.4 10-3.9 3.1-2.9 6.5-7.7 7.9-15.5 2.9-15.9.8-23 9-24.9m-103.1-17.2s82.4 5.1 88.5-31.8c0 0 9.2-26.7-62.1-26.7s-63.6 44.2-31.8 49.6c31.8 5.4 5.4 8.9 5.4 8.9z" stroke-dasharray="196.63680046518144,0.48102683405781776" stroke-dashoffset="197.117827"/></g><g fill="none" stroke="#e7211a" stroke-width="2" stroke-linecap="round" stroke-miterlimit="10"><path d="M11441.1 36.5h124.4s19.7 2.5 19.7 15.9 2.5 53.5 2.5 53.5-1.3 14-20.1 14-135-2.5-135-2.5-17.6-.4-20.5-13.4V58.5s-4.4-22 29-22z" stroke-dasharray="480.5759629609252,0.6516687446902091" stroke-dashoffset="481.227632"/><path d="M11432.8 117.4l8.6 30.9s4.5 15.9 31.8 15.9h70.3c3.7 0 7.3-1.4 10-3.9 3.1-2.9 6.5-7.7 7.9-15.5 2.9-15.9.8-23 9-24.9m-103.1-17.2s82.4 5.1 88.5-31.8c0 0 9.2-26.7-62.1-26.7s-63.6 44.2-31.8 49.6c31.8 5.4 5.4 8.9 5.4 8.9z" stroke-dasharray="196.8508943165739,0.26693298266533794" stroke-dashoffset="197.117827"/></g><g fill="none" stroke="#e7211a" stroke-width="2" stroke-linecap="round" stroke-miterlimit="10"><path d="M11641.1 36.5h124.4s19.7 2.5 19.7 15.9 2.5 53.5 2.5 53.5-1.3 14-20.1 14-135-2.5-135-2.5-17.6-.4-20.5-13.4V58.5s-4.4-22 29-22z" stroke-dasharray="480.9418314119336,0.2858002936818279" stroke-dashoffset="481.227632"/><path d="M11632.8 117.4l8.6 30.9s4.5 15.9 31.8 15.9h70.3c3.7 0 7.3-1.4 10-3.9 3.1-2.9 6.5-7.7 7.9-15.5 2.9-15.9.8-23 9-24.9m-103.1-17.2s82.4 5.1 88.5-31.8c0 0 9.2-26.7-62.1-26.7s-63.6 44.2-31.8 49.6c31.8 5.4 5.4 8.9 5.4 8.9z" stroke-dasharray="197.00075934798224,0.11706795125702468" stroke-dashoffset="197.117827"/></g><g fill="none" stroke="#e7211a" stroke-width="2" stroke-linecap="round" stroke-miterlimit="10"><path d="M11841.1 36.5h124.4s19.7 2.5 19.7 15.9 2.5 53.5 2.5 53.5-1.3 14-20.1 14-135-2.5-135-2.5-17.6-.4-20.5-13.4V58.5s-4.4-22 29-22z" stroke-dasharray="481.15710967970455,0.07052202591088873" stroke-dashoffset="481.227632"/><path d="M11832.8 117.4l8.6 30.9s4.5 15.9 31.8 15.9h70.3c3.7 0 7.3-1.4 10-3.9 3.1-2.9 6.5-7.7 7.9-15.5 2.9-15.9.8-23 9-24.9m-103.1-17.2s82.4 5.1 88.5-31.8c0 0 9.2-26.7-62.1-26.7s-63.6 44.2-31.8 49.6c31.8 5.4 5.4 8.9 5.4 8.9z" stroke-dasharray="197.08894045316387,0.028886846075370173" stroke-dashoffset="197.117827"/></g><g fill="none" stroke="#e7211a" stroke-width="2" stroke-linecap="round" stroke-miterlimit="10"><path d="M12041.1 36.5h124.4s19.7 2.5 19.7 15.9 2.5 53.5 2.5 53.5-1.3 14-20.1 14-135-2.5-135-2.5-17.6-.4-20.5-13.4V58.5s-4.4-22 29-22z"/><path d="M12032.8 117.4l8.6 30.9s4.5 15.9 31.8 15.9h70.3c3.7 0 7.3-1.4 10-3.9 3.1-2.9 6.5-7.7 7.9-15.5 2.9-15.9.8-23 9-24.9m-103.1-17.2s82.4 5.1 88.5-31.8c0 0 9.2-26.7-62.1-26.7s-63.6 44.2-31.8 49.6c31.8 5.4 5.4 8.9 5.4 8.9z"/></g></svg>