<?xml version="1.0" encoding="utf-8"?>
<!-- Generator: Adobe Illustrator 23.0.0, SVG Export Plug-In . SVG Version: 6.00 Build 0)  -->
<svg version="1.1" id="Layer_1" xmlns="http://www.w3.org/2000/svg" xmlns:xlink="http://www.w3.org/1999/xlink" x="0px" y="0px"
	 viewBox="0 0 80 80" style="enable-background:new 0 0 80 80;" xml:space="preserve">
<style type="text/css">
	.st0{fill:#000000;}
	.st1{fill:#00fff3;}
</style>
<g>
	<path class="st0" d="M56.61,24.38c4.61,4.61,7.15,10.74,7.15,17.26c0,6.52-2.54,12.65-7.15,17.26c-4.61,4.61-10.74,7.15-17.26,7.15
		c-6.52,0-12.65-2.54-17.26-7.15c-4.61-4.61-7.15-10.74-7.15-17.26c0-6.52,2.54-12.65,7.15-17.26c2.63-2.63,5.76-4.59,9.18-5.78
		c1.92-2.34,4.83-3.83,8.09-3.83c3.26,0,6.17,1.49,8.09,3.83C50.85,19.79,53.98,21.74,56.61,24.38z"/>
	<g>
		<path class="st1" d="M48.55,20.55L48.55,20.55c8.16,3.54,13.84,11.66,13.84,21.12c0,12.7-10.33,23.01-23.04,23.01
			c-12.7,0-23.04-10.3-23.04-23.01c0-9.46,5.69-17.58,13.84-21.12c-0.75,1.33-1.17,3.05-1.17,4.74c0,5.95,4.55,10.37,10.37,10.37
			c5.85,0,10.37-4.42,10.37-10.37C49.72,23.6,49.29,21.98,48.55,20.55z M39.35,16.16L39.35,16.16c4.91,0,8.81,3.8,8.77,8.77
			c0,0.07-0.13,0.07-0.13,0c-0.36-2.37-2.01-4.35-4.39-4.35c-2.47,0-4.16,1.92-4.26,4.26c-0.1,2.7-2.11,4.61-4.65,4.45
			c-2.44-0.16-4.09-1.95-4.09-4.65C30.61,20,34.51,16.16,39.35,16.16z M23.46,42.16v-2.6h-2.21v2.6c0,2.05-0.88,4.09-2.63,5.39
			l0.68,0.62c1.17-0.52,2.4-1.79,3.02-3.12c0.71,1.36,1.75,2.44,2.99,3.02l0.71-0.71C24.21,46.28,23.46,44.17,23.46,42.16z
			 M32.17,41.09L32.17,41.09c0-0.52,0.84-1.04,2.34-1.04c1.53,0,2.34,0.52,2.34,1.04c0,0.55-0.81,1.07-2.34,1.07
			C33.01,42.16,32.17,41.64,32.17,41.09z M39.06,41.09L39.06,41.09c0-1.17-1.69-1.95-4.55-1.95c-2.86,0-4.55,0.78-4.55,1.95
			c0,1.27,1.69,1.98,4.55,1.98C37.37,43.07,39.06,42.35,39.06,41.09z M44.74,44.63L44.74,44.63c2.63,0,4.52-1.07,4.52-2.7
			c0-1.59-1.88-2.66-4.52-2.66c-2.6,0-4.52,1.07-4.52,2.66C40.23,43.56,42.14,44.63,44.74,44.63z M44.74,43.69L44.74,43.69
			c-1.4,0-2.31-0.68-2.31-1.75c0-1.04,0.91-1.72,2.31-1.72s2.31,0.68,2.31,1.72C47.05,43,46.14,43.69,44.74,43.69z M26.55,43.62
			v4.94h2.21V39.3h-2.21v3.25H24.7v1.07H26.55z M30.77,48.56h8.09v-0.91h-6.43v-0.49h6.37v-2.21h-3.12v-0.58h3.64v-0.91H29.7v0.91
			h3.67v0.58h-3.15v0.88h6.37v0.49h-6.37v1.69C30.22,48.33,30.45,48.56,30.77,48.56z M45.88,46.25h3.64v-0.94h-9.55v0.94h3.61v2.31
			h2.31V46.25z M58.29,46.25h1.49v-0.94h-9.55v0.94h1.46v2.31h2.27v-2.31h2.05v2.31h2.27V46.25z M55.01,44.63L55.01,44.63
			c2.63,0,4.52-1.07,4.52-2.7c0-1.59-1.88-2.66-4.52-2.66c-2.6,0-4.52,1.07-4.52,2.66C50.49,43.56,52.41,44.63,55.01,44.63z
			 M55.01,43.69c-1.4,0-2.31-0.68-2.31-1.75c0-1.04,0.91-1.72,2.31-1.72s2.31,0.68,2.31,1.72C57.32,43,56.41,43.69,55.01,43.69z"/>
	</g>
</g>
</svg>
